<?xml version="1.0" encoding="UTF-8" standalone="no"?>
<!-- Created with Inkscape (http://www.inkscape.org/) -->
<svg
   xmlns:ns0="http://www.iki.fi/pav/software/textext/"
   xmlns:dc="http://purl.org/dc/elements/1.1/"
   xmlns:cc="http://creativecommons.org/ns#"
   xmlns:rdf="http://www.w3.org/1999/02/22-rdf-syntax-ns#"
   xmlns:svg="http://www.w3.org/2000/svg"
   xmlns="http://www.w3.org/2000/svg"
   xmlns:sodipodi="http://sodipodi.sourceforge.net/DTD/sodipodi-0.dtd"
   xmlns:inkscape="http://www.inkscape.org/namespaces/inkscape"
   width="744.09448819"
   height="1052.3622047"
   id="svg2"
   sodipodi:version="0.32"
   inkscape:version="0.46"
   sodipodi:docbase="/home/lenka/latex/lenka-thesis/fig"
   sodipodi:docname="refdomain1.svg"
   inkscape:output_extension="org.inkscape.output.svg.inkscape">
  <sodipodi:namedview
     id="base"
     pagecolor="#ffffff"
     bordercolor="#666666"
     borderopacity="1.0"
     gridtolerance="10000"
     guidetolerance="10"
     objecttolerance="10"
     inkscape:pageopacity="0.0"
     inkscape:pageshadow="2"
     inkscape:zoom="2.8"
     inkscape:cx="131.12803"
     inkscape:cy="903.81771"
     inkscape:document-units="px"
     inkscape:current-layer="layer1"
     showgrid="false"
     inkscape:window-width="1920"
     inkscape:window-height="1125"
     inkscape:window-x="0"
     inkscape:window-y="25">
    <inkscape:grid
       type="xygrid"
       id="grid6091" />
  </sodipodi:namedview>
  <defs
     id="defs4"><inkscape:perspective
   id="perspective115"
   inkscape:persp3d-origin="377.69124 : 125.89905 : 1"
   inkscape:vp_z="678.30991 : 652.72131 : 1"
   inkscape:vp_y="6.123234e-14 : 1000 : 0"
   inkscape:vp_x="-54.355998 : 554.14989 : 1"
   sodipodi:type="inkscape:persp3d" />
<marker
   style="overflow:visible;"
   id="Arrow1Mend"
   refX="0.0"
   refY="0.0"
   orient="auto"
   inkscape:stockid="Arrow1Mend">
  <path
     transform="scale(0.4) rotate(180) translate(10,0)"
     style="fill-rule:evenodd;stroke:#000000;stroke-width:1.0pt;marker-start:none;"
     d="M 0.0,0.0 L 5.0,-5.0 L -12.5,0.0 L 5.0,5.0 L 0.0,0.0 z "
     id="path3379" />
</marker>
<marker
   style="overflow:visible;"
   id="Arrow1Lend"
   refX="0.0"
   refY="0.0"
   orient="auto"
   inkscape:stockid="Arrow1Lend">
  <path
     transform="scale(0.8) rotate(180) translate(12.5,0)"
     style="fill-rule:evenodd;stroke:#000000;stroke-width:1.0pt;marker-start:none;"
     d="M 0.0,0.0 L 5.0,-5.0 L -12.5,0.0 L 5.0,5.0 L 0.0,0.0 z "
     id="path3385" />
</marker>









</defs>
  <metadata
     id="metadata7">
    <rdf:RDF>
      <cc:Work
         rdf:about="">
        <dc:format>image/svg+xml</dc:format>
        <dc:type
           rdf:resource="http://purl.org/dc/dcmitype/StillImage" />
      </cc:Work>
    </rdf:RDF>
  </metadata>
  <g
     id="layer1"
     inkscape:groupmode="layer"
     inkscape:label="Layer 1">
    <path
       id="path3137"
       d="M 192.59763,268.91366 L 192.70533,59.705739"
       style="fill:none;fill-rule:evenodd;stroke:#000000;stroke-width:0.5;stroke-linecap:butt;stroke-linejoin:miter;marker-start:none;marker-end:url(#Arrow1Lend);stroke-miterlimit:4;stroke-dasharray:none;stroke-opacity:1" />
    <path
       id="path3139"
       d="M 88.04751,164.3097 L 297.25546,164.3097"
       style="fill:none;fill-rule:evenodd;stroke:#000000;stroke-width:0.5;stroke-linecap:butt;stroke-linejoin:miter;marker-end:url(#Arrow1Lend);stroke-miterlimit:4;stroke-dasharray:none;stroke-opacity:1" />
    <rect
       y="94.796547"
       x="123.83255"
       height="138.33208"
       width="137.63786"
       id="rect3141"
       style="opacity:1;fill:none;fill-opacity:1;fill-rule:nonzero;stroke:#000000;stroke-width:1.5;stroke-miterlimit:4;stroke-dasharray:none;stroke-dashoffset:0;stroke-opacity:1" />
    <g
       style="font-style:normal;font-variant:normal;font-weight:normal;font-stretch:normal;letter-spacing:normal;word-spacing:normal;text-anchor:start;fill:none;fill-opacity:1;stroke:none;stroke-linecap:butt;stroke-linejoin:miter;stroke-miterlimit:10.43299961;stroke-dasharray:none;stroke-dashoffset:0;stroke-opacity:1"
       id="content"
       transform="matrix(2,0,0,-2,-277.71428,1569.8571)"
       xml:space="preserve"
       stroke-miterlimit="10.433"
       fill-rule="even-odd"
       font-style="normal"
       font-variant="normal"
       font-weight="normal"
       font-stretch="normal"
       font-size-adjust="none"
       letter-spacing="normal"
       word-spacing="normal"
       ns0:text="$\\hat{K}$"
       ns0:preamble="/home/lenka/Documents/textext-preamble.tex">
<polygon
   style="fill:#000000;stroke:none;stroke-width:0"
   points="227.4,716.09 226.16,714.42 226.51,714.42 227.71,715.45 228.92,714.42 229.27,714.42 228.02,716.09 227.4,716.09 "
   id="polygon3546" />
<path
   style="fill:#000000;stroke:none;stroke-width:0"
   d="M 227.26,713.74 L 227.29,714.02 L 227.05,714.02 L 226.16,713.99 C 226,713.99 225.82,713.99 225.39,714 L 224.75,714.02 L 224.72,713.74 L 225.19,713.72 C 225.43,713.71 225.54,713.63 225.54,713.45 C 225.54,713.31 225.51,713.02 225.45,712.69 L 224.72,708.37 C 224.55,707.45 224.54,707.44 224.15,707.4 L 223.74,707.37 L 223.7,707.09 L 224.12,707.1 C 224.59,707.11 224.82,707.12 225.01,707.12 L 225.98,707.09 L 226.24,707.09 L 226.27,707.37 L 225.78,707.4 C 225.51,707.42 225.42,707.49 225.42,707.69 C 225.42,707.75 225.43,707.86 225.44,707.9 L 225.87,710.51 C 227.36,708.81 227.59,708.52 228.64,707.09 L 229.33,707.12 C 229.68,707.11 229.74,707.1 230,707.09 L 230,707.39 L 229.8,707.39 C 229.57,707.39 229.38,707.51 229.17,707.77 L 226.72,710.78 L 229.62,713.5 C 229.78,713.65 229.99,713.75 230.16,713.75 L 230.37,713.75 L 230.37,714.02 L 230.14,714.01 C 229.93,714 229.77,713.99 229.7,713.99 C 229.6,713.99 229.43,714 229.23,714.01 L 229.03,714.02 L 229.03,713.73 C 229.03,713.65 228.93,713.52 228.65,713.24 L 227.37,711.94 C 226.93,711.5 226.53,711.14 225.89,710.64 L 226.34,713.23 C 226.41,713.61 226.48,713.68 226.85,713.71 L 227.26,713.74 z"
   id="path3548" />
</g>    <g
       ns0:preamble="/home/lenka/Documents/textext-preamble.tex"
       ns0:text="1"
       word-spacing="normal"
       letter-spacing="normal"
       font-size-adjust="none"
       font-stretch="normal"
       font-weight="normal"
       font-variant="normal"
       font-style="normal"
       fill-rule="even-odd"
       stroke-miterlimit="10.433"
       xml:space="preserve"
       transform="matrix(1,0,0,-1,43.970715,866.7129)"
       id="g4615"
       style="font-style:normal;font-variant:normal;font-weight:normal;font-stretch:normal;letter-spacing:normal;word-spacing:normal;text-anchor:start;fill:none;fill-opacity:1;stroke:none;stroke-linecap:butt;stroke-linejoin:miter;stroke-miterlimit:10.43299961;stroke-dasharray:none;stroke-dashoffset:0;stroke-opacity:1">
<path
   id="path4617"
   d="M 224.1,712.65 L 224.2,712.65 L 225.49,713.23 C 225.49,713.24 225.51,713.24 225.51,713.24 C 225.57,713.24 225.59,713.15 225.59,712.91 L 225.59,708.08 C 225.59,707.56 225.49,707.45 224.95,707.42 L 224.39,707.39 L 224.39,707.09 C 225.92,707.12 225.92,707.12 226.03,707.12 C 226.16,707.12 226.38,707.12 226.72,707.11 C 226.84,707.1 227.19,707.1 227.6,707.09 L 227.6,707.39 L 227.08,707.42 C 226.53,707.45 226.43,707.56 226.43,708.08 L 226.43,713.99 L 226.29,714.04 C 225.64,713.7 224.94,713.4 224.03,713.08 L 224.1,712.65 z"
   style="fill:#000000;stroke:none;stroke-width:0" />
</g>    <g
       ns0:preamble="/home/lenka/Documents/textext-preamble.tex"
       ns0:text="1"
       word-spacing="normal"
       letter-spacing="normal"
       font-size-adjust="none"
       font-stretch="normal"
       font-weight="normal"
       font-variant="normal"
       font-style="normal"
       fill-rule="even-odd"
       stroke-miterlimit="10.433"
       xml:space="preserve"
       transform="matrix(1,0,0,-1,-41.386428,795.64147)"
       id="g4619"
       style="font-style:normal;font-variant:normal;font-weight:normal;font-stretch:normal;letter-spacing:normal;word-spacing:normal;text-anchor:start;fill:none;fill-opacity:1;stroke:none;stroke-linecap:butt;stroke-linejoin:miter;stroke-miterlimit:10.43299961;stroke-dasharray:none;stroke-dashoffset:0;stroke-opacity:1">
<path
   id="path4621"
   d="M 224.1,712.65 L 224.2,712.65 L 225.49,713.23 C 225.49,713.24 225.51,713.24 225.51,713.24 C 225.57,713.24 225.59,713.15 225.59,712.91 L 225.59,708.08 C 225.59,707.56 225.49,707.45 224.95,707.42 L 224.39,707.39 L 224.39,707.09 C 225.92,707.12 225.92,707.12 226.03,707.12 C 226.16,707.12 226.38,707.12 226.72,707.11 C 226.84,707.1 227.19,707.1 227.6,707.09 L 227.6,707.39 L 227.08,707.42 C 226.53,707.45 226.43,707.56 226.43,708.08 L 226.43,713.99 L 226.29,714.04 C 225.64,713.7 224.94,713.4 224.03,713.08 L 224.1,712.65 z"
   style="fill:#000000;stroke:none;stroke-width:0" />
</g>    <g
       ns0:preamble="/home/lenka/Documents/textext-preamble.tex"
       ns0:text="0"
       word-spacing="normal"
       letter-spacing="normal"
       font-size-adjust="none"
       font-stretch="normal"
       font-weight="normal"
       font-variant="normal"
       font-style="normal"
       fill-rule="even-odd"
       stroke-miterlimit="10.433"
       xml:space="preserve"
       transform="matrix(1,0,0,-1,-39.680714,881.6029)"
       id="g4623"
       style="font-style:normal;font-variant:normal;font-weight:normal;font-stretch:normal;letter-spacing:normal;word-spacing:normal;text-anchor:start;fill:none;fill-opacity:1;stroke:none;stroke-linecap:butt;stroke-linejoin:miter;stroke-miterlimit:10.43299961;stroke-dasharray:none;stroke-dashoffset:0;stroke-opacity:1">
<path
   id="path4625"
   d="M 226.05,713.99 L 225.91,713.98 L 225.77,713.97 L 225.64,713.95 L 225.51,713.93 L 225.38,713.9 L 225.26,713.86 L 225.15,713.81 L 225.04,713.76 L 224.93,713.7 L 224.83,713.63 L 224.73,713.55 L 224.64,713.47 L 224.55,713.38 L 224.46,713.29 L 224.38,713.18 L 224.31,713.07 L 224.24,712.96 L 224.17,712.83 L 224.11,712.7 L 224.05,712.56 L 224,712.41 L 223.95,712.26 L 223.91,712.1 L 223.87,711.94 L 223.83,711.76 L 223.8,711.58 L 223.78,711.39 L 223.76,711.2 L 223.74,711 L 223.73,710.79 L 223.72,710.57 L 223.72,710.35 C 223.72,709.18 223.93,708.18 224.28,707.69 C 224.63,707.2 225.19,706.92 225.8,706.92 L 225.93,707.27 C 224.97,707.27 224.56,708.28 224.56,710.71 C 224.56,712.81 224.93,713.64 225.87,713.64 L 225.87,713.64 C 226.84,713.64 227.23,712.66 227.23,710.27 C 227.23,708.15 226.85,707.27 225.93,707.27 L 225.8,706.92 C 227.31,706.92 228.07,708.22 228.07,710.77 C 228.07,712.95 227.42,713.99 226.05,713.99 z"
   style="fill:#000000;stroke:none;stroke-width:0" />
</g>    <g
       style="font-style:normal;font-variant:normal;font-weight:normal;font-stretch:normal;letter-spacing:normal;word-spacing:normal;text-anchor:start;fill:none;fill-opacity:1;stroke:none;stroke-linecap:butt;stroke-linejoin:miter;stroke-miterlimit:10.43299961;stroke-dasharray:none;stroke-dashoffset:0;stroke-opacity:1"
       id="g4627"
       transform="matrix(1,0,0,-1,-111.04072,882.42719)"
       xml:space="preserve"
       stroke-miterlimit="10.433"
       fill-rule="even-odd"
       font-style="normal"
       font-variant="normal"
       font-weight="normal"
       font-stretch="normal"
       font-size-adjust="none"
       letter-spacing="normal"
       word-spacing="normal"
       ns0:text="-1"
       ns0:preamble="/home/lenka/Documents/textext-preamble.tex">
<polygon
   style="fill:#000000;stroke:none;stroke-width:0"
   points="226.24,709.26 226.54,709.93 226.49,709.98 223.87,709.98 223.6,709.31 223.65,709.26 226.24,709.26 "
   id="polygon4629" />
<path
   style="fill:#000000;stroke:none;stroke-width:0"
   d="M 227.41,712.65 L 227.51,712.65 L 228.8,713.23 C 228.81,713.24 228.82,713.24 228.83,713.24 C 228.89,713.24 228.91,713.15 228.91,712.91 L 228.91,708.08 C 228.91,707.56 228.8,707.45 228.26,707.42 L 227.7,707.39 L 227.7,707.09 C 229.24,707.12 229.24,707.12 229.35,707.12 C 229.48,707.12 229.7,707.12 230.04,707.11 C 230.15,707.1 230.5,707.1 230.91,707.09 L 230.91,707.39 L 230.39,707.42 C 229.85,707.45 229.75,707.56 229.75,708.08 L 229.75,713.99 L 229.61,714.04 C 228.96,713.7 228.25,713.4 227.35,713.08 L 227.41,712.65 z"
   id="path4631" />
</g>    <g
       style="font-style:normal;font-variant:normal;font-weight:normal;font-stretch:normal;letter-spacing:normal;word-spacing:normal;text-anchor:start;fill:none;fill-opacity:1;stroke:none;stroke-linecap:butt;stroke-linejoin:miter;stroke-miterlimit:10.43299961;stroke-dasharray:none;stroke-dashoffset:0;stroke-opacity:1"
       id="g4633"
       transform="matrix(1,0,0,-1,-42.112143,951.7129)"
       xml:space="preserve"
       stroke-miterlimit="10.433"
       fill-rule="even-odd"
       font-style="normal"
       font-variant="normal"
       font-weight="normal"
       font-stretch="normal"
       font-size-adjust="none"
       letter-spacing="normal"
       word-spacing="normal"
       ns0:text="-1"
       ns0:preamble="/home/lenka/Documents/textext-preamble.tex">
<polygon
   style="fill:#000000;stroke:none;stroke-width:0"
   points="226.24,709.26 226.54,709.93 226.49,709.98 223.87,709.98 223.6,709.31 223.65,709.26 226.24,709.26 "
   id="polygon4635" />
<path
   style="fill:#000000;stroke:none;stroke-width:0"
   d="M 227.41,712.65 L 227.51,712.65 L 228.8,713.23 C 228.81,713.24 228.82,713.24 228.83,713.24 C 228.89,713.24 228.91,713.15 228.91,712.91 L 228.91,708.08 C 228.91,707.56 228.8,707.45 228.26,707.42 L 227.7,707.39 L 227.7,707.09 C 229.24,707.12 229.24,707.12 229.35,707.12 C 229.48,707.12 229.7,707.12 230.04,707.11 C 230.15,707.1 230.5,707.1 230.91,707.09 L 230.91,707.39 L 230.39,707.42 C 229.85,707.45 229.75,707.56 229.75,708.08 L 229.75,713.99 L 229.61,714.04 C 228.96,713.7 228.25,713.4 227.35,713.08 L 227.41,712.65 z"
   id="path4637" />
</g>    <text
       sodipodi:linespacing="125%"
       id="text4780"
       y="74.147896"
       x="392.85715"
       style="font-size:16px;font-style:normal;font-variant:normal;font-weight:bold;font-stretch:normal;text-align:start;line-height:125%;writing-mode:lr-tb;text-anchor:start;fill:#000000;fill-opacity:1;stroke:none;stroke-width:1px;stroke-linecap:butt;stroke-linejoin:miter;stroke-opacity:1;font-family:Sans;-inkscape-font-specification:Sans"
       xml:space="preserve"><tspan
         y="74.147896"
         x="392.85715"
         id="tspan4782"
         sodipodi:role="line" /></text>
    <path
       sodipodi:nodetypes="cc"
       id="path2453"
       d="M 140,227.36218 L 245,227.36218"
       style="fill:none;fill-rule:evenodd;stroke:#000000;stroke-width:0.6;stroke-linecap:butt;stroke-linejoin:miter;stroke-opacity:1;stroke-miterlimit:4;stroke-dasharray:none;marker-end:url(#Arrow1Mend)" />
    <path
       id="path3758"
       d="M 255,217.36218 L 255,112.36218"
       style="fill:none;fill-rule:evenodd;stroke:#000000;stroke-width:0.6;stroke-linecap:butt;stroke-linejoin:miter;stroke-opacity:1;stroke-miterlimit:4;stroke-dasharray:none;marker-end:url(#Arrow1Mend)" />
    <path
       id="path4281"
       d="M 245,102.36218 L 140,102.36218"
       style="fill:none;fill-rule:evenodd;stroke:#000000;stroke-width:0.6;stroke-linecap:butt;stroke-linejoin:miter;stroke-opacity:1;stroke-miterlimit:4;stroke-dasharray:none;marker-end:url(#Arrow1Mend)" />
    <path
       id="path4804"
       d="M 130,112.36218 L 130,212.36218"
       style="fill:none;fill-rule:evenodd;stroke:#000000;stroke-width:0.6;stroke-linecap:butt;stroke-linejoin:miter;stroke-opacity:1;stroke-miterlimit:4;stroke-dasharray:none;marker-end:url(#Arrow1Mend)" />
    <g
       id="g5514"
       transform="translate(178.21429,158.57143)">
      <path
         id="path5364"
         d="M 40.245,62.655 L 39.885,62.91 C 39.09,63.48 38.37,63.78 37.83,63.78 C 37.14,63.78 36.705,63.225 36.705,62.325 C 36.705,61.95 36.75,61.545 36.825,61.11 L 36.9,60.78 L 37.035,60.225 C 37.275,59.19 37.575,58.545 38.01,58.155 C 38.28,57.915 38.745,57.735 39.105,57.735 C 39.54,57.735 39.825,58.035 39.825,58.515 C 39.825,59.175 39.3,59.88 38.52,60.255 C 38.1,60.465 37.56,60.63 36.9,60.78 L 36.825,61.11 L 38.04,60.825 C 38.295,60.765 38.7,60.615 39.075,60.45 C 40.35,59.895 40.935,59.205 40.935,58.275 C 40.935,57.57 40.425,57.12 39.675,57.12 C 38.7,57.12 37.05,58.14 36.465,59.1 C 36.015,59.85 35.565,61.62 35.565,62.625 C 35.565,63.795 36.225,64.485 37.305,64.485 C 38.145,64.485 38.985,64.065 40.365,62.94 L 40.245,62.655 z"
         style="font-style:normal;font-variant:normal;font-weight:normal;font-stretch:normal;letter-spacing:normal;word-spacing:normal;text-anchor:start;fill:#000000;fill-opacity:1;stroke:none;stroke-width:0;stroke-linecap:butt;stroke-linejoin:miter;stroke-miterlimit:10.43299961;stroke-dasharray:none;stroke-dashoffset:0;stroke-opacity:1" />
      <path
         id="path5366"
         d="M 42.015,60.795 L 42.135,60.795 L 43.605,60.135 C 43.605,60.12 43.62,60.12 43.635,60.12 C 43.695,60.12 43.725,60.225 43.725,60.495 L 43.725,66 C 43.725,66.6 43.605,66.72 42.99,66.75 L 42.345,66.795 L 42.345,67.125 C 44.1,67.095 44.1,67.095 44.22,67.095 C 44.37,67.095 44.625,67.095 45,67.11 C 45.135,67.11 45.54,67.11 46.005,67.125 L 46.005,66.795 L 45.42,66.75 C 44.79,66.72 44.67,66.6 44.67,66 L 44.67,59.265 L 44.52,59.205 C 43.785,59.595 42.975,59.94 41.94,60.3 L 42.015,60.795 z"
         style="font-style:normal;font-variant:normal;font-weight:normal;font-stretch:normal;letter-spacing:normal;word-spacing:normal;text-anchor:start;fill:#000000;fill-opacity:1;stroke:none;stroke-width:0;stroke-linecap:butt;stroke-linejoin:miter;stroke-miterlimit:10.43299961;stroke-dasharray:none;stroke-dashoffset:0;stroke-opacity:1" />
    </g>
    <g
       id="g5510"
       transform="translate(189.28571,76.071429)">
      <path
         id="path5368"
         d="M 57.135,62.655 L 56.775,62.91 C 55.98,63.48 55.26,63.78 54.72,63.78 C 54.015,63.78 53.58,63.225 53.58,62.325 C 53.58,61.95 53.625,61.545 53.7,61.11 L 53.775,60.78 L 53.91,60.225 C 54.165,59.19 54.465,58.545 54.9,58.155 C 55.17,57.915 55.635,57.735 55.995,57.735 C 56.43,57.735 56.715,58.035 56.715,58.515 C 56.715,59.175 56.19,59.88 55.41,60.255 C 54.99,60.465 54.45,60.63 53.775,60.78 L 53.7,61.11 L 54.93,60.825 C 55.185,60.765 55.59,60.615 55.965,60.45 C 57.225,59.895 57.81,59.205 57.81,58.275 C 57.81,57.57 57.315,57.12 56.565,57.12 C 55.59,57.12 53.925,58.14 53.355,59.1 C 52.905,59.85 52.455,61.62 52.455,62.625 C 52.455,63.795 53.1,64.485 54.18,64.485 C 55.035,64.485 55.875,64.065 57.24,62.94 L 57.135,62.655 z"
         style="font-style:normal;font-variant:normal;font-weight:normal;font-stretch:normal;letter-spacing:normal;word-spacing:normal;text-anchor:start;fill:#000000;fill-opacity:1;stroke:none;stroke-width:0;stroke-linecap:butt;stroke-linejoin:miter;stroke-miterlimit:10.43299961;stroke-dasharray:none;stroke-dashoffset:0;stroke-opacity:1" />
      <path
         id="path5370"
         d="M 58.32,66.66 L 58.32,66.96 C 60.45,66.93 60.45,66.93 60.855,66.93 C 61.275,66.93 61.275,66.93 63.465,66.96 C 63.435,66.72 63.435,66.615 63.435,66.45 C 63.435,66.3 63.435,66.18 63.465,65.94 C 62.145,66 61.635,66 59.535,66.045 L 61.59,63.855 C 62.7,62.685 63.045,62.07 63.045,61.215 C 63.045,59.91 62.145,59.1 60.705,59.1 C 59.895,59.1 59.34,59.325 58.785,59.895 L 58.59,61.44 L 58.92,61.44 L 59.07,60.915 C 59.25,60.255 59.655,59.97 60.42,59.97 C 61.395,59.97 62.01,60.585 62.01,61.56 C 62.01,62.4 61.545,63.24 60.255,64.605 L 58.32,66.66 z"
         style="font-style:normal;font-variant:normal;font-weight:normal;font-stretch:normal;letter-spacing:normal;word-spacing:normal;text-anchor:start;fill:#000000;fill-opacity:1;stroke:none;stroke-width:0;stroke-linecap:butt;stroke-linejoin:miter;stroke-miterlimit:10.43299961;stroke-dasharray:none;stroke-dashoffset:0;stroke-opacity:1" />
    </g>
    <g
       id="g5506"
       transform="translate(91.428576,47.5)">
      <path
         id="path5372"
         d="M 74.01,62.655 L 73.65,62.91 C 72.87,63.48 72.15,63.78 71.61,63.78 C 70.905,63.78 70.47,63.225 70.47,62.325 C 70.47,61.95 70.515,61.545 70.59,61.11 L 70.665,60.78 L 70.8,60.225 C 71.055,59.19 71.355,58.545 71.79,58.155 C 72.06,57.915 72.525,57.735 72.885,57.735 C 73.305,57.735 73.59,58.035 73.59,58.515 C 73.59,59.175 73.065,59.88 72.3,60.255 C 71.88,60.465 71.34,60.63 70.665,60.78 L 70.59,61.11 L 71.82,60.825 C 72.075,60.765 72.48,60.615 72.855,60.45 C 74.115,59.895 74.7,59.205 74.7,58.275 C 74.7,57.57 74.19,57.12 73.44,57.12 C 72.48,57.12 70.815,58.14 70.23,59.1 C 69.78,59.85 69.33,61.62 69.33,62.625 C 69.33,63.795 69.99,64.485 71.07,64.485 C 71.925,64.485 72.765,64.065 74.13,62.94 L 74.01,62.655 z"
         style="font-style:normal;font-variant:normal;font-weight:normal;font-stretch:normal;letter-spacing:normal;word-spacing:normal;text-anchor:start;fill:#000000;fill-opacity:1;stroke:none;stroke-width:0;stroke-linecap:butt;stroke-linejoin:miter;stroke-miterlimit:10.43299961;stroke-dasharray:none;stroke-dashoffset:0;stroke-opacity:1" />
      <path
         id="path5374"
         d="M 75.525,61.275 L 75.87,61.275 L 76.08,60.63 C 76.2,60.24 76.92,59.865 77.505,59.865 C 78.24,59.865 78.84,60.465 78.84,61.185 C 78.84,62.025 78.18,62.745 77.37,62.745 C 77.28,62.745 77.16,62.73 77.01,62.73 L 76.83,62.715 L 76.695,63.315 L 76.785,63.39 C 77.205,63.195 77.43,63.135 77.73,63.135 C 78.675,63.135 79.215,63.735 79.215,64.77 C 79.215,65.925 78.525,66.69 77.475,66.69 C 76.95,66.69 76.485,66.51 76.14,66.195 C 75.87,65.955 75.72,65.685 75.51,65.07 L 75.195,65.19 C 75.435,65.88 75.525,66.285 75.6,66.855 C 76.2,67.065 76.695,67.155 77.115,67.155 C 78.03,67.155 79.065,66.645 79.695,65.88 C 80.085,65.415 80.28,64.92 80.28,64.38 C 80.28,63.84 80.055,63.36 79.635,63.075 C 79.35,62.865 79.095,62.775 78.525,62.685 C 79.44,61.98 79.77,61.455 79.77,60.78 C 79.77,59.775 78.93,59.1 77.67,59.1 C 76.905,59.1 76.395,59.31 75.855,59.865 L 75.525,61.275 z"
         style="font-style:normal;font-variant:normal;font-weight:normal;font-stretch:normal;letter-spacing:normal;word-spacing:normal;text-anchor:start;fill:#000000;fill-opacity:1;stroke:none;stroke-width:0;stroke-linecap:butt;stroke-linejoin:miter;stroke-miterlimit:10.43299961;stroke-dasharray:none;stroke-dashoffset:0;stroke-opacity:1" />
    </g>
    <g
       id="g5502"
       transform="translate(45.714285,124.28572)">
      <path
         id="path5376"
         d="M 90.9,62.655 L 90.54,62.91 C 89.745,63.48 89.04,63.78 88.5,63.78 C 87.795,63.78 87.36,63.225 87.36,62.325 C 87.36,61.95 87.405,61.545 87.48,61.11 L 87.555,60.78 L 87.69,60.225 C 87.945,59.19 88.245,58.545 88.68,58.155 C 88.95,57.915 89.4,57.735 89.76,57.735 C 90.195,57.735 90.48,58.035 90.48,58.515 C 90.48,59.175 89.955,59.88 89.175,60.255 C 88.77,60.465 88.23,60.63 87.555,60.78 L 87.48,61.11 L 88.71,60.825 C 88.95,60.765 89.355,60.615 89.73,60.45 C 91.005,59.895 91.59,59.205 91.59,58.275 C 91.59,57.57 91.08,57.12 90.33,57.12 C 89.355,57.12 87.705,58.14 87.12,59.1 C 86.67,59.85 86.22,61.62 86.22,62.625 C 86.22,63.795 86.88,64.485 87.96,64.485 C 88.8,64.485 89.64,64.065 91.02,62.94 L 90.9,62.655 z"
         style="font-style:normal;font-variant:normal;font-weight:normal;font-stretch:normal;letter-spacing:normal;word-spacing:normal;text-anchor:start;fill:#000000;fill-opacity:1;stroke:none;stroke-width:0;stroke-linecap:butt;stroke-linejoin:miter;stroke-miterlimit:10.43299961;stroke-dasharray:none;stroke-dashoffset:0;stroke-opacity:1" />
      <path
         id="path5378"
         d="M 95.1,65.04 L 95.1,64.32 L 92.655,64.32 L 95.1,60.315 L 95.1,64.32 L 95.1,65.04 L 95.1,65.895 C 95.1,66.57 94.965,66.735 94.41,66.75 L 93.705,66.795 L 93.705,67.125 C 95.22,67.095 95.22,67.095 95.49,67.095 C 95.76,67.095 95.76,67.095 97.275,67.125 L 97.275,66.795 L 96.735,66.75 C 96.18,66.72 96.045,66.57 96.045,65.895 L 96.045,65.04 C 96.72,65.04 96.96,65.055 97.275,65.085 L 97.275,64.275 C 96.735,64.32 96.525,64.32 96.36,64.32 L 96.315,64.32 L 96.045,64.32 L 96.045,62.73 C 96.045,60.705 96.075,59.73 96.135,59.265 L 96,59.205 L 95.145,59.52 L 91.935,64.77 L 92.07,65.04 L 95.1,65.04 z"
         style="font-style:normal;font-variant:normal;font-weight:normal;font-stretch:normal;letter-spacing:normal;word-spacing:normal;text-anchor:start;fill:#000000;fill-opacity:1;stroke:none;stroke-width:0;stroke-linecap:butt;stroke-linejoin:miter;stroke-miterlimit:10.43299961;stroke-dasharray:none;stroke-dashoffset:0;stroke-opacity:1" />
    </g>
  </g>
  <flowRoot
     xml:space="preserve"
     id="flowRoot2853"
     style="fill:black;stroke:none;stroke-opacity:1;stroke-width:1px;stroke-linejoin:miter;stroke-linecap:butt;fill-opacity:1;font-family:Sans;font-style:normal;font-weight:bold;font-size:16;-inkscape-font-specification:Sans;font-stretch:normal;font-variant:normal;text-anchor:start;text-align:start;writing-mode:lr;line-height:125%"><flowRegion
       id="flowRegion2855"><rect
         id="rect2857"
         width="20.714285"
         height="20"
         x="50.714287"
         y="102.36218" /></flowRegion><flowPara
       id="flowPara2859" /></flowRoot>  <g
     style="font-style:normal;font-variant:normal;font-weight:normal;font-stretch:normal;letter-spacing:normal;word-spacing:normal;text-anchor:start;fill:none;fill-opacity:1;stroke:none;stroke-linecap:butt;stroke-linejoin:miter;stroke-miterlimit:10.43299961;stroke-dasharray:none;stroke-dashoffset:0;stroke-opacity:1"
     id="g3259"
     transform="matrix(2,0,0,-2,-251.28572,1494.8572)"
     xml:space="preserve"
     stroke-miterlimit="10.433"
     fill-rule="even-odd"
     font-style="normal"
     font-variant="normal"
     font-weight="normal"
     font-stretch="normal"
     font-size-adjust="none"
     letter-spacing="normal"
     word-spacing="normal"
     ns0:text="$\\xi_2$"
     ns0:preamble="/home/lenka/Documents/textext-preamble.tex">
<path
   style="fill:#000000;stroke:none;stroke-width:0"
   d="M 224.76,712.89 L 224.98,712.89 L 225.27,713.47 C 225.44,713.51 225.53,713.52 225.66,713.52 C 225.8,713.52 225.91,713.51 226.11,713.47 C 226.47,713.4 226.72,713.37 226.95,713.37 C 226.49,713.04 226.21,712.74 226.21,712.37 C 226.21,712.18 226.26,712.03 226.37,711.91 C 225.92,711.86 225.27,711.51 224.77,711.06 C 224.23,710.57 223.85,709.52 223.85,708.48 C 223.85,707.52 224.27,707.01 225.06,707.01 C 225.29,707.01 226.11,707.11 226.41,707.11 C 226.75,707.11 226.92,706.93 226.92,706.59 C 226.92,706.53 226.91,706.47 226.9,706.39 C 226.66,705.68 226.16,705.29 225.72,705.29 C 225.37,705.29 225.1,705.56 225.1,705.91 C 225.1,705.96 225.11,706.04 225.12,706.13 L 225.02,706.17 L 224.55,705.83 C 224.54,705.76 224.54,705.7 224.54,705.65 C 224.54,705.22 224.9,704.87 225.35,704.87 C 225.91,704.87 226.6,705.35 227.05,705.92 C 227.41,706.36 227.48,706.86 227.48,707.21 C 227.48,707.3 227.45,707.38 227.39,707.44 C 227.25,707.6 226.96,707.62 226.75,707.62 C 226.46,707.62 225.77,707.52 225.44,707.52 C 224.88,707.52 224.61,707.92 224.61,708.71 C 224.61,709.78 224.96,710.82 225.44,711.2 C 225.65,711.36 225.91,711.49 226.22,711.49 C 226.45,711.49 226.64,711.43 226.82,711.37 C 226.91,711.34 227.2,711.29 227.29,711.29 C 227.42,711.29 227.66,711.29 227.7,711.3 C 227.7,711.35 227.77,711.59 227.84,711.68 C 227.84,711.73 227.83,711.77 227.82,711.82 C 227.3,711.79 226.82,712.12 226.82,712.62 C 226.82,713.17 227.7,713.53 228.12,713.69 L 228.42,713.8 L 228.48,714.12 L 228.39,714.21 L 228.16,713.98 C 228.06,713.88 227.96,713.84 227.82,713.84 C 227.49,713.84 226.97,713.92 226.49,714.05 L 226.31,714.1 C 226.03,714.17 225.83,714.21 225.69,714.21 C 225.52,714.21 225.32,714.18 225.08,714.11 L 224.76,712.89 z"
   id="path3261" />
<path
   style="fill:#000000;stroke:none;stroke-width:0"
   d="M 228.57,705.56 L 228.57,705.36 C 229.99,705.38 229.99,705.38 230.26,705.38 C 230.53,705.38 230.53,705.38 231.99,705.36 C 231.98,705.52 231.98,705.59 231.98,705.7 C 231.98,705.8 231.98,705.88 231.99,706.04 C 231.12,706 230.77,706 229.37,705.97 L 230.75,707.43 C 231.49,708.21 231.71,708.62 231.71,709.19 C 231.71,710.06 231.12,710.6 230.16,710.6 C 229.62,710.6 229.24,710.45 228.87,710.07 L 228.74,709.04 L 228.96,709.04 L 229.06,709.39 C 229.18,709.83 229.46,710.02 229.96,710.02 C 230.62,710.02 231.03,709.61 231.03,708.96 C 231.03,708.4 230.71,707.84 229.86,706.93 L 228.57,705.56 z"
   id="path3263" />
</g>  <g
     ns0:preamble="/home/lenka/Documents/textext-preamble.tex"
     ns0:text="$\\xi_1$"
     word-spacing="normal"
     letter-spacing="normal"
     font-size-adjust="none"
     font-stretch="normal"
     font-weight="normal"
     font-variant="normal"
     font-style="normal"
     fill-rule="even-odd"
     stroke-miterlimit="10.433"
     xml:space="preserve"
     transform="matrix(2,0,0,-2,-169.14286,1597.7143)"
     id="g3557"
     style="font-style:normal;font-variant:normal;font-weight:normal;font-stretch:normal;letter-spacing:normal;word-spacing:normal;text-anchor:start;fill:none;fill-opacity:1;stroke:none;stroke-linecap:butt;stroke-linejoin:miter;stroke-miterlimit:10.43299961;stroke-dasharray:none;stroke-dashoffset:0;stroke-opacity:1">
<path
   id="path3415"
   d="M 224.76,712.89 L 224.98,712.89 L 225.27,713.47 C 225.44,713.51 225.53,713.52 225.66,713.52 C 225.8,713.52 225.91,713.51 226.11,713.47 C 226.47,713.4 226.72,713.37 226.95,713.37 C 226.49,713.04 226.21,712.74 226.21,712.37 C 226.21,712.18 226.26,712.03 226.37,711.91 C 225.92,711.86 225.27,711.51 224.77,711.06 C 224.23,710.57 223.85,709.52 223.85,708.48 C 223.85,707.52 224.27,707.01 225.06,707.01 C 225.29,707.01 226.11,707.11 226.41,707.11 C 226.75,707.11 226.92,706.93 226.92,706.59 C 226.92,706.53 226.91,706.47 226.9,706.39 C 226.66,705.68 226.16,705.29 225.72,705.29 C 225.37,705.29 225.1,705.56 225.1,705.91 C 225.1,705.96 225.11,706.04 225.12,706.13 L 225.02,706.17 L 224.55,705.83 C 224.54,705.76 224.54,705.7 224.54,705.65 C 224.54,705.22 224.9,704.87 225.35,704.87 C 225.91,704.87 226.6,705.35 227.05,705.92 C 227.41,706.36 227.48,706.86 227.48,707.21 C 227.48,707.3 227.45,707.38 227.39,707.44 C 227.25,707.6 226.96,707.62 226.75,707.62 C 226.46,707.62 225.77,707.52 225.44,707.52 C 224.88,707.52 224.61,707.92 224.61,708.71 C 224.61,709.78 224.96,710.82 225.44,711.2 C 225.65,711.36 225.91,711.49 226.22,711.49 C 226.45,711.49 226.64,711.43 226.82,711.37 C 226.91,711.34 227.2,711.29 227.29,711.29 C 227.42,711.29 227.66,711.29 227.7,711.3 C 227.7,711.35 227.77,711.59 227.84,711.68 C 227.84,711.73 227.83,711.77 227.82,711.82 C 227.3,711.79 226.82,712.12 226.82,712.62 C 226.82,713.17 227.7,713.53 228.12,713.69 L 228.42,713.8 L 228.48,714.12 L 228.39,714.21 L 228.16,713.98 C 228.06,713.88 227.96,713.84 227.82,713.84 C 227.49,713.84 226.97,713.92 226.49,714.05 L 226.31,714.1 C 226.03,714.17 225.83,714.21 225.69,714.21 C 225.52,714.21 225.32,714.18 225.08,714.11 L 224.76,712.89 z"
   style="fill:#000000;stroke:none;stroke-width:0" />
<path
   id="path3417"
   d="M 228.96,709.47 L 229.03,709.47 L 230.01,709.91 C 230.02,709.92 230.02,709.92 230.03,709.92 C 230.08,709.92 230.09,709.85 230.09,709.67 L 230.09,706 C 230.09,705.6 230.01,705.52 229.6,705.5 L 229.18,705.47 L 229.18,705.25 C 230.34,705.27 230.34,705.27 230.43,705.27 C 230.52,705.27 230.69,705.27 230.95,705.26 C 231.04,705.26 231.3,705.26 231.62,705.25 L 231.62,705.47 L 231.22,705.5 C 230.8,705.52 230.73,705.6 230.73,706 L 230.73,710.49 L 230.62,710.53 C 230.13,710.27 229.59,710.04 228.9,709.8 L 228.96,709.47 z"
   style="fill:#000000;stroke:none;stroke-width:0" />
</g></svg>
