<?xml version="1.0" encoding="UTF-8" standalone="no"?>
<!-- Created with Inkscape (http://www.inkscape.org/) -->
<svg
   xmlns:dc="http://purl.org/dc/elements/1.1/"
   xmlns:cc="http://creativecommons.org/ns#"
   xmlns:rdf="http://www.w3.org/1999/02/22-rdf-syntax-ns#"
   xmlns:svg="http://www.w3.org/2000/svg"
   xmlns="http://www.w3.org/2000/svg"
   xmlns:sodipodi="http://sodipodi.sourceforge.net/DTD/sodipodi-0.dtd"
   xmlns:inkscape="http://www.inkscape.org/namespaces/inkscape"
   width="744.09448819"
   height="1052.3622047"
   id="svg2428"
   sodipodi:version="0.32"
   inkscape:version="0.46"
   sodipodi:docname="refdomain2.svg"
   sodipodi:docbase="/home/lenka/latex/lenka-thesis/fig"
   inkscape:output_extension="org.inkscape.output.svg.inkscape">
  <sodipodi:namedview
     id="base"
     pagecolor="#ffffff"
     bordercolor="#666666"
     borderopacity="1.0"
     gridtolerance="10000"
     guidetolerance="10"
     objecttolerance="10"
     inkscape:pageopacity="0.0"
     inkscape:pageshadow="2"
     inkscape:zoom="2.8"
     inkscape:cx="129.19622"
     inkscape:cy="940.18686"
     inkscape:document-units="px"
     inkscape:current-layer="layer1"
     showgrid="false"
     inkscape:window-width="1920"
     inkscape:window-height="1125"
     inkscape:window-x="0"
     inkscape:window-y="25">
    <inkscape:grid
       id="grid6093"
       type="xygrid" />
  </sodipodi:namedview>
  <defs
     id="defs2430">
    <inkscape:perspective
       id="perspective101"
       inkscape:persp3d-origin="372.04724 : 350.78739 : 1"
       inkscape:vp_z="744.09448 : 526.18109 : 1"
       inkscape:vp_y="0 : 1000 : 0"
       inkscape:vp_x="0 : 526.18109 : 1"
       sodipodi:type="inkscape:persp3d" />
    <marker
       style="overflow:visible;"
       id="Arrow1Lend"
       refX="0.0"
       refY="0.0"
       orient="auto"
       inkscape:stockid="Arrow1Lend">
      <path
         transform="scale(0.8) rotate(180) translate(12.5,0)"
         style="fill-rule:evenodd;stroke:#000000;stroke-width:1.0pt;marker-start:none;"
         d="M 0.0,0.0 L 5.0,-5.0 L -12.5,0.0 L 5.0,5.0 L 0.0,0.0 z "
         id="path3224" />
    </marker>
    <marker
       style="overflow:visible;"
       id="Arrow1Mend"
       refX="0.0"
       refY="0.0"
       orient="auto"
       inkscape:stockid="Arrow1Mend">
      <path
         transform="scale(0.4) rotate(180) translate(10,0)"
         style="fill-rule:evenodd;stroke:#000000;stroke-width:1.0pt;marker-start:none;"
         d="M 0.0,0.0 L 5.0,-5.0 L -12.5,0.0 L 5.0,5.0 L 0.0,0.0 z "
         id="path3597" />
    </marker>
  </defs>
  <metadata
     id="metadata2433">
    <rdf:RDF>
      <cc:Work
         rdf:about="">
        <dc:format>image/svg+xml</dc:format>
        <dc:type
           rdf:resource="http://purl.org/dc/dcmitype/StillImage" />
      </cc:Work>
    </rdf:RDF>
  </metadata>
  <g
     id="layer1"
     inkscape:groupmode="layer"
     inkscape:label="Layer 1">
    <path
       sodipodi:nodetypes="cccc"
       id="path2438"
       d="M 119,54.362183 L 119,194.36218 L 258.54569,194.61472 L 119,54.362183 z"
       style="fill:none;fill-rule:evenodd;stroke:#000000;stroke-width:1.5;stroke-linecap:butt;stroke-linejoin:miter;stroke-miterlimit:4;stroke-dasharray:none;stroke-opacity:1" />
    <path
       id="path5684"
       d="M 135,185.36218 L 230,185.36218"
       style="fill:none;fill-rule:evenodd;stroke:#000000;stroke-width:0.60000002;stroke-linecap:butt;stroke-linejoin:miter;marker-end:url(#Arrow1Mend);stroke-miterlimit:4;stroke-dasharray:none;stroke-opacity:1" />
    <path
       sodipodi:nodetypes="cc"
       id="path6728"
       d="M 224.28572,173.07646 L 139.28572,88.076469"
       style="fill:none;fill-rule:evenodd;stroke:#000000;stroke-width:0.60000002;stroke-linecap:butt;stroke-linejoin:miter;marker-end:url(#Arrow1Mend);stroke-miterlimit:4;stroke-dasharray:none;stroke-opacity:1" />
    <path
       id="path7251"
       d="M 127,82.362183 L 127,177.36218"
       style="fill:none;fill-rule:evenodd;stroke:#000000;stroke-width:0.60000002;stroke-linecap:butt;stroke-linejoin:miter;marker-end:url(#Arrow1Mend);stroke-miterlimit:4;stroke-dasharray:none;stroke-opacity:1" />
    <g
       id="g7887"
       transform="translate(149.10715,142.5)">
      <path
         id="path7816"
         d="M 40.245,62.655 L 39.885,62.91 C 39.09,63.48 38.37,63.78 37.83,63.78 C 37.14,63.78 36.705,63.225 36.705,62.325 C 36.705,61.95 36.75,61.545 36.825,61.11 L 36.9,60.78 L 37.035,60.225 C 37.275,59.19 37.575,58.545 38.01,58.155 C 38.28,57.915 38.745,57.735 39.105,57.735 C 39.54,57.735 39.825,58.035 39.825,58.515 C 39.825,59.175 39.3,59.88 38.52,60.255 C 38.1,60.465 37.56,60.63 36.9,60.78 L 36.825,61.11 L 38.04,60.825 C 38.295,60.765 38.7,60.615 39.075,60.45 C 40.35,59.895 40.935,59.205 40.935,58.275 C 40.935,57.57 40.425,57.12 39.675,57.12 C 38.7,57.12 37.05,58.14 36.465,59.1 C 36.015,59.85 35.565,61.62 35.565,62.625 C 35.565,63.795 36.225,64.485 37.305,64.485 C 38.145,64.485 38.985,64.065 40.365,62.94 L 40.245,62.655 z"
         style="font-style:normal;font-variant:normal;font-weight:normal;font-stretch:normal;letter-spacing:normal;word-spacing:normal;text-anchor:start;fill:#000000;fill-opacity:1;stroke:none;stroke-width:0;stroke-linecap:butt;stroke-linejoin:miter;stroke-miterlimit:10.43299961;stroke-dasharray:none;stroke-dashoffset:0;stroke-opacity:1" />
      <path
         id="path7818"
         d="M 42.015,60.795 L 42.135,60.795 L 43.605,60.135 C 43.605,60.12 43.62,60.12 43.635,60.12 C 43.695,60.12 43.725,60.225 43.725,60.495 L 43.725,66 C 43.725,66.6 43.605,66.72 42.99,66.75 L 42.345,66.795 L 42.345,67.125 C 44.1,67.095 44.1,67.095 44.22,67.095 C 44.37,67.095 44.625,67.095 45,67.11 C 45.135,67.11 45.54,67.11 46.005,67.125 L 46.005,66.795 L 45.42,66.75 C 44.79,66.72 44.67,66.6 44.67,66 L 44.67,59.265 L 44.52,59.205 C 43.785,59.595 42.975,59.94 41.94,60.3 L 42.015,60.795 z"
         style="font-style:normal;font-variant:normal;font-weight:normal;font-stretch:normal;letter-spacing:normal;word-spacing:normal;text-anchor:start;fill:#000000;fill-opacity:1;stroke:none;stroke-width:0;stroke-linecap:butt;stroke-linejoin:miter;stroke-miterlimit:10.43299961;stroke-dasharray:none;stroke-dashoffset:0;stroke-opacity:1" />
    </g>
    <g
       id="g7883"
       transform="translate(146.96428,56.785714)">
      <path
         id="path7820"
         d="M 52.77,62.655 L 52.41,62.91 C 51.63,63.48 50.91,63.78 50.37,63.78 C 49.665,63.78 49.23,63.225 49.23,62.325 C 49.23,61.95 49.275,61.545 49.35,61.11 L 49.425,60.78 L 49.56,60.225 C 49.815,59.19 50.115,58.545 50.55,58.155 C 50.82,57.915 51.285,57.735 51.645,57.735 C 52.065,57.735 52.35,58.035 52.35,58.515 C 52.35,59.175 51.825,59.88 51.06,60.255 C 50.64,60.465 50.1,60.63 49.425,60.78 L 49.35,61.11 L 50.58,60.825 C 50.835,60.765 51.24,60.615 51.615,60.45 C 52.875,59.895 53.46,59.205 53.46,58.275 C 53.46,57.57 52.95,57.12 52.2,57.12 C 51.24,57.12 49.575,58.14 48.99,59.1 C 48.54,59.85 48.09,61.62 48.09,62.625 C 48.09,63.795 48.75,64.485 49.83,64.485 C 50.685,64.485 51.525,64.065 52.89,62.94 L 52.77,62.655 z"
         style="font-style:normal;font-variant:normal;font-weight:normal;font-stretch:normal;letter-spacing:normal;word-spacing:normal;text-anchor:start;fill:#000000;fill-opacity:1;stroke:none;stroke-width:0;stroke-linecap:butt;stroke-linejoin:miter;stroke-miterlimit:10.43299961;stroke-dasharray:none;stroke-dashoffset:0;stroke-opacity:1" />
      <path
         id="path7822"
         d="M 53.985,66.66 L 53.985,66.96 C 56.1,66.93 56.1,66.93 56.52,66.93 C 56.925,66.93 56.925,66.93 59.115,66.96 C 59.1,66.72 59.1,66.615 59.1,66.45 C 59.1,66.3 59.1,66.18 59.115,65.94 C 57.81,66 57.285,66 55.185,66.045 L 57.255,63.855 C 58.35,62.685 58.695,62.07 58.695,61.215 C 58.695,59.91 57.81,59.1 56.37,59.1 C 55.545,59.1 54.99,59.325 54.435,59.895 L 54.24,61.44 L 54.57,61.44 L 54.72,60.915 C 54.9,60.255 55.32,59.97 56.07,59.97 C 57.045,59.97 57.675,60.585 57.675,61.56 C 57.675,62.4 57.195,63.24 55.92,64.605 L 53.985,66.66 z"
         style="font-style:normal;font-variant:normal;font-weight:normal;font-stretch:normal;letter-spacing:normal;word-spacing:normal;text-anchor:start;fill:#000000;fill-opacity:1;stroke:none;stroke-width:0;stroke-linecap:butt;stroke-linejoin:miter;stroke-miterlimit:10.43299961;stroke-dasharray:none;stroke-dashoffset:0;stroke-opacity:1" />
    </g>
    <g
       id="g7879"
       transform="translate(41.428571,63.035715)">
      <path
         id="path7824"
         d="M 65.31,62.655 L 64.965,62.91 C 64.17,63.48 63.45,63.78 62.91,63.78 C 62.205,63.78 61.77,63.225 61.77,62.325 C 61.77,61.95 61.815,61.545 61.89,61.11 L 61.965,60.78 L 62.1,60.225 C 62.355,59.19 62.655,58.545 63.09,58.155 C 63.36,57.915 63.825,57.735 64.185,57.735 C 64.62,57.735 64.905,58.035 64.905,58.515 C 64.905,59.175 64.38,59.88 63.6,60.255 C 63.18,60.465 62.64,60.63 61.965,60.78 L 61.89,61.11 L 63.12,60.825 C 63.375,60.765 63.78,60.615 64.155,60.45 C 65.43,59.895 66,59.205 66,58.275 C 66,57.57 65.49,57.12 64.755,57.12 C 63.78,57.12 62.115,58.14 61.53,59.1 C 61.095,59.85 60.645,61.62 60.645,62.625 C 60.645,63.795 61.305,64.485 62.37,64.485 C 63.225,64.485 64.065,64.065 65.43,62.94 L 65.31,62.655 z"
         style="font-style:normal;font-variant:normal;font-weight:normal;font-stretch:normal;letter-spacing:normal;word-spacing:normal;text-anchor:start;fill:#000000;fill-opacity:1;stroke:none;stroke-width:0;stroke-linecap:butt;stroke-linejoin:miter;stroke-miterlimit:10.43299961;stroke-dasharray:none;stroke-dashoffset:0;stroke-opacity:1" />
      <path
         id="path7826"
         d="M 66.825,61.275 L 67.17,61.275 L 67.38,60.63 C 67.5,60.24 68.22,59.865 68.805,59.865 C 69.555,59.865 70.155,60.465 70.155,61.185 C 70.155,62.025 69.48,62.745 68.67,62.745 C 68.58,62.745 68.46,62.73 68.31,62.73 L 68.145,62.715 L 68.01,63.315 L 68.085,63.39 C 68.52,63.195 68.73,63.135 69.03,63.135 C 69.975,63.135 70.53,63.735 70.53,64.77 C 70.53,65.925 69.825,66.69 68.775,66.69 C 68.25,66.69 67.785,66.51 67.44,66.195 C 67.17,65.955 67.02,65.685 66.81,65.07 L 66.51,65.19 C 66.735,65.88 66.84,66.285 66.9,66.855 C 67.5,67.065 68.01,67.155 68.43,67.155 C 69.33,67.155 70.38,66.645 70.995,65.88 C 71.385,65.415 71.58,64.92 71.58,64.38 C 71.58,63.84 71.355,63.36 70.95,63.075 C 70.665,62.865 70.395,62.775 69.825,62.685 C 70.74,61.98 71.085,61.455 71.085,60.78 C 71.085,59.775 70.245,59.1 68.985,59.1 C 68.205,59.1 67.695,59.31 67.155,59.865 L 66.825,61.275 z"
         style="font-style:normal;font-variant:normal;font-weight:normal;font-stretch:normal;letter-spacing:normal;word-spacing:normal;text-anchor:start;fill:#000000;fill-opacity:1;stroke:none;stroke-width:0;stroke-linecap:butt;stroke-linejoin:miter;stroke-miterlimit:10.43299961;stroke-dasharray:none;stroke-dashoffset:0;stroke-opacity:1" />
    </g>
    <path
       transform="translate(2.8571451,107.71429)"
       d="M 119.64285,86.647896 A 3.5714285,3.5714285 0 1 1 112.5,86.647896 A 3.5714285,3.5714285 0 1 1 119.64285,86.647896 z"
       sodipodi:ry="3.5714285"
       sodipodi:rx="3.5714285"
       sodipodi:cy="86.647896"
       sodipodi:cx="116.07143"
       id="path3238"
       style="opacity:1;fill:#000000;fill-opacity:1;fill-rule:evenodd;stroke:none;stroke-width:0.60000002;stroke-linejoin:miter;stroke-miterlimit:4;stroke-dasharray:none;stroke-dashoffset:0;stroke-opacity:1"
       sodipodi:type="arc" />
    <path
       transform="translate(142.32144,107.82142)"
       d="M 119.64285,86.647896 A 3.5714285,3.5714285 0 1 1 112.5,86.647896 A 3.5714285,3.5714285 0 1 1 119.64285,86.647896 z"
       sodipodi:ry="3.5714285"
       sodipodi:rx="3.5714285"
       sodipodi:cy="86.647896"
       sodipodi:cx="116.07143"
       id="path3659"
       style="opacity:1;fill:#000000;fill-opacity:1;fill-rule:evenodd;stroke:none;stroke-width:0.60000002;stroke-linejoin:miter;stroke-miterlimit:4;stroke-dasharray:none;stroke-dashoffset:0;stroke-opacity:1"
       sodipodi:type="arc" />
    <path
       transform="translate(2.8928592,-32.321428)"
       d="M 119.64285,86.647896 A 3.5714285,3.5714285 0 1 1 112.5,86.647896 A 3.5714285,3.5714285 0 1 1 119.64285,86.647896 z"
       sodipodi:ry="3.5714285"
       sodipodi:rx="3.5714285"
       sodipodi:cy="86.647896"
       sodipodi:cx="116.07143"
       id="path3661"
       style="opacity:1;fill:#000000;fill-opacity:1;fill-rule:evenodd;stroke:none;stroke-width:0.60000002;stroke-linejoin:miter;stroke-miterlimit:4;stroke-dasharray:none;stroke-dashoffset:0;stroke-opacity:1"
       sodipodi:type="arc" />
    <path
       transform="translate(2.7857166,37.749999)"
       d="M 119.64285,86.647896 A 3.5714285,3.5714285 0 1 1 112.5,86.647896 A 3.5714285,3.5714285 0 1 1 119.64285,86.647896 z"
       sodipodi:ry="3.5714285"
       sodipodi:rx="3.5714285"
       sodipodi:cy="86.647896"
       sodipodi:cx="116.07143"
       id="path3663"
       style="opacity:1;fill:#000000;fill-opacity:1;fill-rule:evenodd;stroke:none;stroke-width:0.60000002;stroke-linejoin:miter;stroke-miterlimit:4;stroke-dasharray:none;stroke-dashoffset:0;stroke-opacity:1"
       sodipodi:type="arc" />
    <path
       transform="translate(72.607149,37.607145)"
       d="M 119.64285,86.647896 A 3.5714285,3.5714285 0 1 1 112.5,86.647896 A 3.5714285,3.5714285 0 1 1 119.64285,86.647896 z"
       sodipodi:ry="3.5714285"
       sodipodi:rx="3.5714285"
       sodipodi:cy="86.647896"
       sodipodi:cx="116.07143"
       id="path3665"
       style="opacity:1;fill:#000000;fill-opacity:1;fill-rule:evenodd;stroke:none;stroke-width:0.60000002;stroke-linejoin:miter;stroke-miterlimit:4;stroke-dasharray:none;stroke-dashoffset:0;stroke-opacity:1"
       sodipodi:type="arc" />
    <path
       transform="translate(72.000003,107.64286)"
       d="M 119.64285,86.647896 A 3.5714285,3.5714285 0 1 1 112.5,86.647896 A 3.5714285,3.5714285 0 1 1 119.64285,86.647896 z"
       sodipodi:ry="3.5714285"
       sodipodi:rx="3.5714285"
       sodipodi:cy="86.647896"
       sodipodi:cx="116.07143"
       id="path3667"
       style="opacity:1;fill:#000000;fill-opacity:1;fill-rule:evenodd;stroke:none;stroke-width:0.60000002;stroke-linejoin:miter;stroke-miterlimit:4;stroke-dasharray:none;stroke-dashoffset:0;stroke-opacity:1"
       sodipodi:type="arc" />
    <path
       transform="translate(47.321431,65.892858)"
       d="M 119.64285,86.647896 A 3.5714285,3.5714285 0 1 1 112.5,86.647896 A 3.5714285,3.5714285 0 1 1 119.64285,86.647896 z"
       sodipodi:ry="3.5714285"
       sodipodi:rx="3.5714285"
       sodipodi:cy="86.647896"
       sodipodi:cx="116.07143"
       id="path3669"
       style="opacity:1;fill:#000000;fill-opacity:1;fill-rule:evenodd;stroke:none;stroke-width:0.60000002;stroke-linejoin:miter;stroke-miterlimit:4;stroke-dasharray:none;stroke-dashoffset:0;stroke-opacity:1"
       sodipodi:type="arc" />
    <g
       id="g3504"
       transform="translate(71.613844,141.74079)">
      <path
         id="path3292"
         d="M 40.305,57.99 L 40.47,58.275 C 40.605,58.185 40.74,58.14 40.875,58.14 C 41.265,58.14 41.52,58.485 41.52,59.085 C 41.52,61.29 40.065,63.735 38.745,63.735 C 38.01,63.735 37.545,63.105 37.545,62.13 C 37.545,60.57 38.13,59.205 39.6,57.39 L 39.45,57.12 C 39.15,57.24 38.955,57.3 38.535,57.3 C 38.115,57.3 37.485,57.255 37.065,57.225 L 36.885,57.21 C 36.795,57.18 36.72,57.18 36.705,57.18 C 36.525,57.18 36.39,57.225 36.225,57.3 C 36.015,57.69 35.85,58.23 35.655,59.055 L 35.985,59.055 L 36.24,58.425 C 36.345,58.17 36.645,58.005 37.005,58.005 C 37.08,58.005 37.2,58.005 37.395,58.02 C 37.515,58.035 37.62,58.035 37.815,58.035 C 38.13,58.035 38.37,58.02 38.76,57.975 C 37.11,59.775 36.48,61.02 36.48,62.505 C 36.48,63.66 37.155,64.485 38.115,64.485 C 38.745,64.485 39.315,64.215 40.005,63.6 C 40.71,62.955 41.43,61.95 41.88,60.93 C 42.21,60.18 42.465,59.175 42.465,58.575 C 42.465,57.72 42.075,57.12 41.55,57.12 C 41.355,57.12 41.175,57.165 41.055,57.3 L 40.305,57.99 z"
         style="font-style:normal;font-variant:normal;font-weight:normal;font-stretch:normal;letter-spacing:normal;word-spacing:normal;text-anchor:start;fill:#000000;fill-opacity:1;stroke:none;stroke-width:0;stroke-linecap:butt;stroke-linejoin:miter;stroke-miterlimit:10.43299961;stroke-dasharray:none;stroke-dashoffset:0;stroke-opacity:1" />
      <path
         id="path3294"
         d="M 43.755,60.795 L 43.86,60.795 L 45.33,60.135 C 45.345,60.12 45.36,60.12 45.36,60.12 C 45.435,60.12 45.45,60.225 45.45,60.495 L 45.45,66 C 45.45,66.6 45.33,66.72 44.715,66.75 L 44.085,66.795 L 44.085,67.125 C 45.825,67.095 45.825,67.095 45.96,67.095 C 46.11,67.095 46.35,67.095 46.74,67.11 C 46.875,67.11 47.265,67.11 47.73,67.125 L 47.73,66.795 L 47.145,66.75 C 46.515,66.72 46.41,66.6 46.41,66 L 46.41,59.265 L 46.245,59.205 C 45.51,59.595 44.7,59.94 43.665,60.3 L 43.755,60.795 z"
         style="font-style:normal;font-variant:normal;font-weight:normal;font-stretch:normal;letter-spacing:normal;word-spacing:normal;text-anchor:start;fill:#000000;fill-opacity:1;stroke:none;stroke-width:0;stroke-linecap:butt;stroke-linejoin:miter;stroke-miterlimit:10.43299961;stroke-dasharray:none;stroke-dashoffset:0;stroke-opacity:1" />
    </g>
    <g
       id="g3508"
       transform="translate(208.07109,140.01636)">
      <path
         id="path3296"
         d="M 58.92,57.99 L 59.085,58.275 C 59.22,58.185 59.355,58.14 59.49,58.14 C 59.895,58.14 60.135,58.485 60.135,59.085 C 60.135,61.29 58.68,63.735 57.36,63.735 C 56.64,63.735 56.175,63.105 56.175,62.13 C 56.175,60.57 56.76,59.205 58.215,57.39 L 58.065,57.12 C 57.765,57.24 57.57,57.3 57.15,57.3 C 56.745,57.3 56.115,57.255 55.68,57.225 L 55.5,57.21 C 55.41,57.18 55.335,57.18 55.32,57.18 C 55.14,57.18 55.005,57.225 54.84,57.3 C 54.63,57.69 54.465,58.23 54.27,59.055 L 54.6,59.055 L 54.855,58.425 C 54.96,58.17 55.26,58.005 55.62,58.005 C 55.695,58.005 55.83,58.005 56.025,58.02 C 56.145,58.035 56.25,58.035 56.445,58.035 C 56.76,58.035 56.985,58.02 57.375,57.975 C 55.725,59.775 55.095,61.02 55.095,62.505 C 55.095,63.66 55.785,64.485 56.745,64.485 C 57.36,64.485 57.93,64.215 58.62,63.6 C 59.325,62.955 60.045,61.95 60.51,60.93 C 60.825,60.18 61.095,59.175 61.095,58.575 C 61.095,57.72 60.705,57.12 60.165,57.12 C 59.97,57.12 59.79,57.165 59.67,57.3 L 58.92,57.99 z"
         style="font-style:normal;font-variant:normal;font-weight:normal;font-stretch:normal;letter-spacing:normal;word-spacing:normal;text-anchor:start;fill:#000000;fill-opacity:1;stroke:none;stroke-width:0;stroke-linecap:butt;stroke-linejoin:miter;stroke-miterlimit:10.43299961;stroke-dasharray:none;stroke-dashoffset:0;stroke-opacity:1" />
      <path
         id="path3298"
         d="M 61.785,66.66 L 61.785,66.96 C 63.915,66.93 63.915,66.93 64.32,66.93 C 64.725,66.93 64.725,66.93 66.93,66.96 C 66.9,66.72 66.9,66.615 66.9,66.45 C 66.9,66.3 66.9,66.18 66.93,65.94 C 65.61,66 65.1,66 63,66.045 L 65.055,63.855 C 66.165,62.685 66.51,62.07 66.51,61.215 C 66.51,59.91 65.61,59.1 64.17,59.1 C 63.36,59.1 62.805,59.325 62.25,59.895 L 62.055,61.44 L 62.385,61.44 L 62.535,60.915 C 62.715,60.255 63.12,59.97 63.885,59.97 C 64.86,59.97 65.475,60.585 65.475,61.56 C 65.475,62.4 65.01,63.24 63.72,64.605 L 61.785,66.66 z"
         style="font-style:normal;font-variant:normal;font-weight:normal;font-stretch:normal;letter-spacing:normal;word-spacing:normal;text-anchor:start;fill:#000000;fill-opacity:1;stroke:none;stroke-width:0;stroke-linecap:butt;stroke-linejoin:miter;stroke-miterlimit:10.43299961;stroke-dasharray:none;stroke-dashoffset:0;stroke-opacity:1" />
    </g>
    <g
       id="g3512"
       transform="translate(32.20977,-17.36349)">
      <path
         id="path3300"
         d="M 77.535,57.99 L 77.7,58.275 C 77.835,58.185 77.97,58.14 78.105,58.14 C 78.51,58.14 78.75,58.485 78.75,59.085 C 78.75,61.29 77.295,63.735 75.99,63.735 C 75.255,63.735 74.79,63.105 74.79,62.13 C 74.79,60.57 75.375,59.205 76.83,57.39 L 76.68,57.12 C 76.395,57.24 76.2,57.3 75.78,57.3 C 75.36,57.3 74.73,57.255 74.295,57.225 L 74.115,57.21 C 74.025,57.18 73.95,57.18 73.935,57.18 C 73.755,57.18 73.62,57.225 73.455,57.3 C 73.245,57.69 73.08,58.23 72.885,59.055 L 73.215,59.055 L 73.47,58.425 C 73.575,58.17 73.875,58.005 74.235,58.005 C 74.31,58.005 74.445,58.005 74.64,58.02 C 74.76,58.035 74.865,58.035 75.06,58.035 C 75.375,58.035 75.615,58.02 76.005,57.975 C 74.34,59.775 73.71,61.02 73.71,62.505 C 73.71,63.66 74.4,64.485 75.36,64.485 C 75.99,64.485 76.56,64.215 77.235,63.6 C 77.94,62.955 78.66,61.95 79.125,60.93 C 79.455,60.18 79.71,59.175 79.71,58.575 C 79.71,57.72 79.32,57.12 78.78,57.12 C 78.585,57.12 78.405,57.165 78.285,57.3 L 77.535,57.99 z"
         style="font-style:normal;font-variant:normal;font-weight:normal;font-stretch:normal;letter-spacing:normal;word-spacing:normal;text-anchor:start;fill:#000000;fill-opacity:1;stroke:none;stroke-width:0;stroke-linecap:butt;stroke-linejoin:miter;stroke-miterlimit:10.43299961;stroke-dasharray:none;stroke-dashoffset:0;stroke-opacity:1" />
      <path
         id="path3302"
         d="M 80.73,61.275 L 81.075,61.275 L 81.285,60.63 C 81.405,60.24 82.125,59.865 82.71,59.865 C 83.445,59.865 84.06,60.465 84.06,61.185 C 84.06,62.025 83.385,62.745 82.575,62.745 C 82.485,62.745 82.365,62.73 82.215,62.73 L 82.05,62.715 L 81.915,63.315 L 81.99,63.39 C 82.425,63.195 82.635,63.135 82.935,63.135 C 83.88,63.135 84.435,63.735 84.435,64.77 C 84.435,65.925 83.73,66.69 82.68,66.69 C 82.155,66.69 81.69,66.51 81.36,66.195 C 81.075,65.955 80.925,65.685 80.715,65.07 L 80.415,65.19 C 80.64,65.88 80.745,66.285 80.805,66.855 C 81.405,67.065 81.915,67.155 82.335,67.155 C 83.235,67.155 84.285,66.645 84.9,65.88 C 85.29,65.415 85.485,64.92 85.485,64.38 C 85.485,63.84 85.26,63.36 84.855,63.075 C 84.57,62.865 84.3,62.775 83.73,62.685 C 84.645,61.98 84.99,61.455 84.99,60.78 C 84.99,59.775 84.15,59.1 82.89,59.1 C 82.11,59.1 81.6,59.31 81.06,59.865 L 80.73,61.275 z"
         style="font-style:normal;font-variant:normal;font-weight:normal;font-stretch:normal;letter-spacing:normal;word-spacing:normal;text-anchor:start;fill:#000000;fill-opacity:1;stroke:none;stroke-width:0;stroke-linecap:butt;stroke-linejoin:miter;stroke-miterlimit:10.43299961;stroke-dasharray:none;stroke-dashoffset:0;stroke-opacity:1" />
    </g>
  </g>
</svg>
