<?xml version="1.0" encoding="UTF-8" standalone="no"?>
<!-- Created with Inkscape (http://www.inkscape.org/) -->
<svg
   xmlns:ns0="http://www.iki.fi/pav/software/textext/"
   xmlns:dc="http://purl.org/dc/elements/1.1/"
   xmlns:cc="http://creativecommons.org/ns#"
   xmlns:rdf="http://www.w3.org/1999/02/22-rdf-syntax-ns#"
   xmlns:svg="http://www.w3.org/2000/svg"
   xmlns="http://www.w3.org/2000/svg"
   xmlns:sodipodi="http://sodipodi.sourceforge.net/DTD/sodipodi-0.dtd"
   xmlns:inkscape="http://www.inkscape.org/namespaces/inkscape"
   width="744.09448819"
   height="1052.3622047"
   id="svg2"
   sodipodi:version="0.32"
   inkscape:version="0.46"
   sodipodi:docname="basis-constructionsvg.svg"
   inkscape:output_extension="org.inkscape.output.svg.inkscape">
  <sodipodi:namedview
     id="base"
     pagecolor="#ffffff"
     bordercolor="#666666"
     borderopacity="1.0"
     gridtolerance="10000"
     guidetolerance="10"
     objecttolerance="10"
     inkscape:pageopacity="0.0"
     inkscape:pageshadow="2"
     inkscape:zoom="0.7"
     inkscape:cx="433.51878"
     inkscape:cy="627.72709"
     inkscape:document-units="px"
     inkscape:current-layer="layer1"
     showgrid="false"
     inkscape:window-width="1624"
     inkscape:window-height="905"
     inkscape:window-x="0"
     inkscape:window-y="25">
    <inkscape:grid
       type="xygrid"
       id="grid2383" />
  </sodipodi:namedview>
  <defs
     id="defs4">
    <marker
       inkscape:stockid="Arrow1Lend"
       orient="auto"
       refY="0.0"
       refX="0.0"
       id="Arrow1Lend"
       style="overflow:visible;">
      <path
         id="path3353"
         d="M 0.0,0.0 L 5.0,-5.0 L -12.5,0.0 L 5.0,5.0 L 0.0,0.0 z "
         style="fill-rule:evenodd;stroke:#000000;stroke-width:1.0pt;marker-start:none;"
         transform="scale(0.8) rotate(180) translate(12.5,0)" />
    </marker>
    <linearGradient
       id="linearGradient3297">
      <stop
         style="stop-color:#646464;stop-opacity:1;"
         offset="0"
         id="stop3299" />
      <stop
         id="stop3309"
         offset="0.5"
         style="stop-color:#646464;stop-opacity:0.49803922;" />
      <stop
         style="stop-color:#646464;stop-opacity:0;"
         offset="1"
         id="stop3301" />
    </linearGradient>
    <linearGradient
       id="linearGradient3283">
      <stop
         style="stop-color:#646464;stop-opacity:1;"
         offset="0"
         id="stop3285" />
      <stop
         style="stop-color:#646464;stop-opacity:0;"
         offset="1"
         id="stop3287" />
    </linearGradient>
    <inkscape:perspective
       sodipodi:type="inkscape:persp3d"
       inkscape:vp_x="0 : 526.18109 : 1"
       inkscape:vp_y="0 : 1000 : 0"
       inkscape:vp_z="744.09448 : 526.18109 : 1"
       inkscape:persp3d-origin="372.04724 : 350.78739 : 1"
       id="perspective10" />
  </defs>
  <metadata
     id="metadata7">
    <rdf:RDF>
      <cc:Work
         rdf:about="">
        <dc:format>image/svg+xml</dc:format>
        <dc:type
           rdf:resource="http://purl.org/dc/dcmitype/StillImage" />
      </cc:Work>
    </rdf:RDF>
  </metadata>
  <g
     inkscape:label="Layer 1"
     inkscape:groupmode="layer"
     id="layer1">
    <path
       style="fill:#c8c8c8;fill-opacity:1;fill-rule:evenodd;stroke:#000000;stroke-width:1px;stroke-linecap:butt;stroke-linejoin:miter;stroke-opacity:1"
       d="M 2,252.36218 L 202,252.36218 L 302,92.362183 L 102,182.36218 L 2,252.36218 z"
       id="path2387"
       sodipodi:nodetypes="ccccc" />
    <path
       style="fill:#c8c8c8;fill-opacity:1;fill-rule:evenodd;stroke:#000000;stroke-width:1px;stroke-linecap:butt;stroke-linejoin:miter;stroke-opacity:1"
       d="M 425.76969,249.0863 C 493.56985,239.70447 566.34993,222.60738 648.23289,255.14721 L 692.85714,126.6479 L 551.14079,163.99529 L 425.76969,249.0863 z"
       id="path3179"
       sodipodi:nodetypes="ccccc" />
    <path
       style="fill:#c8c8c8;fill-opacity:1;fill-rule:evenodd;stroke:#000000;stroke-width:1px;stroke-linecap:butt;stroke-linejoin:miter;stroke-opacity:1"
       d="M 82.861707,529.85979 C 146.01901,520.12082 221.83481,501.23801 305.32491,535.9207 L 349.94916,407.42139 L 210.37567,443.34021 L 82.861707,529.85979 z"
       id="path3197"
       sodipodi:nodetypes="ccccc" />
    <path
       style="fill:none;fill-rule:evenodd;stroke:#000000;stroke-width:1;stroke-linecap:butt;stroke-linejoin:miter;stroke-miterlimit:4;stroke-dasharray:4, 1;stroke-dashoffset:0;stroke-opacity:1"
       d="M 2,252.36218 L 202,252.36218 L 302,182.36218 L 102,182.36218 L 2,252.36218 z"
       id="path2385" />
    <path
       style="fill:none;fill-rule:evenodd;stroke:#000000;stroke-width:1;stroke-linecap:butt;stroke-linejoin:miter;stroke-miterlimit:4;stroke-dasharray:1, 2;stroke-dashoffset:0;stroke-opacity:1"
       d="M 12,216.40278 L 302,216.40278"
       id="path3173" />
    <path
       style="fill:none;fill-rule:evenodd;stroke:#000000;stroke-width:1;stroke-linecap:butt;stroke-linejoin:miter;stroke-miterlimit:4;stroke-dasharray:1, 2;stroke-dashoffset:0;stroke-opacity:1"
       d="M 55.77031,285.40386 L 235.83,158.62972"
       id="path3175"
       sodipodi:nodetypes="cc" />
    <path
       style="fill:none;fill-rule:evenodd;stroke:#000000;stroke-width:1;stroke-linecap:butt;stroke-linejoin:miter;stroke-miterlimit:4;stroke-dasharray:4, 1;stroke-dashoffset:0;stroke-opacity:1"
       d="M 426.00953,249.0863 C 496.8076,236.86957 570.59644,222.53085 648.23289,255.14721 L 692.85714,206.6479 L 552.77858,162.92386 L 426.00953,249.0863 z"
       id="path3177"
       sodipodi:nodetypes="ccccc" />
    <path
       style="fill:none;fill-rule:evenodd;stroke:#000000;stroke-width:1;stroke-linecap:butt;stroke-linejoin:miter;stroke-miterlimit:4;stroke-dasharray:4, 1;stroke-dashoffset:0;stroke-opacity:1"
       d="M 83.101547,529.85979 C 153.89962,517.64306 227.68846,503.30434 305.32491,535.9207 L 349.94916,487.42139 L 209.8706,443.69735 L 83.101547,529.85979 z"
       id="path3195"
       sodipodi:nodetypes="ccccc" />
    <path
       style="fill:none;fill-rule:evenodd;stroke:#000000;stroke-width:1;stroke-linecap:butt;stroke-linejoin:miter;stroke-miterlimit:4;stroke-dasharray:3, 1;stroke-dashoffset:0;stroke-opacity:1"
       d="M 326.85715,549.21933 L 366.85715,499.21933 L 496.85715,539.21933 L 446.85715,689.21935 C 426.99812,643.22404 423.65726,597.77934 326.85715,549.21933 z"
       id="path3201"
       sodipodi:nodetypes="ccccc" />
    <path
       style="fill:none;fill-rule:evenodd;stroke:#000000;stroke-width:1;stroke-linecap:butt;stroke-linejoin:miter;stroke-miterlimit:4;stroke-dasharray:3, 1;stroke-dashoffset:0;stroke-opacity:1"
       d="M 222.85715,425.21933 L 362.85715,475.21933 L 452.85715,375.21933 L 292.85715,365.21933 L 222.85715,425.21933 z"
       id="path3203" />
    <path
       style="fill:none;fill-rule:evenodd;stroke:#000000;stroke-width:1;stroke-linecap:butt;stroke-linejoin:miter;stroke-miterlimit:4;stroke-dasharray:3, 1;stroke-dashoffset:0;stroke-opacity:1"
       d="M 382.85715,485.21933 L 482.85715,375.21933 L 592.85715,485.21933 L 502.85715,525.21933 L 382.85715,485.21933"
       id="path3205" />
    <path
       style="fill:none;fill-rule:evenodd;stroke:#000000;stroke-width:1;stroke-linecap:butt;stroke-linejoin:miter;stroke-miterlimit:4;stroke-dasharray:1, 1;stroke-dashoffset:0;stroke-opacity:1"
       d="M 362.85715,475.21933 L 362.85715,400.21933"
       id="path3235" />
    <path
       style="fill:none;fill-rule:evenodd;stroke:#000000;stroke-width:1;stroke-linecap:butt;stroke-linejoin:miter;stroke-miterlimit:4;stroke-dasharray:1, 1;stroke-dashoffset:0;stroke-opacity:1"
       d="M 382.85715,485.21933 L 382.85715,410.21933"
       id="path3237" />
    <path
       style="fill:none;fill-rule:evenodd;stroke:#000000;stroke-width:1;stroke-linecap:butt;stroke-linejoin:miter;stroke-miterlimit:4;stroke-dasharray:1, 1;stroke-dashoffset:0;stroke-opacity:1"
       d="M 349.2405,487.32841 L 350.75573,407.52636"
       id="path3239" />
    <path
       style="fill:none;fill-opacity:1;fill-rule:evenodd;stroke:#000000;stroke-width:1px;stroke-linecap:butt;stroke-linejoin:miter;stroke-opacity:1"
       d="M 362.85715,400.21933 L 452.85715,375.21933 L 292.85715,365.21933 L 222.85715,425.21933 L 362.85715,400.21933 z"
       id="path3207"
       sodipodi:nodetypes="ccccc" />
    <path
       style="fill:none;fill-rule:evenodd;stroke:#000000;stroke-width:1;stroke-linecap:butt;stroke-linejoin:miter;stroke-miterlimit:4;stroke-dasharray:1, 1;stroke-dashoffset:0;stroke-opacity:1"
       d="M 366.87756,498.39948 L 366.87756,415.56697"
       id="path3241" />
    <path
       style="fill:none;fill-opacity:1;fill-rule:evenodd;stroke:#000000;stroke-width:1px;stroke-linecap:butt;stroke-linejoin:miter;stroke-opacity:1"
       d="M 366.85715,414.21933 L 326.85715,549.21933 C 411.46689,593.18249 421.43979,623.39898 446.85715,689.21935 L 496.85715,539.21933 L 366.85715,414.21933"
       id="path3209"
       sodipodi:nodetypes="ccccc" />
    <path
       style="fill:none;fill-opacity:1;fill-rule:evenodd;stroke:#000000;stroke-width:1px;stroke-linecap:butt;stroke-linejoin:miter;stroke-opacity:1"
       d="M 382.85715,410.21933 L 502.85715,525.21933 L 592.85715,485.21933 L 482.85715,375.21933 L 382.85715,410.21933 z"
       id="path3213" />
    <path
       style="fill:none;fill-rule:evenodd;stroke:#000000;stroke-width:1px;stroke-linecap:butt;stroke-linejoin:miter;marker-end:url(#Arrow1Lend);stroke-opacity:1"
       d="M 324.28571,140.93361 C 415.64842,82.537798 476.68867,105.0019 534.28571,136.64789"
       id="path3345"
       sodipodi:nodetypes="cc" />
    <g
       id="g3586"
       transform="translate(111.11678,43.436559)"
       style="stroke:none">
      <path
         id="path3272"
         d="M 41.835,56.46 L 41.835,56.385 L 41.835,56.31 L 41.835,56.175 L 41.835,56.04 L 41.835,55.905 L 41.85,55.785 L 41.85,55.65 L 41.865,55.53 L 41.88,55.41 L 41.895,55.29 L 41.91,55.155 L 41.925,55.035 L 41.94,54.9 L 41.97,54.78 L 41.985,54.645 L 42,54.57 L 42.015,54.495 L 42.03,54.42 L 42.03,54.345 C 40.845,53.865 40.17,53.715 39.345,53.715 C 37.125,53.715 35.505,55.125 35.505,57.09 C 35.505,57.81 35.7,58.35 36.135,58.755 C 36.645,59.22 37.335,59.46 38.775,59.655 C 39.93,59.82 40.455,59.985 40.845,60.33 C 41.235,60.645 41.415,61.08 41.415,61.635 C 41.415,62.985 40.29,63.96 38.73,63.96 C 37.545,63.96 36.375,63.375 36.3,62.76 L 36.18,61.755 L 35.7,61.755 C 35.715,62.025 35.715,62.265 35.715,62.355 C 35.715,63.045 35.685,63.375 35.595,64.05 C 36.45,64.425 37.32,64.62 38.19,64.62 C 40.785,64.62 42.66,63.045 42.66,60.885 C 42.66,60.18 42.465,59.685 42.06,59.295 C 41.535,58.8 40.905,58.605 39.225,58.38 C 37.41,58.14 36.765,57.645 36.765,56.505 C 36.765,55.245 37.71,54.345 39.015,54.345 C 39.6,54.345 40.155,54.465 40.56,54.69 C 41.055,54.945 41.22,55.17 41.265,55.605 L 41.355,56.46 L 41.835,56.46 z"
         style="font-style:normal;font-variant:normal;font-weight:normal;font-stretch:normal;letter-spacing:normal;word-spacing:normal;text-anchor:start;fill:#000000;fill-opacity:1;stroke:none;stroke-width:0;stroke-linecap:butt;stroke-linejoin:miter;stroke-miterlimit:10.43299960999999954;stroke-dasharray:none;stroke-dashoffset:0;stroke-opacity:1" />
      <path
         id="path3274"
         d="M 43.095,54.435 L 43.935,54.435 C 44.205,54.435 44.31,54.6 44.31,55.05 L 44.31,62.79 C 44.31,63.735 44.265,63.84 43.755,63.87 L 43.08,63.915 L 43.08,64.365 C 44.1,64.335 44.505,64.32 44.94,64.32 C 45.36,64.32 45.765,64.335 46.785,64.365 L 46.785,63.915 L 46.11,63.87 C 45.6,63.84 45.555,63.735 45.555,62.79 L 45.555,59.625 C 45.555,58.95 46.545,58.215 47.46,58.215 C 48.465,58.215 49.11,58.965 49.11,60.12 L 49.11,64.365 C 50.025,64.32 50.04,64.32 50.295,64.32 C 50.505,64.32 50.505,64.32 51.54,64.365 L 51.54,63.915 L 50.925,63.87 C 50.415,63.84 50.37,63.75 50.37,62.79 L 50.37,59.91 C 50.37,58.155 49.545,57.315 47.88,57.315 C 47.325,57.315 47.01,57.42 46.695,57.675 L 45.555,58.665 L 45.555,53.58 L 45.42,53.475 C 44.775,53.715 44.28,53.835 43.095,54.015 L 43.095,54.435 z"
         style="font-style:normal;font-variant:normal;font-weight:normal;font-stretch:normal;letter-spacing:normal;word-spacing:normal;text-anchor:start;fill:#000000;fill-opacity:1;stroke:none;stroke-width:0;stroke-linecap:butt;stroke-linejoin:miter;stroke-miterlimit:10.43299960999999954;stroke-dasharray:none;stroke-dashoffset:0;stroke-opacity:1" />
      <path
         id="path3276"
         d="M 56.52,63.09 L 56.46,64.365 C 57.42,64.32 57.42,64.32 57.615,64.32 C 57.69,64.32 58.065,64.335 58.725,64.365 L 58.725,63.915 L 58.14,63.885 C 57.78,63.87 57.72,63.75 57.72,63.015 L 57.72,60.285 C 57.72,58.095 57.09,57.315 55.365,57.315 C 54.72,57.315 54.12,57.48 53.55,57.81 L 52.77,58.29 L 52.77,59.265 L 53.145,59.37 L 53.34,58.905 C 53.655,58.2 53.805,58.095 54.495,58.095 C 55.905,58.095 56.49,58.65 56.52,60.015 L 56.52,60.495 L 56.52,62.46 C 56.1,63.075 55.155,63.645 54.57,63.645 C 53.97,63.645 53.445,63.09 53.445,62.445 C 53.445,61.89 53.745,61.365 54.195,61.095 C 54.57,60.87 55.395,60.66 56.52,60.495 L 56.52,60.015 L 55.05,60.285 C 53.01,60.66 52.17,61.365 52.17,62.655 C 52.17,63.825 52.86,64.5 54.045,64.5 C 54.315,64.5 54.57,64.455 54.675,64.38 L 56.52,63.09 z"
         style="font-style:normal;font-variant:normal;font-weight:normal;font-stretch:normal;letter-spacing:normal;word-spacing:normal;text-anchor:start;fill:#000000;fill-opacity:1;stroke:none;stroke-width:0;stroke-linecap:butt;stroke-linejoin:miter;stroke-miterlimit:10.43299960999999954;stroke-dasharray:none;stroke-dashoffset:0;stroke-opacity:1" />
      <path
         id="path3278"
         d="M 59.31,58.335 L 59.865,58.335 C 60.465,58.335 60.525,58.44 60.525,59.43 L 60.525,66.945 C 60.525,67.89 60.48,67.995 59.97,68.025 L 59.28,68.07 L 59.28,68.52 C 60.78,68.475 60.78,68.475 61.155,68.475 C 61.53,68.475 61.53,68.475 63.015,68.52 L 63.015,68.07 L 62.34,68.025 C 61.83,67.995 61.785,67.89 61.785,66.945 L 61.785,64.125 C 62.235,64.395 62.715,64.5 63.375,64.5 C 63.81,64.5 64.2,64.41 64.44,64.26 L 66.15,63.15 C 66.75,62.76 67.44,61.23 67.44,60.27 C 67.44,58.605 66.075,57.315 64.335,57.315 C 63.78,57.315 63.24,57.45 63.015,57.675 L 61.785,58.8 L 62.055,59.115 C 62.49,58.56 63.105,58.275 63.84,58.275 C 65.25,58.275 66.15,59.265 66.15,60.825 C 66.15,62.49 65.145,63.735 63.795,63.735 C 62.985,63.735 62.37,63.465 61.785,62.85 L 61.785,59.745 C 61.785,59.535 61.86,59.37 62.055,59.115 L 61.785,58.8 L 61.785,57.36 L 61.65,57.315 C 60.885,57.615 60.105,57.825 59.31,57.915 L 59.31,58.335 z"
         style="font-style:normal;font-variant:normal;font-weight:normal;font-stretch:normal;letter-spacing:normal;word-spacing:normal;text-anchor:start;fill:#000000;fill-opacity:1;stroke:none;stroke-width:0;stroke-linecap:butt;stroke-linejoin:miter;stroke-miterlimit:10.43299960999999954;stroke-dasharray:none;stroke-dashoffset:0;stroke-opacity:1" />
      <path
         id="path3280"
         d="M 74.67,63.27 L 74.475,63.12 C 73.53,63.69 73.185,63.825 72.54,63.825 C 71.565,63.825 70.755,63.39 70.35,62.655 C 70.065,62.16 69.945,61.74 69.93,60.885 L 72.105,60.885 C 73.14,60.885 73.785,60.84 74.805,60.675 C 74.82,60.465 74.835,60.33 74.835,60.15 C 74.835,58.425 73.74,57.315 72.06,57.315 L 71.88,57.795 C 72.375,57.795 72.765,57.99 73.035,58.395 C 73.365,58.89 73.47,59.325 73.515,60.33 L 73.515,60.33 C 72.735,60.36 72.375,60.375 71.835,60.375 C 71.145,60.375 70.755,60.36 69.945,60.285 C 69.945,59.58 70.02,59.25 70.2,58.86 C 70.515,58.2 71.16,57.795 71.88,57.795 L 72.06,57.315 C 71.505,57.315 70.86,57.51 70.26,57.855 C 69.03,58.56 68.535,59.49 68.535,61.05 C 68.535,61.98 68.76,62.79 69.165,63.36 C 69.765,64.155 70.755,64.62 71.88,64.62 C 72.435,64.62 72.99,64.5 73.605,64.23 C 74.01,64.065 74.31,63.87 74.37,63.78 L 74.67,63.27 z"
         style="font-style:normal;font-variant:normal;font-weight:normal;font-stretch:normal;letter-spacing:normal;word-spacing:normal;text-anchor:start;fill:#000000;fill-opacity:1;stroke:none;stroke-width:0;stroke-linecap:butt;stroke-linejoin:miter;stroke-miterlimit:10.43299960999999954;stroke-dasharray:none;stroke-dashoffset:0;stroke-opacity:1" />
      <path
         id="path3282"
         d="M 84.33,53.595 L 84.3,53.595 L 84.27,53.58 L 84.255,53.565 L 84.225,53.565 L 84.195,53.55 L 84.165,53.535 L 84.15,53.535 L 84.12,53.52 L 84.09,53.52 L 84.075,53.505 L 84.045,53.505 L 84.03,53.49 L 84,53.49 L 83.985,53.49 L 83.97,53.475 L 83.94,53.475 L 83.91,53.46 L 83.865,53.46 L 83.835,53.445 L 83.79,53.445 L 83.76,53.445 L 83.715,53.445 L 83.685,53.445 L 83.64,53.43 C 83.175,53.43 82.65,53.685 82.32,54.06 L 81.45,55.05 C 81.015,55.545 80.82,56.22 80.82,57.21 L 80.82,57.825 L 79.785,58.29 L 79.785,58.62 L 80.82,58.56 L 80.82,62.79 C 80.82,63.735 80.775,63.84 80.265,63.87 L 79.575,63.915 L 79.575,64.365 C 81.075,64.32 81.075,64.32 81.45,64.32 C 81.825,64.32 81.825,64.32 83.31,64.365 L 83.31,63.915 L 82.635,63.87 C 82.125,63.84 82.08,63.735 82.08,62.79 L 82.08,58.56 L 83.925,58.56 L 84.03,57.765 L 82.08,57.825 L 82.08,56.565 C 82.08,54.84 82.275,54.42 83.115,54.42 C 83.52,54.42 83.79,54.525 84.15,54.84 L 84.33,54.75 L 84.33,53.595 z"
         style="font-style:normal;font-variant:normal;font-weight:normal;font-stretch:normal;letter-spacing:normal;word-spacing:normal;text-anchor:start;fill:#000000;fill-opacity:1;stroke:none;stroke-width:0;stroke-linecap:butt;stroke-linejoin:miter;stroke-miterlimit:10.43299960999999954;stroke-dasharray:none;stroke-dashoffset:0;stroke-opacity:1" />
      <path
         id="path3284"
         d="M 91.725,57.36 L 91.59,57.315 C 90.825,57.615 90.06,57.825 89.265,57.915 L 89.265,58.335 L 89.82,58.335 C 90.405,58.335 90.465,58.44 90.465,59.43 L 90.465,61.86 C 90.465,62.19 90.255,62.61 89.925,62.955 C 89.505,63.375 89.025,63.585 88.44,63.585 C 87.915,63.585 87.495,63.42 87.255,63.135 C 87.045,62.895 86.94,62.43 86.94,61.77 L 86.94,57.36 L 86.805,57.315 C 86.04,57.615 85.275,57.825 84.48,57.915 L 84.48,58.335 L 85.035,58.335 C 85.635,58.335 85.695,58.44 85.695,59.43 L 85.695,61.935 C 85.695,62.985 85.785,63.45 86.04,63.825 C 86.37,64.275 86.94,64.5 87.795,64.5 C 88.47,64.5 89.07,64.29 89.475,63.915 L 90.465,62.985 C 90.465,63.42 90.45,63.66 90.405,64.365 C 91.41,64.32 91.425,64.32 91.65,64.32 C 91.86,64.32 91.86,64.32 92.895,64.365 L 92.895,63.915 L 92.28,63.87 C 91.77,63.84 91.725,63.75 91.725,62.79 L 91.725,57.36 z"
         style="font-style:normal;font-variant:normal;font-weight:normal;font-stretch:normal;letter-spacing:normal;word-spacing:normal;text-anchor:start;fill:#000000;fill-opacity:1;stroke:none;stroke-width:0;stroke-linecap:butt;stroke-linejoin:miter;stroke-miterlimit:10.43299960999999954;stroke-dasharray:none;stroke-dashoffset:0;stroke-opacity:1" />
      <path
         id="path3286"
         d="M 99.345,64.365 L 99.39,64.365 L 99.435,64.35 L 99.465,64.35 L 99.51,64.35 L 99.54,64.35 L 99.585,64.35 L 99.615,64.35 L 99.645,64.35 L 99.69,64.35 L 99.72,64.35 L 99.75,64.335 L 99.78,64.335 L 99.795,64.335 L 99.825,64.335 L 99.855,64.335 L 99.885,64.335 L 99.9,64.335 L 99.93,64.335 L 99.975,64.335 L 100.02,64.335 L 100.05,64.335 L 100.095,64.32 L 100.125,64.32 L 100.155,64.32 L 100.185,64.32 L 100.215,64.32 L 100.245,64.32 L 100.26,64.32 L 100.29,64.32 L 100.305,64.32 L 100.32,64.32 L 100.365,64.32 L 100.41,64.32 L 100.44,64.32 L 100.47,64.32 L 100.485,64.32 L 100.5,64.32 L 100.53,64.32 C 100.74,64.32 100.74,64.32 101.775,64.365 L 101.775,63.915 L 101.16,63.87 C 100.65,63.84 100.605,63.75 100.605,62.79 L 100.605,59.91 C 100.605,58.155 99.78,57.315 98.1,57.315 C 97.56,57.315 97.245,57.42 96.93,57.675 L 95.79,58.665 L 95.79,57.36 L 95.655,57.315 C 94.89,57.615 94.11,57.825 93.33,57.915 L 93.33,58.335 L 93.885,58.335 C 94.47,58.335 94.53,58.44 94.53,59.43 L 94.53,62.79 C 94.53,63.735 94.485,63.84 93.99,63.87 L 93.315,63.915 L 93.315,64.365 C 94.335,64.335 94.725,64.32 95.16,64.32 C 95.595,64.32 96,64.335 97.02,64.365 L 97.02,63.915 L 96.345,63.87 C 95.835,63.84 95.79,63.735 95.79,62.79 L 95.79,59.625 C 95.79,58.95 96.78,58.215 97.695,58.215 C 98.685,58.215 99.345,58.965 99.345,60.12 L 99.345,64.365 z"
         style="font-style:normal;font-variant:normal;font-weight:normal;font-stretch:normal;letter-spacing:normal;word-spacing:normal;text-anchor:start;fill:#000000;fill-opacity:1;stroke:none;stroke-width:0;stroke-linecap:butt;stroke-linejoin:miter;stroke-miterlimit:10.43299960999999954;stroke-dasharray:none;stroke-dashoffset:0;stroke-opacity:1" />
      <path
         id="path3288"
         d="M 107.88,59.67 L 107.88,59.535 L 107.88,59.415 L 107.895,59.295 L 107.895,59.16 L 107.895,59.04 L 107.91,58.92 L 107.925,58.815 L 107.94,58.695 L 107.955,58.575 L 107.97,58.47 L 107.985,58.35 L 108,58.245 L 108.015,58.14 L 108.045,58.035 L 108.06,57.93 L 108.09,57.825 C 107.49,57.48 106.965,57.315 106.35,57.315 C 105.645,57.315 104.805,57.585 103.905,58.155 C 102.855,58.815 102.3,59.865 102.3,61.17 C 102.3,63.195 103.725,64.62 105.72,64.62 C 106.5,64.62 107.625,64.335 107.775,64.11 L 108.09,63.63 L 107.94,63.405 C 107.385,63.705 106.905,63.84 106.365,63.84 C 104.715,63.84 103.62,62.55 103.62,60.585 C 103.62,58.98 104.37,58.08 105.72,58.08 C 106.365,58.08 107.085,58.38 107.355,58.755 L 107.46,59.67 L 107.88,59.67 z"
         style="font-style:normal;font-variant:normal;font-weight:normal;font-stretch:normal;letter-spacing:normal;word-spacing:normal;text-anchor:start;fill:#000000;fill-opacity:1;stroke:none;stroke-width:0;stroke-linecap:butt;stroke-linejoin:miter;stroke-miterlimit:10.43299960999999954;stroke-dasharray:none;stroke-dashoffset:0;stroke-opacity:1" />
      <path
         id="path3290"
         d="M 110.025,58.605 L 110.025,62.91 C 110.025,64.02 110.505,64.5 111.66,64.5 C 112.005,64.5 112.365,64.425 112.455,64.32 L 113.175,63.525 L 112.98,63.27 C 112.605,63.48 112.38,63.555 112.095,63.555 C 111.51,63.555 111.27,63.255 111.27,62.52 L 111.27,58.605 L 113.19,58.605 L 113.325,57.795 L 111.27,57.885 L 111.27,57.33 C 111.27,56.7 111.315,56.16 111.435,55.2 L 111.255,55.035 C 110.895,55.26 110.46,55.455 109.995,55.605 C 110.04,56.055 110.055,56.34 110.055,56.79 L 110.055,57.825 L 108.885,58.35 L 108.885,58.665 L 110.025,58.605 z"
         style="font-style:normal;font-variant:normal;font-weight:normal;font-stretch:normal;letter-spacing:normal;word-spacing:normal;text-anchor:start;fill:#000000;fill-opacity:1;stroke:none;stroke-width:0;stroke-linecap:butt;stroke-linejoin:miter;stroke-miterlimit:10.43299960999999954;stroke-dasharray:none;stroke-dashoffset:0;stroke-opacity:1" />
      <path
         id="path3292"
         d="M 116.235,57.36 L 116.1,57.315 C 115.335,57.615 114.57,57.825 113.775,57.915 L 113.775,58.335 L 114.315,58.335 C 114.915,58.335 114.975,58.44 114.975,59.43 L 114.975,62.79 C 114.975,63.735 114.93,63.84 114.435,63.87 L 113.745,63.915 L 113.745,64.365 C 115.23,64.32 115.23,64.32 115.605,64.32 C 115.98,64.32 115.98,64.32 117.48,64.365 L 117.48,63.915 L 116.79,63.87 C 116.28,63.84 116.235,63.735 116.235,62.79 L 116.235,57.36 z"
         style="font-style:normal;font-variant:normal;font-weight:normal;font-stretch:normal;letter-spacing:normal;word-spacing:normal;text-anchor:start;fill:#000000;fill-opacity:1;stroke:none;stroke-width:0;stroke-linecap:butt;stroke-linejoin:miter;stroke-miterlimit:10.43299960999999954;stroke-dasharray:none;stroke-dashoffset:0;stroke-opacity:1" />
      <path
         id="path3294"
         d="M 115.545,54.045 L 115.5,54.045 L 115.47,54.06 L 115.425,54.06 L 115.38,54.06 L 115.35,54.075 L 115.305,54.09 L 115.26,54.105 L 115.23,54.12 L 115.185,54.135 L 115.155,54.15 L 115.125,54.18 L 115.08,54.195 L 115.05,54.225 L 115.02,54.24 L 114.99,54.27 L 114.96,54.3 L 114.93,54.33 L 114.9,54.36 L 114.885,54.39 L 114.855,54.42 L 114.84,54.465 L 114.81,54.495 L 114.795,54.525 L 114.78,54.57 L 114.765,54.6 L 114.75,54.645 L 114.735,54.675 L 114.735,54.72 L 114.72,54.765 L 114.72,54.81 L 114.705,54.84 L 114.705,54.885 C 114.705,55.32 115.095,55.71 115.53,55.71 C 115.965,55.71 116.37,55.32 116.37,54.885 C 116.37,54.465 115.965,54.045 115.545,54.045 z"
         style="font-style:normal;font-variant:normal;font-weight:normal;font-stretch:normal;letter-spacing:normal;word-spacing:normal;text-anchor:start;fill:#000000;fill-opacity:1;stroke:none;stroke-width:0;stroke-linecap:butt;stroke-linejoin:miter;stroke-miterlimit:10.43299960999999954;stroke-dasharray:none;stroke-dashoffset:0;stroke-opacity:1" />
      <path
         id="path3296"
         d="M 121.935,57.315 L 121.665,57.795 C 123.045,57.795 124.065,59.295 124.065,61.335 C 124.065,63.045 123.3,64.125 122.085,64.125 C 120.63,64.125 119.64,62.685 119.64,60.57 C 119.64,58.77 120.36,57.795 121.665,57.795 L 121.665,57.795 L 121.935,57.315 C 119.76,57.315 118.245,58.845 118.245,61.08 C 118.245,63.18 119.58,64.62 121.5,64.62 C 123.81,64.62 125.445,63.015 125.445,60.78 C 125.445,58.755 123.99,57.315 121.935,57.315 z"
         style="font-style:normal;font-variant:normal;font-weight:normal;font-stretch:normal;letter-spacing:normal;word-spacing:normal;text-anchor:start;fill:#000000;fill-opacity:1;stroke:none;stroke-width:0;stroke-linecap:butt;stroke-linejoin:miter;stroke-miterlimit:10.43299960999999954;stroke-dasharray:none;stroke-dashoffset:0;stroke-opacity:1" />
      <path
         id="path3298"
         d="M 132.06,64.365 L 132.105,64.365 L 132.15,64.35 L 132.18,64.35 L 132.225,64.35 L 132.255,64.35 L 132.3,64.35 L 132.33,64.35 L 132.36,64.35 L 132.405,64.35 L 132.435,64.35 L 132.465,64.335 L 132.495,64.335 L 132.51,64.335 L 132.54,64.335 L 132.57,64.335 L 132.6,64.335 L 132.615,64.335 L 132.645,64.335 L 132.69,64.335 L 132.735,64.335 L 132.765,64.335 L 132.81,64.32 L 132.84,64.32 L 132.87,64.32 L 132.9,64.32 L 132.93,64.32 L 132.96,64.32 L 132.975,64.32 L 133.005,64.32 L 133.02,64.32 L 133.035,64.32 L 133.08,64.32 L 133.125,64.32 L 133.155,64.32 L 133.185,64.32 L 133.2,64.32 L 133.215,64.32 L 133.245,64.32 C 133.455,64.32 133.455,64.32 134.49,64.365 L 134.49,63.915 L 133.875,63.87 C 133.365,63.84 133.32,63.75 133.32,62.79 L 133.32,59.91 C 133.32,58.155 132.495,57.315 130.815,57.315 C 130.275,57.315 129.96,57.42 129.645,57.675 L 128.505,58.665 L 128.505,57.36 L 128.37,57.315 C 127.605,57.615 126.825,57.825 126.045,57.915 L 126.045,58.335 L 126.6,58.335 C 127.185,58.335 127.245,58.44 127.245,59.43 L 127.245,62.79 C 127.245,63.735 127.2,63.84 126.705,63.87 L 126.03,63.915 L 126.03,64.365 C 127.05,64.335 127.44,64.32 127.875,64.32 C 128.31,64.32 128.715,64.335 129.735,64.365 L 129.735,63.915 L 129.06,63.87 C 128.55,63.84 128.505,63.735 128.505,62.79 L 128.505,59.625 C 128.505,58.95 129.495,58.215 130.41,58.215 C 131.4,58.215 132.06,58.965 132.06,60.12 L 132.06,64.365 z"
         style="font-style:normal;font-variant:normal;font-weight:normal;font-stretch:normal;letter-spacing:normal;word-spacing:normal;text-anchor:start;fill:#000000;fill-opacity:1;stroke:none;stroke-width:0;stroke-linecap:butt;stroke-linejoin:miter;stroke-miterlimit:10.43299960999999954;stroke-dasharray:none;stroke-dashoffset:0;stroke-opacity:1" />
    </g>
    <g
       id="g3602"
       transform="translate(113.64216,69.700526)"
       style="stroke:none">
      <polygon
         transform="matrix(1.5,0,0,-1.5,-300,1125)"
         id="polygon3300"
         points="296.53,714.02 295.29,712.35 295.64,712.35 296.84,713.38 298.05,712.35 298.39,712.35 297.15,714.02 296.53,714.02 "
         style="font-style:normal;font-variant:normal;font-weight:normal;font-stretch:normal;letter-spacing:normal;word-spacing:normal;text-anchor:start;fill:#000000;fill-opacity:1;stroke:none;stroke-width:0;stroke-linecap:butt;stroke-linejoin:miter;stroke-miterlimit:10.43299960999999954;stroke-dasharray:none;stroke-dashoffset:0;stroke-opacity:1" />
      <path
         id="path3302"
         d="M 147.015,57.99 L 147.18,58.275 C 147.315,58.185 147.45,58.14 147.585,58.14 C 147.99,58.14 148.23,58.485 148.23,59.085 C 148.23,61.26 146.775,63.735 145.515,63.735 C 145.08,63.735 144.765,63.135 144.765,62.31 C 144.765,61.605 144.9,60.63 145.08,59.985 L 145.845,57.24 L 145.755,57.12 L 144.645,57.435 L 144.21,59.67 C 144.03,60.6 143.82,61.185 143.385,61.995 C 142.785,63.12 142.215,63.735 141.78,63.735 C 141.255,63.735 140.91,63.15 140.91,62.28 C 140.91,60.51 141.525,59.055 142.995,57.39 L 142.845,57.12 C 142.545,57.24 142.35,57.3 141.93,57.3 C 141.525,57.3 140.895,57.255 140.46,57.225 L 140.28,57.21 C 140.19,57.18 140.115,57.18 140.1,57.18 C 139.92,57.18 139.785,57.225 139.62,57.3 C 139.41,57.69 139.245,58.23 139.05,59.055 L 139.38,59.055 L 139.635,58.425 C 139.74,58.17 140.04,58.005 140.4,58.005 C 140.475,58.005 140.61,58.005 140.805,58.02 C 140.925,58.035 141.045,58.035 141.24,58.035 C 141.54,58.035 141.735,58.02 142.11,57.975 L 142.065,58.035 C 141.975,58.155 141.915,58.23 141.675,58.515 C 140.325,60.09 139.815,61.17 139.815,62.43 C 139.815,63.66 140.34,64.485 141.135,64.485 C 142.08,64.485 142.86,63.66 143.97,61.515 C 143.835,62.175 143.79,62.55 143.79,62.895 C 143.79,63.84 144.225,64.485 144.9,64.485 C 146.1,64.485 147.675,62.97 148.605,60.93 C 148.935,60.18 149.19,59.175 149.19,58.575 C 149.19,57.72 148.8,57.12 148.26,57.12 C 148.065,57.12 147.885,57.165 147.765,57.3 L 147.015,57.99 z"
         style="font-style:normal;font-variant:normal;font-weight:normal;font-stretch:normal;letter-spacing:normal;word-spacing:normal;text-anchor:start;fill:#000000;fill-opacity:1;stroke:none;stroke-width:0;stroke-linecap:butt;stroke-linejoin:miter;stroke-miterlimit:10.43299960999999954;stroke-dasharray:none;stroke-dashoffset:0;stroke-opacity:1" />
    </g>
    <g
       id="g3606"
       transform="translate(95.459416,139.40105)"
       style="stroke:none">
      <polygon
         transform="matrix(1.5,0,0,-1.5,-300,1125)"
         id="polygon3304"
         points="306.4,716.09 305.16,714.42 305.51,714.42 306.71,715.45 307.92,714.42 308.27,714.42 307.02,716.09 306.4,716.09 "
         style="font-style:normal;font-variant:normal;font-weight:normal;font-stretch:normal;letter-spacing:normal;word-spacing:normal;text-anchor:start;fill:#000000;fill-opacity:1;stroke:none;stroke-width:0;stroke-linecap:butt;stroke-linejoin:miter;stroke-miterlimit:10.43299960999999954;stroke-dasharray:none;stroke-dashoffset:0;stroke-opacity:1" />
      <path
         id="path3306"
         d="M 159.375,54.39 L 159.42,53.97 L 159.06,53.97 L 157.725,54.015 C 157.485,54.015 157.215,54.015 156.57,54 L 155.61,53.97 L 155.565,54.39 L 156.27,54.42 C 156.63,54.435 156.795,54.555 156.795,54.825 C 156.795,55.035 156.75,55.47 156.66,55.965 L 155.565,62.445 C 155.31,63.825 155.295,63.84 154.71,63.9 L 154.095,63.945 L 154.035,64.365 L 154.665,64.35 C 155.37,64.335 155.715,64.32 156,64.32 L 157.455,64.365 L 157.845,64.365 L 157.89,63.945 L 157.155,63.9 C 156.75,63.87 156.615,63.765 156.615,63.465 C 156.615,63.375 156.63,63.21 156.645,63.15 L 157.29,59.235 C 159.525,61.785 159.87,62.22 161.445,64.365 L 162.48,64.32 C 163.005,64.335 163.095,64.35 163.485,64.365 L 163.485,63.915 L 163.185,63.915 C 162.855,63.915 162.555,63.735 162.24,63.345 L 158.565,58.83 L 162.915,54.75 C 163.155,54.525 163.47,54.375 163.725,54.375 L 164.04,54.375 L 164.04,53.97 L 163.695,53.985 C 163.38,54 163.14,54.015 163.02,54.015 C 162.87,54.015 162.63,54 162.33,53.985 L 162.03,53.97 L 162.03,54.405 C 162.03,54.525 161.88,54.72 161.46,55.14 L 159.54,57.09 C 158.88,57.75 158.28,58.29 157.32,59.04 L 157.995,55.155 C 158.1,54.585 158.205,54.48 158.745,54.435 L 159.375,54.39 z"
         style="font-style:normal;font-variant:normal;font-weight:normal;font-stretch:normal;letter-spacing:normal;word-spacing:normal;text-anchor:start;fill:#000000;fill-opacity:1;stroke:none;stroke-width:0;stroke-linecap:butt;stroke-linejoin:miter;stroke-miterlimit:10.43299960999999954;stroke-dasharray:none;stroke-dashoffset:0;stroke-opacity:1" />
    </g>
    <g
       transform="translate(354.05847,48.487322)"
       id="g3841"
       style="stroke:none">
      <path
         id="path3310"
         d="M 188.355,54.705 L 188.37,54.795 L 188.37,54.885 L 188.385,54.975 L 188.385,55.065 L 188.4,55.155 L 188.4,55.23 L 188.4,55.32 L 188.4,55.41 L 188.415,55.485 L 188.415,55.575 L 188.415,55.665 L 188.415,55.77 L 188.415,55.815 L 188.415,55.875 L 188.415,55.92 L 188.415,55.98 L 188.415,56.025 L 188.415,56.085 L 188.415,56.145 L 188.415,56.205 L 188.415,62.52 C 188.415,63.705 188.34,63.825 187.665,63.87 L 186.945,63.915 L 186.945,64.365 C 187.815,64.335 188.34,64.32 189.12,64.32 C 189.9,64.32 190.44,64.335 191.325,64.365 L 191.325,63.915 L 190.605,63.87 C 189.915,63.825 189.84,63.705 189.84,62.52 L 189.84,56.205 C 189.84,55.53 189.855,55.2 189.9,54.705 L 192.21,54.705 C 192.63,54.705 192.795,54.84 192.81,55.2 L 192.87,56.385 L 193.335,56.385 C 193.335,55.41 193.365,54.825 193.44,53.97 C 192.36,53.985 191.865,53.985 191.46,54 C 190.875,54.015 190.44,54.015 190.215,54.015 L 187.845,54.015 C 187.71,54.015 186.9,54 185.835,53.985 L 184.815,53.97 C 184.89,54.825 184.92,55.41 184.92,56.385 L 185.385,56.385 L 185.445,55.2 C 185.46,54.84 185.625,54.705 186.045,54.705 L 188.355,54.705 z"
         style="font-style:normal;font-variant:normal;font-weight:normal;font-stretch:normal;letter-spacing:normal;word-spacing:normal;text-anchor:start;fill:#000000;fill-opacity:1;stroke:none;stroke-width:0;stroke-linecap:butt;stroke-linejoin:miter;stroke-miterlimit:10.43299960999999954;stroke-dasharray:none;stroke-dashoffset:0;stroke-opacity:1" />
      <path
         id="path3312"
         d="M 192.705,58.335 L 193.26,58.335 C 193.86,58.335 193.92,58.44 193.92,59.43 L 193.92,62.79 C 193.92,63.735 193.875,63.84 193.365,63.87 L 192.675,63.915 L 192.675,64.365 C 193.755,64.335 194.145,64.32 194.52,64.32 C 194.82,64.32 194.82,64.32 196.65,64.365 L 196.65,63.915 L 195.885,63.87 C 195.21,63.825 195.18,63.78 195.18,62.79 L 195.18,60.225 C 195.18,59.325 195.78,58.575 196.515,58.575 C 196.95,58.575 197.265,58.785 197.505,59.265 L 197.82,59.265 L 197.955,57.48 C 197.79,57.36 197.52,57.315 197.25,57.315 C 196.8,57.315 196.335,57.54 196.02,57.915 L 195.18,58.905 L 195.18,57.36 L 195.045,57.315 C 194.28,57.615 193.5,57.825 192.705,57.915 L 192.705,58.335 z"
         style="font-style:normal;font-variant:normal;font-weight:normal;font-stretch:normal;letter-spacing:normal;word-spacing:normal;text-anchor:start;fill:#000000;fill-opacity:1;stroke:none;stroke-width:0;stroke-linecap:butt;stroke-linejoin:miter;stroke-miterlimit:10.43299960999999954;stroke-dasharray:none;stroke-dashoffset:0;stroke-opacity:1" />
      <path
         id="path3314"
         d="M 203.115,63.09 L 203.04,64.365 C 204.015,64.32 204.015,64.32 204.21,64.32 C 204.285,64.32 204.66,64.335 205.32,64.365 L 205.32,63.915 L 204.735,63.885 C 204.375,63.87 204.315,63.75 204.315,63.015 L 204.315,60.285 C 204.315,58.095 203.685,57.315 201.945,57.315 C 201.3,57.315 200.715,57.48 200.145,57.81 L 199.35,58.29 L 199.35,59.265 L 199.74,59.37 L 199.935,58.905 C 200.25,58.2 200.4,58.095 201.075,58.095 C 202.485,58.095 203.07,58.65 203.115,60.015 L 203.115,60.495 L 203.115,62.46 C 202.68,63.075 201.735,63.645 201.165,63.645 C 200.565,63.645 200.04,63.09 200.04,62.445 C 200.04,61.89 200.34,61.365 200.79,61.095 C 201.165,60.87 201.975,60.66 203.115,60.495 L 203.115,60.015 L 201.63,60.285 C 199.605,60.66 198.75,61.365 198.75,62.655 C 198.75,63.825 199.455,64.5 200.64,64.5 C 200.91,64.5 201.165,64.455 201.255,64.38 L 203.115,63.09 z"
         style="font-style:normal;font-variant:normal;font-weight:normal;font-stretch:normal;letter-spacing:normal;word-spacing:normal;text-anchor:start;fill:#000000;fill-opacity:1;stroke:none;stroke-width:0;stroke-linecap:butt;stroke-linejoin:miter;stroke-miterlimit:10.43299960999999954;stroke-dasharray:none;stroke-dashoffset:0;stroke-opacity:1" />
      <path
         id="path3316"
         d="M 211.875,64.365 L 211.92,64.365 L 211.95,64.35 L 211.995,64.35 L 212.025,64.35 L 212.07,64.35 L 212.1,64.35 L 212.145,64.35 L 212.175,64.35 L 212.205,64.35 L 212.235,64.35 L 212.265,64.335 L 212.295,64.335 L 212.325,64.335 L 212.355,64.335 L 212.385,64.335 L 212.4,64.335 L 212.43,64.335 L 212.445,64.335 L 212.49,64.335 L 212.535,64.335 L 212.58,64.335 L 212.61,64.32 L 212.655,64.32 L 212.685,64.32 L 212.715,64.32 L 212.73,64.32 L 212.76,64.32 L 212.79,64.32 L 212.805,64.32 L 212.835,64.32 L 212.85,64.32 L 212.895,64.32 L 212.925,64.32 L 212.97,64.32 L 212.985,64.32 L 213,64.32 L 213.03,64.32 L 213.045,64.32 C 213.255,64.32 213.255,64.32 214.29,64.365 L 214.29,63.915 L 213.675,63.87 C 213.165,63.84 213.12,63.75 213.12,62.79 L 213.12,59.91 C 213.12,58.155 212.31,57.315 210.63,57.315 C 210.075,57.315 209.76,57.42 209.445,57.675 L 208.32,58.665 L 208.32,57.36 L 208.185,57.315 C 207.42,57.615 206.64,57.825 205.845,57.915 L 205.845,58.335 L 206.4,58.335 C 207,58.335 207.06,58.44 207.06,59.43 L 207.06,62.79 C 207.06,63.735 207.015,63.84 206.505,63.87 L 205.83,63.915 L 205.83,64.365 C 206.85,64.335 207.255,64.32 207.69,64.32 C 208.125,64.32 208.53,64.335 209.535,64.365 L 209.535,63.915 L 208.86,63.87 C 208.365,63.84 208.32,63.735 208.32,62.79 L 208.32,59.625 C 208.32,58.95 209.295,58.215 210.21,58.215 C 211.215,58.215 211.875,58.965 211.875,60.12 L 211.875,64.365 z"
         style="font-style:normal;font-variant:normal;font-weight:normal;font-stretch:normal;letter-spacing:normal;word-spacing:normal;text-anchor:start;fill:#000000;fill-opacity:1;stroke:none;stroke-width:0;stroke-linecap:butt;stroke-linejoin:miter;stroke-miterlimit:10.43299960999999954;stroke-dasharray:none;stroke-dashoffset:0;stroke-opacity:1" />
      <path
         id="path3318"
         d="M 215.055,62.175 L 215.055,62.28 L 215.055,62.37 L 215.055,62.46 L 215.055,62.535 L 215.055,62.625 L 215.04,62.7 L 215.04,62.775 L 215.04,62.85 L 215.04,62.925 L 215.04,63 L 215.04,63.06 L 215.025,63.135 L 215.025,63.195 L 215.025,63.255 L 215.025,63.315 L 215.01,63.375 L 215.01,63.495 L 214.995,63.615 L 214.98,63.72 L 214.965,63.825 L 214.95,63.93 L 214.935,64.035 L 214.905,64.14 L 214.89,64.26 C 215.67,64.515 216.255,64.62 216.93,64.62 C 218.895,64.62 220.29,63.57 220.29,62.1 C 220.29,61.635 220.155,61.29 219.87,61.005 C 219.48,60.63 218.985,60.45 217.665,60.195 C 216.45,59.955 216.045,59.655 216.045,58.965 C 216.045,58.215 216.57,57.795 217.47,57.795 C 218.475,57.795 219.24,58.32 219.24,59.025 L 219.24,59.37 L 219.66,59.37 C 219.675,58.5 219.69,58.14 219.735,57.675 C 218.94,57.42 218.4,57.315 217.785,57.315 C 216.06,57.315 214.995,58.125 214.995,59.475 C 214.995,60.195 215.325,60.705 216.015,61.02 C 216.405,61.185 217.2,61.44 218.22,61.65 C 218.895,61.8 219.18,62.115 219.18,62.685 C 219.18,63.495 218.43,64.065 217.365,64.065 C 216.27,64.065 215.505,63.54 215.505,62.79 L 215.505,62.175 L 215.055,62.175 z"
         style="font-style:normal;font-variant:normal;font-weight:normal;font-stretch:normal;letter-spacing:normal;word-spacing:normal;text-anchor:start;fill:#000000;fill-opacity:1;stroke:none;stroke-width:0;stroke-linecap:butt;stroke-linejoin:miter;stroke-miterlimit:10.43299960999999954;stroke-dasharray:none;stroke-dashoffset:0;stroke-opacity:1" />
      <path
         id="path3320"
         d="M 225.87,53.595 L 225.84,53.595 L 225.81,53.58 L 225.78,53.565 L 225.765,53.565 L 225.735,53.55 L 225.705,53.535 L 225.675,53.535 L 225.66,53.52 L 225.63,53.52 L 225.615,53.505 L 225.585,53.505 L 225.57,53.49 L 225.54,53.49 L 225.525,53.49 L 225.495,53.475 L 225.48,53.475 L 225.435,53.46 L 225.405,53.46 L 225.36,53.445 L 225.33,53.445 L 225.285,53.445 L 225.255,53.445 L 225.225,53.445 L 225.18,53.43 C 224.7,53.43 224.175,53.685 223.845,54.06 L 222.99,55.05 C 222.555,55.545 222.36,56.22 222.36,57.21 L 222.36,57.825 L 221.325,58.29 L 221.325,58.62 L 222.36,58.56 L 222.36,62.79 C 222.36,63.735 222.315,63.84 221.805,63.87 L 221.115,63.915 L 221.115,64.365 C 222.615,64.32 222.615,64.32 222.99,64.32 C 223.365,64.32 223.365,64.32 224.85,64.365 L 224.85,63.915 L 224.16,63.87 C 223.665,63.84 223.62,63.735 223.62,62.79 L 223.62,58.56 L 225.465,58.56 L 225.57,57.765 L 223.62,57.825 L 223.62,56.565 C 223.62,54.84 223.8,54.42 224.655,54.42 C 225.06,54.42 225.33,54.525 225.69,54.84 L 225.87,54.75 L 225.87,53.595 z"
         style="font-style:normal;font-variant:normal;font-weight:normal;font-stretch:normal;letter-spacing:normal;word-spacing:normal;text-anchor:start;fill:#000000;fill-opacity:1;stroke:none;stroke-width:0;stroke-linecap:butt;stroke-linejoin:miter;stroke-miterlimit:10.43299960999999954;stroke-dasharray:none;stroke-dashoffset:0;stroke-opacity:1" />
      <path
         id="path3322"
         d="M 229.935,57.315 L 229.665,57.795 C 231.03,57.795 232.05,59.295 232.05,61.335 C 232.05,63.045 231.285,64.125 230.07,64.125 C 228.615,64.125 227.625,62.685 227.625,60.57 C 227.625,58.77 228.345,57.795 229.665,57.795 L 229.665,57.795 L 229.935,57.315 C 227.745,57.315 226.23,58.845 226.23,61.08 C 226.23,63.18 227.565,64.62 229.5,64.62 C 231.795,64.62 233.445,63.015 233.445,60.78 C 233.445,58.755 231.975,57.315 229.935,57.315 z"
         style="font-style:normal;font-variant:normal;font-weight:normal;font-stretch:normal;letter-spacing:normal;word-spacing:normal;text-anchor:start;fill:#000000;fill-opacity:1;stroke:none;stroke-width:0;stroke-linecap:butt;stroke-linejoin:miter;stroke-miterlimit:10.43299960999999954;stroke-dasharray:none;stroke-dashoffset:0;stroke-opacity:1" />
      <path
         id="path3324"
         d="M 234.255,58.335 L 234.81,58.335 C 235.41,58.335 235.47,58.44 235.47,59.43 L 235.47,62.79 C 235.47,63.735 235.425,63.84 234.915,63.87 L 234.225,63.915 L 234.225,64.365 C 235.305,64.335 235.695,64.32 236.07,64.32 C 236.37,64.32 236.37,64.32 238.2,64.365 L 238.2,63.915 L 237.42,63.87 C 236.745,63.825 236.73,63.78 236.73,62.79 L 236.73,60.225 C 236.73,59.325 237.315,58.575 238.05,58.575 C 238.5,58.575 238.815,58.785 239.055,59.265 L 239.37,59.265 L 239.505,57.48 C 239.34,57.36 239.07,57.315 238.8,57.315 C 238.35,57.315 237.87,57.54 237.555,57.915 L 236.73,58.905 L 236.73,57.36 L 236.595,57.315 C 235.83,57.615 235.05,57.825 234.255,57.915 L 234.255,58.335 z"
         style="font-style:normal;font-variant:normal;font-weight:normal;font-stretch:normal;letter-spacing:normal;word-spacing:normal;text-anchor:start;fill:#000000;fill-opacity:1;stroke:none;stroke-width:0;stroke-linecap:butt;stroke-linejoin:miter;stroke-miterlimit:10.43299960999999954;stroke-dasharray:none;stroke-dashoffset:0;stroke-opacity:1" />
      <path
         id="path3326"
         d="M 240.33,58.335 L 240.885,58.335 C 241.485,58.335 241.545,58.44 241.545,59.43 L 241.545,62.79 C 241.545,63.735 241.5,63.84 240.99,63.87 L 240.3,63.915 L 240.3,64.365 C 241.74,64.32 241.785,64.32 242.205,64.32 C 242.625,64.32 243.015,64.335 243.975,64.365 L 243.975,63.915 L 243.36,63.87 C 242.85,63.84 242.805,63.735 242.805,62.79 L 242.805,59.625 C 242.805,58.95 243.795,58.215 244.68,58.215 C 245.49,58.215 246.045,58.98 246.045,60.12 L 246.045,62.79 C 246.045,63.735 246,63.84 245.49,63.87 L 244.8,63.915 L 244.8,64.365 C 246.3,64.32 246.3,64.32 246.675,64.32 C 247.05,64.32 247.05,64.32 248.535,64.365 L 248.535,63.915 L 247.86,63.87 C 247.35,63.84 247.305,63.735 247.305,62.79 L 247.305,59.625 C 247.305,58.95 248.28,58.215 249.18,58.215 C 249.99,58.215 250.545,58.98 250.545,60.12 L 250.545,64.365 C 251.46,64.32 251.475,64.32 251.73,64.32 C 251.925,64.32 251.925,64.32 253.05,64.365 L 253.05,63.915 L 252.345,63.87 C 251.85,63.84 251.805,63.735 251.805,62.79 L 251.805,59.715 C 251.805,58.23 250.935,57.315 249.555,57.315 C 249.03,57.315 248.595,57.435 248.325,57.675 L 247.2,58.695 C 246.72,57.705 246.105,57.315 245.07,57.315 C 244.515,57.315 244.095,57.435 243.84,57.675 L 242.805,58.635 L 242.805,57.36 L 242.67,57.315 C 241.905,57.615 241.125,57.825 240.33,57.915 L 240.33,58.335 z"
         style="font-style:normal;font-variant:normal;font-weight:normal;font-stretch:normal;letter-spacing:normal;word-spacing:normal;text-anchor:start;fill:#000000;fill-opacity:1;stroke:none;stroke-width:0;stroke-linecap:butt;stroke-linejoin:miter;stroke-miterlimit:10.43299960999999954;stroke-dasharray:none;stroke-dashoffset:0;stroke-opacity:1" />
      <path
         id="path3328"
         d="M 259.8,63.27 L 259.605,63.12 C 258.645,63.69 258.3,63.825 257.655,63.825 C 256.68,63.825 255.885,63.39 255.465,62.655 C 255.18,62.16 255.075,61.74 255.045,60.885 L 257.22,60.885 C 258.255,60.885 258.9,60.84 259.935,60.675 C 259.95,60.465 259.965,60.33 259.965,60.15 C 259.965,58.425 258.855,57.315 257.175,57.315 L 256.995,57.795 C 257.49,57.795 257.88,57.99 258.15,58.395 C 258.48,58.89 258.585,59.325 258.63,60.33 L 258.63,60.33 C 257.85,60.36 257.49,60.375 256.95,60.375 C 256.275,60.375 255.885,60.36 255.075,60.285 C 255.075,59.58 255.135,59.25 255.33,58.86 C 255.645,58.2 256.29,57.795 256.995,57.795 L 257.175,57.315 C 256.62,57.315 255.99,57.51 255.375,57.855 C 254.145,58.56 253.65,59.49 253.65,61.05 C 253.65,61.98 253.875,62.79 254.28,63.36 C 254.88,64.155 255.885,64.62 256.995,64.62 C 257.55,64.62 258.105,64.5 258.72,64.23 C 259.125,64.065 259.44,63.87 259.5,63.78 L 259.8,63.27 z"
         style="font-style:normal;font-variant:normal;font-weight:normal;font-stretch:normal;letter-spacing:normal;word-spacing:normal;text-anchor:start;fill:#000000;fill-opacity:1;stroke:none;stroke-width:0;stroke-linecap:butt;stroke-linejoin:miter;stroke-miterlimit:10.43299960999999954;stroke-dasharray:none;stroke-dashoffset:0;stroke-opacity:1" />
      <path
         id="path3330"
         d="M 266.58,57.78 L 266.505,57.75 L 266.43,57.72 L 266.355,57.69 L 266.28,57.66 L 266.205,57.63 L 266.145,57.615 L 266.085,57.585 L 266.025,57.555 L 265.95,57.54 L 265.89,57.51 L 265.845,57.495 L 265.785,57.48 L 265.725,57.465 L 265.68,57.435 L 265.62,57.42 L 265.575,57.405 L 265.515,57.405 L 265.47,57.39 L 265.365,57.36 L 265.275,57.345 L 265.185,57.33 L 265.08,57.315 L 264.99,57.315 L 264.9,57.315 L 264.795,57.315 C 264.39,57.315 264.03,57.405 263.655,57.585 L 262.35,58.275 C 261.495,58.725 260.94,59.82 260.94,61.095 C 260.94,62.28 261.345,63.27 262.08,63.87 C 262.59,64.305 263.28,64.5 264.255,64.5 C 264.555,64.5 264.9,64.44 264.975,64.38 L 266.64,62.985 L 266.355,62.475 C 265.935,63.18 265.2,63.645 264.495,63.645 C 263.19,63.645 262.245,62.37 262.245,60.6 C 262.245,58.965 263.055,58.005 264.39,58.005 C 264.96,58.005 265.56,58.2 266.085,58.56 C 266.4,58.77 266.58,58.965 266.58,59.085 L 266.58,61.02 C 266.58,61.98 266.55,62.13 266.355,62.475 L 266.64,62.985 L 266.565,64.365 C 267.3,64.335 267.54,64.32 267.705,64.32 C 267.825,64.32 268.035,64.32 268.35,64.335 C 268.455,64.35 268.755,64.35 269.07,64.365 L 269.07,63.915 L 268.38,63.87 C 267.87,63.84 267.825,63.735 267.825,62.79 L 267.825,53.58 L 267.69,53.475 C 267.045,53.715 266.55,53.835 265.365,54.015 L 265.365,54.435 L 266.205,54.435 C 266.475,54.435 266.58,54.6 266.58,55.05 L 266.58,57.78 z"
         style="font-style:normal;font-variant:normal;font-weight:normal;font-stretch:normal;letter-spacing:normal;word-spacing:normal;text-anchor:start;fill:#000000;fill-opacity:1;stroke:none;stroke-width:0;stroke-linecap:butt;stroke-linejoin:miter;stroke-miterlimit:10.43299960999999954;stroke-dasharray:none;stroke-dashoffset:0;stroke-opacity:1" />
      <path
         id="path3332"
         d="M 274.08,62.175 L 274.08,62.28 L 274.08,62.37 L 274.08,62.46 L 274.08,62.535 L 274.08,62.625 L 274.08,62.7 L 274.08,62.775 L 274.08,62.85 L 274.065,62.925 L 274.065,63 L 274.065,63.06 L 274.065,63.135 L 274.05,63.195 L 274.05,63.255 L 274.05,63.315 L 274.05,63.375 L 274.035,63.495 L 274.02,63.615 L 274.005,63.72 L 273.99,63.825 L 273.975,63.93 L 273.96,64.035 L 273.945,64.14 L 273.915,64.26 C 274.695,64.515 275.28,64.62 275.97,64.62 C 277.92,64.62 279.315,63.57 279.315,62.1 C 279.315,61.635 279.18,61.29 278.895,61.005 C 278.505,60.63 278.01,60.45 276.69,60.195 C 275.475,59.955 275.07,59.655 275.07,58.965 C 275.07,58.215 275.595,57.795 276.495,57.795 C 277.5,57.795 278.265,58.32 278.265,59.025 L 278.265,59.37 L 278.685,59.37 C 278.7,58.5 278.715,58.14 278.76,57.675 C 277.965,57.42 277.425,57.315 276.81,57.315 C 275.085,57.315 274.02,58.125 274.02,59.475 C 274.02,60.195 274.35,60.705 275.04,61.02 C 275.445,61.185 276.24,61.44 277.245,61.65 C 277.92,61.8 278.205,62.115 278.205,62.685 C 278.205,63.495 277.455,64.065 276.405,64.065 C 275.31,64.065 274.53,63.54 274.53,62.79 L 274.53,62.175 L 274.08,62.175 z"
         style="font-style:normal;font-variant:normal;font-weight:normal;font-stretch:normal;letter-spacing:normal;word-spacing:normal;text-anchor:start;fill:#000000;fill-opacity:1;stroke:none;stroke-width:0;stroke-linecap:butt;stroke-linejoin:miter;stroke-miterlimit:10.43299960999999954;stroke-dasharray:none;stroke-dashoffset:0;stroke-opacity:1" />
      <path
         id="path3334"
         d="M 279.915,54.435 L 280.74,54.435 C 281.01,54.435 281.115,54.6 281.115,55.05 L 281.115,62.79 C 281.115,63.735 281.07,63.84 280.56,63.87 L 279.9,63.915 L 279.9,64.365 C 280.905,64.335 281.31,64.32 281.745,64.32 C 282.18,64.32 282.585,64.335 283.605,64.365 L 283.605,63.915 L 282.93,63.87 C 282.42,63.84 282.375,63.735 282.375,62.79 L 282.375,59.625 C 282.375,58.95 283.365,58.215 284.265,58.215 C 285.27,58.215 285.93,58.965 285.93,60.12 L 285.93,64.365 C 286.845,64.32 286.86,64.32 287.115,64.32 C 287.325,64.32 287.325,64.32 288.345,64.365 L 288.345,63.915 L 287.745,63.87 C 287.235,63.84 287.19,63.75 287.19,62.79 L 287.19,59.91 C 287.19,58.155 286.365,57.315 284.685,57.315 C 284.13,57.315 283.815,57.42 283.515,57.675 L 282.375,58.665 L 282.375,53.58 L 282.24,53.475 C 281.58,53.715 281.085,53.835 279.915,54.015 L 279.915,54.435 z"
         style="font-style:normal;font-variant:normal;font-weight:normal;font-stretch:normal;letter-spacing:normal;word-spacing:normal;text-anchor:start;fill:#000000;fill-opacity:1;stroke:none;stroke-width:0;stroke-linecap:butt;stroke-linejoin:miter;stroke-miterlimit:10.43299960999999954;stroke-dasharray:none;stroke-dashoffset:0;stroke-opacity:1" />
      <path
         id="path3336"
         d="M 293.34,63.09 L 293.265,64.365 C 294.24,64.32 294.24,64.32 294.435,64.32 C 294.51,64.32 294.885,64.335 295.53,64.365 L 295.53,63.915 L 294.96,63.885 C 294.6,63.87 294.54,63.75 294.54,63.015 L 294.54,60.285 C 294.54,58.095 293.91,57.315 292.17,57.315 C 291.54,57.315 290.94,57.48 290.37,57.81 L 289.575,58.29 L 289.575,59.265 L 289.965,59.37 L 290.16,58.905 C 290.475,58.2 290.625,58.095 291.315,58.095 C 292.71,58.095 293.295,58.65 293.34,60.015 L 293.34,60.495 L 293.34,62.46 C 292.905,63.075 291.96,63.645 291.39,63.645 C 290.79,63.645 290.265,63.09 290.265,62.445 C 290.265,61.89 290.565,61.365 291.015,61.095 C 291.39,60.87 292.2,60.66 293.34,60.495 L 293.34,60.015 L 291.855,60.285 C 289.83,60.66 288.975,61.365 288.975,62.655 C 288.975,63.825 289.68,64.5 290.865,64.5 C 291.135,64.5 291.39,64.455 291.495,64.38 L 293.34,63.09 z"
         style="font-style:normal;font-variant:normal;font-weight:normal;font-stretch:normal;letter-spacing:normal;word-spacing:normal;text-anchor:start;fill:#000000;fill-opacity:1;stroke:none;stroke-width:0;stroke-linecap:butt;stroke-linejoin:miter;stroke-miterlimit:10.43299960999999954;stroke-dasharray:none;stroke-dashoffset:0;stroke-opacity:1" />
      <path
         id="path3338"
         d="M 296.13,58.335 L 296.685,58.335 C 297.285,58.335 297.345,58.44 297.345,59.43 L 297.345,66.945 C 297.345,67.89 297.3,67.995 296.79,68.025 L 296.1,68.07 L 296.1,68.52 C 297.6,68.475 297.6,68.475 297.96,68.475 C 298.335,68.475 298.335,68.475 299.835,68.52 L 299.835,68.07 L 299.145,68.025 C 298.635,67.995 298.59,67.89 298.59,66.945 L 298.59,64.125 C 299.04,64.395 299.52,64.5 300.195,64.5 C 300.63,64.5 301.02,64.41 301.26,64.26 L 302.955,63.15 C 303.555,62.76 304.26,61.23 304.26,60.27 C 304.26,58.605 302.88,57.315 301.155,57.315 C 300.6,57.315 300.06,57.45 299.82,57.675 L 298.59,58.8 L 298.86,59.115 C 299.295,58.56 299.91,58.275 300.66,58.275 C 302.07,58.275 302.955,59.265 302.955,60.825 C 302.955,62.49 301.95,63.735 300.615,63.735 C 299.79,63.735 299.175,63.465 298.59,62.85 L 298.59,59.745 C 298.59,59.535 298.665,59.37 298.86,59.115 L 298.59,58.8 L 298.59,57.36 L 298.455,57.315 C 297.705,57.615 296.925,57.825 296.13,57.915 L 296.13,58.335 z"
         style="font-style:normal;font-variant:normal;font-weight:normal;font-stretch:normal;letter-spacing:normal;word-spacing:normal;text-anchor:start;fill:#000000;fill-opacity:1;stroke:none;stroke-width:0;stroke-linecap:butt;stroke-linejoin:miter;stroke-miterlimit:10.43299960999999954;stroke-dasharray:none;stroke-dashoffset:0;stroke-opacity:1" />
      <path
         id="path3340"
         d="M 311.49,63.27 L 311.295,63.12 C 310.335,63.69 309.99,63.825 309.345,63.825 C 308.385,63.825 307.575,63.39 307.155,62.655 C 306.87,62.16 306.765,61.74 306.735,60.885 L 308.925,60.885 C 309.945,60.885 310.59,60.84 311.625,60.675 C 311.64,60.465 311.655,60.33 311.655,60.15 C 311.655,58.425 310.545,57.315 308.88,57.315 L 308.7,57.795 C 309.18,57.795 309.57,57.99 309.84,58.395 C 310.17,58.89 310.275,59.325 310.32,60.33 L 310.32,60.33 C 309.54,60.36 309.18,60.375 308.655,60.375 C 307.965,60.375 307.575,60.36 306.765,60.285 C 306.765,59.58 306.825,59.25 307.02,58.86 C 307.335,58.2 307.98,57.795 308.7,57.795 L 308.88,57.315 C 308.325,57.315 307.68,57.51 307.065,57.855 C 305.835,58.56 305.34,59.49 305.34,61.05 C 305.34,61.98 305.565,62.79 305.97,63.36 C 306.57,64.155 307.575,64.62 308.7,64.62 C 309.24,64.62 309.795,64.5 310.41,64.23 C 310.815,64.065 311.13,63.87 311.19,63.78 L 311.49,63.27 z"
         style="font-style:normal;font-variant:normal;font-weight:normal;font-stretch:normal;letter-spacing:normal;word-spacing:normal;text-anchor:start;fill:#000000;fill-opacity:1;stroke:none;stroke-width:0;stroke-linecap:butt;stroke-linejoin:miter;stroke-miterlimit:10.43299960999999954;stroke-dasharray:none;stroke-dashoffset:0;stroke-opacity:1" />
      <path
         id="path3342"
         d="M 321.15,53.595 L 321.12,53.595 L 321.09,53.58 L 321.06,53.565 L 321.03,53.565 L 321.015,53.55 L 320.985,53.535 L 320.955,53.535 L 320.94,53.52 L 320.91,53.52 L 320.88,53.505 L 320.865,53.505 L 320.835,53.49 L 320.82,53.49 L 320.805,53.49 L 320.775,53.475 L 320.76,53.475 L 320.715,53.46 L 320.685,53.46 L 320.64,53.445 L 320.61,53.445 L 320.565,53.445 L 320.535,53.445 L 320.49,53.445 L 320.46,53.43 C 319.98,53.43 319.455,53.685 319.125,54.06 L 318.255,55.05 C 317.835,55.545 317.64,56.22 317.64,57.21 L 317.64,57.825 L 316.605,58.29 L 316.605,58.62 L 317.64,58.56 L 317.64,62.79 C 317.64,63.735 317.595,63.84 317.085,63.87 L 316.395,63.915 L 316.395,64.365 C 317.88,64.32 317.88,64.32 318.255,64.32 C 318.63,64.32 318.63,64.32 320.13,64.365 L 320.13,63.915 L 319.44,63.87 C 318.93,63.84 318.885,63.735 318.885,62.79 L 318.885,58.56 L 320.745,58.56 L 320.85,57.765 L 318.885,57.825 L 318.885,56.565 C 318.885,54.84 319.08,54.42 319.935,54.42 C 320.34,54.42 320.61,54.525 320.97,54.84 L 321.15,54.75 L 321.15,53.595 z"
         style="font-style:normal;font-variant:normal;font-weight:normal;font-stretch:normal;letter-spacing:normal;word-spacing:normal;text-anchor:start;fill:#000000;fill-opacity:1;stroke:none;stroke-width:0;stroke-linecap:butt;stroke-linejoin:miter;stroke-miterlimit:10.43299960999999954;stroke-dasharray:none;stroke-dashoffset:0;stroke-opacity:1" />
      <path
         id="path3344"
         d="M 328.545,57.36 L 328.41,57.315 C 327.645,57.615 326.865,57.825 326.07,57.915 L 326.07,58.335 L 326.625,58.335 C 327.225,58.335 327.285,58.44 327.285,59.43 L 327.285,61.86 C 327.285,62.19 327.075,62.61 326.73,62.955 C 326.31,63.375 325.83,63.585 325.245,63.585 C 324.735,63.585 324.315,63.42 324.075,63.135 C 323.865,62.895 323.76,62.43 323.76,61.77 L 323.76,57.36 L 323.625,57.315 C 322.86,57.615 322.08,57.825 321.285,57.915 L 321.285,58.335 L 321.84,58.335 C 322.44,58.335 322.5,58.44 322.5,59.43 L 322.5,61.935 C 322.5,62.985 322.59,63.45 322.86,63.825 C 323.19,64.275 323.76,64.5 324.615,64.5 C 325.275,64.5 325.875,64.29 326.28,63.915 L 327.285,62.985 C 327.285,63.42 327.27,63.66 327.225,64.365 C 328.23,64.32 328.245,64.32 328.47,64.32 C 328.68,64.32 328.68,64.32 329.7,64.365 L 329.7,63.915 L 329.085,63.87 C 328.59,63.84 328.545,63.75 328.545,62.79 L 328.545,57.36 z"
         style="font-style:normal;font-variant:normal;font-weight:normal;font-stretch:normal;letter-spacing:normal;word-spacing:normal;text-anchor:start;fill:#000000;fill-opacity:1;stroke:none;stroke-width:0;stroke-linecap:butt;stroke-linejoin:miter;stroke-miterlimit:10.43299960999999954;stroke-dasharray:none;stroke-dashoffset:0;stroke-opacity:1" />
      <path
         id="path3346"
         d="M 336.165,64.365 L 336.21,64.365 L 336.24,64.35 L 336.285,64.35 L 336.315,64.35 L 336.36,64.35 L 336.39,64.35 L 336.435,64.35 L 336.465,64.35 L 336.495,64.35 L 336.525,64.35 L 336.555,64.335 L 336.585,64.335 L 336.615,64.335 L 336.645,64.335 L 336.675,64.335 L 336.69,64.335 L 336.72,64.335 L 336.735,64.335 L 336.78,64.335 L 336.825,64.335 L 336.87,64.335 L 336.9,64.32 L 336.945,64.32 L 336.975,64.32 L 337.005,64.32 L 337.02,64.32 L 337.05,64.32 L 337.08,64.32 L 337.095,64.32 L 337.125,64.32 L 337.14,64.32 L 337.185,64.32 L 337.215,64.32 L 337.26,64.32 L 337.275,64.32 L 337.29,64.32 L 337.32,64.32 L 337.335,64.32 C 337.545,64.32 337.545,64.32 338.58,64.365 L 338.58,63.915 L 337.965,63.87 C 337.455,63.84 337.41,63.75 337.41,62.79 L 337.41,59.91 C 337.41,58.155 336.6,57.315 334.92,57.315 C 334.365,57.315 334.05,57.42 333.735,57.675 L 332.61,58.665 L 332.61,57.36 L 332.475,57.315 C 331.71,57.615 330.93,57.825 330.135,57.915 L 330.135,58.335 L 330.69,58.335 C 331.29,58.335 331.35,58.44 331.35,59.43 L 331.35,62.79 C 331.35,63.735 331.305,63.84 330.795,63.87 L 330.12,63.915 L 330.12,64.365 C 331.14,64.335 331.545,64.32 331.98,64.32 C 332.415,64.32 332.82,64.335 333.825,64.365 L 333.825,63.915 L 333.165,63.87 C 332.655,63.84 332.61,63.735 332.61,62.79 L 332.61,59.625 C 332.61,58.95 333.585,58.215 334.5,58.215 C 335.505,58.215 336.165,58.965 336.165,60.12 L 336.165,64.365 z"
         style="font-style:normal;font-variant:normal;font-weight:normal;font-stretch:normal;letter-spacing:normal;word-spacing:normal;text-anchor:start;fill:#000000;fill-opacity:1;stroke:none;stroke-width:0;stroke-linecap:butt;stroke-linejoin:miter;stroke-miterlimit:10.43299960999999954;stroke-dasharray:none;stroke-dashoffset:0;stroke-opacity:1" />
      <path
         id="path3348"
         d="M 344.7,59.67 L 344.7,59.535 L 344.7,59.415 L 344.7,59.295 L 344.7,59.16 L 344.715,59.04 L 344.73,58.92 L 344.73,58.815 L 344.745,58.695 L 344.76,58.575 L 344.775,58.47 L 344.79,58.35 L 344.82,58.245 L 344.835,58.14 L 344.85,58.035 L 344.88,57.93 L 344.895,57.825 C 344.31,57.48 343.785,57.315 343.17,57.315 C 342.45,57.315 341.61,57.585 340.71,58.155 C 339.675,58.815 339.12,59.865 339.12,61.17 C 339.12,63.195 340.53,64.62 342.54,64.62 C 343.32,64.62 344.445,64.335 344.595,64.11 L 344.895,63.63 L 344.745,63.405 C 344.205,63.705 343.725,63.84 343.185,63.84 C 341.52,63.84 340.44,62.55 340.44,60.585 C 340.44,58.98 341.175,58.08 342.525,58.08 C 343.185,58.08 343.905,58.38 344.175,58.755 L 344.28,59.67 L 344.7,59.67 z"
         style="font-style:normal;font-variant:normal;font-weight:normal;font-stretch:normal;letter-spacing:normal;word-spacing:normal;text-anchor:start;fill:#000000;fill-opacity:1;stroke:none;stroke-width:0;stroke-linecap:butt;stroke-linejoin:miter;stroke-miterlimit:10.43299960999999954;stroke-dasharray:none;stroke-dashoffset:0;stroke-opacity:1" />
      <path
         id="path3350"
         d="M 346.83,58.605 L 346.83,62.91 C 346.83,64.02 347.325,64.5 348.48,64.5 C 348.825,64.5 349.185,64.425 349.275,64.32 L 349.98,63.525 L 349.785,63.27 C 349.425,63.48 349.2,63.555 348.915,63.555 C 348.33,63.555 348.09,63.255 348.09,62.52 L 348.09,58.605 L 349.995,58.605 L 350.13,57.795 L 348.09,57.885 L 348.09,57.33 C 348.09,56.7 348.135,56.16 348.255,55.2 L 348.075,55.035 C 347.715,55.26 347.265,55.455 346.8,55.605 C 346.845,56.055 346.86,56.34 346.86,56.79 L 346.86,57.825 L 345.69,58.35 L 345.69,58.665 L 346.83,58.605 z"
         style="font-style:normal;font-variant:normal;font-weight:normal;font-stretch:normal;letter-spacing:normal;word-spacing:normal;text-anchor:start;fill:#000000;fill-opacity:1;stroke:none;stroke-width:0;stroke-linecap:butt;stroke-linejoin:miter;stroke-miterlimit:10.43299960999999954;stroke-dasharray:none;stroke-dashoffset:0;stroke-opacity:1" />
      <path
         id="path3352"
         d="M 353.055,57.36 L 352.92,57.315 C 352.155,57.615 351.375,57.825 350.58,57.915 L 350.58,58.335 L 351.135,58.335 C 351.735,58.335 351.795,58.44 351.795,59.43 L 351.795,62.79 C 351.795,63.735 351.75,63.84 351.24,63.87 L 350.55,63.915 L 350.55,64.365 C 352.05,64.32 352.05,64.32 352.425,64.32 C 352.8,64.32 352.8,64.32 354.285,64.365 L 354.285,63.915 L 353.595,63.87 C 353.085,63.84 353.055,63.735 353.055,62.79 L 353.055,57.36 z"
         style="font-style:normal;font-variant:normal;font-weight:normal;font-stretch:normal;letter-spacing:normal;word-spacing:normal;text-anchor:start;fill:#000000;fill-opacity:1;stroke:none;stroke-width:0;stroke-linecap:butt;stroke-linejoin:miter;stroke-miterlimit:10.43299960999999954;stroke-dasharray:none;stroke-dashoffset:0;stroke-opacity:1" />
      <path
         id="path3354"
         d="M 352.365,54.045 L 352.32,54.045 L 352.275,54.06 L 352.23,54.06 L 352.2,54.06 L 352.155,54.075 L 352.11,54.09 L 352.08,54.105 L 352.035,54.12 L 352.005,54.135 L 351.975,54.15 L 351.93,54.18 L 351.9,54.195 L 351.87,54.225 L 351.84,54.24 L 351.81,54.27 L 351.78,54.3 L 351.75,54.33 L 351.72,54.36 L 351.69,54.39 L 351.675,54.42 L 351.645,54.465 L 351.63,54.495 L 351.615,54.525 L 351.585,54.57 L 351.57,54.6 L 351.555,54.645 L 351.555,54.675 L 351.54,54.72 L 351.54,54.765 L 351.525,54.81 L 351.525,54.84 L 351.525,54.885 C 351.525,55.32 351.915,55.71 352.35,55.71 C 352.785,55.71 353.175,55.32 353.175,54.885 C 353.175,54.465 352.785,54.045 352.365,54.045 z"
         style="font-style:normal;font-variant:normal;font-weight:normal;font-stretch:normal;letter-spacing:normal;word-spacing:normal;text-anchor:start;fill:#000000;fill-opacity:1;stroke:none;stroke-width:0;stroke-linecap:butt;stroke-linejoin:miter;stroke-miterlimit:10.43299960999999954;stroke-dasharray:none;stroke-dashoffset:0;stroke-opacity:1" />
      <path
         id="path3356"
         d="M 358.755,57.315 L 358.485,57.795 C 359.85,57.795 360.87,59.295 360.87,61.335 C 360.87,63.045 360.105,64.125 358.905,64.125 C 357.435,64.125 356.445,62.685 356.445,60.57 C 356.445,58.77 357.165,57.795 358.485,57.795 L 358.485,57.795 L 358.755,57.315 C 356.565,57.315 355.065,58.845 355.065,61.08 C 355.065,63.18 356.385,64.62 358.32,64.62 C 360.615,64.62 362.265,63.015 362.265,60.78 C 362.265,58.755 360.795,57.315 358.755,57.315 z"
         style="font-style:normal;font-variant:normal;font-weight:normal;font-stretch:normal;letter-spacing:normal;word-spacing:normal;text-anchor:start;fill:#000000;fill-opacity:1;stroke:none;stroke-width:0;stroke-linecap:butt;stroke-linejoin:miter;stroke-miterlimit:10.43299960999999954;stroke-dasharray:none;stroke-dashoffset:0;stroke-opacity:1" />
      <path
         id="path3358"
         d="M 368.88,64.365 L 368.925,64.365 L 368.955,64.35 L 369,64.35 L 369.03,64.35 L 369.075,64.35 L 369.105,64.35 L 369.15,64.35 L 369.18,64.35 L 369.21,64.35 L 369.24,64.35 L 369.27,64.335 L 369.3,64.335 L 369.33,64.335 L 369.36,64.335 L 369.39,64.335 L 369.405,64.335 L 369.435,64.335 L 369.45,64.335 L 369.495,64.335 L 369.54,64.335 L 369.585,64.335 L 369.615,64.32 L 369.66,64.32 L 369.69,64.32 L 369.72,64.32 L 369.735,64.32 L 369.765,64.32 L 369.795,64.32 L 369.81,64.32 L 369.84,64.32 L 369.855,64.32 L 369.9,64.32 L 369.93,64.32 L 369.975,64.32 L 369.99,64.32 L 370.005,64.32 L 370.035,64.32 L 370.05,64.32 C 370.26,64.32 370.26,64.32 371.295,64.365 L 371.295,63.915 L 370.68,63.87 C 370.17,63.84 370.125,63.75 370.125,62.79 L 370.125,59.91 C 370.125,58.155 369.315,57.315 367.635,57.315 C 367.08,57.315 366.765,57.42 366.45,57.675 L 365.325,58.665 L 365.325,57.36 L 365.19,57.315 C 364.425,57.615 363.645,57.825 362.85,57.915 L 362.85,58.335 L 363.405,58.335 C 364.005,58.335 364.065,58.44 364.065,59.43 L 364.065,62.79 C 364.065,63.735 364.02,63.84 363.51,63.87 L 362.835,63.915 L 362.835,64.365 C 363.855,64.335 364.26,64.32 364.695,64.32 C 365.13,64.32 365.535,64.335 366.54,64.365 L 366.54,63.915 L 365.88,63.87 C 365.37,63.84 365.325,63.735 365.325,62.79 L 365.325,59.625 C 365.325,58.95 366.3,58.215 367.215,58.215 C 368.22,58.215 368.88,58.965 368.88,60.12 L 368.88,64.365 z"
         style="font-style:normal;font-variant:normal;font-weight:normal;font-stretch:normal;letter-spacing:normal;word-spacing:normal;text-anchor:start;fill:#000000;fill-opacity:1;stroke:none;stroke-width:0;stroke-linecap:butt;stroke-linejoin:miter;stroke-miterlimit:10.43299960999999954;stroke-dasharray:none;stroke-dashoffset:0;stroke-opacity:1" />
    </g>
    <g
       transform="translate(-56.063466,277.79195)"
       id="g3872"
       style="stroke:none">
      <path
         id="path3360"
         d="M 384.945,56.61 L 385.41,56.61 C 385.41,55.845 385.5,55.14 385.71,54.33 C 384.06,53.85 383.295,53.715 382.095,53.715 C 378.24,53.715 375.705,55.905 375.705,59.22 C 375.705,60.735 376.2,62.07 377.145,62.985 C 378.18,64.02 379.8,64.62 381.525,64.62 C 382.59,64.62 383.625,64.425 385.65,63.855 L 385.65,61.35 C 385.65,60.885 385.665,60.855 385.815,60.795 L 386.25,60.645 L 386.19,60.27 C 384.855,60.3 384.81,60.3 384.345,60.3 C 383.925,60.3 383.835,60.3 382.53,60.27 L 382.53,60.72 L 383.775,60.825 C 384.15,60.855 384.27,60.99 384.27,61.35 L 384.27,62.85 C 384.27,63.21 384.255,63.39 384.18,63.495 C 384.03,63.78 383.13,63.99 382.14,63.99 C 379.185,63.99 377.295,62.01 377.295,58.905 C 377.295,56.025 378.915,54.345 381.705,54.345 C 382.485,54.345 383.145,54.435 383.715,54.615 C 384.57,54.9 384.945,55.245 384.945,55.815 L 384.945,56.61 z"
         style="font-style:normal;font-variant:normal;font-weight:normal;font-stretch:normal;letter-spacing:normal;word-spacing:normal;text-anchor:start;fill:#000000;fill-opacity:1;stroke:none;stroke-width:0;stroke-linecap:butt;stroke-linejoin:miter;stroke-miterlimit:10.43299960999999954;stroke-dasharray:none;stroke-dashoffset:0;stroke-opacity:1" />
      <path
         id="path3362"
         d="M 387.12,54.435 L 387.96,54.435 C 388.23,54.435 388.335,54.6 388.335,55.05 L 388.335,62.79 C 388.335,63.735 388.29,63.84 387.78,63.87 L 387.09,63.915 L 387.09,64.365 C 388.59,64.32 388.59,64.32 388.965,64.32 C 389.34,64.32 389.34,64.32 390.825,64.365 L 390.825,63.915 L 390.135,63.87 C 389.64,63.84 389.595,63.735 389.595,62.79 L 389.595,53.58 L 389.46,53.475 C 388.8,53.715 388.305,53.835 387.12,54.015 L 387.12,54.435 z"
         style="font-style:normal;font-variant:normal;font-weight:normal;font-stretch:normal;letter-spacing:normal;word-spacing:normal;text-anchor:start;fill:#000000;fill-opacity:1;stroke:none;stroke-width:0;stroke-linecap:butt;stroke-linejoin:miter;stroke-miterlimit:10.43299960999999954;stroke-dasharray:none;stroke-dashoffset:0;stroke-opacity:1" />
      <path
         id="path3364"
         d="M 395.295,57.315 L 395.025,57.795 C 396.39,57.795 397.41,59.295 397.41,61.335 C 397.41,63.045 396.645,64.125 395.445,64.125 C 393.975,64.125 392.985,62.685 392.985,60.57 C 392.985,58.77 393.705,57.795 395.025,57.795 L 395.025,57.795 L 395.295,57.315 C 393.105,57.315 391.605,58.845 391.605,61.08 C 391.605,63.18 392.925,64.62 394.86,64.62 C 397.155,64.62 398.805,63.015 398.805,60.78 C 398.805,58.755 397.335,57.315 395.295,57.315 z"
         style="font-style:normal;font-variant:normal;font-weight:normal;font-stretch:normal;letter-spacing:normal;word-spacing:normal;text-anchor:start;fill:#000000;fill-opacity:1;stroke:none;stroke-width:0;stroke-linecap:butt;stroke-linejoin:miter;stroke-miterlimit:10.43299960999999954;stroke-dasharray:none;stroke-dashoffset:0;stroke-opacity:1" />
      <path
         id="path3366"
         d="M 401.52,53.58 L 401.385,53.475 C 400.725,53.715 400.23,53.835 399.06,54.015 L 399.06,54.435 L 399.885,54.435 C 400.155,54.435 400.26,54.6 400.26,55.05 L 400.26,62.025 C 400.26,62.955 400.245,63.36 400.14,64.41 L 400.38,64.5 L 400.98,63.96 C 401.58,64.35 402.12,64.5 402.915,64.5 C 403.485,64.5 403.875,64.395 404.19,64.17 L 405.69,63.09 C 406.35,62.61 406.875,61.365 406.875,60.285 C 406.875,58.545 405.75,57.315 404.16,57.315 C 403.47,57.315 402.735,57.57 402.345,57.96 L 401.52,58.8 L 401.91,58.965 C 402.33,58.53 402.915,58.275 403.515,58.275 C 404.775,58.275 405.57,59.295 405.57,60.9 C 405.57,62.565 404.67,63.735 403.395,63.735 C 402.63,63.735 401.52,63.255 401.52,62.925 L 401.52,59.715 C 401.52,59.505 401.67,59.235 401.91,58.965 L 401.52,58.8 L 401.52,53.58 z"
         style="font-style:normal;font-variant:normal;font-weight:normal;font-stretch:normal;letter-spacing:normal;word-spacing:normal;text-anchor:start;fill:#000000;fill-opacity:1;stroke:none;stroke-width:0;stroke-linecap:butt;stroke-linejoin:miter;stroke-miterlimit:10.43299960999999954;stroke-dasharray:none;stroke-dashoffset:0;stroke-opacity:1" />
      <path
         id="path3368"
         d="M 412.38,63.09 L 412.32,64.365 C 413.28,64.32 413.28,64.32 413.475,64.32 C 413.55,64.32 413.925,64.335 414.585,64.365 L 414.585,63.915 L 414,63.885 C 413.64,63.87 413.58,63.75 413.58,63.015 L 413.58,60.285 C 413.58,58.095 412.95,57.315 411.225,57.315 C 410.58,57.315 409.98,57.48 409.41,57.81 L 408.63,58.29 L 408.63,59.265 L 409.005,59.37 L 409.2,58.905 C 409.515,58.2 409.665,58.095 410.355,58.095 C 411.765,58.095 412.35,58.65 412.38,60.015 L 412.38,60.495 L 412.38,62.46 C 411.96,63.075 411.015,63.645 410.43,63.645 C 409.83,63.645 409.305,63.09 409.305,62.445 C 409.305,61.89 409.605,61.365 410.055,61.095 C 410.43,60.87 411.255,60.66 412.38,60.495 L 412.38,60.015 L 410.91,60.285 C 408.87,60.66 408.03,61.365 408.03,62.655 C 408.03,63.825 408.72,64.5 409.905,64.5 C 410.175,64.5 410.43,64.455 410.535,64.38 L 412.38,63.09 z"
         style="font-style:normal;font-variant:normal;font-weight:normal;font-stretch:normal;letter-spacing:normal;word-spacing:normal;text-anchor:start;fill:#000000;fill-opacity:1;stroke:none;stroke-width:0;stroke-linecap:butt;stroke-linejoin:miter;stroke-miterlimit:10.43299960999999954;stroke-dasharray:none;stroke-dashoffset:0;stroke-opacity:1" />
      <path
         id="path3370"
         d="M 415.365,54.435 L 416.19,54.435 C 416.46,54.435 416.565,54.6 416.565,55.05 L 416.565,62.79 C 416.565,63.735 416.52,63.84 416.025,63.87 L 415.335,63.915 L 415.335,64.365 C 416.82,64.32 416.82,64.32 417.195,64.32 C 417.57,64.32 417.57,64.32 419.07,64.365 L 419.07,63.915 L 418.38,63.87 C 417.87,63.84 417.825,63.735 417.825,62.79 L 417.825,53.58 L 417.69,53.475 C 417.03,53.715 416.535,53.835 415.365,54.015 L 415.365,54.435 z"
         style="font-style:normal;font-variant:normal;font-weight:normal;font-stretch:normal;letter-spacing:normal;word-spacing:normal;text-anchor:start;fill:#000000;fill-opacity:1;stroke:none;stroke-width:0;stroke-linecap:butt;stroke-linejoin:miter;stroke-miterlimit:10.43299960999999954;stroke-dasharray:none;stroke-dashoffset:0;stroke-opacity:1" />
      <path
         id="path3372"
         d="M 425.52,53.58 L 425.4,53.475 C 424.74,53.715 424.245,53.835 423.06,54.015 L 423.06,54.435 L 423.9,54.435 C 424.17,54.435 424.275,54.6 424.275,55.05 L 424.275,62.025 C 424.275,62.955 424.26,63.36 424.155,64.41 L 424.395,64.5 L 424.995,63.96 C 425.58,64.35 426.12,64.5 426.915,64.5 C 427.5,64.5 427.89,64.395 428.205,64.17 L 429.69,63.09 C 430.35,62.61 430.875,61.365 430.875,60.285 C 430.875,58.545 429.75,57.315 428.175,57.315 C 427.47,57.315 426.735,57.57 426.345,57.96 L 425.52,58.8 L 425.91,58.965 C 426.33,58.53 426.915,58.275 427.53,58.275 C 428.79,58.275 429.57,59.295 429.57,60.9 C 429.57,62.565 428.685,63.735 427.41,63.735 C 426.63,63.735 425.52,63.255 425.52,62.925 L 425.52,59.715 C 425.52,59.505 425.67,59.235 425.91,58.965 L 425.52,58.8 L 425.52,53.58 z"
         style="font-style:normal;font-variant:normal;font-weight:normal;font-stretch:normal;letter-spacing:normal;word-spacing:normal;text-anchor:start;fill:#000000;fill-opacity:1;stroke:none;stroke-width:0;stroke-linecap:butt;stroke-linejoin:miter;stroke-miterlimit:10.43299960999999954;stroke-dasharray:none;stroke-dashoffset:0;stroke-opacity:1" />
      <path
         id="path3374"
         d="M 436.38,63.09 L 436.305,64.365 C 437.28,64.32 437.28,64.32 437.475,64.32 C 437.55,64.32 437.925,64.335 438.585,64.365 L 438.585,63.915 L 438,63.885 C 437.64,63.87 437.58,63.75 437.58,63.015 L 437.58,60.285 C 437.58,58.095 436.95,57.315 435.225,57.315 C 434.58,57.315 433.98,57.48 433.41,57.81 L 432.615,58.29 L 432.615,59.265 L 433.005,59.37 L 433.2,58.905 C 433.515,58.2 433.665,58.095 434.355,58.095 C 435.75,58.095 436.335,58.65 436.38,60.015 L 436.38,60.495 L 436.38,62.46 C 435.945,63.075 435.015,63.645 434.43,63.645 C 433.83,63.645 433.305,63.09 433.305,62.445 C 433.305,61.89 433.605,61.365 434.055,61.095 C 434.43,60.87 435.255,60.66 436.38,60.495 L 436.38,60.015 L 434.91,60.285 C 432.87,60.66 432.015,61.365 432.015,62.655 C 432.015,63.825 432.72,64.5 433.905,64.5 C 434.175,64.5 434.43,64.455 434.535,64.38 L 436.38,63.09 z"
         style="font-style:normal;font-variant:normal;font-weight:normal;font-stretch:normal;letter-spacing:normal;word-spacing:normal;text-anchor:start;fill:#000000;fill-opacity:1;stroke:none;stroke-width:0;stroke-linecap:butt;stroke-linejoin:miter;stroke-miterlimit:10.43299960999999954;stroke-dasharray:none;stroke-dashoffset:0;stroke-opacity:1" />
      <path
         id="path3376"
         d="M 439.635,62.175 L 439.635,62.28 L 439.635,62.37 L 439.635,62.46 L 439.635,62.535 L 439.635,62.625 L 439.635,62.7 L 439.635,62.775 L 439.635,62.85 L 439.62,62.925 L 439.62,63 L 439.62,63.06 L 439.62,63.135 L 439.605,63.195 L 439.605,63.255 L 439.605,63.315 L 439.605,63.375 L 439.59,63.495 L 439.575,63.615 L 439.56,63.72 L 439.545,63.825 L 439.53,63.93 L 439.515,64.035 L 439.5,64.14 L 439.47,64.26 C 440.25,64.515 440.835,64.62 441.525,64.62 C 443.475,64.62 444.87,63.57 444.87,62.1 C 444.87,61.635 444.735,61.29 444.45,61.005 C 444.06,60.63 443.565,60.45 442.245,60.195 C 441.03,59.955 440.625,59.655 440.625,58.965 C 440.625,58.215 441.15,57.795 442.05,57.795 C 443.055,57.795 443.82,58.32 443.82,59.025 L 443.82,59.37 L 444.24,59.37 C 444.255,58.5 444.27,58.14 444.315,57.675 C 443.52,57.42 442.98,57.315 442.365,57.315 C 440.64,57.315 439.575,58.125 439.575,59.475 C 439.575,60.195 439.905,60.705 440.595,61.02 C 441,61.185 441.795,61.44 442.8,61.65 C 443.475,61.8 443.76,62.115 443.76,62.685 C 443.76,63.495 443.01,64.065 441.96,64.065 C 440.865,64.065 440.085,63.54 440.085,62.79 L 440.085,62.175 L 439.635,62.175 z"
         style="font-style:normal;font-variant:normal;font-weight:normal;font-stretch:normal;letter-spacing:normal;word-spacing:normal;text-anchor:start;fill:#000000;fill-opacity:1;stroke:none;stroke-width:0;stroke-linecap:butt;stroke-linejoin:miter;stroke-miterlimit:10.43299960999999954;stroke-dasharray:none;stroke-dashoffset:0;stroke-opacity:1" />
      <path
         id="path3378"
         d="M 448.17,57.36 L 448.035,57.315 C 447.27,57.615 446.49,57.825 445.695,57.915 L 445.695,58.335 L 446.25,58.335 C 446.85,58.335 446.91,58.44 446.91,59.43 L 446.91,62.79 C 446.91,63.735 446.865,63.84 446.355,63.87 L 445.665,63.915 L 445.665,64.365 C 447.165,64.32 447.165,64.32 447.54,64.32 C 447.915,64.32 447.915,64.32 449.415,64.365 L 449.415,63.915 L 448.725,63.87 C 448.215,63.84 448.17,63.735 448.17,62.79 L 448.17,57.36 z"
         style="font-style:normal;font-variant:normal;font-weight:normal;font-stretch:normal;letter-spacing:normal;word-spacing:normal;text-anchor:start;fill:#000000;fill-opacity:1;stroke:none;stroke-width:0;stroke-linecap:butt;stroke-linejoin:miter;stroke-miterlimit:10.43299960999999954;stroke-dasharray:none;stroke-dashoffset:0;stroke-opacity:1" />
      <path
         id="path3380"
         d="M 447.48,54.045 L 447.435,54.045 L 447.39,54.06 L 447.36,54.06 L 447.315,54.06 L 447.27,54.075 L 447.24,54.09 L 447.195,54.105 L 447.165,54.12 L 447.12,54.135 L 447.09,54.15 L 447.045,54.18 L 447.015,54.195 L 446.985,54.225 L 446.955,54.24 L 446.925,54.27 L 446.895,54.3 L 446.865,54.33 L 446.835,54.36 L 446.82,54.39 L 446.79,54.42 L 446.76,54.465 L 446.745,54.495 L 446.73,54.525 L 446.715,54.57 L 446.7,54.6 L 446.685,54.645 L 446.67,54.675 L 446.655,54.72 L 446.655,54.765 L 446.64,54.81 L 446.64,54.84 L 446.64,54.885 C 446.64,55.32 447.03,55.71 447.465,55.71 C 447.9,55.71 448.305,55.32 448.305,54.885 C 448.305,54.465 447.9,54.045 447.48,54.045 z"
         style="font-style:normal;font-variant:normal;font-weight:normal;font-stretch:normal;letter-spacing:normal;word-spacing:normal;text-anchor:start;fill:#000000;fill-opacity:1;stroke:none;stroke-width:0;stroke-linecap:butt;stroke-linejoin:miter;stroke-miterlimit:10.43299960999999954;stroke-dasharray:none;stroke-dashoffset:0;stroke-opacity:1" />
      <path
         id="path3382"
         d="M 450.315,62.175 L 450.315,62.28 L 450.315,62.37 L 450.315,62.46 L 450.315,62.535 L 450.315,62.625 L 450.3,62.7 L 450.3,62.775 L 450.3,62.85 L 450.3,62.925 L 450.3,63 L 450.3,63.06 L 450.285,63.135 L 450.285,63.195 L 450.285,63.255 L 450.285,63.315 L 450.27,63.375 L 450.27,63.495 L 450.255,63.615 L 450.24,63.72 L 450.225,63.825 L 450.21,63.93 L 450.195,64.035 L 450.165,64.14 L 450.15,64.26 C 450.93,64.515 451.515,64.62 452.19,64.62 C 454.155,64.62 455.55,63.57 455.55,62.1 C 455.55,61.635 455.415,61.29 455.13,61.005 C 454.74,60.63 454.245,60.45 452.925,60.195 C 451.71,59.955 451.305,59.655 451.305,58.965 C 451.305,58.215 451.815,57.795 452.73,57.795 C 453.735,57.795 454.5,58.32 454.5,59.025 L 454.5,59.37 L 454.92,59.37 C 454.935,58.5 454.95,58.14 454.995,57.675 C 454.2,57.42 453.66,57.315 453.045,57.315 C 451.32,57.315 450.255,58.125 450.255,59.475 C 450.255,60.195 450.585,60.705 451.275,61.02 C 451.665,61.185 452.46,61.44 453.48,61.65 C 454.155,61.8 454.44,62.115 454.44,62.685 C 454.44,63.495 453.69,64.065 452.625,64.065 C 451.53,64.065 450.765,63.54 450.765,62.79 L 450.765,62.175 L 450.315,62.175 z"
         style="font-style:normal;font-variant:normal;font-weight:normal;font-stretch:normal;letter-spacing:normal;word-spacing:normal;text-anchor:start;fill:#000000;fill-opacity:1;stroke:none;stroke-width:0;stroke-linecap:butt;stroke-linejoin:miter;stroke-miterlimit:10.43299960999999954;stroke-dasharray:none;stroke-dashoffset:0;stroke-opacity:1" />
      <path
         id="path3384"
         d="M 465.075,53.595 L 465.045,53.595 L 465.015,53.58 L 464.985,53.565 L 464.955,53.565 L 464.925,53.55 L 464.91,53.535 L 464.88,53.535 L 464.85,53.52 L 464.835,53.52 L 464.805,53.505 L 464.79,53.505 L 464.76,53.49 L 464.745,53.49 L 464.715,53.49 L 464.7,53.475 L 464.685,53.475 L 464.64,53.46 L 464.595,53.46 L 464.565,53.445 L 464.52,53.445 L 464.49,53.445 L 464.445,53.445 L 464.415,53.445 L 464.385,53.43 C 463.905,53.43 463.38,53.685 463.05,54.06 L 462.18,55.05 C 461.745,55.545 461.55,56.22 461.55,57.21 L 461.55,57.825 L 460.53,58.29 L 460.53,58.62 L 461.55,58.56 L 461.55,62.79 C 461.55,63.735 461.505,63.84 460.995,63.87 L 460.32,63.915 L 460.32,64.365 C 461.805,64.32 461.805,64.32 462.18,64.32 C 462.555,64.32 462.555,64.32 464.055,64.365 L 464.055,63.915 L 463.365,63.87 C 462.855,63.84 462.81,63.735 462.81,62.79 L 462.81,58.56 L 464.67,58.56 L 464.775,57.765 L 462.81,57.825 L 462.81,56.565 C 462.81,54.84 463.005,54.42 463.86,54.42 C 464.265,54.42 464.535,54.525 464.88,54.84 L 465.075,54.75 L 465.075,53.595 z"
         style="font-style:normal;font-variant:normal;font-weight:normal;font-stretch:normal;letter-spacing:normal;word-spacing:normal;text-anchor:start;fill:#000000;fill-opacity:1;stroke:none;stroke-width:0;stroke-linecap:butt;stroke-linejoin:miter;stroke-miterlimit:10.43299960999999954;stroke-dasharray:none;stroke-dashoffset:0;stroke-opacity:1" />
      <path
         id="path3386"
         d="M 472.455,57.36 L 472.32,57.315 C 471.57,57.615 470.79,57.825 469.995,57.915 L 469.995,58.335 L 470.55,58.335 C 471.15,58.335 471.21,58.44 471.21,59.43 L 471.21,61.86 C 471.21,62.19 471,62.61 470.655,62.955 C 470.235,63.375 469.755,63.585 469.17,63.585 C 468.645,63.585 468.225,63.42 467.985,63.135 C 467.79,62.895 467.685,62.43 467.685,61.77 L 467.685,57.36 L 467.55,57.315 C 466.785,57.615 466.005,57.825 465.21,57.915 L 465.21,58.335 L 465.765,58.335 C 466.365,58.335 466.425,58.44 466.425,59.43 L 466.425,61.935 C 466.425,62.985 466.515,63.45 466.785,63.825 C 467.115,64.275 467.685,64.5 468.525,64.5 C 469.2,64.5 469.8,64.29 470.205,63.915 L 471.21,62.985 C 471.21,63.42 471.195,63.66 471.15,64.365 C 472.155,64.32 472.155,64.32 472.38,64.32 C 472.59,64.32 472.59,64.32 473.625,64.365 L 473.625,63.915 L 473.01,63.87 C 472.5,63.84 472.455,63.75 472.455,62.79 L 472.455,57.36 z"
         style="font-style:normal;font-variant:normal;font-weight:normal;font-stretch:normal;letter-spacing:normal;word-spacing:normal;text-anchor:start;fill:#000000;fill-opacity:1;stroke:none;stroke-width:0;stroke-linecap:butt;stroke-linejoin:miter;stroke-miterlimit:10.43299960999999954;stroke-dasharray:none;stroke-dashoffset:0;stroke-opacity:1" />
      <path
         id="path3388"
         d="M 480.075,64.365 L 480.12,64.365 L 480.165,64.35 L 480.21,64.35 L 480.24,64.35 L 480.285,64.35 L 480.315,64.35 L 480.345,64.35 L 480.39,64.35 L 480.42,64.35 L 480.45,64.35 L 480.48,64.335 L 480.51,64.335 L 480.54,64.335 L 480.57,64.335 L 480.585,64.335 L 480.615,64.335 L 480.645,64.335 L 480.66,64.335 L 480.705,64.335 L 480.75,64.335 L 480.795,64.335 L 480.825,64.32 L 480.855,64.32 L 480.885,64.32 L 480.915,64.32 L 480.945,64.32 L 480.975,64.32 L 480.99,64.32 L 481.02,64.32 L 481.035,64.32 L 481.065,64.32 L 481.095,64.32 L 481.14,64.32 L 481.17,64.32 L 481.2,64.32 L 481.215,64.32 L 481.245,64.32 L 481.26,64.32 C 481.47,64.32 481.47,64.32 482.505,64.365 L 482.505,63.915 L 481.89,63.87 C 481.38,63.84 481.335,63.75 481.335,62.79 L 481.335,59.91 C 481.335,58.155 480.51,57.315 478.845,57.315 C 478.29,57.315 477.975,57.42 477.66,57.675 L 476.52,58.665 L 476.52,57.36 L 476.385,57.315 C 475.635,57.615 474.855,57.825 474.06,57.915 L 474.06,58.335 L 474.615,58.335 C 475.215,58.335 475.275,58.44 475.275,59.43 L 475.275,62.79 C 475.275,63.735 475.23,63.84 474.72,63.87 L 474.045,63.915 L 474.045,64.365 C 475.065,64.335 475.47,64.32 475.905,64.32 C 476.325,64.32 476.73,64.335 477.75,64.365 L 477.75,63.915 L 477.075,63.87 C 476.565,63.84 476.52,63.735 476.52,62.79 L 476.52,59.625 C 476.52,58.95 477.51,58.215 478.425,58.215 C 479.43,58.215 480.075,58.965 480.075,60.12 L 480.075,64.365 z"
         style="font-style:normal;font-variant:normal;font-weight:normal;font-stretch:normal;letter-spacing:normal;word-spacing:normal;text-anchor:start;fill:#000000;fill-opacity:1;stroke:none;stroke-width:0;stroke-linecap:butt;stroke-linejoin:miter;stroke-miterlimit:10.43299960999999954;stroke-dasharray:none;stroke-dashoffset:0;stroke-opacity:1" />
      <path
         id="path3390"
         d="M 488.61,59.67 L 488.61,59.535 L 488.625,59.415 L 488.625,59.295 L 488.625,59.16 L 488.64,59.04 L 488.64,58.92 L 488.655,58.815 L 488.67,58.695 L 488.685,58.575 L 488.7,58.47 L 488.715,58.35 L 488.73,58.245 L 488.76,58.14 L 488.775,58.035 L 488.805,57.93 L 488.82,57.825 C 488.22,57.48 487.71,57.315 487.095,57.315 C 486.375,57.315 485.535,57.585 484.635,58.155 C 483.6,58.815 483.045,59.865 483.045,61.17 C 483.045,63.195 484.455,64.62 486.465,64.62 C 487.245,64.62 488.355,64.335 488.505,64.11 L 488.82,63.63 L 488.67,63.405 C 488.115,63.705 487.635,63.84 487.11,63.84 C 485.445,63.84 484.35,62.55 484.35,60.585 C 484.35,58.98 485.1,58.08 486.45,58.08 C 487.11,58.08 487.83,58.38 488.085,58.755 L 488.19,59.67 L 488.61,59.67 z"
         style="font-style:normal;font-variant:normal;font-weight:normal;font-stretch:normal;letter-spacing:normal;word-spacing:normal;text-anchor:start;fill:#000000;fill-opacity:1;stroke:none;stroke-width:0;stroke-linecap:butt;stroke-linejoin:miter;stroke-miterlimit:10.43299960999999954;stroke-dasharray:none;stroke-dashoffset:0;stroke-opacity:1" />
      <path
         id="path3392"
         d="M 490.755,58.605 L 490.755,62.91 C 490.755,64.02 491.25,64.5 492.405,64.5 C 492.735,64.5 493.095,64.425 493.185,64.32 L 493.905,63.525 L 493.71,63.27 C 493.335,63.48 493.11,63.555 492.825,63.555 C 492.24,63.555 492.015,63.255 492.015,62.52 L 492.015,58.605 L 493.92,58.605 L 494.055,57.795 L 492.015,57.885 L 492.015,57.33 C 492.015,56.7 492.06,56.16 492.165,55.2 L 492,55.035 C 491.64,55.26 491.19,55.455 490.725,55.605 C 490.77,56.055 490.785,56.34 490.785,56.79 L 490.785,57.825 L 489.615,58.35 L 489.615,58.665 L 490.755,58.605 z"
         style="font-style:normal;font-variant:normal;font-weight:normal;font-stretch:normal;letter-spacing:normal;word-spacing:normal;text-anchor:start;fill:#000000;fill-opacity:1;stroke:none;stroke-width:0;stroke-linecap:butt;stroke-linejoin:miter;stroke-miterlimit:10.43299960999999954;stroke-dasharray:none;stroke-dashoffset:0;stroke-opacity:1" />
      <path
         id="path3394"
         d="M 496.965,57.36 L 496.83,57.315 C 496.08,57.615 495.3,57.825 494.505,57.915 L 494.505,58.335 L 495.06,58.335 C 495.66,58.335 495.72,58.44 495.72,59.43 L 495.72,62.79 C 495.72,63.735 495.675,63.84 495.165,63.87 L 494.475,63.915 L 494.475,64.365 C 495.975,64.32 495.975,64.32 496.35,64.32 C 496.71,64.32 496.71,64.32 498.21,64.365 L 498.21,63.915 L 497.52,63.87 C 497.01,63.84 496.965,63.735 496.965,62.79 L 496.965,57.36 z"
         style="font-style:normal;font-variant:normal;font-weight:normal;font-stretch:normal;letter-spacing:normal;word-spacing:normal;text-anchor:start;fill:#000000;fill-opacity:1;stroke:none;stroke-width:0;stroke-linecap:butt;stroke-linejoin:miter;stroke-miterlimit:10.43299960999999954;stroke-dasharray:none;stroke-dashoffset:0;stroke-opacity:1" />
      <path
         id="path3396"
         d="M 496.275,54.045 L 496.245,54.045 L 496.2,54.06 L 496.155,54.06 L 496.125,54.06 L 496.08,54.075 L 496.035,54.09 L 496.005,54.105 L 495.96,54.12 L 495.93,54.135 L 495.885,54.15 L 495.855,54.18 L 495.825,54.195 L 495.795,54.225 L 495.75,54.24 L 495.72,54.27 L 495.69,54.3 L 495.675,54.33 L 495.645,54.36 L 495.615,54.39 L 495.585,54.42 L 495.57,54.465 L 495.555,54.495 L 495.525,54.525 L 495.51,54.57 L 495.495,54.6 L 495.48,54.645 L 495.48,54.675 L 495.465,54.72 L 495.45,54.765 L 495.45,54.81 L 495.45,54.84 L 495.45,54.885 C 495.45,55.32 495.84,55.71 496.26,55.71 C 496.695,55.71 497.1,55.32 497.1,54.885 C 497.1,54.465 496.695,54.045 496.275,54.045 z"
         style="font-style:normal;font-variant:normal;font-weight:normal;font-stretch:normal;letter-spacing:normal;word-spacing:normal;text-anchor:start;fill:#000000;fill-opacity:1;stroke:none;stroke-width:0;stroke-linecap:butt;stroke-linejoin:miter;stroke-miterlimit:10.43299960999999954;stroke-dasharray:none;stroke-dashoffset:0;stroke-opacity:1" />
      <path
         id="path3398"
         d="M 502.68,57.315 L 502.41,57.795 C 503.79,57.795 504.81,59.295 504.81,61.335 C 504.81,63.045 504.045,64.125 502.83,64.125 C 501.36,64.125 500.385,62.685 500.385,60.57 C 500.385,58.77 501.105,57.795 502.41,57.795 L 502.41,57.795 L 502.68,57.315 C 500.505,57.315 498.99,58.845 498.99,61.08 C 498.99,63.18 500.325,64.62 502.245,64.62 C 504.555,64.62 506.19,63.015 506.19,60.78 C 506.19,58.755 504.735,57.315 502.68,57.315 z"
         style="font-style:normal;font-variant:normal;font-weight:normal;font-stretch:normal;letter-spacing:normal;word-spacing:normal;text-anchor:start;fill:#000000;fill-opacity:1;stroke:none;stroke-width:0;stroke-linecap:butt;stroke-linejoin:miter;stroke-miterlimit:10.43299960999999954;stroke-dasharray:none;stroke-dashoffset:0;stroke-opacity:1" />
      <path
         id="path3400"
         d="M 512.79,64.365 L 512.835,64.365 L 512.88,64.35 L 512.925,64.35 L 512.955,64.35 L 513,64.35 L 513.03,64.35 L 513.06,64.35 L 513.105,64.35 L 513.135,64.35 L 513.165,64.35 L 513.195,64.335 L 513.225,64.335 L 513.255,64.335 L 513.285,64.335 L 513.3,64.335 L 513.33,64.335 L 513.36,64.335 L 513.375,64.335 L 513.42,64.335 L 513.465,64.335 L 513.51,64.335 L 513.54,64.32 L 513.57,64.32 L 513.6,64.32 L 513.63,64.32 L 513.66,64.32 L 513.69,64.32 L 513.705,64.32 L 513.735,64.32 L 513.75,64.32 L 513.78,64.32 L 513.81,64.32 L 513.855,64.32 L 513.885,64.32 L 513.915,64.32 L 513.93,64.32 L 513.96,64.32 L 513.975,64.32 C 514.185,64.32 514.185,64.32 515.22,64.365 L 515.22,63.915 L 514.605,63.87 C 514.095,63.84 514.05,63.75 514.05,62.79 L 514.05,59.91 C 514.05,58.155 513.225,57.315 511.56,57.315 C 511.005,57.315 510.69,57.42 510.375,57.675 L 509.235,58.665 L 509.235,57.36 L 509.1,57.315 C 508.35,57.615 507.57,57.825 506.775,57.915 L 506.775,58.335 L 507.33,58.335 C 507.93,58.335 507.99,58.44 507.99,59.43 L 507.99,62.79 C 507.99,63.735 507.945,63.84 507.435,63.87 L 506.76,63.915 L 506.76,64.365 C 507.78,64.335 508.185,64.32 508.62,64.32 C 509.04,64.32 509.445,64.335 510.465,64.365 L 510.465,63.915 L 509.79,63.87 C 509.28,63.84 509.235,63.735 509.235,62.79 L 509.235,59.625 C 509.235,58.95 510.225,58.215 511.14,58.215 C 512.145,58.215 512.79,58.965 512.79,60.12 L 512.79,64.365 z"
         style="font-style:normal;font-variant:normal;font-weight:normal;font-stretch:normal;letter-spacing:normal;word-spacing:normal;text-anchor:start;fill:#000000;fill-opacity:1;stroke:none;stroke-width:0;stroke-linecap:butt;stroke-linejoin:miter;stroke-miterlimit:10.43299960999999954;stroke-dasharray:none;stroke-dashoffset:0;stroke-opacity:1" />
    </g>
    <path
       style="font-style:normal;font-variant:normal;font-weight:normal;font-stretch:normal;letter-spacing:normal;word-spacing:normal;text-anchor:start;fill:#000000;fill-opacity:1;stroke:none;stroke-width:0;stroke-linecap:butt;stroke-linejoin:miter;stroke-miterlimit:10.43299960999999954;stroke-dasharray:none;stroke-dashoffset:0;stroke-opacity:1"
       d="M 568.08836,201.87227 L 568.13336,201.45227 L 567.77336,201.45227 L 566.42336,201.49727 C 566.18336,201.49727 565.91336,201.49727 565.28336,201.48227 L 564.32336,201.45227 L 564.27836,201.87227 L 564.98336,201.90227 C 565.34336,201.91727 565.49336,202.03727 565.49336,202.30727 C 565.49336,202.51727 565.46336,202.95227 565.37336,203.44727 L 564.27836,209.92727 C 564.02336,211.30727 564.00836,211.32227 563.40836,211.38227 L 562.79336,211.42727 L 562.73336,211.84727 L 563.36336,211.83227 C 564.08336,211.81727 564.42836,211.80227 564.71336,211.80227 L 566.15336,211.84727 L 566.54336,211.84727 L 566.58836,211.42727 L 565.85336,211.38227 C 565.46336,211.35227 565.32836,211.24727 565.32836,210.94727 C 565.32836,210.85727 565.34336,210.69227 565.35836,210.63227 L 565.98836,206.71727 C 568.23836,209.26727 568.58336,209.70227 570.14336,211.84727 L 571.17836,211.80227 C 571.71836,211.81727 571.80836,211.83227 572.19836,211.84727 L 572.19836,211.39727 L 571.89836,211.39727 C 571.55336,211.39727 571.25336,211.21727 570.93836,210.82727 L 567.26336,206.31227 L 571.62836,202.23227 C 571.86836,202.00727 572.18336,201.85727 572.43836,201.85727 L 572.75336,201.85727 L 572.75336,201.45227 L 572.40836,201.46727 C 572.09336,201.48227 571.85336,201.49727 571.73336,201.49727 C 571.58336,201.49727 571.34336,201.48227 571.02836,201.46727 L 570.72836,201.45227 L 570.72836,201.88727 C 570.72836,202.00727 570.57836,202.20227 570.15836,202.62227 L 568.25336,204.57227 C 567.59336,205.23227 566.97836,205.77227 566.01836,206.52227 L 566.69336,202.63727 C 566.79836,202.06727 566.90336,201.96227 567.45836,201.91727 L 568.08836,201.87227 z"
       id="path3406" />
    <g
       style="font-style:normal;font-variant:normal;font-weight:normal;font-stretch:normal;letter-spacing:normal;word-spacing:normal;text-anchor:start;fill:none;fill-opacity:1;stroke:none;stroke-linecap:butt;stroke-linejoin:miter;stroke-miterlimit:10.43299960999999954;stroke-dasharray:none;stroke-dashoffset:0;stroke-opacity:1"
       id="content"
       transform="matrix(1.5,0,0,-1.5,330.33519,1210.863)"
       xml:space="preserve"
       stroke-miterlimit="10.433"
       fill-rule="even-odd"
       font-style="normal"
       font-variant="normal"
       font-weight="normal"
       font-stretch="normal"
       font-size-adjust="none"
       letter-spacing="normal"
       word-spacing="normal"
       ns0:text="$w$"
       ns0:preamble="/home/lenka/Documents/textext-preamble.tex">
<path
   style="fill:#000000;stroke-width:0;stroke:none"
   d="M 229.08,711.34 L 229.19,711.15 C 229.28,711.21 229.37,711.24 229.46,711.24 C 229.73,711.24 229.89,711.01 229.89,710.61 C 229.89,709.16 228.92,707.51 228.07,707.51 C 227.78,707.51 227.57,707.91 227.57,708.46 C 227.57,708.93 227.66,709.58 227.78,710.01 L 228.3,711.84 L 228.23,711.92 L 227.49,711.71 L 227.21,710.22 C 227.09,709.6 226.95,709.21 226.66,708.67 C 226.26,707.92 225.88,707.51 225.58,707.51 C 225.23,707.51 225.01,707.9 225.01,708.48 C 225.01,709.66 225.41,710.63 226.4,711.74 L 226.3,711.92 C 226.1,711.84 225.97,711.8 225.69,711.8 C 225.41,711.8 224.99,711.83 224.71,711.85 L 224.59,711.86 C 224.53,711.88 224.48,711.88 224.47,711.88 C 224.35,711.88 224.26,711.85 224.15,711.8 C 224.01,711.54 223.9,711.18 223.77,710.63 L 223.99,710.63 L 224.16,711.05 C 224.23,711.22 224.43,711.33 224.67,711.33 C 224.72,711.33 224.8,711.33 224.93,711.32 C 225.01,711.31 225.09,711.31 225.22,711.31 C 225.43,711.31 225.56,711.32 225.81,711.35 L 225.78,711.31 C 225.72,711.23 225.68,711.18 225.51,710.99 C 224.62,709.94 224.28,709.22 224.28,708.38 C 224.28,707.56 224.63,707.01 225.15,707.01 C 225.79,707.01 226.31,707.56 227.05,708.99 C 226.96,708.55 226.93,708.3 226.93,708.07 C 226.93,707.44 227.22,707.01 227.66,707.01 C 228.47,707.01 229.52,708.02 230.13,709.38 C 230.35,709.88 230.52,710.55 230.52,710.95 C 230.52,711.52 230.26,711.92 229.91,711.92 C 229.78,711.92 229.66,711.89 229.58,711.8 L 229.08,711.34 z"
   id="path3725" />
</g>    <g
       ns0:preamble="/home/lenka/Documents/textext-preamble.tex"
       ns0:text="$\\Phi_K$"
       word-spacing="normal"
       letter-spacing="normal"
       font-size-adjust="none"
       font-stretch="normal"
       font-weight="normal"
       font-variant="normal"
       font-style="normal"
       fill-rule="even-odd"
       stroke-miterlimit="10.433"
       xml:space="preserve"
       transform="matrix(1.5,0,0,-1.5,85.714286,1156.4286)"
       id="g4005"
       style="font-style:normal;font-variant:normal;font-weight:normal;font-stretch:normal;letter-spacing:normal;word-spacing:normal;text-anchor:start;fill:none;fill-opacity:1;stroke:none;stroke-linecap:butt;stroke-linejoin:miter;stroke-miterlimit:10.43299960999999954;stroke-dasharray:none;stroke-dashoffset:0;stroke-opacity:1">
<path
   id="path4007"
   d="M 226.02,713.72 L 226.5,713.69 C 226.94,713.66 227,713.58 227.01,712.89 L 227.01,712.48 L 227.01,708.67 C 225.76,708.86 224.85,709.61 224.85,710.77 L 224.85,710.77 C 224.85,711.8 225.71,712.39 227.01,712.48 L 227.01,712.89 C 225.16,712.73 223.78,711.78 223.78,710.54 C 223.78,709.29 225.24,708.29 227.01,708.2 C 227,707.52 226.93,707.45 226.5,707.42 L 226.02,707.39 L 226.02,707.09 C 226.61,707.11 226.96,707.12 227.48,707.12 C 227.99,707.12 228.35,707.11 228.94,707.09 L 228.94,707.39 L 228.46,707.42 C 228.01,707.45 227.95,707.53 227.95,708.24 L 227.95,708.63 L 227.95,712.47 C 229.24,712.33 230.1,711.68 230.1,710.55 L 230.1,710.55 C 230.1,709.41 229.22,708.73 227.95,708.63 L 227.95,708.24 C 229.73,708.45 231.17,709.48 231.17,710.7 C 231.17,711.91 229.81,712.8 227.95,712.91 C 227.95,713.58 228.02,713.66 228.46,713.69 L 228.94,713.72 L 228.94,714.02 C 228.35,714 228,713.99 227.48,713.99 C 226.96,713.99 226.61,714 226.02,714.02 L 226.02,713.72 z"
   style="fill:#000000;stroke-width:0;stroke:none" />
<path
   id="path4009"
   d="M 234.42,710.34 L 234.45,710.55 L 234.26,710.55 L 233.58,710.53 C 233.46,710.53 233.33,710.53 233,710.54 L 232.52,710.55 L 232.49,710.34 L 232.85,710.33 C 233.03,710.32 233.11,710.26 233.11,710.12 C 233.11,710.02 233.09,709.8 233.05,709.55 L 232.49,706.26 C 232.37,705.57 232.36,705.56 232.05,705.53 L 231.74,705.5 L 231.71,705.29 L 232.03,705.3 C 232.4,705.31 232.57,705.32 232.71,705.32 L 233.45,705.29 L 233.64,705.29 L 233.67,705.5 L 233.3,705.53 C 233.09,705.54 233.02,705.59 233.02,705.75 C 233.02,705.79 233.03,705.88 233.04,705.91 L 233.36,707.89 C 234.5,706.59 234.67,706.38 235.47,705.29 L 235.99,705.32 C 236.26,705.31 236.31,705.3 236.51,705.29 L 236.51,705.52 L 236.35,705.52 C 236.18,705.52 236.03,705.61 235.87,705.81 L 234.01,708.09 L 236.22,710.16 C 236.34,710.27 236.5,710.35 236.63,710.35 L 236.79,710.35 L 236.79,710.55 L 236.61,710.55 C 236.45,710.54 236.33,710.53 236.27,710.53 C 236.2,710.53 236.07,710.54 235.92,710.55 L 235.76,710.55 L 235.76,710.34 C 235.76,710.27 235.69,710.18 235.48,709.96 L 234.51,708.98 C 234.17,708.64 233.86,708.37 233.38,707.99 L 233.72,709.96 C 233.77,710.24 233.83,710.3 234.11,710.32 L 234.42,710.34 z"
   style="fill:#000000;stroke-width:0;stroke:none" />
</g>  </g>
</svg>
