<?xml version="1.0" encoding="UTF-8" standalone="no"?>
<!-- Created with Inkscape (http://www.inkscape.org/) -->
<svg
   xmlns:ns0="http://www.iki.fi/pav/software/textext/"
   xmlns:dc="http://purl.org/dc/elements/1.1/"
   xmlns:cc="http://creativecommons.org/ns#"
   xmlns:rdf="http://www.w3.org/1999/02/22-rdf-syntax-ns#"
   xmlns:svg="http://www.w3.org/2000/svg"
   xmlns="http://www.w3.org/2000/svg"
   xmlns:sodipodi="http://sodipodi.sourceforge.net/DTD/sodipodi-0.dtd"
   xmlns:inkscape="http://www.inkscape.org/namespaces/inkscape"
   width="744.09448819"
   height="1052.3622047"
   id="svg2"
   sodipodi:version="0.32"
   inkscape:version="0.46"
   sodipodi:docbase="/home/jakub/latex/thesis-utep/img"
   sodipodi:docname="multimesh2.svg"
   inkscape:output_extension="org.inkscape.output.svg.inkscape">
  <sodipodi:namedview
     id="base"
     pagecolor="#ffffff"
     bordercolor="#666666"
     borderopacity="1.0"
     gridtolerance="10000"
     guidetolerance="10"
     objecttolerance="10"
     inkscape:pageopacity="0.0"
     inkscape:pageshadow="2"
     inkscape:zoom="1.6267045"
     inkscape:cx="438.95822"
     inkscape:cy="855.69825"
     inkscape:document-units="px"
     inkscape:current-layer="layer1"
     showgrid="false"
     inkscape:window-width="1313"
     inkscape:window-height="1058"
     inkscape:window-x="62"
     inkscape:window-y="35" />
  <defs
     id="defs4">
    <inkscape:perspective
       id="perspective10156"
       inkscape:persp3d-origin="372.04724 : 350.78739 : 1"
       inkscape:vp_z="744.09448 : 526.18109 : 1"
       inkscape:vp_y="0 : 1000 : 0"
       inkscape:vp_x="0 : 526.18109 : 1"
       sodipodi:type="inkscape:persp3d" />
  </defs>
  <metadata
     id="metadata7">
    <rdf:RDF>
      <cc:Work
         rdf:about="">
        <dc:format>image/svg+xml</dc:format>
        <dc:type
           rdf:resource="http://purl.org/dc/dcmitype/StillImage" />
      </cc:Work>
    </rdf:RDF>
  </metadata>
  <g
     id="layer2"
     inkscape:groupmode="layer">
    <path
       sodipodi:nodetypes="ccccc"
       id="path5527"
       d="M 633.33848,170.60028 L 599.97628,173.9691 L 597.5855,140.49823 L 627.9049,135.608 L 633.33848,170.60028 z "
       style="fill:silver;fill-opacity:1;fill-rule:evenodd;stroke:none;stroke-width:1px;stroke-linecap:butt;stroke-linejoin:miter;stroke-opacity:1" />
    <path
       sodipodi:nodetypes="ccccc"
       id="path5535"
       d="M 455.17128,170.11125 L 421.80908,173.48007 L 419.4183,140.0092 L 449.7377,135.11897 L 455.17128,170.11125 z "
       style="fill:silver;fill-opacity:1;fill-rule:evenodd;stroke:none;stroke-width:1px;stroke-linecap:butt;stroke-linejoin:miter;stroke-opacity:1" />
    <path
       sodipodi:nodetypes="ccccc"
       id="path5537"
       d="M 275.42834,171.85 L 242.06614,175.21882 L 239.67536,141.74795 L 269.99476,136.85772 L 275.42834,171.85 z "
       style="fill:silver;fill-opacity:1;fill-rule:evenodd;stroke:none;stroke-width:1px;stroke-linecap:butt;stroke-linejoin:miter;stroke-opacity:1" />
    <path
       sodipodi:nodetypes="ccccc"
       id="path5539"
       d="M 98.076181,171.41531 L 63.409921,174.34944 L 61.236484,141.5306 L 92.207914,137.07506 L 98.076181,171.41531 z "
       style="fill:silver;fill-opacity:1;fill-rule:evenodd;stroke:none;stroke-width:1px;stroke-linecap:butt;stroke-linejoin:miter;stroke-opacity:1" />
  </g>
  <g
     id="layer1"
     inkscape:groupmode="layer"
     inkscape:label="Layer 1">
    <path
       sodipodi:nodetypes="ccccc"
       id="path1872"
       d="M 30.394642,115.0963 L 30.394645,242.84574 L 191.56765,242.84574 L 144.39506,86.797377 L 30.394642,115.0963 z "
       style="fill:none;fill-opacity:0.75;fill-rule:evenodd;stroke:black;stroke-width:1.5;stroke-linecap:butt;stroke-linejoin:miter;stroke-opacity:1;stroke-miterlimit:4;stroke-dasharray:none" />
    <path
       sodipodi:nodetypes="ccccc"
       id="path1874"
       d="M 209.40547,115.0963 L 209.40548,242.84574 L 370.57848,242.84574 L 323.40589,86.797377 L 209.40547,115.0963 z "
       style="fill:none;fill-opacity:0.75;fill-rule:evenodd;stroke:black;stroke-width:1.5;stroke-linecap:butt;stroke-linejoin:miter;stroke-opacity:1;stroke-miterlimit:4;stroke-dasharray:none" />
    <path
       sodipodi:nodetypes="ccccc"
       id="path1903"
       d="M 388.4163,115.0963 L 388.41631,242.84574 L 549.58931,242.84574 L 502.41672,86.79738 L 388.4163,115.0963 z "
       style="fill:none;fill-opacity:0.75;fill-rule:evenodd;stroke:black;stroke-width:1.5;stroke-linecap:butt;stroke-linejoin:miter;stroke-opacity:1;stroke-miterlimit:4;stroke-dasharray:none" />
    <path
       sodipodi:nodetypes="ccccc"
       id="path1905"
       d="M 567.42714,115.0963 L 567.42714,242.84574 L 728.60014,242.84574 L 681.42755,86.797375 L 567.42714,115.0963 z "
       style="fill:none;fill-opacity:0.75;fill-rule:evenodd;stroke:black;stroke-width:1.5;stroke-linecap:butt;stroke-linejoin:miter;stroke-opacity:1;stroke-miterlimit:4;stroke-dasharray:none" />
    <path
       id="path5451"
       d="M 86.370939,101.05237 L 110.03842,242.74989"
       style="fill:none;fill-opacity:0.75;fill-rule:evenodd;stroke:black;stroke-width:0.7;stroke-linecap:butt;stroke-linejoin:miter;stroke-opacity:1;stroke-miterlimit:4;stroke-dasharray:none" />
    <path
       id="path5453"
       d="M 30.736989,177.2801 L 168.13133,165.60005"
       style="fill:none;fill-opacity:0.75;fill-rule:evenodd;stroke:black;stroke-width:0.7;stroke-linecap:butt;stroke-linejoin:miter;stroke-opacity:1;stroke-miterlimit:4;stroke-dasharray:none" />
    <path
       id="path5455"
       d="M 68.236116,242.74989 L 63.471883,174.2064"
       style="fill:none;fill-opacity:0.75;fill-rule:evenodd;stroke:black;stroke-width:0.7;stroke-linecap:butt;stroke-linejoin:miter;stroke-opacity:1;stroke-miterlimit:4;stroke-dasharray:none" />
    <path
       id="path5457"
       d="M 30.429619,208.47815 L 103.89102,205.71182"
       style="fill:none;fill-opacity:0.75;fill-rule:evenodd;stroke:black;stroke-width:0.7;stroke-linecap:butt;stroke-linejoin:miter;stroke-opacity:1;stroke-miterlimit:4;stroke-dasharray:none" />
    <path
       id="path5459"
       d="M 48.257073,242.90357 L 47.488648,207.86341"
       style="fill:none;fill-opacity:0.75;fill-rule:evenodd;stroke:black;stroke-width:0.7;stroke-linecap:butt;stroke-linejoin:miter;stroke-opacity:1;stroke-miterlimit:4;stroke-dasharray:none" />
    <path
       id="path5461"
       d="M 30.429619,224.76875 L 66.852951,224.30769"
       style="fill:none;fill-opacity:0.75;fill-rule:evenodd;stroke:black;stroke-width:0.7;stroke-linecap:butt;stroke-linejoin:miter;stroke-opacity:1;stroke-miterlimit:4;stroke-dasharray:none" />
    <path
       id="path5463"
       d="M 287.11055,242.75826 L 264.28949,101.48509"
       style="fill:none;fill-opacity:0.75;fill-rule:evenodd;stroke:black;stroke-width:0.7;stroke-linecap:butt;stroke-linejoin:miter;stroke-opacity:1;stroke-miterlimit:4;stroke-dasharray:none" />
    <path
       id="path5465"
       d="M 247.11937,242.75826 L 237.33892,108.22274"
       style="fill:none;fill-opacity:0.75;fill-rule:evenodd;stroke:black;stroke-width:0.7;stroke-linecap:butt;stroke-linejoin:miter;stroke-opacity:1;stroke-miterlimit:4;stroke-dasharray:none" />
    <path
       sodipodi:nodetypes="cc"
       id="path5467"
       d="M 228.2105,242.54092 L 223.2116,111.48289"
       style="fill:none;fill-opacity:0.75;fill-rule:evenodd;stroke:black;stroke-width:0.7;stroke-linecap:butt;stroke-linejoin:miter;stroke-opacity:1;stroke-miterlimit:4;stroke-dasharray:none" />
    <path
       id="path5469"
       d="M 218.64739,242.75826 L 216.25662,113.22163"
       style="fill:none;fill-opacity:0.75;fill-rule:evenodd;stroke:black;stroke-width:0.7;stroke-linecap:butt;stroke-linejoin:miter;stroke-opacity:1;stroke-miterlimit:4;stroke-dasharray:none" />
    <path
       id="path5471"
       d="M 388.60988,177.33792 L 525.53618,163.42794"
       style="fill:none;fill-opacity:0.75;fill-rule:evenodd;stroke:black;stroke-width:0.7;stroke-linecap:butt;stroke-linejoin:miter;stroke-opacity:1;stroke-miterlimit:4;stroke-dasharray:none" />
    <path
       id="path5473"
       d="M 388.60988,145.60579 L 513.79964,125.17552"
       style="fill:none;fill-opacity:0.75;fill-rule:evenodd;stroke:black;stroke-width:0.7;stroke-linecap:butt;stroke-linejoin:miter;stroke-opacity:1;stroke-miterlimit:4;stroke-dasharray:none" />
    <path
       id="path5475"
       d="M 388.60988,129.0877 L 507.93137,105.61462"
       style="fill:none;fill-opacity:0.75;fill-rule:evenodd;stroke:black;stroke-width:0.7;stroke-linecap:butt;stroke-linejoin:miter;stroke-opacity:1;stroke-miterlimit:4;stroke-dasharray:none" />
    <path
       sodipodi:nodetypes="cc"
       id="path5477"
       d="M 388.39254,121.91537 L 505.10591,96.05151"
       style="fill:none;fill-opacity:0.75;fill-rule:evenodd;stroke:black;stroke-width:0.7;stroke-linecap:butt;stroke-linejoin:miter;stroke-opacity:1;stroke-miterlimit:4;stroke-dasharray:none" />
    <path
       sodipodi:nodetypes="cc"
       id="path5479"
       d="M 39.447816,242.64959 L 39.339144,224.82744"
       style="fill:none;fill-opacity:0.75;fill-rule:evenodd;stroke:black;stroke-width:0.7;stroke-linecap:butt;stroke-linejoin:miter;stroke-opacity:1;stroke-miterlimit:4;stroke-dasharray:none" />
    <path
       id="path5481"
       d="M 30.754082,233.84718 L 48.141549,233.62984"
       style="fill:none;fill-opacity:0.75;fill-rule:evenodd;stroke:black;stroke-width:0.7;stroke-linecap:butt;stroke-linejoin:miter;stroke-opacity:1;stroke-miterlimit:4;stroke-dasharray:none" />
    <path
       id="path5485"
       d="M 567.73677,177.24836 L 704.66307,163.33838"
       style="fill:none;fill-opacity:0.75;fill-rule:evenodd;stroke:black;stroke-width:0.7;stroke-linecap:butt;stroke-linejoin:miter;stroke-opacity:1;stroke-miterlimit:4;stroke-dasharray:none" />
    <path
       id="path5487"
       d="M 567.73677,145.51623 L 692.92653,125.08596"
       style="fill:none;fill-opacity:0.75;fill-rule:evenodd;stroke:black;stroke-width:0.7;stroke-linecap:butt;stroke-linejoin:miter;stroke-opacity:1;stroke-miterlimit:4;stroke-dasharray:none" />
    <path
       id="path5489"
       d="M 567.73677,128.99814 L 687.05826,105.52506"
       style="fill:none;fill-opacity:0.75;fill-rule:evenodd;stroke:black;stroke-width:0.7;stroke-linecap:butt;stroke-linejoin:miter;stroke-opacity:1;stroke-miterlimit:4;stroke-dasharray:none" />
    <path
       sodipodi:nodetypes="cc"
       id="path5491"
       d="M 567.51943,121.82581 L 684.2328,95.961955"
       style="fill:none;fill-opacity:0.75;fill-rule:evenodd;stroke:black;stroke-width:0.7;stroke-linecap:butt;stroke-linejoin:miter;stroke-opacity:1;stroke-miterlimit:4;stroke-dasharray:none" />
    <path
       id="path5493"
       d="M 644.98499,242.63094 L 622.16393,101.35778"
       style="fill:none;fill-opacity:0.75;fill-rule:evenodd;stroke:black;stroke-width:0.7;stroke-linecap:butt;stroke-linejoin:miter;stroke-opacity:1;stroke-miterlimit:4;stroke-dasharray:none" />
    <path
       id="path5495"
       d="M 604.99381,242.63094 L 595.21336,108.09543"
       style="fill:none;fill-opacity:0.75;fill-rule:evenodd;stroke:black;stroke-width:0.7;stroke-linecap:butt;stroke-linejoin:miter;stroke-opacity:1;stroke-miterlimit:4;stroke-dasharray:none" />
    <path
       sodipodi:nodetypes="cc"
       id="path5497"
       d="M 586.08494,242.4136 L 581.08604,111.35558"
       style="fill:none;fill-opacity:0.75;fill-rule:evenodd;stroke:black;stroke-width:0.7;stroke-linecap:butt;stroke-linejoin:miter;stroke-opacity:1;stroke-miterlimit:4;stroke-dasharray:none" />
    <path
       id="path5499"
       d="M 576.52183,242.63094 L 574.13106,113.09432"
       style="fill:none;fill-opacity:0.75;fill-rule:evenodd;stroke:black;stroke-width:0.7;stroke-linecap:butt;stroke-linejoin:miter;stroke-opacity:1;stroke-miterlimit:4;stroke-dasharray:none" />
    <path
       id="path5503"
       d="M 638.77206,204.50583 L 567.2661,208.41801"
       style="fill:none;fill-opacity:0.75;fill-rule:evenodd;stroke:black;stroke-width:0.7;stroke-linecap:butt;stroke-linejoin:miter;stroke-opacity:1;stroke-miterlimit:4;stroke-dasharray:none" />
    <path
       id="path5505"
       d="M 603.56244,223.84939 L 567.48345,224.93611"
       style="fill:none;fill-opacity:0.75;fill-rule:evenodd;stroke:black;stroke-width:0.7;stroke-linecap:butt;stroke-linejoin:miter;stroke-opacity:1;stroke-miterlimit:4;stroke-dasharray:none" />
    <path
       id="path5507"
       d="M 585.52294,233.4125 L 567.2661,233.62984"
       style="fill:none;fill-opacity:0.75;fill-rule:evenodd;stroke:black;stroke-width:0.7;stroke-linecap:butt;stroke-linejoin:miter;stroke-opacity:1;stroke-miterlimit:4;stroke-dasharray:none" />
    <g
       ns0:preamble="/home/lenka/Documents/textext-preamble.tex"
       ns0:text="$Q_k$"
       word-spacing="normal"
       letter-spacing="normal"
       font-size-adjust="none"
       font-stretch="normal"
       font-weight="normal"
       font-variant="normal"
       font-style="normal"
       fill-rule="even-odd"
       stroke-miterlimit="10.433"
       xml:space="preserve"
       transform="matrix(1.5,0,0,-1.5,271.70802,1219.6699)"
       id="content"
       style="font-style:normal;font-variant:normal;font-weight:normal;font-stretch:normal;letter-spacing:normal;word-spacing:normal;text-anchor:start;fill:none;fill-opacity:1;stroke:none;stroke-linecap:butt;stroke-linejoin:miter;stroke-miterlimit:10.43299960999999954;stroke-dasharray:none;stroke-dashoffset:0;stroke-opacity:1">
<path
   id="path10205"
   d="M 225.16,705.41 L 225.16,705.48 L 225.16,705.55 L 225.17,705.61 L 225.17,705.68 L 225.18,705.74 L 225.19,705.8 L 225.2,705.85 L 225.21,705.91 L 225.22,705.96 L 225.23,706.01 L 225.25,706.06 L 225.27,706.1 L 225.28,706.15 L 225.3,706.19 L 225.32,706.22 L 225.35,706.26 L 225.37,706.29 L 225.4,706.32 L 225.43,706.35 L 225.45,706.38 L 225.48,706.41 L 225.52,706.43 L 225.55,706.45 L 225.59,706.47 L 225.62,706.48 L 225.66,706.5 L 225.7,706.51 L 225.74,706.52 L 225.79,706.53 L 225.83,706.53 L 225.88,706.53 L 225.93,706.53 C 226.22,706.53 226.5,706.46 226.88,706.25 L 228.33,705.49 C 228.93,705.18 229.11,705.12 229.51,705.12 C 230.25,705.12 230.61,705.55 230.71,706.52 L 230.46,706.52 C 230.4,705.98 230.18,705.73 229.79,705.73 C 229.62,705.73 229.43,705.78 229.17,705.88 L 226.82,706.83 C 226.57,706.93 226.39,706.97 226.16,706.97 C 225.42,706.97 224.91,706.47 224.91,705.71 C 224.91,705.69 224.91,705.62 224.92,705.54 L 225.16,705.41 z"
   style="fill:#000000;stroke-width:0;stroke:none" />
<path
   id="path10207"
   d="M 228.28,714.16 L 227.97,713.74 C 228.45,713.74 228.94,713.62 229.27,713.42 C 229.91,713.04 230.23,712.29 230.23,711.2 C 230.23,709.94 229.83,708.82 229.16,708.12 C 228.67,707.62 228.02,707.36 227.24,707.36 C 225.81,707.36 225.06,708.22 225.06,709.88 C 225.06,711.18 225.46,712.34 226.15,713.03 C 226.62,713.51 227.21,713.74 227.97,713.74 L 227.97,713.74 L 228.28,714.16 C 225.92,714.16 224.19,712.33 224.19,709.83 C 224.19,707.95 225.12,706.94 226.88,706.94 C 227.72,706.94 228.43,707.13 229.08,707.54 C 230.33,708.32 231.11,709.78 231.11,711.36 C 231.11,713.13 230.07,714.16 228.28,714.16 z"
   style="fill:#000000;stroke-width:0;stroke:none" />
<path
   id="path10209"
   d="M 233.39,710.5 L 233.3,710.59 C 232.91,710.39 232.64,710.32 232.09,710.27 L 232.06,710.11 L 232.43,710.11 C 232.61,710.11 232.68,710.06 232.68,709.93 C 232.68,709.87 232.68,709.8 232.67,709.75 L 232.3,707.72 C 232.2,707.15 232.08,706.63 231.68,705.04 L 231.75,704.97 L 232.26,705.1 L 232.43,706.04 C 232.5,706.4 232.68,706.74 232.94,707 C 233.46,705.48 233.71,704.97 233.89,704.97 C 233.99,704.97 234.17,705.07 234.51,705.3 L 234.86,705.54 L 234.79,705.69 L 234.47,705.51 C 234.36,705.45 234.31,705.43 234.25,705.43 C 234.17,705.43 234.12,705.48 234.05,705.6 C 233.79,706.09 233.62,706.5 233.33,707.43 L 233.43,707.54 C 233.89,708 234.24,708.19 234.62,708.19 C 234.68,708.19 234.76,708.17 234.89,708.14 L 235.02,708.62 C 234.89,708.66 234.75,708.69 234.66,708.69 C 234.16,708.69 233.53,708.1 232.58,706.78 L 233.39,710.5 z"
   style="fill:#000000;stroke-width:0;stroke:none" />
</g>  </g>
</svg>
