<?xml version="1.0" encoding="UTF-8" standalone="no"?>
<!-- Created with Inkscape (http://www.inkscape.org/) -->
<svg
   xmlns:ns0="http://www.iki.fi/pav/software/textext/"
   xmlns:dc="http://purl.org/dc/elements/1.1/"
   xmlns:cc="http://creativecommons.org/ns#"
   xmlns:rdf="http://www.w3.org/1999/02/22-rdf-syntax-ns#"
   xmlns:svg="http://www.w3.org/2000/svg"
   xmlns="http://www.w3.org/2000/svg"
   xmlns:sodipodi="http://sodipodi.sourceforge.net/DTD/sodipodi-0.dtd"
   xmlns:inkscape="http://www.inkscape.org/namespaces/inkscape"
   width="744.09448819"
   height="1052.3622047"
   id="svg2"
   sodipodi:version="0.32"
   inkscape:version="0.46"
   sodipodi:docname="multimesh-motivace.svg"
   inkscape:output_extension="org.inkscape.output.svg.inkscape">
  <sodipodi:namedview
     id="base"
     pagecolor="#ffffff"
     bordercolor="#666666"
     borderopacity="1.0"
     gridtolerance="10000"
     guidetolerance="10"
     objecttolerance="10"
     inkscape:pageopacity="0.0"
     inkscape:pageshadow="2"
     inkscape:zoom="3.959798"
     inkscape:cx="490.64199"
     inkscape:cy="931.64055"
     inkscape:document-units="px"
     inkscape:current-layer="layer1"
     showgrid="false"
     inkscape:window-width="1423"
     inkscape:window-height="1057"
     inkscape:window-x="0"
     inkscape:window-y="25">
    <inkscape:grid
       id="grid2383"
       type="xygrid" />
  </sodipodi:namedview>
  <defs
     id="defs4">
    <inkscape:perspective
       id="perspective10"
       inkscape:persp3d-origin="372.04724 : 350.78739 : 1"
       inkscape:vp_z="744.09448 : 526.18109 : 1"
       inkscape:vp_y="0 : 1000 : 0"
       inkscape:vp_x="0 : 526.18109 : 1"
       sodipodi:type="inkscape:persp3d" />
  </defs>
  <metadata
     id="metadata7">
    <rdf:RDF>
      <cc:Work
         rdf:about="">
        <dc:format>image/svg+xml</dc:format>
        <dc:type
           rdf:resource="http://purl.org/dc/dcmitype/StillImage" />
      </cc:Work>
    </rdf:RDF>
  </metadata>
  <g
     id="layer1"
     inkscape:groupmode="layer"
     inkscape:label="Layer 1">
    <g
       transform="matrix(0.5,0,0,0.5,21.994244,37.249983)"
       id="g3311">
      <g
         id="g3181">
        <path
           sodipodi:nodetypes="ccccccccc"
           id="path2391"
           d="M 100,52.362183 L 100,302.36218 L 350,302.36218 L 350,202.36218 L 400,202.36218 L 400,152.36218 L 350,152.36218 L 350,52.362183 L 100,52.362183"
           style="fill:none;fill-rule:evenodd;stroke:#000000;stroke-width:2;stroke-linecap:butt;stroke-linejoin:miter;stroke-miterlimit:4;stroke-dasharray:none;stroke-opacity:1" />
        <path
           id="path2393"
           d="M 150,52.362183 L 150,302.36218"
           style="fill:none;fill-rule:evenodd;stroke:#000000;stroke-width:1px;stroke-linecap:butt;stroke-linejoin:miter;stroke-opacity:1" />
        <path
           id="path2395"
           d="M 200,52.362183 L 200,302.36218"
           style="fill:none;fill-rule:evenodd;stroke:#000000;stroke-width:1px;stroke-linecap:butt;stroke-linejoin:miter;stroke-opacity:1" />
        <path
           id="path2397"
           d="M 250,52.362183 L 250,302.36218"
           style="fill:none;fill-rule:evenodd;stroke:#000000;stroke-width:1px;stroke-linecap:butt;stroke-linejoin:miter;stroke-opacity:1" />
        <path
           id="path2399"
           d="M 300,52.362183 L 300,302.36218"
           style="fill:none;fill-rule:evenodd;stroke:#000000;stroke-width:1px;stroke-linecap:butt;stroke-linejoin:miter;stroke-opacity:1" />
        <path
           id="path2401"
           d="M 100,202.36218 L 350,202.36218"
           style="fill:none;fill-rule:evenodd;stroke:#000000;stroke-width:1px;stroke-linecap:butt;stroke-linejoin:miter;stroke-opacity:1" />
        <path
           id="path2403"
           d="M 350,152.36218 L 350,202.36218"
           style="fill:none;fill-rule:evenodd;stroke:#000000;stroke-width:1px;stroke-linecap:butt;stroke-linejoin:miter;stroke-opacity:1" />
        <path
           id="path2405"
           d="M 100,152.36218 L 350,152.36218"
           style="fill:none;fill-rule:evenodd;stroke:#000000;stroke-width:1px;stroke-linecap:butt;stroke-linejoin:miter;stroke-opacity:1" />
        <path
           id="path2407"
           d="M 100,102.36218 L 350,102.36218"
           style="fill:none;fill-rule:evenodd;stroke:#000000;stroke-width:1px;stroke-linecap:butt;stroke-linejoin:miter;stroke-opacity:1" />
        <path
           id="path2409"
           d="M 100,252.36218 L 350,252.36218"
           style="fill:none;fill-rule:evenodd;stroke:#000000;stroke-width:1px;stroke-linecap:butt;stroke-linejoin:miter;stroke-opacity:1" />
      </g>
      <path
         style="fill:none;fill-rule:evenodd;stroke:#000000;stroke-width:1px;stroke-linecap:butt;stroke-linejoin:miter;stroke-opacity:1"
         d="M 325,102.36218 L 325,152.36218"
         id="path3215" />
      <path
         style="fill:none;fill-rule:evenodd;stroke:#000000;stroke-width:1px;stroke-linecap:butt;stroke-linejoin:miter;stroke-opacity:1"
         d="M 300,127.36218 L 350,127.36218"
         id="path3217" />
      <path
         style="fill:none;fill-rule:evenodd;stroke:#000000;stroke-width:1px;stroke-linecap:butt;stroke-linejoin:miter;stroke-opacity:1"
         d="M 325,152.36218 L 325,252.36218"
         id="path3219" />
      <path
         style="fill:none;fill-rule:evenodd;stroke:#000000;stroke-width:1px;stroke-linecap:butt;stroke-linejoin:miter;stroke-opacity:1"
         d="M 300,227.36218 L 350,227.36218"
         id="path3221" />
      <path
         style="fill:none;fill-rule:evenodd;stroke:#000000;stroke-width:1px;stroke-linecap:butt;stroke-linejoin:miter;stroke-opacity:1"
         d="M 300,177.36218 L 400,177.36218"
         id="path3223" />
      <path
         style="fill:none;fill-rule:evenodd;stroke:#000000;stroke-width:1px;stroke-linecap:butt;stroke-linejoin:miter;stroke-opacity:1"
         d="M 375,152.36218 L 375,202.36218"
         id="path3225" />
      <path
         style="fill:none;fill-rule:evenodd;stroke:#000000;stroke-width:1px;stroke-linecap:butt;stroke-linejoin:miter;stroke-opacity:1"
         d="M 337.55355,227.36218 L 337.55355,152.36218"
         id="path3227" />
      <path
         style="fill:none;fill-rule:evenodd;stroke:#000000;stroke-width:1px;stroke-linecap:butt;stroke-linejoin:miter;stroke-opacity:1"
         d="M 325,189.91573 L 375,189.91573"
         id="path3229" />
      <path
         style="fill:none;fill-rule:evenodd;stroke:#000000;stroke-width:1px;stroke-linecap:butt;stroke-linejoin:miter;stroke-opacity:1"
         d="M 325,214.91573 L 350,214.91573"
         id="path3231" />
      <path
         style="fill:none;fill-rule:evenodd;stroke:#000000;stroke-width:1px;stroke-linecap:butt;stroke-linejoin:miter;stroke-opacity:1"
         d="M 325,164.80863 L 350,164.80863 L 375,164.80863"
         id="path3233" />
      <path
         style="fill:none;fill-rule:evenodd;stroke:#000000;stroke-width:1px;stroke-linecap:butt;stroke-linejoin:miter;stroke-opacity:1"
         d="M 362.55355,152.36218 L 362.55355,202.36218"
         id="path3235" />
      <path
         style="fill:none;fill-rule:evenodd;stroke:#000000;stroke-width:1px;stroke-linecap:butt;stroke-linejoin:miter;stroke-opacity:1"
         d="M 337.50504,127.36218 L 337.50504,152.36218"
         id="path3237" />
      <path
         style="fill:none;fill-rule:evenodd;stroke:#000000;stroke-width:1px;stroke-linecap:butt;stroke-linejoin:miter;stroke-opacity:1"
         d="M 325,139.92027 L 350,139.92027"
         id="path3241" />
      <path
         style="fill:none;fill-rule:evenodd;stroke:#000000;stroke-width:1px;stroke-linecap:butt;stroke-linejoin:miter;stroke-opacity:1"
         d="M 343.62503,140.36218 L 343.62503,164.36218"
         id="path3243" />
      <path
         style="fill:none;fill-rule:evenodd;stroke:#000000;stroke-width:1px;stroke-linecap:butt;stroke-linejoin:miter;stroke-opacity:1"
         d="M 337,158.73715 L 363,158.73715"
         id="path3245" />
      <path
         style="fill:none;fill-rule:evenodd;stroke:#000000;stroke-width:1px;stroke-linecap:butt;stroke-linejoin:miter;stroke-opacity:1"
         d="M 338,146.00502 L 350,146.00502"
         id="path3247" />
      <path
         style="fill:none;fill-rule:evenodd;stroke:#000000;stroke-width:1px;stroke-linecap:butt;stroke-linejoin:miter;stroke-opacity:1"
         d="M 356.35716,152.36218 L 356.35716,164.36218"
         id="path3249" />
      <path
         style="fill:none;fill-rule:evenodd;stroke:#000000;stroke-width:1px;stroke-linecap:butt;stroke-linejoin:miter;stroke-opacity:1"
         d="M 362,196.00502 L 338,196.00502"
         id="path3251" />
      <path
         style="fill:none;fill-rule:evenodd;stroke:#000000;stroke-width:1px;stroke-linecap:butt;stroke-linejoin:miter;stroke-opacity:1"
         d="M 343.62503,189.37999 L 343.62503,215.37999"
         id="path3253" />
      <path
         style="fill:none;fill-rule:evenodd;stroke:#000000;stroke-width:1px;stroke-linecap:butt;stroke-linejoin:miter;stroke-opacity:1"
         d="M 356.35716,190.37999 L 356.35716,202.37999"
         id="path3255" />
      <path
         style="fill:none;fill-rule:evenodd;stroke:#000000;stroke-width:1px;stroke-linecap:butt;stroke-linejoin:miter;stroke-opacity:1"
         d="M 350,208.73715 L 338,208.73715"
         id="path3257" />
      <path
         style="opacity:1;fill:#c8c8c8;fill-opacity:1;fill-rule:evenodd;stroke:none;stroke-width:2;stroke-linejoin:miter;stroke-miterlimit:4;stroke-dasharray:none;stroke-dashoffset:0;stroke-opacity:1"
         d="M 200.51874,177.32066 L 200.51874,152.88759 L 224.95181,152.88759 L 249.38487,152.88759 L 249.38487,177.32066 L 249.38487,201.75372 L 224.95181,201.75372 L 200.51874,201.75372 L 200.51874,177.32066 z"
         id="path3259" />
    </g>
    <g
       ns0:preamble="/home/lenka/latex/disertace/lenka-thesis/textext-preamble.tex"
       ns0:text="Electric field"
       word-spacing="normal"
       letter-spacing="normal"
       font-size-adjust="none"
       font-stretch="normal"
       font-weight="normal"
       font-variant="normal"
       font-style="normal"
       fill-rule="even-odd"
       stroke-miterlimit="10.433"
       xml:space="preserve"
       transform="matrix(1.5,0,0,-1.5,-243.60326,1276.3072)"
       id="content"
       style="font-style:normal;font-variant:normal;font-weight:normal;font-stretch:normal;letter-spacing:normal;word-spacing:normal;text-anchor:start;fill:none;fill-opacity:1;stroke:none;stroke-linecap:butt;stroke-linejoin:miter;stroke-miterlimit:10.43299960999999954;stroke-dasharray:none;stroke-dashoffset:0;stroke-opacity:1">
<path
   id="path3738"
   d="M 223.65,713.72 L 224.13,713.69 C 224.59,713.66 224.64,713.58 224.64,712.79 L 224.64,708.32 C 224.64,707.53 224.6,707.46 224.13,707.42 L 223.77,707.39 L 223.77,707.09 C 224.43,707.11 224.72,707.12 225,707.12 C 225.05,707.12 225.32,707.12 225.7,707.11 C 227.09,707.09 227.09,707.09 227.31,707.09 C 227.62,707.09 227.62,707.09 228.97,707.12 C 228.97,707.7 229.03,708.24 229.13,708.76 L 228.78,708.76 C 228.76,708.6 228.74,708.46 228.73,708.42 C 228.67,707.99 228.54,707.68 228.4,707.63 C 228.2,707.56 227.47,707.51 226.57,707.51 C 226.05,707.51 225.87,707.53 225.58,707.59 L 225.58,710.38 C 225.86,710.4 226.16,710.41 226.61,710.41 C 227.35,710.41 227.62,710.38 227.8,710.29 L 227.88,710.04 L 227.93,709.45 L 228.23,709.45 C 228.2,710.38 228.2,710.38 228.2,710.56 C 228.2,710.72 228.2,710.72 228.23,711.72 L 227.93,711.72 L 227.88,711.2 C 227.87,711.11 227.84,711.02 227.8,710.94 C 227.62,710.86 227.34,710.83 226.68,710.83 C 226.26,710.83 225.92,710.84 225.58,710.86 L 225.58,713.52 C 225.89,713.59 226.06,713.6 226.75,713.6 C 227.32,713.6 227.88,713.55 228.2,713.46 C 228.43,713.4 228.46,713.35 228.46,713.12 L 228.46,712.47 L 228.81,712.47 C 228.81,713.07 228.86,713.55 228.97,713.99 C 228.48,714.01 228.18,714.02 227.74,714.02 C 227.49,714.02 227.16,714.02 226.75,714.01 C 226.12,714 225.69,713.99 225.43,713.99 C 225.09,713.99 224.64,714 223.65,714.02 L 223.65,713.72 z"
   style="fill:#000000;stroke-width:0;stroke:none" />
<path
   id="path3740"
   d="M 229.75,713.71 L 230.31,713.71 C 230.49,713.71 230.56,713.6 230.56,713.3 L 230.56,708.14 C 230.56,707.51 230.53,707.44 230.19,707.42 L 229.73,707.39 L 229.73,707.09 C 230.73,707.12 230.73,707.12 230.98,707.12 C 231.23,707.12 231.23,707.12 232.22,707.09 L 232.22,707.39 L 231.76,707.42 C 231.43,707.44 231.4,707.51 231.4,708.14 L 231.4,714.28 L 231.31,714.35 C 230.87,714.19 230.54,714.11 229.75,713.99 L 229.75,713.71 z"
   style="fill:#000000;stroke-width:0;stroke:none" />
<path
   id="path3742"
   d="M 236.77,707.82 L 236.64,707.92 C 236,707.54 235.77,707.45 235.35,707.45 C 234.7,707.45 234.16,707.74 233.88,708.23 C 233.69,708.56 233.62,708.84 233.6,709.41 L 235.06,709.41 C 235.74,709.41 236.17,709.44 236.86,709.55 C 236.87,709.69 236.88,709.78 236.88,709.9 C 236.88,711.05 236.14,711.79 235.03,711.79 L 234.91,711.47 C 235.24,711.47 235.5,711.34 235.68,711.07 C 235.89,710.74 235.96,710.45 235.99,709.78 L 235.99,709.78 C 235.48,709.76 235.24,709.75 234.88,709.75 C 234.42,709.75 234.16,709.76 233.62,709.81 C 233.62,710.28 233.66,710.5 233.79,710.76 C 234,711.2 234.43,711.47 234.91,711.47 L 235.03,711.79 C 234.66,711.79 234.23,711.66 233.82,711.43 C 233.01,710.96 232.68,710.34 232.68,709.3 C 232.68,708.68 232.83,708.14 233.1,707.76 C 233.49,707.23 234.16,706.92 234.91,706.92 C 235.28,706.92 235.65,707 236.05,707.18 C 236.32,707.29 236.53,707.42 236.57,707.48 L 236.77,707.82 z"
   style="fill:#000000;stroke-width:0;stroke:none" />
<path
   id="path3744"
   d="M 241.16,710.22 L 241.16,710.31 L 241.17,710.39 L 241.17,710.47 L 241.17,710.56 L 241.18,710.64 L 241.18,710.72 L 241.19,710.79 L 241.2,710.87 L 241.21,710.95 L 241.22,711.02 L 241.23,711.1 L 241.24,711.17 L 241.26,711.24 L 241.27,711.31 L 241.29,711.38 L 241.3,711.45 C 240.9,711.68 240.55,711.79 240.15,711.79 C 239.67,711.79 239.11,711.61 238.51,711.23 C 237.82,710.79 237.45,710.09 237.45,709.22 C 237.45,707.87 238.39,706.92 239.73,706.92 C 240.25,706.92 240.99,707.11 241.09,707.26 L 241.3,707.58 L 241.2,707.73 C 240.83,707.53 240.51,707.44 240.16,707.44 C 239.05,707.44 238.32,708.3 238.32,709.61 C 238.32,710.68 238.82,711.28 239.72,711.28 C 240.16,711.28 240.63,711.08 240.81,710.83 L 240.88,710.22 L 241.16,710.22 z"
   style="fill:#000000;stroke-width:0;stroke:none" />
<path
   id="path3746"
   d="M 242.59,710.93 L 242.59,708.06 C 242.59,707.32 242.92,707 243.68,707 C 243.91,707 244.15,707.05 244.21,707.12 L 244.69,707.65 L 244.56,707.82 C 244.31,707.68 244.16,707.63 243.97,707.63 C 243.59,707.63 243.43,707.83 243.43,708.32 L 243.43,710.93 L 244.7,710.93 L 244.79,711.47 L 243.43,711.41 L 243.43,711.78 C 243.43,712.2 243.46,712.56 243.54,713.2 L 243.42,713.31 C 243.18,713.16 242.88,713.03 242.57,712.93 C 242.6,712.63 242.61,712.44 242.61,712.14 L 242.61,711.45 L 241.83,711.1 L 241.83,710.89 L 242.59,710.93 z"
   style="fill:#000000;stroke-width:0;stroke:none" />
<path
   id="path3748"
   d="M 245.09,711.11 L 245.46,711.11 C 245.86,711.11 245.9,711.04 245.9,710.38 L 245.9,708.14 C 245.9,707.51 245.87,707.44 245.53,707.42 L 245.07,707.39 L 245.07,707.09 C 245.79,707.11 246.05,707.12 246.29,707.12 C 246.49,707.12 246.49,707.12 247.72,707.09 L 247.72,707.39 L 247.2,707.42 C 246.75,707.45 246.73,707.48 246.73,708.14 L 246.73,709.85 C 246.73,710.45 247.13,710.95 247.62,710.95 C 247.92,710.95 248.13,710.81 248.29,710.49 L 248.5,710.49 L 248.59,711.68 C 248.48,711.76 248.3,711.79 248.12,711.79 C 247.82,711.79 247.5,711.64 247.29,711.39 L 246.73,710.73 L 246.73,711.76 L 246.64,711.79 C 246.13,711.59 245.62,711.45 245.09,711.39 L 245.09,711.11 z"
   style="fill:#000000;stroke-width:0;stroke:none" />
<path
   id="path3750"
   d="M 250.67,711.76 L 250.58,711.79 C 250.07,711.59 249.55,711.45 249.03,711.39 L 249.03,711.11 L 249.4,711.11 C 249.79,711.11 249.83,711.04 249.83,710.38 L 249.83,708.14 C 249.83,707.51 249.8,707.44 249.46,707.42 L 249.01,707.39 L 249.01,707.09 C 250,707.12 250,707.12 250.25,707.12 C 250.5,707.12 250.5,707.12 251.5,707.09 L 251.5,707.39 L 251.04,707.42 C 250.7,707.44 250.67,707.51 250.67,708.14 L 250.67,711.76 z"
   style="fill:#000000;stroke-width:0;stroke:none" />
<path
   id="path3752"
   d="M 250.21,713.97 L 250.18,713.97 L 250.16,713.96 L 250.13,713.96 L 250.1,713.96 L 250.08,713.95 L 250.05,713.94 L 250.02,713.93 L 250,713.92 L 249.97,713.91 L 249.95,713.9 L 249.93,713.88 L 249.9,713.87 L 249.88,713.85 L 249.86,713.84 L 249.84,713.82 L 249.82,713.8 L 249.8,713.78 L 249.78,713.76 L 249.77,713.74 L 249.75,713.72 L 249.74,713.69 L 249.72,713.67 L 249.71,713.65 L 249.7,713.62 L 249.69,713.6 L 249.68,713.57 L 249.67,713.55 L 249.67,713.52 L 249.66,713.49 L 249.66,713.46 L 249.65,713.44 L 249.65,713.41 C 249.65,713.12 249.91,712.86 250.2,712.86 C 250.49,712.86 250.76,713.12 250.76,713.41 C 250.76,713.69 250.49,713.97 250.21,713.97 z"
   style="fill:#000000;stroke-width:0;stroke:none" />
<path
   id="path3754"
   d="M 255.67,710.22 L 255.67,710.31 L 255.67,710.39 L 255.67,710.47 L 255.68,710.56 L 255.68,710.64 L 255.69,710.72 L 255.7,710.79 L 255.7,710.87 L 255.71,710.95 L 255.72,711.02 L 255.73,711.1 L 255.75,711.17 L 255.76,711.24 L 255.78,711.31 L 255.79,711.38 L 255.81,711.45 C 255.41,711.68 255.06,711.79 254.65,711.79 C 254.17,711.79 253.62,711.61 253.02,711.23 C 252.32,710.79 251.95,710.09 251.95,709.22 C 251.95,707.87 252.9,706.92 254.23,706.92 C 254.75,706.92 255.5,707.11 255.6,707.26 L 255.81,707.58 L 255.71,707.73 C 255.34,707.53 255.02,707.44 254.66,707.44 C 253.56,707.44 252.83,708.3 252.83,709.61 C 252.83,710.68 253.33,711.28 254.22,711.28 C 254.66,711.28 255.14,711.08 255.32,710.83 L 255.39,710.22 L 255.67,710.22 z"
   style="fill:#000000;stroke-width:0;stroke:none" />
<path
   id="path3756"
   d="M 262.42,714.27 L 262.4,714.27 L 262.38,714.28 L 262.36,714.29 L 262.34,714.29 L 262.33,714.3 L 262.31,714.31 L 262.29,714.31 L 262.28,714.32 L 262.26,714.32 L 262.24,714.33 L 262.23,714.33 L 262.21,714.34 L 262.2,714.34 L 262.19,714.34 L 262.17,714.35 L 262.16,714.35 L 262.13,714.36 L 262.11,714.36 L 262.08,714.37 L 262.06,714.37 L 262.03,714.37 L 262.01,714.37 L 261.98,714.37 L 261.96,714.38 C 261.64,714.38 261.29,714.21 261.07,713.96 L 260.49,713.3 C 260.21,712.97 260.08,712.52 260.08,711.86 L 260.08,711.45 L 259.39,711.14 L 259.39,710.92 L 260.08,710.96 L 260.08,708.14 C 260.08,707.51 260.05,707.44 259.71,707.42 L 259.25,707.39 L 259.25,707.09 C 260.24,707.12 260.24,707.12 260.5,707.12 C 260.74,707.12 261.02,707.11 261.8,707.09 L 261.8,707.39 L 261.28,707.42 C 260.94,707.44 260.91,707.51 260.91,708.14 L 260.91,710.96 L 262.05,710.96 L 262.12,711.49 L 260.91,711.45 L 260.91,712.29 C 260.91,713.44 261.04,713.72 261.61,713.72 C 261.88,713.72 262.06,713.65 262.3,713.44 L 262.42,713.5 L 262.42,714.27 z"
   style="fill:#000000;stroke-width:0;stroke:none" />
<path
   id="path3758"
   d="M 264.04,711.72 L 263.95,711.79 C 263.51,711.58 262.98,711.44 262.4,711.37 L 262.4,711.09 L 262.77,711.09 C 263.16,711.09 263.2,711.02 263.2,710.36 L 263.2,708.14 C 263.2,707.51 263.17,707.44 262.84,707.42 L 262.38,707.39 L 262.38,707.09 C 263.37,707.12 263.37,707.12 263.62,707.12 C 263.87,707.12 263.87,707.12 264.87,707.09 L 264.87,707.39 L 264.41,707.42 C 264.07,707.44 264.04,707.51 264.04,708.14 L 264.04,711.72 z"
   style="fill:#000000;stroke-width:0;stroke:none" />
<path
   id="path3760"
   d="M 263.67,713.97 L 263.65,713.97 L 263.62,713.96 L 263.59,713.96 L 263.56,713.96 L 263.54,713.95 L 263.51,713.94 L 263.48,713.93 L 263.46,713.92 L 263.44,713.91 L 263.41,713.9 L 263.39,713.88 L 263.37,713.87 L 263.34,713.85 L 263.32,713.84 L 263.3,713.82 L 263.28,713.8 L 263.26,713.78 L 263.25,713.76 L 263.23,713.74 L 263.21,713.72 L 263.2,713.69 L 263.18,713.67 L 263.17,713.65 L 263.16,713.62 L 263.15,713.6 L 263.14,713.57 L 263.13,713.55 L 263.13,713.52 L 263.12,713.49 L 263.12,713.46 L 263.12,713.44 L 263.11,713.41 C 263.11,713.12 263.37,712.86 263.66,712.86 C 263.95,712.86 264.22,713.12 264.22,713.41 C 264.22,713.69 263.95,713.97 263.67,713.97 z"
   style="fill:#000000;stroke-width:0;stroke:none" />
<path
   id="path3762"
   d="M 269.4,707.82 L 269.27,707.92 C 268.63,707.54 268.4,707.45 267.97,707.45 C 267.32,707.45 266.79,707.74 266.51,708.23 C 266.32,708.56 266.25,708.84 266.23,709.41 L 267.68,709.41 C 268.37,709.41 268.8,709.44 269.49,709.55 C 269.5,709.69 269.51,709.78 269.51,709.9 C 269.51,711.05 268.77,711.79 267.65,711.79 L 267.53,711.47 C 267.86,711.47 268.12,711.34 268.3,711.07 C 268.52,710.74 268.59,710.45 268.62,709.78 L 268.62,709.78 C 268.1,709.76 267.86,709.75 267.5,709.75 C 267.05,709.75 266.79,709.76 266.25,709.81 C 266.25,710.28 266.29,710.5 266.42,710.76 C 266.63,711.2 267.05,711.47 267.53,711.47 L 267.65,711.79 C 267.28,711.79 266.86,711.66 266.45,711.43 C 265.63,710.96 265.3,710.34 265.3,709.3 C 265.3,708.68 265.45,708.14 265.72,707.76 C 266.12,707.23 266.79,706.92 267.53,706.92 C 267.9,706.92 268.27,707 268.68,707.18 C 268.95,707.29 269.16,707.42 269.2,707.48 L 269.4,707.82 z"
   style="fill:#000000;stroke-width:0;stroke:none" />
<path
   id="path3764"
   d="M 270.05,713.71 L 270.61,713.71 C 270.79,713.71 270.86,713.6 270.86,713.3 L 270.86,708.14 C 270.86,707.51 270.83,707.44 270.49,707.42 L 270.03,707.39 L 270.03,707.09 C 271.02,707.12 271.02,707.12 271.27,707.12 C 271.52,707.12 271.52,707.12 272.52,707.09 L 272.52,707.39 L 272.06,707.42 C 271.72,707.44 271.69,707.51 271.69,708.14 L 271.69,714.28 L 271.6,714.35 C 271.17,714.19 270.84,714.11 270.05,713.99 L 270.05,713.71 z"
   style="fill:#000000;stroke-width:0;stroke:none" />
<path
   id="path3766"
   d="M 276.82,711.48 L 276.77,711.5 L 276.72,711.52 L 276.67,711.54 L 276.62,711.56 L 276.58,711.58 L 276.53,711.59 L 276.49,711.61 L 276.45,711.63 L 276.41,711.64 L 276.37,711.66 L 276.33,711.67 L 276.29,711.68 L 276.25,711.69 L 276.22,711.71 L 276.18,711.72 L 276.15,711.73 L 276.11,711.73 L 276.08,711.74 L 276.02,711.76 L 275.95,711.77 L 275.89,711.78 L 275.83,711.79 L 275.76,711.79 L 275.7,711.79 L 275.63,711.79 C 275.36,711.79 275.13,711.73 274.88,711.61 L 274,711.15 C 273.43,710.85 273.06,710.12 273.06,709.27 C 273.06,708.48 273.33,707.82 273.82,707.42 C 274.16,707.13 274.63,707 275.27,707 C 275.48,707 275.7,707.04 275.75,707.08 L 276.86,708.01 L 276.67,708.35 C 276.39,707.88 275.9,707.57 275.43,707.57 C 274.56,707.57 273.93,708.42 273.93,709.6 C 273.93,710.69 274.47,711.33 275.36,711.33 C 275.74,711.33 276.14,711.2 276.49,710.96 C 276.7,710.82 276.82,710.69 276.82,710.61 L 276.82,709.32 C 276.82,708.68 276.8,708.58 276.67,708.35 L 276.86,708.01 L 276.81,707.09 C 277.3,707.11 277.46,707.12 277.58,707.12 C 277.66,707.12 277.8,707.12 278.01,707.11 C 278.08,707.1 278.27,707.1 278.48,707.09 L 278.48,707.39 L 278.02,707.42 C 277.69,707.44 277.66,707.51 277.66,708.14 L 277.66,714.28 L 277.57,714.35 C 277.13,714.19 276.8,714.11 276.01,713.99 L 276.01,713.71 L 276.57,713.71 C 276.75,713.71 276.82,713.6 276.82,713.3 L 276.82,711.48 z"
   style="fill:#000000;stroke-width:0;stroke:none" />
</g>    <g
       transform="matrix(0.5,0,0,0.5,196.2873,-112.49748)"
       id="g3346">
      <g
         id="g3193"
         transform="translate(6.5152289,299.49492)">
        <path
           sodipodi:nodetypes="ccccccccc"
           id="path3195"
           d="M 100,52.362183 L 100,302.36218 L 350,302.36218 L 350,202.36218 L 400,202.36218 L 400,152.36218 L 350,152.36218 L 350,52.362183 L 100,52.362183"
           style="fill:none;fill-rule:evenodd;stroke:#000000;stroke-width:2;stroke-linecap:butt;stroke-linejoin:miter;stroke-miterlimit:4;stroke-dasharray:none;stroke-opacity:1" />
        <path
           id="path3197"
           d="M 150,52.362183 L 150,302.36218"
           style="fill:none;fill-rule:evenodd;stroke:#000000;stroke-width:1px;stroke-linecap:butt;stroke-linejoin:miter;stroke-opacity:1" />
        <path
           id="path3199"
           d="M 200,52.362183 L 200,302.36218"
           style="fill:none;fill-rule:evenodd;stroke:#000000;stroke-width:1px;stroke-linecap:butt;stroke-linejoin:miter;stroke-opacity:1" />
        <path
           id="path3201"
           d="M 250,52.362183 L 250,302.36218"
           style="fill:none;fill-rule:evenodd;stroke:#000000;stroke-width:1px;stroke-linecap:butt;stroke-linejoin:miter;stroke-opacity:1" />
        <path
           id="path3203"
           d="M 300,52.362183 L 300,302.36218"
           style="fill:none;fill-rule:evenodd;stroke:#000000;stroke-width:1px;stroke-linecap:butt;stroke-linejoin:miter;stroke-opacity:1" />
        <path
           id="path3205"
           d="M 100,202.36218 L 350,202.36218"
           style="fill:none;fill-rule:evenodd;stroke:#000000;stroke-width:1px;stroke-linecap:butt;stroke-linejoin:miter;stroke-opacity:1" />
        <path
           id="path3207"
           d="M 350,152.36218 L 350,202.36218"
           style="fill:none;fill-rule:evenodd;stroke:#000000;stroke-width:1px;stroke-linecap:butt;stroke-linejoin:miter;stroke-opacity:1" />
        <path
           id="path3209"
           d="M 100,152.36218 L 350,152.36218"
           style="fill:none;fill-rule:evenodd;stroke:#000000;stroke-width:1px;stroke-linecap:butt;stroke-linejoin:miter;stroke-opacity:1" />
        <path
           id="path3211"
           d="M 100,102.36218 L 350,102.36218"
           style="fill:none;fill-rule:evenodd;stroke:#000000;stroke-width:1px;stroke-linecap:butt;stroke-linejoin:miter;stroke-opacity:1" />
        <path
           id="path3213"
           d="M 100,252.36218 L 350,252.36218"
           style="fill:none;fill-rule:evenodd;stroke:#000000;stroke-width:1px;stroke-linecap:butt;stroke-linejoin:miter;stroke-opacity:1" />
      </g>
      <path
         style="opacity:1;fill:#c8c8c8;fill-opacity:1;fill-rule:evenodd;stroke:none;stroke-width:2;stroke-linejoin:miter;stroke-miterlimit:4;stroke-dasharray:none;stroke-dashoffset:0;stroke-opacity:1"
         d="M 207.075,476.83088 L 207.075,452.39782 L 231.50807,452.39782 L 255.94113,452.39782 L 255.94113,476.83088 L 255.94113,501.26395 L 231.50807,501.26395 L 207.075,501.26395 L 207.075,476.83088 z"
         id="path3263" />
      <path
         style="fill:none;fill-rule:evenodd;stroke:#000000;stroke-width:1px;stroke-linecap:butt;stroke-linejoin:miter;stroke-opacity:1"
         d="M 181.51524,401.8571 L 181.51524,551.8571"
         id="path3265" />
      <path
         style="fill:none;fill-rule:evenodd;stroke:#000000;stroke-width:1px;stroke-linecap:butt;stroke-linejoin:miter;stroke-opacity:1"
         d="M 281.51524,401.8571 L 281.51524,551.8571"
         id="path3267" />
      <path
         style="fill:none;fill-rule:evenodd;stroke:#000000;stroke-width:1px;stroke-linecap:butt;stroke-linejoin:miter;stroke-opacity:1"
         d="M 156.51524,526.8571 L 306.51524,526.8571"
         id="path3269" />
      <path
         style="fill:none;fill-rule:evenodd;stroke:#000000;stroke-width:1px;stroke-linecap:butt;stroke-linejoin:miter;stroke-opacity:1"
         d="M 156.51524,426.8571 L 306.51524,426.8571"
         id="path3271" />
      <path
         style="fill:none;fill-rule:evenodd;stroke:#000000;stroke-width:1px;stroke-linecap:butt;stroke-linejoin:miter;stroke-opacity:1"
         d="M 231.51524,451.8571 L 231.51524,501.8571"
         id="path3273" />
      <path
         style="fill:none;fill-rule:evenodd;stroke:#000000;stroke-width:1px;stroke-linecap:butt;stroke-linejoin:miter;stroke-opacity:1"
         d="M 206.51524,476.8571 L 256.51524,476.8571"
         id="path3275" />
      <path
         style="fill:none;fill-rule:evenodd;stroke:#000000;stroke-width:1px;stroke-linecap:butt;stroke-linejoin:miter;stroke-opacity:1"
         d="M 181.51524,439.35708 L 281.51524,439.35708"
         id="path3277" />
      <path
         style="fill:none;fill-rule:evenodd;stroke:#000000;stroke-width:1px;stroke-linecap:butt;stroke-linejoin:miter;stroke-opacity:1"
         d="M 269.01522,426.8571 L 269.01522,526.8571"
         id="path3281" />
      <path
         style="fill:none;fill-rule:evenodd;stroke:#000000;stroke-width:1px;stroke-linecap:butt;stroke-linejoin:miter;stroke-opacity:1"
         d="M 281.51524,514.35708 L 181.51524,514.35708"
         id="path3283" />
      <path
         style="fill:none;fill-rule:evenodd;stroke:#000000;stroke-width:1px;stroke-linecap:butt;stroke-linejoin:miter;stroke-opacity:1"
         d="M 194.19379,526.8571 L 194.19379,426.8571"
         id="path3285" />
      <path
         style="fill:none;fill-rule:evenodd;stroke:#000000;stroke-width:1px;stroke-linecap:butt;stroke-linejoin:miter;stroke-opacity:1"
         d="M 218.83669,451.8571 L 218.83669,501.8571"
         id="path3287" />
      <path
         style="fill:none;fill-rule:evenodd;stroke:#000000;stroke-width:1px;stroke-linecap:butt;stroke-linejoin:miter;stroke-opacity:1"
         d="M 244.01526,451.8571 L 244.01526,501.8571"
         id="path3289" />
      <path
         style="fill:none;fill-rule:evenodd;stroke:#000000;stroke-width:1px;stroke-linecap:butt;stroke-linejoin:miter;stroke-opacity:1"
         d="M 206.51524,489.53565 L 256.51524,489.53565"
         id="path3291" />
      <path
         style="fill:none;fill-rule:evenodd;stroke:#000000;stroke-width:1px;stroke-linecap:butt;stroke-linejoin:miter;stroke-opacity:1"
         d="M 206.51524,464.35708 L 256.51524,464.35708"
         id="path3293" />
      <path
         style="fill:none;fill-rule:evenodd;stroke:#000000;stroke-width:1px;stroke-linecap:butt;stroke-linejoin:miter;stroke-opacity:1"
         d="M 200.35714,439.36218 L 200.35714,514.36218"
         id="path3295" />
      <path
         style="fill:none;fill-rule:evenodd;stroke:#000000;stroke-width:1px;stroke-linecap:butt;stroke-linejoin:miter;stroke-opacity:1"
         d="M 194.46429,445.54075 L 269.46429,445.54075"
         id="path3297" />
      <path
         style="fill:none;fill-rule:evenodd;stroke:#000000;stroke-width:1px;stroke-linecap:butt;stroke-linejoin:miter;stroke-opacity:1"
         d="M 194.46429,508.07646 L 269.46429,508.07646"
         id="path3299" />
      <path
         style="fill:none;fill-rule:evenodd;stroke:#000000;stroke-width:1px;stroke-linecap:butt;stroke-linejoin:miter;stroke-opacity:1"
         d="M 263,514.36218 L 263,439.36218"
         id="path3301" />
      <path
         style="fill:none;fill-rule:evenodd;stroke:#000000;stroke-width:1px;stroke-linecap:butt;stroke-linejoin:miter;stroke-opacity:1"
         d="M 231.41774,451.6479 L 231.41774,439.3373"
         id="path3303"
         sodipodi:nodetypes="cc" />
      <path
         style="fill:none;fill-rule:evenodd;stroke:#000000;stroke-width:1px;stroke-linecap:butt;stroke-linejoin:miter;stroke-opacity:1"
         d="M 256.4917,476.92024 L 268.91774,476.8048"
         id="path3305"
         sodipodi:nodetypes="cc" />
      <path
         style="fill:none;fill-rule:evenodd;stroke:#000000;stroke-width:1px;stroke-linecap:butt;stroke-linejoin:miter;stroke-opacity:1"
         d="M 231.41774,501.99421 L 231.55484,514.66194"
         id="path3307"
         sodipodi:nodetypes="cc" />
      <path
         style="fill:none;fill-rule:evenodd;stroke:#000000;stroke-width:1px;stroke-linecap:butt;stroke-linejoin:miter;stroke-opacity:1"
         d="M 206.25,476.81564 L 194.34884,476.8048"
         id="path3309"
         sodipodi:nodetypes="cc" />
    </g>
    <g
       id="g4090"
       transform="matrix(1.5,0,0,-1.5,-66.765086,1274.0872)"
       xml:space="preserve"
       stroke-miterlimit="10.433"
       fill-rule="even-odd"
       font-style="normal"
       font-variant="normal"
       font-weight="normal"
       font-stretch="normal"
       font-size-adjust="none"
       letter-spacing="normal"
       word-spacing="normal"
       ns0:text="Temperature"
       ns0:preamble="/home/lenka/latex/disertace/lenka-thesis/textext-preamble.tex"
       style="font-style:normal;font-variant:normal;font-weight:normal;font-stretch:normal;letter-spacing:normal;word-spacing:normal;text-anchor:start;fill:none;fill-opacity:1;stroke:none;stroke-linecap:butt;stroke-linejoin:miter;stroke-miterlimit:10.43299960999999954;stroke-dasharray:none;stroke-dashoffset:0;stroke-opacity:1">
<path
   d="M 225.97,713.53 L 225.98,713.47 L 225.98,713.41 L 225.99,713.35 L 225.99,713.29 L 226,713.23 L 226,713.18 L 226,713.12 L 226,713.06 L 226.01,713.01 L 226.01,712.95 L 226.01,712.89 L 226.01,712.82 L 226.01,712.79 L 226.01,712.75 L 226.01,712.72 L 226.01,712.68 L 226.01,712.65 L 226.01,712.61 L 226.01,712.57 L 226.01,712.53 L 226.01,708.32 C 226.01,707.53 225.96,707.45 225.51,707.42 L 225.03,707.39 L 225.03,707.09 C 225.61,707.11 225.96,707.12 226.48,707.12 C 227,707.12 227.36,707.11 227.95,707.09 L 227.95,707.39 L 227.47,707.42 C 227.01,707.45 226.96,707.53 226.96,708.32 L 226.96,712.53 C 226.96,712.98 226.97,713.2 227,713.53 L 228.54,713.53 C 228.82,713.53 228.93,713.44 228.94,713.2 L 228.98,712.41 L 229.29,712.41 C 229.29,713.06 229.31,713.45 229.36,714.02 C 228.64,714.01 228.31,714.01 228.04,714 C 227.65,713.99 227.36,713.99 227.21,713.99 L 225.63,713.99 C 225.54,713.99 225,714 224.29,714.01 L 223.61,714.02 C 223.66,713.45 223.68,713.06 223.68,712.41 L 223.99,712.41 L 224.03,713.2 C 224.04,713.44 224.15,713.53 224.43,713.53 L 225.97,713.53 z"
   id="path4092"
   style="fill:#000000;stroke-width:0;stroke:none" />
<path
   d="M 232.98,707.82 L 232.85,707.92 C 232.21,707.54 231.98,707.45 231.55,707.45 C 230.9,707.45 230.37,707.74 230.09,708.23 C 229.9,708.56 229.83,708.84 229.81,709.41 L 231.26,709.41 C 231.95,709.41 232.38,709.44 233.07,709.55 C 233.08,709.69 233.09,709.78 233.09,709.9 C 233.09,711.05 232.35,711.79 231.23,711.79 L 231.11,711.47 C 231.44,711.47 231.7,711.34 231.88,711.07 C 232.1,710.74 232.17,710.45 232.2,709.78 L 232.2,709.78 C 231.68,709.76 231.44,709.75 231.08,709.75 C 230.62,709.75 230.37,709.76 229.83,709.81 C 229.83,710.28 229.87,710.5 230,710.76 C 230.21,711.2 230.63,711.47 231.11,711.47 L 231.23,711.79 C 230.86,711.79 230.44,711.66 230.03,711.43 C 229.21,710.96 228.88,710.34 228.88,709.3 C 228.88,708.68 229.03,708.14 229.3,707.76 C 229.7,707.23 230.37,706.92 231.11,706.92 C 231.48,706.92 231.85,707 232.26,707.18 C 232.53,707.29 232.74,707.42 232.78,707.48 L 232.98,707.82 z"
   id="path4094"
   style="fill:#000000;stroke-width:0;stroke:none" />
<path
   d="M 233.57,711.11 L 233.94,711.11 C 234.34,711.11 234.38,711.04 234.38,710.38 L 234.38,708.14 C 234.38,707.51 234.35,707.44 234.01,707.42 L 233.55,707.39 L 233.55,707.09 C 234.51,707.12 234.54,707.12 234.82,707.12 C 235.1,707.12 235.35,707.11 236,707.09 L 236,707.39 L 235.58,707.42 C 235.25,707.44 235.22,707.51 235.22,708.14 L 235.22,710.25 C 235.22,710.7 235.87,711.19 236.47,711.19 C 237.01,711.19 237.38,710.68 237.38,709.92 L 237.38,708.14 C 237.38,707.51 237.35,707.44 237.01,707.42 L 236.55,707.39 L 236.55,707.09 C 237.55,707.12 237.55,707.12 237.8,707.12 C 238.04,707.12 238.04,707.12 239.04,707.09 L 239.04,707.39 L 238.58,707.42 C 238.24,707.44 238.21,707.51 238.21,708.14 L 238.21,710.25 C 238.21,710.7 238.87,711.19 239.47,711.19 C 240.01,711.19 240.38,710.68 240.38,709.92 L 240.38,707.09 C 240.98,707.12 240.99,707.12 241.16,707.12 C 241.29,707.12 241.29,707.12 242.05,707.09 L 242.05,707.39 L 241.58,707.42 C 241.24,707.44 241.21,707.51 241.21,708.14 L 241.21,710.19 C 241.21,711.18 240.63,711.79 239.72,711.79 C 239.37,711.79 239.08,711.71 238.9,711.55 L 238.15,710.87 C 237.83,711.53 237.42,711.79 236.73,711.79 C 236.36,711.79 236.08,711.71 235.9,711.55 L 235.22,710.91 L 235.22,711.76 L 235.13,711.79 C 234.62,711.59 234.1,711.45 233.57,711.39 L 233.57,711.11 z"
   id="path4096"
   style="fill:#000000;stroke-width:0;stroke:none" />
<path
   d="M 242.29,711.11 L 242.66,711.11 C 243.06,711.11 243.1,711.04 243.1,710.38 L 243.1,705.37 C 243.1,704.74 243.07,704.67 242.73,704.65 L 242.27,704.62 L 242.27,704.32 C 243.27,704.35 243.27,704.35 243.51,704.35 C 243.76,704.35 243.76,704.35 244.76,704.32 L 244.76,704.62 L 244.3,704.65 C 243.96,704.67 243.93,704.74 243.93,705.37 L 243.93,707.25 C 244.23,707.07 244.55,707 245,707 C 245.29,707 245.55,707.06 245.71,707.16 L 246.84,707.9 C 247.24,708.16 247.71,709.18 247.71,709.82 C 247.71,710.93 246.79,711.79 245.64,711.79 C 245.27,711.79 244.91,711.7 244.75,711.55 L 243.93,710.8 L 244.11,710.59 C 244.4,710.96 244.81,711.15 245.31,711.15 C 246.24,711.15 246.84,710.49 246.84,709.45 C 246.84,708.34 246.18,707.51 245.28,707.51 C 244.73,707.51 244.32,707.69 243.93,708.1 L 243.93,710.17 C 243.93,710.31 243.98,710.42 244.11,710.59 L 243.93,710.8 L 243.93,711.76 L 243.84,711.79 C 243.34,711.59 242.82,711.45 242.29,711.39 L 242.29,711.11 z"
   id="path4098"
   style="fill:#000000;stroke-width:0;stroke:none" />
<path
   d="M 252.54,707.82 L 252.41,707.92 C 251.77,707.54 251.54,707.45 251.11,707.45 C 250.46,707.45 249.93,707.74 249.65,708.23 C 249.46,708.56 249.39,708.84 249.37,709.41 L 250.82,709.41 C 251.51,709.41 251.94,709.44 252.63,709.55 C 252.64,709.69 252.65,709.78 252.65,709.9 C 252.65,711.05 251.91,711.79 250.79,711.79 L 250.67,711.47 C 251,711.47 251.26,711.34 251.44,711.07 C 251.66,710.74 251.73,710.45 251.76,709.78 L 251.76,709.78 C 251.24,709.76 251,709.75 250.64,709.75 C 250.18,709.75 249.93,709.76 249.39,709.81 C 249.39,710.28 249.43,710.5 249.56,710.76 C 249.77,711.2 250.2,711.47 250.67,711.47 L 250.79,711.79 C 250.42,711.79 250,711.66 249.59,711.43 C 248.77,710.96 248.44,710.34 248.44,709.3 C 248.44,708.68 248.59,708.14 248.86,707.76 C 249.26,707.23 249.93,706.92 250.67,706.92 C 251.04,706.92 251.41,707 251.82,707.18 C 252.09,707.29 252.3,707.42 252.34,707.48 L 252.54,707.82 z"
   id="path4100"
   style="fill:#000000;stroke-width:0;stroke:none" />
<path
   d="M 253.18,711.11 L 253.55,711.11 C 253.95,711.11 253.99,711.04 253.99,710.38 L 253.99,708.14 C 253.99,707.51 253.96,707.44 253.62,707.42 L 253.16,707.39 L 253.16,707.09 C 253.88,707.11 254.14,707.12 254.39,707.12 C 254.59,707.12 254.59,707.12 255.81,707.09 L 255.81,707.39 L 255.29,707.42 C 254.85,707.45 254.82,707.48 254.82,708.14 L 254.82,709.85 C 254.82,710.45 255.22,710.95 255.71,710.95 C 256.01,710.95 256.22,710.81 256.38,710.49 L 256.59,710.49 L 256.68,711.68 C 256.57,711.76 256.39,711.79 256.21,711.79 C 255.91,711.79 255.59,711.64 255.38,711.39 L 254.82,710.73 L 254.82,711.76 L 254.74,711.79 C 254.23,711.59 253.71,711.45 253.18,711.39 L 253.18,711.11 z"
   id="path4102"
   style="fill:#000000;stroke-width:0;stroke:none" />
<path
   d="M 260.12,707.94 L 260.07,707.09 C 260.72,707.12 260.72,707.12 260.85,707.12 C 260.89,707.12 261.14,707.11 261.58,707.09 L 261.58,707.39 L 261.19,707.41 C 260.95,707.42 260.92,707.5 260.92,707.99 L 260.92,709.81 C 260.92,711.27 260.5,711.79 259.34,711.79 C 258.91,711.79 258.51,711.68 258.14,711.46 L 257.61,711.14 L 257.61,710.49 L 257.87,710.42 L 258,710.73 C 258.2,711.2 258.3,711.27 258.76,711.27 C 259.7,711.27 260.09,710.9 260.12,709.99 L 260.12,709.67 L 260.12,708.36 C 259.83,707.95 259.2,707.57 258.81,707.57 C 258.41,707.57 258.07,707.94 258.07,708.37 C 258.07,708.74 258.27,709.09 258.56,709.27 C 258.81,709.42 259.36,709.56 260.12,709.67 L 260.12,709.99 L 259.13,709.81 C 257.78,709.56 257.21,709.09 257.21,708.23 C 257.21,707.45 257.68,707 258.46,707 C 258.64,707 258.81,707.03 258.88,707.08 L 260.12,707.94 z"
   id="path4104"
   style="fill:#000000;stroke-width:0;stroke:none" />
<path
   d="M 262.85,710.93 L 262.85,708.06 C 262.85,707.32 263.17,707 263.94,707 C 264.17,707 264.41,707.05 264.47,707.12 L 264.95,707.65 L 264.82,707.82 C 264.57,707.68 264.42,707.63 264.23,707.63 C 263.84,707.63 263.68,707.83 263.68,708.32 L 263.68,710.93 L 264.96,710.93 L 265.05,711.47 L 263.68,711.41 L 263.68,711.78 C 263.68,712.2 263.71,712.56 263.79,713.2 L 263.67,713.31 C 263.43,713.16 263.14,713.03 262.83,712.93 C 262.86,712.63 262.87,712.44 262.87,712.14 L 262.87,711.45 L 262.09,711.1 L 262.09,710.89 L 262.85,710.93 z"
   id="path4106"
   style="fill:#000000;stroke-width:0;stroke:none" />
<path
   d="M 270.13,711.76 L 270.04,711.79 C 269.53,711.59 269.01,711.45 268.48,711.39 L 268.48,711.11 L 268.85,711.11 C 269.25,711.11 269.29,711.04 269.29,710.38 L 269.29,708.76 C 269.29,708.54 269.15,708.26 268.92,708.03 C 268.64,707.75 268.33,707.61 267.94,707.61 C 267.59,707.61 267.31,707.72 267.15,707.91 C 267.01,708.07 266.94,708.38 266.94,708.82 L 266.94,711.76 L 266.85,711.79 C 266.34,711.59 265.83,711.45 265.3,711.39 L 265.3,711.11 L 265.67,711.11 C 266.06,711.11 266.1,711.04 266.1,710.38 L 266.1,708.71 C 266.1,708.01 266.16,707.7 266.34,707.45 C 266.56,707.15 266.94,707 267.51,707 C 267.96,707 268.36,707.14 268.62,707.39 L 269.29,708.01 C 269.29,707.72 269.28,707.56 269.25,707.09 C 269.92,707.12 269.93,707.12 270.08,707.12 C 270.22,707.12 270.22,707.12 270.91,707.09 L 270.91,707.39 L 270.5,707.42 C 270.16,707.44 270.13,707.5 270.13,708.14 L 270.13,711.76 z"
   id="path4108"
   style="fill:#000000;stroke-width:0;stroke:none" />
<path
   d="M 271.35,711.11 L 271.72,711.11 C 272.12,711.11 272.16,711.04 272.16,710.38 L 272.16,708.14 C 272.16,707.51 272.13,707.44 271.79,707.42 L 271.33,707.39 L 271.33,707.09 C 272.05,707.11 272.31,707.12 272.56,707.12 C 272.76,707.12 272.76,707.12 273.98,707.09 L 273.98,707.39 L 273.47,707.42 C 273.02,707.45 273,707.48 273,708.14 L 273,709.85 C 273,710.45 273.4,710.95 273.89,710.95 C 274.18,710.95 274.39,710.81 274.55,710.49 L 274.76,710.49 L 274.85,711.68 C 274.74,711.76 274.56,711.79 274.38,711.79 C 274.08,711.79 273.77,711.64 273.56,711.39 L 273,710.73 L 273,711.76 L 272.91,711.79 C 272.4,711.59 271.88,711.45 271.35,711.39 L 271.35,711.11 z"
   id="path4110"
   style="fill:#000000;stroke-width:0;stroke:none" />
<path
   d="M 279.36,707.82 L 279.23,707.92 C 278.6,707.54 278.37,707.45 277.94,707.45 C 277.29,707.45 276.75,707.74 276.48,708.23 C 276.29,708.56 276.21,708.84 276.2,709.41 L 277.65,709.41 C 278.34,709.41 278.77,709.44 279.45,709.55 C 279.46,709.69 279.47,709.78 279.47,709.9 C 279.47,711.05 278.74,711.79 277.62,711.79 L 277.5,711.47 C 277.83,711.47 278.09,711.34 278.27,711.07 C 278.49,710.74 278.56,710.45 278.59,709.78 L 278.59,709.78 C 278.07,709.76 277.83,709.75 277.47,709.75 C 277.01,709.75 276.75,709.76 276.21,709.81 C 276.21,710.28 276.26,710.5 276.39,710.76 C 276.59,711.2 277.02,711.47 277.5,711.47 L 277.62,711.79 C 277.25,711.79 276.82,711.66 276.42,711.43 C 275.6,710.96 275.27,710.34 275.27,709.3 C 275.27,708.68 275.42,708.14 275.69,707.76 C 276.09,707.23 276.75,706.92 277.5,706.92 C 277.87,706.92 278.24,707 278.65,707.18 C 278.92,707.29 279.12,707.42 279.16,707.48 L 279.36,707.82 z"
   id="path4112"
   style="fill:#000000;stroke-width:0;stroke:none" />
</g>    <path
       sodipodi:nodetypes="ccccccccc"
       id="path3456"
       d="M 427.12559,63.428531 L 427.12559,188.42853 L 552.12559,188.42853 L 552.12559,138.42853 L 577.12559,138.42853 L 577.12559,113.42853 L 552.12559,113.42853 L 552.12559,63.428531 L 427.12559,63.428531"
       style="fill:none;fill-rule:evenodd;stroke:#000000;stroke-width:1;stroke-linecap:butt;stroke-linejoin:miter;stroke-miterlimit:4;stroke-dasharray:none;stroke-opacity:1" />
    <path
       id="path3458"
       d="M 452.12559,63.428531 L 452.12559,188.42853"
       style="fill:none;fill-rule:evenodd;stroke:#000000;stroke-width:0.5px;stroke-linecap:butt;stroke-linejoin:miter;stroke-opacity:1" />
    <path
       id="path3460"
       d="M 477.12559,63.428531 L 477.12559,188.42853"
       style="fill:none;fill-rule:evenodd;stroke:#000000;stroke-width:0.5px;stroke-linecap:butt;stroke-linejoin:miter;stroke-opacity:1" />
    <path
       id="path3462"
       d="M 502.12559,63.428531 L 502.12559,188.42853"
       style="fill:none;fill-rule:evenodd;stroke:#000000;stroke-width:0.5px;stroke-linecap:butt;stroke-linejoin:miter;stroke-opacity:1" />
    <path
       id="path3464"
       d="M 527.12559,63.428531 L 527.12559,188.42853"
       style="fill:none;fill-rule:evenodd;stroke:#000000;stroke-width:0.5px;stroke-linecap:butt;stroke-linejoin:miter;stroke-opacity:1" />
    <path
       id="path3466"
       d="M 427.12559,138.42853 L 552.12559,138.42853"
       style="fill:none;fill-rule:evenodd;stroke:#000000;stroke-width:0.5px;stroke-linecap:butt;stroke-linejoin:miter;stroke-opacity:1" />
    <path
       id="path3468"
       d="M 552.12559,113.42853 L 552.12559,138.42853"
       style="fill:none;fill-rule:evenodd;stroke:#000000;stroke-width:0.5px;stroke-linecap:butt;stroke-linejoin:miter;stroke-opacity:1" />
    <path
       id="path3470"
       d="M 427.12559,113.42853 L 552.12559,113.42853"
       style="fill:none;fill-rule:evenodd;stroke:#000000;stroke-width:0.5px;stroke-linecap:butt;stroke-linejoin:miter;stroke-opacity:1" />
    <path
       id="path3472"
       d="M 427.12559,88.42853 L 552.12559,88.42853"
       style="fill:none;fill-rule:evenodd;stroke:#000000;stroke-width:0.5px;stroke-linecap:butt;stroke-linejoin:miter;stroke-opacity:1" />
    <path
       id="path3474"
       d="M 427.12559,163.42853 L 552.12559,163.42853"
       style="fill:none;fill-rule:evenodd;stroke:#000000;stroke-width:0.5px;stroke-linecap:butt;stroke-linejoin:miter;stroke-opacity:1" />
    <path
       id="path3476"
       d="M 539.62559,88.42853 L 539.62559,113.42853"
       style="fill:none;fill-rule:evenodd;stroke:#000000;stroke-width:0.5px;stroke-linecap:butt;stroke-linejoin:miter;stroke-opacity:1" />
    <path
       id="path3478"
       d="M 527.12559,100.92853 L 552.12559,100.92853"
       style="fill:none;fill-rule:evenodd;stroke:#000000;stroke-width:0.5px;stroke-linecap:butt;stroke-linejoin:miter;stroke-opacity:1" />
    <path
       id="path3480"
       d="M 539.62559,113.42853 L 539.62559,163.42853"
       style="fill:none;fill-rule:evenodd;stroke:#000000;stroke-width:0.5px;stroke-linecap:butt;stroke-linejoin:miter;stroke-opacity:1" />
    <path
       id="path3482"
       d="M 527.12559,150.92853 L 552.12559,150.92853"
       style="fill:none;fill-rule:evenodd;stroke:#000000;stroke-width:0.5px;stroke-linecap:butt;stroke-linejoin:miter;stroke-opacity:1" />
    <path
       id="path3484"
       d="M 527.12559,125.92853 L 577.12559,125.92853"
       style="fill:none;fill-rule:evenodd;stroke:#000000;stroke-width:0.5px;stroke-linecap:butt;stroke-linejoin:miter;stroke-opacity:1" />
    <path
       id="path3486"
       d="M 564.62559,113.42853 L 564.62559,138.42853"
       style="fill:none;fill-rule:evenodd;stroke:#000000;stroke-width:0.5px;stroke-linecap:butt;stroke-linejoin:miter;stroke-opacity:1" />
    <path
       id="path3488"
       d="M 545.90236,150.92853 L 545.90236,113.42853"
       style="fill:none;fill-rule:evenodd;stroke:#000000;stroke-width:0.5px;stroke-linecap:butt;stroke-linejoin:miter;stroke-opacity:1" />
    <path
       id="path3490"
       d="M 539.62559,132.20531 L 564.62559,132.20531"
       style="fill:none;fill-rule:evenodd;stroke:#000000;stroke-width:0.5px;stroke-linecap:butt;stroke-linejoin:miter;stroke-opacity:1" />
    <path
       id="path3492"
       d="M 539.62559,144.70531 L 552.12559,144.70531"
       style="fill:none;fill-rule:evenodd;stroke:#000000;stroke-width:0.5px;stroke-linecap:butt;stroke-linejoin:miter;stroke-opacity:1" />
    <path
       id="path3494"
       d="M 539.62559,119.65176 L 552.12559,119.65176 L 564.62559,119.65176"
       style="fill:none;fill-rule:evenodd;stroke:#000000;stroke-width:0.5px;stroke-linecap:butt;stroke-linejoin:miter;stroke-opacity:1" />
    <path
       id="path3496"
       d="M 558.40236,113.42853 L 558.40236,138.42853"
       style="fill:none;fill-rule:evenodd;stroke:#000000;stroke-width:0.5px;stroke-linecap:butt;stroke-linejoin:miter;stroke-opacity:1" />
    <path
       id="path3498"
       d="M 545.87811,100.92853 L 545.87811,113.42853"
       style="fill:none;fill-rule:evenodd;stroke:#000000;stroke-width:0.5px;stroke-linecap:butt;stroke-linejoin:miter;stroke-opacity:1" />
    <path
       id="path3500"
       d="M 539.62559,107.20758 L 552.12559,107.20758"
       style="fill:none;fill-rule:evenodd;stroke:#000000;stroke-width:0.5px;stroke-linecap:butt;stroke-linejoin:miter;stroke-opacity:1" />
    <path
       id="path3502"
       d="M 548.9381,107.42853 L 548.9381,119.42853"
       style="fill:none;fill-rule:evenodd;stroke:#000000;stroke-width:0.5px;stroke-linecap:butt;stroke-linejoin:miter;stroke-opacity:1" />
    <path
       id="path3504"
       d="M 545.62559,116.61601 L 558.62559,116.61601"
       style="fill:none;fill-rule:evenodd;stroke:#000000;stroke-width:0.5px;stroke-linecap:butt;stroke-linejoin:miter;stroke-opacity:1" />
    <path
       id="path3506"
       d="M 546.12559,110.24995 L 552.12559,110.24995"
       style="fill:none;fill-rule:evenodd;stroke:#000000;stroke-width:0.5px;stroke-linecap:butt;stroke-linejoin:miter;stroke-opacity:1" />
    <path
       id="path3508"
       d="M 555.30417,113.42853 L 555.30417,119.42853"
       style="fill:none;fill-rule:evenodd;stroke:#000000;stroke-width:0.5px;stroke-linecap:butt;stroke-linejoin:miter;stroke-opacity:1" />
    <path
       id="path3510"
       d="M 558.12559,135.24995 L 546.12559,135.24995"
       style="fill:none;fill-rule:evenodd;stroke:#000000;stroke-width:0.5px;stroke-linecap:butt;stroke-linejoin:miter;stroke-opacity:1" />
    <path
       id="path3512"
       d="M 548.9381,131.93743 L 548.9381,144.93743"
       style="fill:none;fill-rule:evenodd;stroke:#000000;stroke-width:0.5px;stroke-linecap:butt;stroke-linejoin:miter;stroke-opacity:1" />
    <path
       id="path3514"
       d="M 555.30417,132.43743 L 555.30417,138.43743"
       style="fill:none;fill-rule:evenodd;stroke:#000000;stroke-width:0.5px;stroke-linecap:butt;stroke-linejoin:miter;stroke-opacity:1" />
    <path
       id="path3516"
       d="M 552.12559,141.61602 L 546.12559,141.61602"
       style="fill:none;fill-rule:evenodd;stroke:#000000;stroke-width:0.5px;stroke-linecap:butt;stroke-linejoin:miter;stroke-opacity:1" />
    <path
       id="path3518"
       d="M 477.38496,125.90777 L 477.38496,113.69124 L 489.60149,113.69124 L 501.81802,113.69124 L 501.81802,125.90777 L 501.81802,138.1243 L 489.60149,138.1243 L 477.38496,138.1243 L 477.38496,125.90777 z"
       style="fill:#c8c8c8;fill-opacity:1;fill-rule:evenodd;stroke:none;stroke-width:2;stroke-linejoin:miter;stroke-miterlimit:4;stroke-dasharray:none;stroke-dashoffset:0;stroke-opacity:1" />
    <path
       id="path3406"
       d="M 477.34556,125.9205 L 477.34556,113.70397 L 489.56209,113.70397 L 501.77863,113.70397 L 501.77863,125.9205 L 501.77863,138.13703 L 489.56209,138.13703 L 477.34556,138.13703 L 477.34556,125.9205 z"
       style="fill:#c8c8c8;fill-opacity:1;fill-rule:evenodd;stroke:none;stroke-width:2;stroke-linejoin:miter;stroke-miterlimit:4;stroke-dasharray:none;stroke-dashoffset:0;stroke-opacity:1" />
    <path
       id="path3408"
       d="M 464.56568,88.43361 L 464.56568,163.43361"
       style="fill:none;fill-rule:evenodd;stroke:#000000;stroke-width:0.5px;stroke-linecap:butt;stroke-linejoin:miter;stroke-opacity:1" />
    <path
       id="path3410"
       d="M 514.56568,88.43361 L 514.56568,163.43361"
       style="fill:none;fill-rule:evenodd;stroke:#000000;stroke-width:0.5px;stroke-linecap:butt;stroke-linejoin:miter;stroke-opacity:1" />
    <path
       id="path3412"
       d="M 452.06568,150.93361 L 527.06568,150.93361"
       style="fill:none;fill-rule:evenodd;stroke:#000000;stroke-width:0.5px;stroke-linecap:butt;stroke-linejoin:miter;stroke-opacity:1" />
    <path
       id="path3414"
       d="M 452.06568,100.93361 L 527.06568,100.93361"
       style="fill:none;fill-rule:evenodd;stroke:#000000;stroke-width:0.5px;stroke-linecap:butt;stroke-linejoin:miter;stroke-opacity:1" />
    <path
       id="path3416"
       d="M 489.56568,113.43361 L 489.56568,138.43361"
       style="fill:none;fill-rule:evenodd;stroke:#000000;stroke-width:0.5px;stroke-linecap:butt;stroke-linejoin:miter;stroke-opacity:1" />
    <path
       id="path3418"
       d="M 477.06568,125.93361 L 502.06568,125.93361"
       style="fill:none;fill-rule:evenodd;stroke:#000000;stroke-width:0.5px;stroke-linecap:butt;stroke-linejoin:miter;stroke-opacity:1" />
    <path
       id="path3420"
       d="M 464.56568,107.1836 L 514.56568,107.1836"
       style="fill:none;fill-rule:evenodd;stroke:#000000;stroke-width:0.5px;stroke-linecap:butt;stroke-linejoin:miter;stroke-opacity:1" />
    <path
       id="path3422"
       d="M 508.31567,100.93361 L 508.31567,150.93361"
       style="fill:none;fill-rule:evenodd;stroke:#000000;stroke-width:0.5px;stroke-linecap:butt;stroke-linejoin:miter;stroke-opacity:1" />
    <path
       id="path3424"
       d="M 514.56568,144.6836 L 464.56568,144.6836"
       style="fill:none;fill-rule:evenodd;stroke:#000000;stroke-width:0.5px;stroke-linecap:butt;stroke-linejoin:miter;stroke-opacity:1" />
    <path
       id="path3426"
       d="M 470.90495,150.93361 L 470.90495,100.93361"
       style="fill:none;fill-rule:evenodd;stroke:#000000;stroke-width:0.5px;stroke-linecap:butt;stroke-linejoin:miter;stroke-opacity:1" />
    <path
       id="path3428"
       d="M 483.2264,113.43361 L 483.2264,138.43361"
       style="fill:none;fill-rule:evenodd;stroke:#000000;stroke-width:0.5px;stroke-linecap:butt;stroke-linejoin:miter;stroke-opacity:1" />
    <path
       id="path3430"
       d="M 495.81569,113.43361 L 495.81569,138.43361"
       style="fill:none;fill-rule:evenodd;stroke:#000000;stroke-width:0.5px;stroke-linecap:butt;stroke-linejoin:miter;stroke-opacity:1" />
    <path
       id="path3432"
       d="M 477.06568,132.27288 L 502.06568,132.27288"
       style="fill:none;fill-rule:evenodd;stroke:#000000;stroke-width:0.5px;stroke-linecap:butt;stroke-linejoin:miter;stroke-opacity:1" />
    <path
       id="path3434"
       d="M 477.06568,119.6836 L 502.06568,119.6836"
       style="fill:none;fill-rule:evenodd;stroke:#000000;stroke-width:0.5px;stroke-linecap:butt;stroke-linejoin:miter;stroke-opacity:1" />
    <path
       id="path3436"
       d="M 473.98663,107.18615 L 473.98663,144.68615"
       style="fill:none;fill-rule:evenodd;stroke:#000000;stroke-width:0.5px;stroke-linecap:butt;stroke-linejoin:miter;stroke-opacity:1" />
    <path
       id="path3438"
       d="M 471.04021,110.27544 L 508.54021,110.27544"
       style="fill:none;fill-rule:evenodd;stroke:#000000;stroke-width:0.5px;stroke-linecap:butt;stroke-linejoin:miter;stroke-opacity:1" />
    <path
       id="path3440"
       d="M 471.04021,141.54329 L 508.54021,141.54329"
       style="fill:none;fill-rule:evenodd;stroke:#000000;stroke-width:0.5px;stroke-linecap:butt;stroke-linejoin:miter;stroke-opacity:1" />
    <path
       id="path3442"
       d="M 505.30806,144.68615 L 505.30806,107.18615"
       style="fill:none;fill-rule:evenodd;stroke:#000000;stroke-width:0.5px;stroke-linecap:butt;stroke-linejoin:miter;stroke-opacity:1" />
    <path
       sodipodi:nodetypes="cc"
       id="path3444"
       d="M 489.51693,113.32901 L 489.51693,107.17371"
       style="fill:none;fill-rule:evenodd;stroke:#000000;stroke-width:0.5px;stroke-linecap:butt;stroke-linejoin:miter;stroke-opacity:1" />
    <path
       sodipodi:nodetypes="cc"
       id="path3446"
       d="M 502.05391,125.96518 L 508.26693,125.90746"
       style="fill:none;fill-rule:evenodd;stroke:#000000;stroke-width:0.5px;stroke-linecap:butt;stroke-linejoin:miter;stroke-opacity:1" />
    <path
       sodipodi:nodetypes="cc"
       id="path3448"
       d="M 489.51693,138.50216 L 489.58548,144.83603"
       style="fill:none;fill-rule:evenodd;stroke:#000000;stroke-width:0.5px;stroke-linecap:butt;stroke-linejoin:miter;stroke-opacity:1" />
    <path
       sodipodi:nodetypes="cc"
       id="path3450"
       d="M 476.93306,125.91288 L 470.98248,125.90746"
       style="fill:none;fill-rule:evenodd;stroke:#000000;stroke-width:0.5px;stroke-linecap:butt;stroke-linejoin:miter;stroke-opacity:1" />
    <g
       ns0:preamble="/home/lenka/latex/disertace/lenka-thesis/textext-preamble.tex"
       ns0:text="Union mesh"
       word-spacing="normal"
       letter-spacing="normal"
       font-size-adjust="none"
       font-stretch="normal"
       font-weight="normal"
       font-variant="normal"
       font-style="normal"
       fill-rule="even-odd"
       stroke-miterlimit="10.433"
       xml:space="preserve"
       transform="matrix(1.5,0,0,-1.5,112.30063,1276.2847)"
       id="g4460"
       style="font-style:normal;font-variant:normal;font-weight:normal;font-stretch:normal;letter-spacing:normal;word-spacing:normal;text-anchor:start;fill:none;fill-opacity:1;stroke:none;stroke-linecap:butt;stroke-linejoin:miter;stroke-miterlimit:10.43299960999999954;stroke-dasharray:none;stroke-dashoffset:0;stroke-opacity:1">
<path
   id="path4462"
   d="M 230.05,712.79 L 230.05,712.83 L 230.05,712.86 L 230.05,712.9 L 230.05,712.93 L 230.05,712.96 L 230.05,712.99 L 230.05,713.02 L 230.05,713.05 L 230.05,713.08 L 230.05,713.11 L 230.05,713.13 L 230.06,713.16 L 230.06,713.18 L 230.06,713.21 L 230.06,713.23 L 230.06,713.25 L 230.07,713.28 L 230.07,713.3 L 230.07,713.32 L 230.07,713.34 L 230.08,713.37 L 230.09,713.41 L 230.1,713.44 L 230.11,713.47 L 230.12,713.5 L 230.13,713.52 L 230.14,713.54 L 230.16,713.56 L 230.18,713.58 L 230.19,713.6 L 230.21,713.61 L 230.23,713.62 L 230.26,713.63 L 230.28,713.64 L 230.31,713.65 L 230.34,713.66 L 230.37,713.67 L 230.4,713.67 L 230.44,713.68 L 230.47,713.68 L 230.51,713.68 L 230.56,713.69 L 230.99,713.72 L 230.99,714.02 C 229.95,713.99 229.95,713.99 229.8,713.99 C 229.63,713.99 229.63,713.99 228.64,714.02 L 228.64,713.72 L 229.08,713.69 C 229.54,713.66 229.59,713.57 229.59,712.79 L 229.59,709.6 C 229.59,708.2 228.91,707.54 227.47,707.54 C 226.08,707.54 225.49,708.09 225.49,709.36 L 225.49,712.79 C 225.49,713.58 225.54,713.66 225.99,713.69 L 226.47,713.72 L 226.47,714.02 C 225.74,713.99 225.52,713.99 225.01,713.99 C 224.51,713.99 224.27,714 223.55,714.02 L 223.55,713.72 L 224.03,713.69 C 224.49,713.66 224.54,713.58 224.54,712.79 L 224.54,709.26 C 224.54,708.48 224.72,707.93 225.1,707.54 C 225.49,707.13 226.2,706.92 227.2,706.92 C 228.23,706.92 228.91,707.13 229.36,707.59 C 229.83,708.06 230.05,708.81 230.05,709.91 L 230.05,712.79 z"
   style="fill:#000000;stroke-width:0;stroke:none" />
<path
   id="path4464"
   d="M 235.26,707.09 L 235.29,707.09 L 235.32,707.1 L 235.35,707.1 L 235.37,707.1 L 235.4,707.1 L 235.42,707.1 L 235.44,707.1 L 235.47,707.1 L 235.49,707.1 L 235.51,707.1 L 235.53,707.11 L 235.55,707.11 L 235.57,707.11 L 235.59,707.11 L 235.6,707.11 L 235.62,707.11 L 235.64,707.11 L 235.65,707.11 L 235.68,707.11 L 235.71,707.11 L 235.74,707.11 L 235.76,707.12 L 235.78,707.12 L 235.8,707.12 L 235.82,707.12 L 235.84,707.12 L 235.86,707.12 L 235.87,707.12 L 235.89,707.12 L 235.9,707.12 L 235.92,707.12 L 235.94,707.12 L 235.97,707.12 L 235.99,707.12 L 236.01,707.12 L 236.02,707.12 L 236.04,707.12 L 236.05,707.12 C 236.19,707.12 236.19,707.12 236.88,707.09 L 236.88,707.39 L 236.47,707.42 C 236.13,707.44 236.1,707.5 236.1,708.14 L 236.1,710.06 C 236.1,711.23 235.55,711.79 234.44,711.79 C 234.07,711.79 233.86,711.72 233.65,711.55 L 232.89,710.89 L 232.89,711.76 L 232.8,711.79 C 232.3,711.59 231.78,711.45 231.25,711.39 L 231.25,711.11 L 231.62,711.11 C 232.02,711.11 232.06,711.04 232.06,710.38 L 232.06,708.14 C 232.06,707.51 232.03,707.44 231.69,707.42 L 231.24,707.39 L 231.24,707.09 C 231.92,707.11 232.19,707.12 232.48,707.12 C 232.76,707.12 233.03,707.11 233.71,707.09 L 233.71,707.39 L 233.26,707.42 C 232.92,707.44 232.89,707.51 232.89,708.14 L 232.89,710.25 C 232.89,710.7 233.55,711.19 234.16,711.19 C 234.83,711.19 235.26,710.69 235.26,709.92 L 235.26,707.09 z"
   style="fill:#000000;stroke-width:0;stroke:none" />
<path
   id="path4466"
   d="M 238.85,711.76 L 238.76,711.79 C 238.25,711.59 237.74,711.45 237.21,711.39 L 237.21,711.11 L 237.57,711.11 C 237.97,711.11 238.01,711.04 238.01,710.38 L 238.01,708.14 C 238.01,707.51 237.98,707.44 237.65,707.42 L 237.19,707.39 L 237.19,707.09 C 238.18,707.12 238.18,707.12 238.43,707.12 C 238.68,707.12 238.68,707.12 239.68,707.09 L 239.68,707.39 L 239.22,707.42 C 238.88,707.44 238.85,707.51 238.85,708.14 L 238.85,711.76 z"
   style="fill:#000000;stroke-width:0;stroke:none" />
<path
   id="path4468"
   d="M 238.39,713.97 L 238.36,713.97 L 238.34,713.96 L 238.31,713.96 L 238.28,713.96 L 238.26,713.95 L 238.23,713.94 L 238.2,713.93 L 238.18,713.92 L 238.15,713.91 L 238.13,713.9 L 238.11,713.88 L 238.08,713.87 L 238.06,713.85 L 238.04,713.84 L 238.02,713.82 L 238,713.8 L 237.98,713.78 L 237.96,713.76 L 237.95,713.74 L 237.93,713.72 L 237.92,713.69 L 237.9,713.67 L 237.89,713.65 L 237.88,713.62 L 237.87,713.6 L 237.86,713.57 L 237.85,713.55 L 237.85,713.52 L 237.84,713.49 L 237.84,713.46 L 237.83,713.44 L 237.83,713.41 C 237.83,713.12 238.09,712.86 238.38,712.86 C 238.67,712.86 238.94,713.12 238.94,713.41 C 238.94,713.69 238.67,713.97 238.39,713.97 z"
   style="fill:#000000;stroke-width:0;stroke:none" />
<path
   id="path4470"
   d="M 242.66,711.79 L 242.48,711.47 C 243.4,711.47 244.07,710.47 244.07,709.11 C 244.07,707.97 243.57,707.25 242.76,707.25 C 241.78,707.25 241.12,708.21 241.12,709.62 C 241.12,710.82 241.6,711.47 242.48,711.47 L 242.48,711.47 L 242.66,711.79 C 241.21,711.79 240.2,710.77 240.2,709.28 C 240.2,707.88 241.09,706.92 242.37,706.92 C 243.9,706.92 245,707.99 245,709.48 C 245,710.83 244.02,711.79 242.66,711.79 z"
   style="fill:#000000;stroke-width:0;stroke:none" />
<path
   id="path4472"
   d="M 249.4,707.09 L 249.43,707.09 L 249.46,707.1 L 249.48,707.1 L 249.51,707.1 L 249.53,707.1 L 249.56,707.1 L 249.58,707.1 L 249.6,707.1 L 249.63,707.1 L 249.65,707.1 L 249.67,707.11 L 249.69,707.11 L 249.7,707.11 L 249.72,707.11 L 249.74,707.11 L 249.76,707.11 L 249.77,707.11 L 249.79,707.11 L 249.82,707.11 L 249.85,707.11 L 249.87,707.11 L 249.9,707.12 L 249.92,707.12 L 249.94,707.12 L 249.96,707.12 L 249.98,707.12 L 250,707.12 L 250.01,707.12 L 250.03,707.12 L 250.04,707.12 L 250.05,707.12 L 250.08,707.12 L 250.11,707.12 L 250.13,707.12 L 250.15,707.12 L 250.16,707.12 L 250.17,707.12 L 250.19,707.12 C 250.33,707.12 250.33,707.12 251.02,707.09 L 251.02,707.39 L 250.61,707.42 C 250.27,707.44 250.24,707.5 250.24,708.14 L 250.24,710.06 C 250.24,711.23 249.69,711.79 248.57,711.79 C 248.21,711.79 248,711.72 247.79,711.55 L 247.03,710.89 L 247.03,711.76 L 246.94,711.79 C 246.43,711.59 245.91,711.45 245.39,711.39 L 245.39,711.11 L 245.76,711.11 C 246.15,711.11 246.19,711.04 246.19,710.38 L 246.19,708.14 C 246.19,707.51 246.16,707.44 245.83,707.42 L 245.38,707.39 L 245.38,707.09 C 246.05,707.11 246.32,707.12 246.61,707.12 C 246.9,707.12 247.17,707.11 247.85,707.09 L 247.85,707.39 L 247.4,707.42 C 247.06,707.44 247.03,707.51 247.03,708.14 L 247.03,710.25 C 247.03,710.7 247.69,711.19 248.3,711.19 C 248.96,711.19 249.4,710.69 249.4,709.92 L 249.4,707.09 z"
   style="fill:#000000;stroke-width:0;stroke:none" />
<path
   id="path4474"
   d="M 254.2,711.11 L 254.57,711.11 C 254.96,711.11 255,711.04 255,710.38 L 255,708.14 C 255,707.51 254.97,707.44 254.63,707.42 L 254.18,707.39 L 254.18,707.09 C 255.13,707.12 255.16,707.12 255.44,707.12 C 255.72,707.12 255.98,707.11 256.63,707.09 L 256.63,707.39 L 256.21,707.42 C 255.87,707.44 255.84,707.51 255.84,708.14 L 255.84,710.25 C 255.84,710.7 256.5,711.19 257.1,711.19 C 257.63,711.19 258,710.68 258,709.92 L 258,708.14 C 258,707.51 257.97,707.44 257.63,707.42 L 257.18,707.39 L 257.18,707.09 C 258.17,707.12 258.17,707.12 258.42,707.12 C 258.67,707.12 258.67,707.12 259.67,707.09 L 259.67,707.39 L 259.21,707.42 C 258.87,707.44 258.84,707.51 258.84,708.14 L 258.84,710.25 C 258.84,710.7 259.5,711.19 260.1,711.19 C 260.63,711.19 261,710.68 261,709.92 L 261,707.09 C 261.61,707.12 261.62,707.12 261.79,707.12 C 261.92,707.12 261.92,707.12 262.67,707.09 L 262.67,707.39 L 262.21,707.42 C 261.87,707.44 261.84,707.51 261.84,708.14 L 261.84,710.19 C 261.84,711.18 261.26,711.79 260.34,711.79 C 259.99,711.79 259.71,711.71 259.53,711.55 L 258.77,710.87 C 258.45,711.53 258.04,711.79 257.36,711.79 C 256.99,711.79 256.71,711.71 256.53,711.55 L 255.84,710.91 L 255.84,711.76 L 255.75,711.79 C 255.24,711.59 254.73,711.45 254.2,711.39 L 254.2,711.11 z"
   style="fill:#000000;stroke-width:0;stroke:none" />
<path
   id="path4476"
   d="M 267.17,707.82 L 267.04,707.92 C 266.4,707.54 266.17,707.45 265.74,707.45 C 265.1,707.45 264.56,707.74 264.28,708.23 C 264.09,708.56 264.02,708.84 264,709.41 L 265.45,709.41 C 266.14,709.41 266.57,709.44 267.26,709.55 C 267.27,709.69 267.28,709.78 267.28,709.9 C 267.28,711.05 266.54,711.79 265.42,711.79 L 265.31,711.47 C 265.63,711.47 265.89,711.34 266.07,711.07 C 266.29,710.74 266.36,710.45 266.39,709.78 L 266.39,709.78 C 265.87,709.76 265.63,709.75 265.28,709.75 C 264.82,709.75 264.56,709.76 264.02,709.81 C 264.02,710.28 264.06,710.5 264.19,710.76 C 264.4,711.2 264.83,711.47 265.31,711.47 L 265.42,711.79 C 265.06,711.79 264.63,711.66 264.22,711.43 C 263.4,710.96 263.07,710.34 263.07,709.3 C 263.07,708.68 263.22,708.14 263.49,707.76 C 263.89,707.23 264.56,706.92 265.31,706.92 C 265.67,706.92 266.04,707 266.45,707.18 C 266.72,707.29 266.93,707.42 266.97,707.48 L 267.17,707.82 z"
   style="fill:#000000;stroke-width:0;stroke:none" />
<path
   id="path4478"
   d="M 267.99,708.55 L 267.99,708.48 L 267.99,708.42 L 267.99,708.36 L 267.99,708.31 L 267.99,708.25 L 267.99,708.2 L 267.99,708.15 L 267.99,708.1 L 267.99,708.05 L 267.98,708 L 267.98,707.96 L 267.98,707.91 L 267.98,707.87 L 267.97,707.83 L 267.97,707.79 L 267.97,707.75 L 267.96,707.67 L 267.95,707.59 L 267.94,707.52 L 267.93,707.45 L 267.92,707.38 L 267.91,707.31 L 267.9,707.24 L 267.88,707.16 C 268.4,706.99 268.79,706.92 269.25,706.92 C 270.55,706.92 271.48,707.62 271.48,708.6 C 271.48,708.91 271.39,709.14 271.2,709.33 C 270.94,709.58 270.61,709.7 269.74,709.87 C 268.92,710.03 268.65,710.23 268.65,710.69 C 268.65,711.19 269,711.47 269.61,711.47 C 270.27,711.47 270.78,711.12 270.78,710.65 L 270.78,710.42 L 271.06,710.42 C 271.07,711 271.08,711.24 271.11,711.55 C 270.58,711.72 270.23,711.79 269.82,711.79 C 268.66,711.79 267.95,711.25 267.95,710.35 C 267.95,709.87 268.17,709.53 268.63,709.32 C 268.9,709.21 269.43,709.04 270.11,708.9 C 270.55,708.8 270.74,708.59 270.74,708.21 C 270.74,707.67 270.24,707.29 269.54,707.29 C 268.81,707.29 268.29,707.64 268.29,708.14 L 268.29,708.55 L 267.99,708.55 z"
   style="fill:#000000;stroke-width:0;stroke:none" />
<path
   id="path4480"
   d="M 271.88,713.71 L 272.43,713.71 C 272.61,713.71 272.68,713.6 272.68,713.3 L 272.68,708.14 C 272.68,707.51 272.65,707.44 272.32,707.42 L 271.87,707.39 L 271.87,707.09 C 272.55,707.11 272.81,707.12 273.1,707.12 C 273.39,707.12 273.66,707.11 274.34,707.09 L 274.34,707.39 L 273.89,707.42 C 273.55,707.44 273.52,707.51 273.52,708.14 L 273.52,710.25 C 273.52,710.7 274.18,711.19 274.79,711.19 C 275.45,711.19 275.89,710.69 275.89,709.92 L 275.89,707.09 C 276.5,707.12 276.51,707.12 276.68,707.12 C 276.82,707.12 276.82,707.12 277.51,707.09 L 277.51,707.39 L 277.1,707.42 C 276.76,707.44 276.73,707.5 276.73,708.14 L 276.73,710.06 C 276.73,711.23 276.18,711.79 275.07,711.79 C 274.7,711.79 274.49,711.72 274.28,711.55 L 273.52,710.89 L 273.52,714.28 L 273.43,714.35 C 272.99,714.19 272.66,714.11 271.88,713.99 L 271.88,713.71 z"
   style="fill:#000000;stroke-width:0;stroke:none" />
</g>  </g>
</svg>
