<?xml version="1.0" encoding="UTF-8" standalone="no"?>
<!-- Created with Inkscape (http://www.inkscape.org/) -->
<svg
   xmlns:ns0="http://www.iki.fi/pav/software/textext/"
   xmlns:dc="http://purl.org/dc/elements/1.1/"
   xmlns:cc="http://creativecommons.org/ns#"
   xmlns:rdf="http://www.w3.org/1999/02/22-rdf-syntax-ns#"
   xmlns:svg="http://www.w3.org/2000/svg"
   xmlns="http://www.w3.org/2000/svg"
   xmlns:sodipodi="http://sodipodi.sourceforge.net/DTD/sodipodi-0.dtd"
   xmlns:inkscape="http://www.inkscape.org/namespaces/inkscape"
   width="744.09448819"
   height="1052.3622047"
   id="svg2"
   sodipodi:version="0.32"
   inkscape:version="0.46"
   sodipodi:docname="operator-split1.svg"
   inkscape:output_extension="org.inkscape.output.svg.inkscape">
  <sodipodi:namedview
     id="base"
     pagecolor="#ffffff"
     bordercolor="#666666"
     borderopacity="1.0"
     gridtolerance="10000"
     guidetolerance="10"
     objecttolerance="10"
     inkscape:pageopacity="0.0"
     inkscape:pageshadow="2"
     inkscape:zoom="1.4"
     inkscape:cx="364.83766"
     inkscape:cy="812.85714"
     inkscape:document-units="px"
     inkscape:current-layer="layer1"
     showgrid="false"
     inkscape:window-width="1920"
     inkscape:window-height="1125"
     inkscape:window-x="0"
     inkscape:window-y="25">
    <inkscape:grid
       type="xygrid"
       id="grid2387" />
  </sodipodi:namedview>
  <defs
     id="defs4">
    <marker
       inkscape:stockid="Arrow1Lend"
       orient="auto"
       refY="0.0"
       refX="0.0"
       id="Arrow1Lend"
       style="overflow:visible;">
      <path
         id="path3688"
         d="M 0.0,0.0 L 5.0,-5.0 L -12.5,0.0 L 5.0,5.0 L 0.0,0.0 z "
         style="fill-rule:evenodd;stroke:#000000;stroke-width:1.0pt;marker-start:none;"
         transform="scale(0.8) rotate(180) translate(12.5,0)" />
    </marker>
    <inkscape:perspective
       sodipodi:type="inkscape:persp3d"
       inkscape:vp_x="0 : 526.18109 : 1"
       inkscape:vp_y="0 : 1000 : 0"
       inkscape:vp_z="744.09448 : 526.18109 : 1"
       inkscape:persp3d-origin="372.04724 : 350.78739 : 1"
       id="perspective10" />
  </defs>
  <metadata
     id="metadata7">
    <rdf:RDF>
      <cc:Work
         rdf:about="">
        <dc:format>image/svg+xml</dc:format>
        <dc:type
           rdf:resource="http://purl.org/dc/dcmitype/StillImage" />
      </cc:Work>
    </rdf:RDF>
  </metadata>
  <g
     inkscape:label="Layer 1"
     inkscape:groupmode="layer"
     id="layer1">
    <path
       sodipodi:type="arc"
       style="opacity:1;fill:#ffffff;fill-opacity:1;stroke:#000000;stroke-width:1.60000002;stroke-miterlimit:4;stroke-dasharray:none;stroke-dashoffset:0;stroke-opacity:1"
       id="path2383"
       sodipodi:cx="127.14286"
       sodipodi:cy="147.36218"
       sodipodi:rx="90"
       sodipodi:ry="23.571428"
       d="M 217.14286,147.36218 A 90,23.571428 0 1 1 37.14286,147.36218 A 90,23.571428 0 1 1 217.14286,147.36218 z"
       transform="translate(37.453589,0.5409707)" />
    <path
       sodipodi:type="arc"
       style="opacity:1;fill:#ffffff;fill-opacity:1;stroke:#000000;stroke-width:1.60000002;stroke-miterlimit:4;stroke-dasharray:none;stroke-dashoffset:0;stroke-opacity:1"
       id="path2385"
       sodipodi:cx="127.14286"
       sodipodi:cy="147.36218"
       sodipodi:rx="90"
       sodipodi:ry="23.571428"
       d="M 217.14286,147.36218 A 90,23.571428 0 1 1 37.14286,147.36218 A 90,23.571428 0 1 1 217.14286,147.36218 z"
       transform="translate(36.242936,96.551123)" />
    <rect
       style="opacity:1;fill:#ffffff;fill-opacity:1;stroke:#000000;stroke-width:1.60000002;stroke-miterlimit:4;stroke-dasharray:none;stroke-dashoffset:0;stroke-opacity:1"
       id="rect2389"
       width="95"
       height="30"
       x="265"
       y="72.362183" />
    <rect
       style="opacity:1;fill:#ffffff;fill-opacity:1;stroke:#000000;stroke-width:1.69571102;stroke-miterlimit:4;stroke-dasharray:none;stroke-dashoffset:0;stroke-opacity:1"
       id="rect2391"
       width="107.04715"
       height="29.904289"
       x="580.04785"
       y="72.410042" />
    <path
       sodipodi:type="arc"
       style="opacity:1;fill:#000000;fill-opacity:0.27354261;stroke:#000000;stroke-width:1.60000001999999997;stroke-miterlimit:4;stroke-dasharray:none;stroke-dashoffset:0;stroke-opacity:1"
       id="path2393"
       sodipodi:cx="315"
       sodipodi:cy="152.36218"
       sodipodi:rx="10"
       sodipodi:ry="10"
       d="M 325,152.36218 A 10,10 0 1 1 305,152.36218 A 10,10 0 1 1 325,152.36218 z"
       transform="translate(0,-5)" />
    <path
       sodipodi:type="arc"
       style="opacity:1;fill:#000000;fill-opacity:0.27450982;stroke:#000000;stroke-width:1.60000001999999997;stroke-miterlimit:4;stroke-dasharray:none;stroke-dashoffset:0;stroke-opacity:1"
       id="path2395"
       sodipodi:cx="315"
       sodipodi:cy="152.36218"
       sodipodi:rx="10"
       sodipodi:ry="10"
       d="M 325,152.36218 A 10,10 0 1 1 305,152.36218 A 10,10 0 1 1 325,152.36218 z"
       transform="translate(0,90)" />
    <path
       sodipodi:type="arc"
       style="opacity:1;fill:#000000;fill-opacity:0.27450982;stroke:#000000;stroke-width:1.60000001999999997;stroke-miterlimit:4;stroke-dasharray:none;stroke-dashoffset:0;stroke-opacity:1"
       id="path2397"
       sodipodi:cx="315"
       sodipodi:cy="152.36218"
       sodipodi:rx="10"
       sodipodi:ry="10"
       d="M 325,152.36218 A 10,10 0 1 1 305,152.36218 A 10,10 0 1 1 325,152.36218 z"
       transform="translate(315,-5)" />
    <path
       sodipodi:type="arc"
       style="opacity:1;fill:#000000;fill-opacity:0.27450982;stroke:#000000;stroke-width:1.60000001999999997;stroke-miterlimit:4;stroke-dasharray:none;stroke-dashoffset:0;stroke-opacity:1"
       id="path2399"
       sodipodi:cx="315"
       sodipodi:cy="152.36218"
       sodipodi:rx="10"
       sodipodi:ry="10"
       d="M 325,152.36218 A 10,10 0 1 1 305,152.36218 A 10,10 0 1 1 325,152.36218 z"
       transform="translate(315,90)" />
    <path
       style="fill:none;fill-rule:evenodd;stroke:#000000;stroke-width:1px;stroke-linecap:butt;stroke-linejoin:miter;stroke-opacity:1;marker-end:url(#Arrow1Lend)"
       d="M 325,147.36218 L 620,147.36218"
       id="path2401" />
    <path
       style="fill:none;fill-rule:evenodd;stroke:#000000;stroke-width:1px;stroke-linecap:butt;stroke-linejoin:miter;marker-end:url(#Arrow1Lend);stroke-opacity:1"
       d="M 325,242.36218 L 620,242.36218"
       id="path4462" />
    <path
       style="fill:none;fill-rule:evenodd;stroke:#000000;stroke-width:1px;stroke-linecap:butt;stroke-linejoin:miter;stroke-opacity:1;marker-end:url(#Arrow1Lend)"
       d="M 325,147.36218 L 620,242.36218"
       id="path4464" />
    <path
       style="fill:none;fill-rule:evenodd;stroke:#000000;stroke-width:1px;stroke-linecap:butt;stroke-linejoin:miter;stroke-opacity:1;marker-end:url(#Arrow1Lend)"
       d="M 325,242.36218 L 620,147.36218"
       id="path5496" />
    <text
       xml:space="preserve"
       style="font-size:16px;font-style:normal;font-weight:normal;fill:#000000;fill-opacity:1;stroke:none;stroke-width:1px;stroke-linecap:butt;stroke-linejoin:miter;stroke-opacity:1;font-family:Bitstream Vera Sans"
       x="701.80347"
       y="103.07133"
       id="text6061"><tspan
         sodipodi:role="line"
         id="tspan6063" /></text>
    <g
       style="font-style:normal;font-variant:normal;font-weight:normal;font-stretch:normal;letter-spacing:normal;word-spacing:normal;text-anchor:start;fill:none;fill-opacity:1;stroke:none;stroke-linecap:butt;stroke-linejoin:miter;stroke-miterlimit:10.43299960999999954;stroke-dasharray:none;stroke-dashoffset:0;stroke-opacity:1"
       id="content"
       transform="matrix(1.5,0,0,-1.5,-208.33929,1212.8571)"
       xml:space="preserve"
       stroke-miterlimit="10.433"
       fill-rule="even-odd"
       font-style="normal"
       font-variant="normal"
       font-weight="normal"
       font-stretch="normal"
       font-size-adjust="none"
       letter-spacing="normal"
       word-spacing="normal"
       ns0:text="PHYSICS 1"
       ns0:preamble="/home/lenka/Documents/textext-preamble.tex">
<path
   style="fill:#000000;stroke-width:0;stroke:none"
   d="M 225.58,713.52 L 225.65,713.53 L 225.71,713.55 L 225.77,713.56 L 225.84,713.57 L 225.9,713.58 L 225.96,713.59 L 226.02,713.6 L 226.08,713.61 L 226.14,713.62 L 226.19,713.62 L 226.25,713.63 L 226.31,713.63 L 226.37,713.63 L 226.44,713.64 L 226.5,713.64 L 226.56,713.64 C 227.64,713.64 228.21,713.14 228.21,712.19 C 228.21,711.3 227.61,710.67 226.74,710.67 C 226.53,710.67 226.38,710.69 226.12,710.77 L 226.22,710.41 C 226.46,710.36 226.6,710.35 226.8,710.35 C 228.16,710.35 229.21,711.28 229.21,712.47 C 229.21,713.43 228.43,714.02 227.17,714.02 C 227.12,714.02 227.02,714.02 226.89,714.01 C 226.52,714 225.76,713.99 225.48,713.99 C 225.26,713.99 225.26,713.99 223.66,714.02 L 223.66,713.72 L 224.11,713.69 C 224.56,713.66 224.64,713.53 224.64,712.79 L 224.64,708.32 C 224.64,707.53 224.59,707.45 224.13,707.42 L 223.65,707.39 L 223.65,707.09 C 224.24,707.11 224.59,707.12 225.11,707.12 C 225.62,707.12 225.98,707.11 226.57,707.09 L 226.57,707.39 L 226.09,707.42 C 225.63,707.45 225.58,707.53 225.58,708.32 L 225.58,713.52 z"
   id="path2452" />
<path
   style="fill:#000000;stroke-width:0;stroke:none"
   d="M 235.58,708.32 L 235.58,708.28 L 235.58,708.25 L 235.58,708.21 L 235.58,708.18 L 235.58,708.15 L 235.58,708.11 L 235.58,708.08 L 235.58,708.05 L 235.58,708.03 L 235.58,708 L 235.58,707.97 L 235.58,707.95 L 235.57,707.92 L 235.57,707.9 L 235.57,707.87 L 235.57,707.85 L 235.57,707.83 L 235.56,707.81 L 235.56,707.79 L 235.56,707.77 L 235.55,707.73 L 235.54,707.7 L 235.54,707.66 L 235.53,707.64 L 235.51,707.61 L 235.5,707.59 L 235.49,707.56 L 235.47,707.54 L 235.46,707.53 L 235.44,707.51 L 235.42,707.5 L 235.4,707.48 L 235.37,707.47 L 235.35,707.46 L 235.32,707.45 L 235.29,707.45 L 235.26,707.44 L 235.23,707.44 L 235.19,707.43 L 235.16,707.43 L 235.12,707.42 L 235.08,707.42 L 234.6,707.39 L 234.6,707.09 C 235.19,707.11 235.54,707.12 236.05,707.12 C 236.57,707.12 236.93,707.11 237.52,707.09 L 237.52,707.39 L 237.04,707.42 C 236.58,707.45 236.53,707.53 236.53,708.32 L 236.53,712.79 C 236.53,713.58 236.58,713.66 237.04,713.69 L 237.52,713.72 L 237.52,714.02 C 236.79,713.99 236.57,713.99 236.05,713.99 C 235.55,713.99 235.32,714 234.6,714.02 L 234.6,713.72 L 235.08,713.69 C 235.54,713.66 235.58,713.58 235.58,712.79 L 235.58,711.02 C 235.38,711.01 235.17,711 234.76,711 L 232.43,711 C 232.02,711 231.8,711.01 231.6,711.02 L 231.6,712.79 C 231.6,713.58 231.65,713.66 232.11,713.69 L 232.59,713.72 L 232.59,714.02 C 231.86,713.99 231.64,713.99 231.12,713.99 C 230.62,713.99 230.38,714 229.67,714.02 L 229.67,713.72 L 230.15,713.69 C 230.6,713.66 230.65,713.58 230.65,712.79 L 230.65,708.32 C 230.65,707.53 230.6,707.45 230.15,707.42 L 229.67,707.39 L 229.67,707.09 C 230.25,707.11 230.6,707.12 231.12,707.12 C 231.64,707.12 232,707.11 232.59,707.09 L 232.59,707.39 L 232.11,707.42 C 231.65,707.45 231.6,707.53 231.6,708.32 L 231.6,710.54 C 231.87,710.56 232.03,710.56 232.43,710.56 L 234.76,710.56 C 235.16,710.56 235.32,710.56 235.58,710.54 L 235.58,708.32 z"
   id="path2454" />
<path
   style="fill:#000000;stroke-width:0;stroke:none"
   d="M 237.82,713.9 L 237.82,713.61 L 238.11,713.58 C 238.45,713.53 238.97,713.01 239.39,712.28 L 240.62,710.13 C 240.68,710.03 240.71,709.89 240.71,709.73 L 240.71,708.32 C 240.71,707.53 240.66,707.45 240.21,707.42 L 239.73,707.39 L 239.73,707.09 C 240.32,707.11 240.66,707.12 241.18,707.12 C 241.7,707.12 242.06,707.11 242.65,707.09 L 242.65,707.39 L 242.17,707.42 C 241.71,707.45 241.66,707.53 241.66,708.32 L 241.66,709.6 C 241.66,710.15 241.8,710.49 242.38,711.37 C 243.12,712.47 243.44,712.92 244.25,713.89 L 244.25,714.04 L 243.45,714.04 C 243.07,713.3 242.77,712.76 242.38,712.14 L 241.35,710.52 L 239.93,713.12 C 239.61,713.7 239.2,714.16 239.02,714.15 C 239.02,714.15 239,714.15 238.97,714.14 L 237.82,713.9 z"
   id="path2456" />
<path
   style="fill:#000000;stroke-width:0;stroke:none"
   d="M 248.83,712.36 L 248.83,712.41 L 248.83,712.46 L 248.83,712.55 L 248.84,712.64 L 248.84,712.73 L 248.85,712.81 L 248.85,712.9 L 248.86,712.98 L 248.87,713.06 L 248.87,713.14 L 248.88,713.23 L 248.9,713.31 L 248.91,713.4 L 248.92,713.48 L 248.94,713.57 L 248.95,713.62 L 248.95,713.67 L 248.96,713.72 L 248.97,713.77 C 248.18,714.09 247.73,714.19 247.18,714.19 C 245.7,714.19 244.62,713.25 244.62,711.94 C 244.62,711.46 244.75,711.1 245.04,710.83 C 245.38,710.52 245.84,710.36 246.8,710.23 C 247.57,710.12 247.92,710.01 248.18,709.78 C 248.43,709.57 248.55,709.28 248.55,708.91 C 248.55,708.01 247.81,707.36 246.77,707.36 C 245.97,707.36 245.2,707.75 245.15,708.16 L 245.07,708.83 L 244.75,708.83 C 244.76,708.65 244.76,708.49 244.76,708.43 C 244.76,707.97 244.74,707.75 244.68,707.3 C 245.25,707.05 245.82,706.92 246.4,706.92 C 248.14,706.92 249.39,707.97 249.39,709.41 C 249.39,709.88 249.26,710.21 248.98,710.47 C 248.63,710.8 248.22,710.93 247.1,711.08 C 245.88,711.24 245.46,711.57 245.46,712.33 C 245.46,713.17 246.08,713.77 246.96,713.77 C 247.35,713.77 247.72,713.69 247.99,713.54 C 248.32,713.37 248.43,713.22 248.46,712.93 L 248.51,712.36 L 248.83,712.36 z"
   id="path2458" />
<path
   style="fill:#000000;stroke-width:0;stroke:none"
   d="M 251.77,712.79 L 251.77,712.83 L 251.77,712.86 L 251.77,712.9 L 251.77,712.93 L 251.77,712.96 L 251.77,712.99 L 251.77,713.02 L 251.77,713.05 L 251.77,713.08 L 251.77,713.11 L 251.77,713.14 L 251.77,713.16 L 251.78,713.19 L 251.78,713.21 L 251.78,713.24 L 251.78,713.26 L 251.78,713.28 L 251.79,713.3 L 251.79,713.32 L 251.79,713.34 L 251.8,713.38 L 251.81,713.41 L 251.82,713.44 L 251.83,713.47 L 251.84,713.5 L 251.85,713.52 L 251.86,713.55 L 251.88,713.56 L 251.89,713.58 L 251.91,713.6 L 251.93,713.61 L 251.95,713.63 L 251.98,713.64 L 252,713.65 L 252.03,713.65 L 252.06,713.66 L 252.09,713.67 L 252.12,713.67 L 252.16,713.68 L 252.19,713.68 L 252.23,713.69 L 252.27,713.69 L 252.75,713.72 L 252.75,714.02 C 252.03,713.99 251.81,713.99 251.29,713.99 C 250.79,713.99 250.55,714 249.83,714.02 L 249.83,713.72 L 250.31,713.69 C 250.77,713.66 250.82,713.58 250.82,712.79 L 250.82,708.32 C 250.82,707.53 250.77,707.45 250.31,707.42 L 249.83,707.39 L 249.83,707.09 C 250.42,707.11 250.77,707.12 251.29,707.12 C 251.81,707.12 252.16,707.11 252.75,707.09 L 252.75,707.39 L 252.27,707.42 C 251.82,707.45 251.77,707.53 251.77,708.32 L 251.77,712.79 z"
   id="path2460" />
<path
   style="fill:#000000;stroke-width:0;stroke:none"
   d="M 259.64,707.96 L 259.55,708.06 C 258.93,707.66 258.25,707.46 257.49,707.46 C 255.55,707.46 254.25,708.76 254.25,710.72 C 254.25,712.55 255.39,713.77 257.1,713.77 C 258.08,713.77 259.08,713.37 259.08,712.98 L 259.08,712.26 L 259.39,712.26 C 259.4,712.76 259.44,713.12 259.58,713.78 C 258.74,714.06 258.01,714.19 257.28,714.19 C 256.42,714.19 255.59,713.98 254.92,713.59 C 253.78,712.92 253.19,711.88 253.19,710.53 C 253.19,708.38 254.76,706.92 257.1,706.92 C 257.93,706.92 258.68,707.1 259.36,707.46 L 259.64,707.96 z"
   id="path2462" />
<path
   style="fill:#000000;stroke-width:0;stroke:none"
   d="M 264.49,712.36 L 264.49,712.41 L 264.49,712.46 L 264.49,712.55 L 264.49,712.64 L 264.49,712.73 L 264.5,712.81 L 264.5,712.9 L 264.51,712.98 L 264.52,713.06 L 264.53,713.14 L 264.54,713.23 L 264.55,713.31 L 264.56,713.4 L 264.58,713.48 L 264.59,713.57 L 264.6,713.62 L 264.61,713.67 L 264.62,713.72 L 264.62,713.77 C 263.83,714.09 263.38,714.19 262.83,714.19 C 261.35,714.19 260.27,713.25 260.27,711.94 C 260.27,711.46 260.4,711.1 260.69,710.83 C 261.03,710.52 261.49,710.36 262.45,710.23 C 263.22,710.12 263.57,710.01 263.83,709.78 C 264.09,709.57 264.21,709.28 264.21,708.91 C 264.21,708.01 263.46,707.36 262.42,707.36 C 261.63,707.36 260.85,707.75 260.8,708.16 L 260.72,708.83 L 260.4,708.83 C 260.41,708.65 260.41,708.49 260.41,708.43 C 260.41,707.97 260.39,707.75 260.33,707.3 C 260.9,707.05 261.48,706.92 262.05,706.92 C 263.79,706.92 265.04,707.97 265.04,709.41 C 265.04,709.88 264.91,710.21 264.64,710.47 C 264.29,710.8 263.87,710.93 262.75,711.08 C 261.54,711.24 261.11,711.57 261.11,712.33 C 261.11,713.17 261.74,713.77 262.61,713.77 C 263,713.77 263.37,713.69 263.64,713.54 C 263.97,713.37 264.08,713.22 264.11,712.93 L 264.17,712.36 L 264.49,712.36 z"
   id="path2464" />
<path
   style="fill:#000000;stroke-width:0;stroke:none"
   d="M 268.83,712.65 L 268.93,712.65 L 270.21,713.23 C 270.23,713.24 270.23,713.24 270.24,713.24 C 270.3,713.24 270.32,713.15 270.32,712.91 L 270.32,708.08 C 270.32,707.56 270.21,707.45 269.68,707.42 L 269.12,707.39 L 269.12,707.09 C 270.65,707.12 270.65,707.12 270.76,707.12 C 270.89,707.12 271.11,707.12 271.45,707.11 C 271.57,707.1 271.92,707.1 272.33,707.09 L 272.33,707.39 L 271.81,707.42 C 271.26,707.45 271.16,707.56 271.16,708.08 L 271.16,713.99 L 271.02,714.04 C 270.37,713.7 269.67,713.4 268.76,713.08 L 268.83,712.65 z"
   id="path2466" />
</g>    <g
       ns0:preamble="/home/lenka/Documents/textext-preamble.tex"
       ns0:text="PHYSICS 2"
       word-spacing="normal"
       letter-spacing="normal"
       font-size-adjust="none"
       font-stretch="normal"
       font-weight="normal"
       font-variant="normal"
       font-style="normal"
       fill-rule="even-odd"
       stroke-miterlimit="10.433"
       xml:space="preserve"
       transform="matrix(1.5,0,0,-1.5,-208.71429,1308.5714)"
       id="g2558"
       style="font-style:normal;font-variant:normal;font-weight:normal;font-stretch:normal;letter-spacing:normal;word-spacing:normal;text-anchor:start;fill:none;fill-opacity:1;stroke:none;stroke-linecap:butt;stroke-linejoin:miter;stroke-miterlimit:10.43299960999999954;stroke-dasharray:none;stroke-dashoffset:0;stroke-opacity:1">
<path
   id="path2560"
   d="M 225.58,713.52 L 225.65,713.53 L 225.71,713.55 L 225.77,713.56 L 225.84,713.57 L 225.9,713.58 L 225.96,713.59 L 226.02,713.6 L 226.08,713.61 L 226.14,713.62 L 226.19,713.62 L 226.25,713.63 L 226.31,713.63 L 226.37,713.63 L 226.44,713.64 L 226.5,713.64 L 226.56,713.64 C 227.64,713.64 228.21,713.14 228.21,712.19 C 228.21,711.3 227.61,710.67 226.74,710.67 C 226.53,710.67 226.38,710.69 226.12,710.77 L 226.22,710.41 C 226.46,710.36 226.6,710.35 226.8,710.35 C 228.16,710.35 229.21,711.28 229.21,712.47 C 229.21,713.43 228.43,714.02 227.17,714.02 C 227.12,714.02 227.02,714.02 226.89,714.01 C 226.52,714 225.76,713.99 225.48,713.99 C 225.26,713.99 225.26,713.99 223.66,714.02 L 223.66,713.72 L 224.11,713.69 C 224.56,713.66 224.64,713.53 224.64,712.79 L 224.64,708.32 C 224.64,707.53 224.59,707.45 224.13,707.42 L 223.65,707.39 L 223.65,707.09 C 224.24,707.11 224.59,707.12 225.11,707.12 C 225.62,707.12 225.98,707.11 226.57,707.09 L 226.57,707.39 L 226.09,707.42 C 225.63,707.45 225.58,707.53 225.58,708.32 L 225.58,713.52 z"
   style="fill:#000000;stroke-width:0;stroke:none" />
<path
   id="path2562"
   d="M 235.58,708.32 L 235.58,708.28 L 235.58,708.25 L 235.58,708.21 L 235.58,708.18 L 235.58,708.15 L 235.58,708.11 L 235.58,708.08 L 235.58,708.05 L 235.58,708.03 L 235.58,708 L 235.58,707.97 L 235.58,707.95 L 235.57,707.92 L 235.57,707.9 L 235.57,707.87 L 235.57,707.85 L 235.57,707.83 L 235.56,707.81 L 235.56,707.79 L 235.56,707.77 L 235.55,707.73 L 235.54,707.7 L 235.54,707.66 L 235.53,707.64 L 235.51,707.61 L 235.5,707.59 L 235.49,707.56 L 235.47,707.54 L 235.46,707.53 L 235.44,707.51 L 235.42,707.5 L 235.4,707.48 L 235.37,707.47 L 235.35,707.46 L 235.32,707.45 L 235.29,707.45 L 235.26,707.44 L 235.23,707.44 L 235.19,707.43 L 235.16,707.43 L 235.12,707.42 L 235.08,707.42 L 234.6,707.39 L 234.6,707.09 C 235.19,707.11 235.54,707.12 236.05,707.12 C 236.57,707.12 236.93,707.11 237.52,707.09 L 237.52,707.39 L 237.04,707.42 C 236.58,707.45 236.53,707.53 236.53,708.32 L 236.53,712.79 C 236.53,713.58 236.58,713.66 237.04,713.69 L 237.52,713.72 L 237.52,714.02 C 236.79,713.99 236.57,713.99 236.05,713.99 C 235.55,713.99 235.32,714 234.6,714.02 L 234.6,713.72 L 235.08,713.69 C 235.54,713.66 235.58,713.58 235.58,712.79 L 235.58,711.02 C 235.38,711.01 235.17,711 234.76,711 L 232.43,711 C 232.02,711 231.8,711.01 231.6,711.02 L 231.6,712.79 C 231.6,713.58 231.65,713.66 232.11,713.69 L 232.59,713.72 L 232.59,714.02 C 231.86,713.99 231.64,713.99 231.12,713.99 C 230.62,713.99 230.38,714 229.67,714.02 L 229.67,713.72 L 230.15,713.69 C 230.6,713.66 230.65,713.58 230.65,712.79 L 230.65,708.32 C 230.65,707.53 230.6,707.45 230.15,707.42 L 229.67,707.39 L 229.67,707.09 C 230.25,707.11 230.6,707.12 231.12,707.12 C 231.64,707.12 232,707.11 232.59,707.09 L 232.59,707.39 L 232.11,707.42 C 231.65,707.45 231.6,707.53 231.6,708.32 L 231.6,710.54 C 231.87,710.56 232.03,710.56 232.43,710.56 L 234.76,710.56 C 235.16,710.56 235.32,710.56 235.58,710.54 L 235.58,708.32 z"
   style="fill:#000000;stroke-width:0;stroke:none" />
<path
   id="path2564"
   d="M 237.82,713.9 L 237.82,713.61 L 238.11,713.58 C 238.45,713.53 238.97,713.01 239.39,712.28 L 240.62,710.13 C 240.68,710.03 240.71,709.89 240.71,709.73 L 240.71,708.32 C 240.71,707.53 240.66,707.45 240.21,707.42 L 239.73,707.39 L 239.73,707.09 C 240.32,707.11 240.66,707.12 241.18,707.12 C 241.7,707.12 242.06,707.11 242.65,707.09 L 242.65,707.39 L 242.17,707.42 C 241.71,707.45 241.66,707.53 241.66,708.32 L 241.66,709.6 C 241.66,710.15 241.8,710.49 242.38,711.37 C 243.12,712.47 243.44,712.92 244.25,713.89 L 244.25,714.04 L 243.45,714.04 C 243.07,713.3 242.77,712.76 242.38,712.14 L 241.35,710.52 L 239.93,713.12 C 239.61,713.7 239.2,714.16 239.02,714.15 C 239.02,714.15 239,714.15 238.97,714.14 L 237.82,713.9 z"
   style="fill:#000000;stroke-width:0;stroke:none" />
<path
   id="path2566"
   d="M 248.83,712.36 L 248.83,712.41 L 248.83,712.46 L 248.83,712.55 L 248.84,712.64 L 248.84,712.73 L 248.85,712.81 L 248.85,712.9 L 248.86,712.98 L 248.87,713.06 L 248.87,713.14 L 248.88,713.23 L 248.9,713.31 L 248.91,713.4 L 248.92,713.48 L 248.94,713.57 L 248.95,713.62 L 248.95,713.67 L 248.96,713.72 L 248.97,713.77 C 248.18,714.09 247.73,714.19 247.18,714.19 C 245.7,714.19 244.62,713.25 244.62,711.94 C 244.62,711.46 244.75,711.1 245.04,710.83 C 245.38,710.52 245.84,710.36 246.8,710.23 C 247.57,710.12 247.92,710.01 248.18,709.78 C 248.43,709.57 248.55,709.28 248.55,708.91 C 248.55,708.01 247.81,707.36 246.77,707.36 C 245.97,707.36 245.2,707.75 245.15,708.16 L 245.07,708.83 L 244.75,708.83 C 244.76,708.65 244.76,708.49 244.76,708.43 C 244.76,707.97 244.74,707.75 244.68,707.3 C 245.25,707.05 245.82,706.92 246.4,706.92 C 248.14,706.92 249.39,707.97 249.39,709.41 C 249.39,709.88 249.26,710.21 248.98,710.47 C 248.63,710.8 248.22,710.93 247.1,711.08 C 245.88,711.24 245.46,711.57 245.46,712.33 C 245.46,713.17 246.08,713.77 246.96,713.77 C 247.35,713.77 247.72,713.69 247.99,713.54 C 248.32,713.37 248.43,713.22 248.46,712.93 L 248.51,712.36 L 248.83,712.36 z"
   style="fill:#000000;stroke-width:0;stroke:none" />
<path
   id="path2568"
   d="M 251.77,712.79 L 251.77,712.83 L 251.77,712.86 L 251.77,712.9 L 251.77,712.93 L 251.77,712.96 L 251.77,712.99 L 251.77,713.02 L 251.77,713.05 L 251.77,713.08 L 251.77,713.11 L 251.77,713.14 L 251.77,713.16 L 251.78,713.19 L 251.78,713.21 L 251.78,713.24 L 251.78,713.26 L 251.78,713.28 L 251.79,713.3 L 251.79,713.32 L 251.79,713.34 L 251.8,713.38 L 251.81,713.41 L 251.82,713.44 L 251.83,713.47 L 251.84,713.5 L 251.85,713.52 L 251.86,713.55 L 251.88,713.56 L 251.89,713.58 L 251.91,713.6 L 251.93,713.61 L 251.95,713.63 L 251.98,713.64 L 252,713.65 L 252.03,713.65 L 252.06,713.66 L 252.09,713.67 L 252.12,713.67 L 252.16,713.68 L 252.19,713.68 L 252.23,713.69 L 252.27,713.69 L 252.75,713.72 L 252.75,714.02 C 252.03,713.99 251.81,713.99 251.29,713.99 C 250.79,713.99 250.55,714 249.83,714.02 L 249.83,713.72 L 250.31,713.69 C 250.77,713.66 250.82,713.58 250.82,712.79 L 250.82,708.32 C 250.82,707.53 250.77,707.45 250.31,707.42 L 249.83,707.39 L 249.83,707.09 C 250.42,707.11 250.77,707.12 251.29,707.12 C 251.81,707.12 252.16,707.11 252.75,707.09 L 252.75,707.39 L 252.27,707.42 C 251.82,707.45 251.77,707.53 251.77,708.32 L 251.77,712.79 z"
   style="fill:#000000;stroke-width:0;stroke:none" />
<path
   id="path2570"
   d="M 259.64,707.96 L 259.55,708.06 C 258.93,707.66 258.25,707.46 257.49,707.46 C 255.55,707.46 254.25,708.76 254.25,710.72 C 254.25,712.55 255.39,713.77 257.1,713.77 C 258.08,713.77 259.08,713.37 259.08,712.98 L 259.08,712.26 L 259.39,712.26 C 259.4,712.76 259.44,713.12 259.58,713.78 C 258.74,714.06 258.01,714.19 257.28,714.19 C 256.42,714.19 255.59,713.98 254.92,713.59 C 253.78,712.92 253.19,711.88 253.19,710.53 C 253.19,708.38 254.76,706.92 257.1,706.92 C 257.93,706.92 258.68,707.1 259.36,707.46 L 259.64,707.96 z"
   style="fill:#000000;stroke-width:0;stroke:none" />
<path
   id="path2572"
   d="M 264.49,712.36 L 264.49,712.41 L 264.49,712.46 L 264.49,712.55 L 264.49,712.64 L 264.49,712.73 L 264.5,712.81 L 264.5,712.9 L 264.51,712.98 L 264.52,713.06 L 264.53,713.14 L 264.54,713.23 L 264.55,713.31 L 264.56,713.4 L 264.58,713.48 L 264.59,713.57 L 264.6,713.62 L 264.61,713.67 L 264.62,713.72 L 264.62,713.77 C 263.83,714.09 263.38,714.19 262.83,714.19 C 261.35,714.19 260.27,713.25 260.27,711.94 C 260.27,711.46 260.4,711.1 260.69,710.83 C 261.03,710.52 261.49,710.36 262.45,710.23 C 263.22,710.12 263.57,710.01 263.83,709.78 C 264.09,709.57 264.21,709.28 264.21,708.91 C 264.21,708.01 263.46,707.36 262.42,707.36 C 261.63,707.36 260.85,707.75 260.8,708.16 L 260.72,708.83 L 260.4,708.83 C 260.41,708.65 260.41,708.49 260.41,708.43 C 260.41,707.97 260.39,707.75 260.33,707.3 C 260.9,707.05 261.48,706.92 262.05,706.92 C 263.79,706.92 265.04,707.97 265.04,709.41 C 265.04,709.88 264.91,710.21 264.64,710.47 C 264.29,710.8 263.87,710.93 262.75,711.08 C 261.54,711.24 261.11,711.57 261.11,712.33 C 261.11,713.17 261.74,713.77 262.61,713.77 C 263,713.77 263.37,713.69 263.64,713.54 C 263.97,713.37 264.08,713.22 264.11,712.93 L 264.17,712.36 L 264.49,712.36 z"
   style="fill:#000000;stroke-width:0;stroke:none" />
<path
   id="path2574"
   d="M 268.32,707.35 L 268.32,707.09 C 270.18,707.12 270.18,707.12 270.54,707.12 C 270.9,707.12 270.9,707.12 272.83,707.09 C 272.8,707.3 272.8,707.4 272.8,707.54 C 272.8,707.67 272.8,707.77 272.83,707.99 C 271.68,707.94 271.22,707.93 269.38,707.89 L 271.19,709.81 C 272.16,710.84 272.46,711.39 272.46,712.13 C 272.46,713.28 271.68,713.99 270.41,713.99 C 269.7,713.99 269.21,713.79 268.72,713.29 L 268.55,711.93 L 268.84,711.93 L 268.97,712.39 C 269.13,712.97 269.49,713.22 270.15,713.22 C 271.01,713.22 271.56,712.68 271.56,711.84 C 271.56,711.09 271.14,710.35 270.02,709.16 L 268.32,707.35 z"
   style="fill:#000000;stroke-width:0;stroke:none" />
</g>    <g
       id="g2680"
       transform="matrix(1.5,0,0,-1.5,-62.857143,1152.1429)"
       xml:space="preserve"
       stroke-miterlimit="10.433"
       fill-rule="even-odd"
       font-style="normal"
       font-variant="normal"
       font-weight="normal"
       font-stretch="normal"
       font-size-adjust="none"
       letter-spacing="normal"
       word-spacing="normal"
       ns0:text="time level $t_n$"
       ns0:preamble="/home/lenka/Documents/textext-preamble.tex"
       style="font-style:normal;font-variant:normal;font-weight:normal;font-stretch:normal;letter-spacing:normal;word-spacing:normal;text-anchor:start;fill:none;fill-opacity:1;stroke:none;stroke-linecap:butt;stroke-linejoin:miter;stroke-miterlimit:10.43299960999999954;stroke-dasharray:none;stroke-dashoffset:0;stroke-opacity:1">
<path
   d="M 224.41,710.93 L 224.41,708.06 C 224.41,707.32 224.74,707 225.51,707 C 225.73,707 225.97,707.05 226.03,707.12 L 226.51,707.65 L 226.38,707.82 C 226.13,707.68 225.98,707.63 225.79,707.63 C 225.4,707.63 225.25,707.83 225.25,708.32 L 225.25,710.93 L 226.52,710.93 L 226.61,711.47 L 225.25,711.41 L 225.25,711.78 C 225.25,712.2 225.28,712.56 225.35,713.2 L 225.24,713.31 C 225,713.16 224.7,713.03 224.39,712.93 C 224.42,712.63 224.43,712.44 224.43,712.14 L 224.43,711.45 L 223.65,711.1 L 223.65,710.89 L 224.41,710.93 z"
   id="path2682"
   style="fill:#000000;stroke-width:0;stroke:none" />
<path
   d="M 228.55,711.76 L 228.46,711.79 C 227.96,711.59 227.44,711.45 226.91,711.39 L 226.91,711.11 L 227.28,711.11 C 227.68,711.11 227.72,711.04 227.72,710.38 L 227.72,708.14 C 227.72,707.51 227.69,707.44 227.35,707.42 L 226.89,707.39 L 226.89,707.09 C 227.88,707.12 227.88,707.12 228.13,707.12 C 228.38,707.12 228.38,707.12 229.38,707.09 L 229.38,707.39 L 228.92,707.42 C 228.58,707.44 228.55,707.51 228.55,708.14 L 228.55,711.76 z"
   id="path2684"
   style="fill:#000000;stroke-width:0;stroke:none" />
<path
   d="M 228.1,713.97 L 228.07,713.97 L 228.04,713.96 L 228.01,713.96 L 227.99,713.96 L 227.96,713.95 L 227.93,713.94 L 227.91,713.93 L 227.88,713.92 L 227.86,713.91 L 227.83,713.9 L 227.81,713.88 L 227.79,713.87 L 227.77,713.85 L 227.74,713.84 L 227.72,713.82 L 227.7,713.8 L 227.69,713.78 L 227.67,713.76 L 227.65,713.74 L 227.63,713.72 L 227.62,713.69 L 227.61,713.67 L 227.59,713.65 L 227.58,713.62 L 227.57,713.6 L 227.56,713.57 L 227.56,713.55 L 227.55,713.52 L 227.54,713.49 L 227.54,713.46 L 227.54,713.44 L 227.54,713.41 C 227.54,713.12 227.8,712.86 228.09,712.86 C 228.37,712.86 228.64,713.12 228.64,713.41 C 228.64,713.69 228.37,713.97 228.1,713.97 z"
   id="path2686"
   style="fill:#000000;stroke-width:0;stroke:none" />
<path
   d="M 229.76,711.11 L 230.13,711.11 C 230.53,711.11 230.57,711.04 230.57,710.38 L 230.57,708.14 C 230.57,707.51 230.54,707.44 230.2,707.42 L 229.74,707.39 L 229.74,707.09 C 230.7,707.12 230.73,707.12 231.01,707.12 C 231.29,707.12 231.54,707.11 232.19,707.09 L 232.19,707.39 L 231.77,707.42 C 231.44,707.44 231.41,707.51 231.41,708.14 L 231.41,710.25 C 231.41,710.7 232.06,711.19 232.66,711.19 C 233.2,711.19 233.57,710.68 233.57,709.92 L 233.57,708.14 C 233.57,707.51 233.54,707.44 233.2,707.42 L 232.74,707.39 L 232.74,707.09 C 233.74,707.12 233.74,707.12 233.99,707.12 C 234.24,707.12 234.24,707.12 235.23,707.09 L 235.23,707.39 L 234.77,707.42 C 234.43,707.44 234.4,707.51 234.4,708.14 L 234.4,710.25 C 234.4,710.7 235.06,711.19 235.66,711.19 C 236.2,711.19 236.57,710.68 236.57,709.92 L 236.57,707.09 C 237.17,707.12 237.18,707.12 237.35,707.12 C 237.48,707.12 237.48,707.12 238.24,707.09 L 238.24,707.39 L 237.77,707.42 C 237.43,707.44 237.4,707.51 237.4,708.14 L 237.4,710.19 C 237.4,711.18 236.82,711.79 235.91,711.79 C 235.56,711.79 235.27,711.71 235.09,711.55 L 234.34,710.87 C 234.02,711.53 233.61,711.79 232.92,711.79 C 232.55,711.79 232.27,711.71 232.09,711.55 L 231.41,710.91 L 231.41,711.76 L 231.32,711.79 C 230.81,711.59 230.29,711.45 229.76,711.39 L 229.76,711.11 z"
   id="path2688"
   style="fill:#000000;stroke-width:0;stroke:none" />
<path
   d="M 242.73,707.82 L 242.6,707.92 C 241.96,707.54 241.73,707.45 241.3,707.45 C 240.65,707.45 240.12,707.74 239.84,708.23 C 239.65,708.56 239.58,708.84 239.56,709.41 L 241.01,709.41 C 241.7,709.41 242.13,709.44 242.82,709.55 C 242.83,709.69 242.84,709.78 242.84,709.9 C 242.84,711.05 242.1,711.79 240.98,711.79 L 240.86,711.47 C 241.19,711.47 241.45,711.34 241.63,711.07 C 241.85,710.74 241.92,710.45 241.95,709.78 L 241.95,709.78 C 241.43,709.76 241.19,709.75 240.83,709.75 C 240.38,709.75 240.12,709.76 239.58,709.81 C 239.58,710.28 239.62,710.5 239.75,710.76 C 239.96,711.2 240.38,711.47 240.86,711.47 L 240.98,711.79 C 240.61,711.79 240.19,711.66 239.78,711.43 C 238.96,710.96 238.63,710.34 238.63,709.3 C 238.63,708.68 238.78,708.14 239.05,707.76 C 239.45,707.23 240.12,706.92 240.86,706.92 C 241.23,706.92 241.6,707 242.01,707.18 C 242.28,707.29 242.49,707.42 242.53,707.48 L 242.73,707.82 z"
   id="path2690"
   style="fill:#000000;stroke-width:0;stroke:none" />
<path
   d="M 246.27,713.71 L 246.83,713.71 C 247.01,713.71 247.08,713.6 247.08,713.3 L 247.08,708.14 C 247.08,707.51 247.05,707.44 246.71,707.42 L 246.25,707.39 L 246.25,707.09 C 247.25,707.12 247.25,707.12 247.5,707.12 C 247.75,707.12 247.75,707.12 248.74,707.09 L 248.74,707.39 L 248.29,707.42 C 247.95,707.44 247.92,707.51 247.92,708.14 L 247.92,714.28 L 247.83,714.35 C 247.39,714.19 247.06,714.11 246.27,713.99 L 246.27,713.71 z"
   id="path2692"
   style="fill:#000000;stroke-width:0;stroke:none" />
<path
   d="M 253.3,707.82 L 253.17,707.92 C 252.53,707.54 252.3,707.45 251.88,707.45 C 251.23,707.45 250.69,707.74 250.41,708.23 C 250.22,708.56 250.15,708.84 250.13,709.41 L 251.59,709.41 C 252.27,709.41 252.7,709.44 253.39,709.55 C 253.4,709.69 253.41,709.78 253.41,709.9 C 253.41,711.05 252.67,711.79 251.56,711.79 L 251.44,711.47 C 251.77,711.47 252.03,711.34 252.21,711.07 C 252.42,710.74 252.49,710.45 252.52,709.78 L 252.52,709.78 C 252.01,709.76 251.77,709.75 251.41,709.75 C 250.95,709.75 250.69,709.76 250.15,709.81 C 250.15,710.28 250.19,710.5 250.32,710.76 C 250.53,711.2 250.96,711.47 251.44,711.47 L 251.56,711.79 C 251.19,711.79 250.76,711.66 250.35,711.43 C 249.54,710.96 249.21,710.34 249.21,709.3 C 249.21,708.68 249.36,708.14 249.62,707.76 C 250.02,707.23 250.69,706.92 251.44,706.92 C 251.81,706.92 252.18,707 252.58,707.18 C 252.85,707.29 253.06,707.42 253.1,707.48 L 253.3,707.82 z"
   id="path2694"
   style="fill:#000000;stroke-width:0;stroke:none" />
<path
   d="M 258.97,711.42 L 258.97,711.7 C 258.37,711.67 258.19,711.66 258.03,711.66 C 257.87,711.66 257.69,711.67 257.09,711.7 L 257.09,711.42 L 257.5,711.4 C 257.66,711.39 257.74,711.3 257.74,711.14 C 257.74,710.98 257.67,710.71 257.55,710.41 L 257.13,709.35 C 257.02,709.07 256.89,708.79 256.52,707.96 L 255.33,710.83 C 255.27,710.97 255.24,711.1 255.24,711.21 C 255.24,711.32 255.33,711.39 255.49,711.4 L 255.98,711.42 L 255.98,711.7 C 255,711.66 255,711.66 254.81,711.66 C 254.62,711.66 254.15,711.67 253.66,711.7 L 253.66,711.42 L 254,711.4 C 254.15,711.38 254.2,711.32 254.3,711.07 L 256.02,707.05 L 256.52,707.05 C 256.58,707.22 256.68,707.48 256.68,707.5 C 256.79,707.8 256.92,708.14 256.92,708.14 L 258.1,710.73 C 258.32,711.2 258.46,711.38 258.66,711.4 L 258.97,711.42 z"
   id="path2696"
   style="fill:#000000;stroke-width:0;stroke:none" />
<path
   d="M 263.16,707.82 L 263.03,707.92 C 262.4,707.54 262.17,707.45 261.74,707.45 C 261.09,707.45 260.55,707.74 260.27,708.23 C 260.08,708.56 260.02,708.84 260,709.41 L 261.45,709.41 C 262.14,709.41 262.57,709.44 263.25,709.55 C 263.26,709.69 263.27,709.78 263.27,709.9 C 263.27,711.05 262.54,711.79 261.42,711.79 L 261.3,711.47 C 261.63,711.47 261.89,711.34 262.07,711.07 C 262.29,710.74 262.36,710.45 262.39,709.78 L 262.39,709.78 C 261.87,709.76 261.63,709.75 261.27,709.75 C 260.81,709.75 260.55,709.76 260.02,709.81 C 260.02,710.28 260.05,710.5 260.18,710.76 C 260.39,711.2 260.82,711.47 261.3,711.47 L 261.42,711.79 C 261.05,711.79 260.62,711.66 260.21,711.43 C 259.4,710.96 259.07,710.34 259.07,709.3 C 259.07,708.68 259.22,708.14 259.49,707.76 C 259.89,707.23 260.55,706.92 261.3,706.92 C 261.67,706.92 262.04,707 262.45,707.18 C 262.71,707.29 262.92,707.42 262.96,707.48 L 263.16,707.82 z"
   id="path2698"
   style="fill:#000000;stroke-width:0;stroke:none" />
<path
   d="M 263.81,713.71 L 264.37,713.71 C 264.55,713.71 264.62,713.6 264.62,713.3 L 264.62,708.14 C 264.62,707.51 264.59,707.44 264.25,707.42 L 263.79,707.39 L 263.79,707.09 C 264.79,707.12 264.79,707.12 265.04,707.12 C 265.28,707.12 265.28,707.12 266.28,707.09 L 266.28,707.39 L 265.82,707.42 C 265.48,707.44 265.45,707.51 265.45,708.14 L 265.45,714.28 L 265.36,714.35 C 264.92,714.19 264.6,714.11 263.81,713.99 L 263.81,713.71 z"
   id="path2700"
   style="fill:#000000;stroke-width:0;stroke:none" />
<path
   d="M 270.75,711.01 L 270.19,708.19 C 270.18,708.12 270.17,708.1 270.14,707.98 C 270.08,707.7 270.06,707.55 270.06,707.43 C 270.06,707.18 270.17,707.03 270.36,707.03 C 270.71,707.03 271.06,707.23 271.84,707.86 L 271.99,707.98 L 272.14,708.11 L 272.05,708.29 L 271.6,707.98 C 271.31,707.78 271.11,707.68 271,707.68 C 270.91,707.68 270.86,707.76 270.86,707.88 C 270.86,708.14 271,708.95 271.29,710.39 L 271.42,711.01 L 272.48,711.01 L 272.59,711.51 C 272.21,711.47 271.88,711.45 271.5,711.45 C 271.66,712.38 271.77,712.87 271.95,713.41 L 271.84,713.56 C 271.64,713.44 271.37,713.32 271.06,713.2 L 270.81,711.51 C 270.37,711.3 270.11,711.19 269.93,711.14 L 269.91,711.01 L 270.75,711.01 z"
   id="path2702"
   style="fill:#000000;stroke-width:0;stroke:none" />
<path
   d="M 273.22,708.57 L 273.27,708.42 L 273.52,708.58 C 273.8,708.75 273.82,708.77 273.87,708.77 C 273.95,708.77 274.01,708.69 274.01,708.58 C 274.01,708.19 273.7,706.73 273.39,705.65 L 273.44,705.56 C 273.63,705.61 273.8,705.66 273.97,705.69 C 274.11,706.65 274.27,707.14 274.62,707.66 C 275.03,708.29 275.6,708.77 275.94,708.77 C 276.02,708.77 276.07,708.7 276.07,708.58 C 276.07,708.45 276.04,708.29 275.98,708.04 L 275.59,706.44 C 275.52,706.16 275.49,705.99 275.49,705.86 C 275.49,705.67 275.57,705.56 275.72,705.56 C 275.92,705.56 276.19,705.72 276.93,706.27 L 276.85,706.41 L 276.66,706.28 C 276.44,706.14 276.27,706.05 276.2,706.05 C 276.14,706.05 276.1,706.12 276.1,706.21 C 276.1,706.24 276.1,706.33 276.11,706.36 L 276.61,708.45 C 276.66,708.67 276.7,708.88 276.7,709.01 C 276.7,709.18 276.61,709.28 276.46,709.28 C 276.14,709.28 275.62,708.99 275.17,708.58 C 274.89,708.31 274.67,708.05 274.28,707.5 L 274.57,708.72 C 274.6,708.86 274.61,708.95 274.61,709.03 C 274.61,709.19 274.55,709.28 274.44,709.28 C 274.28,709.28 273.98,709.11 273.43,708.72 L 273.22,708.57 z"
   id="path2704"
   style="fill:#000000;stroke-width:0;stroke:none" />
</g>    <g
       ns0:preamble="/home/lenka/Documents/textext-preamble.tex"
       ns0:text="time level $t_{n+1}$"
       word-spacing="normal"
       letter-spacing="normal"
       font-size-adjust="none"
       font-stretch="normal"
       font-weight="normal"
       font-variant="normal"
       font-style="normal"
       fill-rule="even-odd"
       stroke-miterlimit="10.433"
       xml:space="preserve"
       transform="matrix(1.5,0,0,-1.5,251.42858,1152.1429)"
       id="g2836"
       style="font-style:normal;font-variant:normal;font-weight:normal;font-stretch:normal;letter-spacing:normal;word-spacing:normal;text-anchor:start;fill:none;fill-opacity:1;stroke:none;stroke-linecap:butt;stroke-linejoin:miter;stroke-miterlimit:10.43299960999999954;stroke-dasharray:none;stroke-dashoffset:0;stroke-opacity:1">
<path
   id="path2838"
   d="M 224.41,710.93 L 224.41,708.06 C 224.41,707.32 224.74,707 225.51,707 C 225.73,707 225.97,707.05 226.03,707.12 L 226.51,707.65 L 226.38,707.82 C 226.13,707.68 225.98,707.63 225.79,707.63 C 225.4,707.63 225.25,707.83 225.25,708.32 L 225.25,710.93 L 226.52,710.93 L 226.61,711.47 L 225.25,711.41 L 225.25,711.78 C 225.25,712.2 225.28,712.56 225.35,713.2 L 225.24,713.31 C 225,713.16 224.7,713.03 224.39,712.93 C 224.42,712.63 224.43,712.44 224.43,712.14 L 224.43,711.45 L 223.65,711.1 L 223.65,710.89 L 224.41,710.93 z"
   style="fill:#000000;stroke-width:0;stroke:none" />
<path
   id="path2840"
   d="M 228.55,711.76 L 228.46,711.79 C 227.96,711.59 227.44,711.45 226.91,711.39 L 226.91,711.11 L 227.28,711.11 C 227.68,711.11 227.72,711.04 227.72,710.38 L 227.72,708.14 C 227.72,707.51 227.69,707.44 227.35,707.42 L 226.89,707.39 L 226.89,707.09 C 227.88,707.12 227.88,707.12 228.13,707.12 C 228.38,707.12 228.38,707.12 229.38,707.09 L 229.38,707.39 L 228.92,707.42 C 228.58,707.44 228.55,707.51 228.55,708.14 L 228.55,711.76 z"
   style="fill:#000000;stroke-width:0;stroke:none" />
<path
   id="path2842"
   d="M 228.1,713.97 L 228.07,713.97 L 228.04,713.96 L 228.01,713.96 L 227.99,713.96 L 227.96,713.95 L 227.93,713.94 L 227.91,713.93 L 227.88,713.92 L 227.86,713.91 L 227.83,713.9 L 227.81,713.88 L 227.79,713.87 L 227.77,713.85 L 227.74,713.84 L 227.72,713.82 L 227.7,713.8 L 227.69,713.78 L 227.67,713.76 L 227.65,713.74 L 227.63,713.72 L 227.62,713.69 L 227.61,713.67 L 227.59,713.65 L 227.58,713.62 L 227.57,713.6 L 227.56,713.57 L 227.56,713.55 L 227.55,713.52 L 227.54,713.49 L 227.54,713.46 L 227.54,713.44 L 227.54,713.41 C 227.54,713.12 227.8,712.86 228.09,712.86 C 228.37,712.86 228.64,713.12 228.64,713.41 C 228.64,713.69 228.37,713.97 228.1,713.97 z"
   style="fill:#000000;stroke-width:0;stroke:none" />
<path
   id="path2844"
   d="M 229.76,711.11 L 230.13,711.11 C 230.53,711.11 230.57,711.04 230.57,710.38 L 230.57,708.14 C 230.57,707.51 230.54,707.44 230.2,707.42 L 229.74,707.39 L 229.74,707.09 C 230.7,707.12 230.73,707.12 231.01,707.12 C 231.29,707.12 231.54,707.11 232.19,707.09 L 232.19,707.39 L 231.77,707.42 C 231.44,707.44 231.41,707.51 231.41,708.14 L 231.41,710.25 C 231.41,710.7 232.06,711.19 232.66,711.19 C 233.2,711.19 233.57,710.68 233.57,709.92 L 233.57,708.14 C 233.57,707.51 233.54,707.44 233.2,707.42 L 232.74,707.39 L 232.74,707.09 C 233.74,707.12 233.74,707.12 233.99,707.12 C 234.24,707.12 234.24,707.12 235.23,707.09 L 235.23,707.39 L 234.77,707.42 C 234.43,707.44 234.4,707.51 234.4,708.14 L 234.4,710.25 C 234.4,710.7 235.06,711.19 235.66,711.19 C 236.2,711.19 236.57,710.68 236.57,709.92 L 236.57,707.09 C 237.17,707.12 237.18,707.12 237.35,707.12 C 237.48,707.12 237.48,707.12 238.24,707.09 L 238.24,707.39 L 237.77,707.42 C 237.43,707.44 237.4,707.51 237.4,708.14 L 237.4,710.19 C 237.4,711.18 236.82,711.79 235.91,711.79 C 235.56,711.79 235.27,711.71 235.09,711.55 L 234.34,710.87 C 234.02,711.53 233.61,711.79 232.92,711.79 C 232.55,711.79 232.27,711.71 232.09,711.55 L 231.41,710.91 L 231.41,711.76 L 231.32,711.79 C 230.81,711.59 230.29,711.45 229.76,711.39 L 229.76,711.11 z"
   style="fill:#000000;stroke-width:0;stroke:none" />
<path
   id="path2846"
   d="M 242.73,707.82 L 242.6,707.92 C 241.96,707.54 241.73,707.45 241.3,707.45 C 240.65,707.45 240.12,707.74 239.84,708.23 C 239.65,708.56 239.58,708.84 239.56,709.41 L 241.01,709.41 C 241.7,709.41 242.13,709.44 242.82,709.55 C 242.83,709.69 242.84,709.78 242.84,709.9 C 242.84,711.05 242.1,711.79 240.98,711.79 L 240.86,711.47 C 241.19,711.47 241.45,711.34 241.63,711.07 C 241.85,710.74 241.92,710.45 241.95,709.78 L 241.95,709.78 C 241.43,709.76 241.19,709.75 240.83,709.75 C 240.38,709.75 240.12,709.76 239.58,709.81 C 239.58,710.28 239.62,710.5 239.75,710.76 C 239.96,711.2 240.38,711.47 240.86,711.47 L 240.98,711.79 C 240.61,711.79 240.19,711.66 239.78,711.43 C 238.96,710.96 238.63,710.34 238.63,709.3 C 238.63,708.68 238.78,708.14 239.05,707.76 C 239.45,707.23 240.12,706.92 240.86,706.92 C 241.23,706.92 241.6,707 242.01,707.18 C 242.28,707.29 242.49,707.42 242.53,707.48 L 242.73,707.82 z"
   style="fill:#000000;stroke-width:0;stroke:none" />
<path
   id="path2848"
   d="M 246.27,713.71 L 246.83,713.71 C 247.01,713.71 247.08,713.6 247.08,713.3 L 247.08,708.14 C 247.08,707.51 247.05,707.44 246.71,707.42 L 246.25,707.39 L 246.25,707.09 C 247.25,707.12 247.25,707.12 247.5,707.12 C 247.75,707.12 247.75,707.12 248.74,707.09 L 248.74,707.39 L 248.29,707.42 C 247.95,707.44 247.92,707.51 247.92,708.14 L 247.92,714.28 L 247.83,714.35 C 247.39,714.19 247.06,714.11 246.27,713.99 L 246.27,713.71 z"
   style="fill:#000000;stroke-width:0;stroke:none" />
<path
   id="path2850"
   d="M 253.3,707.82 L 253.17,707.92 C 252.53,707.54 252.3,707.45 251.88,707.45 C 251.23,707.45 250.69,707.74 250.41,708.23 C 250.22,708.56 250.15,708.84 250.13,709.41 L 251.59,709.41 C 252.27,709.41 252.7,709.44 253.39,709.55 C 253.4,709.69 253.41,709.78 253.41,709.9 C 253.41,711.05 252.67,711.79 251.56,711.79 L 251.44,711.47 C 251.77,711.47 252.03,711.34 252.21,711.07 C 252.42,710.74 252.49,710.45 252.52,709.78 L 252.52,709.78 C 252.01,709.76 251.77,709.75 251.41,709.75 C 250.95,709.75 250.69,709.76 250.15,709.81 C 250.15,710.28 250.19,710.5 250.32,710.76 C 250.53,711.2 250.96,711.47 251.44,711.47 L 251.56,711.79 C 251.19,711.79 250.76,711.66 250.35,711.43 C 249.54,710.96 249.21,710.34 249.21,709.3 C 249.21,708.68 249.36,708.14 249.62,707.76 C 250.02,707.23 250.69,706.92 251.44,706.92 C 251.81,706.92 252.18,707 252.58,707.18 C 252.85,707.29 253.06,707.42 253.1,707.48 L 253.3,707.82 z"
   style="fill:#000000;stroke-width:0;stroke:none" />
<path
   id="path2852"
   d="M 258.97,711.42 L 258.97,711.7 C 258.37,711.67 258.19,711.66 258.03,711.66 C 257.87,711.66 257.69,711.67 257.09,711.7 L 257.09,711.42 L 257.5,711.4 C 257.66,711.39 257.74,711.3 257.74,711.14 C 257.74,710.98 257.67,710.71 257.55,710.41 L 257.13,709.35 C 257.02,709.07 256.89,708.79 256.52,707.96 L 255.33,710.83 C 255.27,710.97 255.24,711.1 255.24,711.21 C 255.24,711.32 255.33,711.39 255.49,711.4 L 255.98,711.42 L 255.98,711.7 C 255,711.66 255,711.66 254.81,711.66 C 254.62,711.66 254.15,711.67 253.66,711.7 L 253.66,711.42 L 254,711.4 C 254.15,711.38 254.2,711.32 254.3,711.07 L 256.02,707.05 L 256.52,707.05 C 256.58,707.22 256.68,707.48 256.68,707.5 C 256.79,707.8 256.92,708.14 256.92,708.14 L 258.1,710.73 C 258.32,711.2 258.46,711.38 258.66,711.4 L 258.97,711.42 z"
   style="fill:#000000;stroke-width:0;stroke:none" />
<path
   id="path2854"
   d="M 263.16,707.82 L 263.03,707.92 C 262.4,707.54 262.17,707.45 261.74,707.45 C 261.09,707.45 260.55,707.74 260.27,708.23 C 260.08,708.56 260.02,708.84 260,709.41 L 261.45,709.41 C 262.14,709.41 262.57,709.44 263.25,709.55 C 263.26,709.69 263.27,709.78 263.27,709.9 C 263.27,711.05 262.54,711.79 261.42,711.79 L 261.3,711.47 C 261.63,711.47 261.89,711.34 262.07,711.07 C 262.29,710.74 262.36,710.45 262.39,709.78 L 262.39,709.78 C 261.87,709.76 261.63,709.75 261.27,709.75 C 260.81,709.75 260.55,709.76 260.02,709.81 C 260.02,710.28 260.05,710.5 260.18,710.76 C 260.39,711.2 260.82,711.47 261.3,711.47 L 261.42,711.79 C 261.05,711.79 260.62,711.66 260.21,711.43 C 259.4,710.96 259.07,710.34 259.07,709.3 C 259.07,708.68 259.22,708.14 259.49,707.76 C 259.89,707.23 260.55,706.92 261.3,706.92 C 261.67,706.92 262.04,707 262.45,707.18 C 262.71,707.29 262.92,707.42 262.96,707.48 L 263.16,707.82 z"
   style="fill:#000000;stroke-width:0;stroke:none" />
<path
   id="path2856"
   d="M 263.81,713.71 L 264.37,713.71 C 264.55,713.71 264.62,713.6 264.62,713.3 L 264.62,708.14 C 264.62,707.51 264.59,707.44 264.25,707.42 L 263.79,707.39 L 263.79,707.09 C 264.79,707.12 264.79,707.12 265.04,707.12 C 265.28,707.12 265.28,707.12 266.28,707.09 L 266.28,707.39 L 265.82,707.42 C 265.48,707.44 265.45,707.51 265.45,708.14 L 265.45,714.28 L 265.36,714.35 C 264.92,714.19 264.6,714.11 263.81,713.99 L 263.81,713.71 z"
   style="fill:#000000;stroke-width:0;stroke:none" />
<path
   id="path2858"
   d="M 270.75,711.01 L 270.19,708.19 C 270.18,708.12 270.17,708.1 270.14,707.98 C 270.08,707.7 270.06,707.55 270.06,707.43 C 270.06,707.18 270.17,707.03 270.36,707.03 C 270.71,707.03 271.06,707.23 271.84,707.86 L 271.99,707.98 L 272.14,708.11 L 272.05,708.29 L 271.6,707.98 C 271.31,707.78 271.11,707.68 271,707.68 C 270.91,707.68 270.86,707.76 270.86,707.88 C 270.86,708.14 271,708.95 271.29,710.39 L 271.42,711.01 L 272.48,711.01 L 272.59,711.51 C 272.21,711.47 271.88,711.45 271.5,711.45 C 271.66,712.38 271.77,712.87 271.95,713.41 L 271.84,713.56 C 271.64,713.44 271.37,713.32 271.06,713.2 L 270.81,711.51 C 270.37,711.3 270.11,711.19 269.93,711.14 L 269.91,711.01 L 270.75,711.01 z"
   style="fill:#000000;stroke-width:0;stroke:none" />
<path
   id="path2860"
   d="M 273.22,708.21 L 273.27,708.06 L 273.52,708.22 C 273.8,708.39 273.82,708.41 273.87,708.41 C 273.95,708.41 274.01,708.33 274.01,708.22 C 274.01,707.83 273.7,706.37 273.39,705.28 L 273.44,705.2 C 273.63,705.26 273.8,705.3 273.97,705.33 C 274.11,706.28 274.27,706.78 274.62,707.3 C 275.03,707.93 275.6,708.41 275.94,708.41 C 276.02,708.41 276.07,708.34 276.07,708.22 C 276.07,708.09 276.04,707.93 275.98,707.68 L 275.59,706.08 C 275.52,705.8 275.49,705.63 275.49,705.51 C 275.49,705.32 275.57,705.2 275.72,705.2 C 275.92,705.2 276.19,705.36 276.93,705.91 L 276.85,706.05 L 276.66,705.92 C 276.44,705.78 276.27,705.69 276.2,705.69 C 276.14,705.69 276.1,705.76 276.1,705.84 C 276.1,705.88 276.1,705.97 276.11,706 L 276.61,708.09 C 276.66,708.31 276.7,708.52 276.7,708.65 C 276.7,708.82 276.61,708.92 276.46,708.92 C 276.14,708.92 275.62,708.63 275.17,708.22 C 274.89,707.95 274.67,707.69 274.28,707.14 L 274.57,708.36 C 274.6,708.5 274.61,708.59 274.61,708.67 C 274.61,708.83 274.55,708.92 274.44,708.92 C 274.28,708.92 273.98,708.75 273.43,708.36 L 273.22,708.21 z"
   style="fill:#000000;stroke-width:0;stroke:none" />
<path
   id="path2862"
   d="M 280.67,707.09 L 282.87,707.09 C 282.98,707.09 283.13,707.09 283.13,707.24 C 283.13,707.4 282.98,707.4 282.87,707.4 L 280.67,707.4 L 280.67,709.61 C 280.67,709.72 280.67,709.87 280.51,709.87 C 280.35,709.87 280.35,709.72 280.35,709.61 L 280.35,707.4 L 278.14,707.4 C 278.03,707.4 277.88,707.4 277.88,707.24 C 277.88,707.09 278.03,707.09 278.14,707.09 L 280.35,707.09 L 280.35,704.88 C 280.35,704.77 280.35,704.61 280.51,704.61 C 280.67,704.61 280.67,704.77 280.67,704.88 L 280.67,707.09 z"
   style="fill:#000000;stroke-width:0;stroke:none" />
<path
   id="path2864"
   d="M 284.17,709.47 L 284.25,709.47 L 285.23,709.91 C 285.23,709.92 285.24,709.92 285.25,709.92 C 285.29,709.92 285.31,709.85 285.31,709.67 L 285.31,706 C 285.31,705.6 285.23,705.52 284.82,705.5 L 284.39,705.47 L 284.39,705.25 C 285.56,705.27 285.56,705.27 285.64,705.27 C 285.74,705.27 285.91,705.27 286.16,705.26 C 286.26,705.26 286.52,705.26 286.83,705.25 L 286.83,705.47 L 286.44,705.5 C 286.02,705.52 285.94,705.6 285.94,706 L 285.94,710.49 L 285.84,710.53 C 285.35,710.27 284.81,710.04 284.12,709.8 L 284.17,709.47 z"
   style="fill:#000000;stroke-width:0;stroke:none" />
</g>  </g>
</svg>
