<?xml version="1.0" encoding="UTF-8" standalone="no"?>
<!-- Created with Inkscape (http://www.inkscape.org/) -->
<svg
   xmlns:dc="http://purl.org/dc/elements/1.1/"
   xmlns:cc="http://creativecommons.org/ns#"
   xmlns:rdf="http://www.w3.org/1999/02/22-rdf-syntax-ns#"
   xmlns:svg="http://www.w3.org/2000/svg"
   xmlns="http://www.w3.org/2000/svg"
   xmlns:sodipodi="http://sodipodi.sourceforge.net/DTD/sodipodi-0.dtd"
   xmlns:inkscape="http://www.inkscape.org/namespaces/inkscape"
   width="744.09448819"
   height="1052.3622047"
   id="svg2"
   sodipodi:version="0.32"
   inkscape:version="0.46"
   sodipodi:docname="orthoadapt.svg"
   inkscape:output_extension="org.inkscape.output.svg.inkscape">
  <defs
     id="defs4">
    <marker
       inkscape:stockid="Arrow1Lend"
       orient="auto"
       refY="0.0"
       refX="0.0"
       id="Arrow1Lend"
       style="overflow:visible;">
      <path
         id="path3304"
         d="M 0.0,0.0 L 5.0,-5.0 L -12.5,0.0 L 5.0,5.0 L 0.0,0.0 z "
         style="fill-rule:evenodd;stroke:#000000;stroke-width:1.0pt;marker-start:none;"
         transform="scale(0.8) rotate(180) translate(12.5,0)" />
    </marker>
    <inkscape:perspective
       sodipodi:type="inkscape:persp3d"
       inkscape:vp_x="0 : 526.18109 : 1"
       inkscape:vp_y="0 : 1000 : 0"
       inkscape:vp_z="744.09448 : 526.18109 : 1"
       inkscape:persp3d-origin="372.04724 : 350.78739 : 1"
       id="perspective10" />
  </defs>
  <sodipodi:namedview
     id="base"
     pagecolor="#ffffff"
     bordercolor="#666666"
     borderopacity="1.0"
     gridtolerance="10000"
     guidetolerance="10"
     objecttolerance="10"
     inkscape:pageopacity="0.0"
     inkscape:pageshadow="2"
     inkscape:zoom="0.98994949"
     inkscape:cx="575.39209"
     inkscape:cy="895.19223"
     inkscape:document-units="px"
     inkscape:current-layer="layer1"
     showgrid="false"
     inkscape:window-width="1920"
     inkscape:window-height="1125"
     inkscape:window-x="0"
     inkscape:window-y="25">
    <inkscape:grid
       type="xygrid"
       id="grid3155" />
  </sodipodi:namedview>
  <metadata
     id="metadata7">
    <rdf:RDF>
      <cc:Work
         rdf:about="">
        <dc:format>image/svg+xml</dc:format>
        <dc:type
           rdf:resource="http://purl.org/dc/dcmitype/StillImage" />
      </cc:Work>
    </rdf:RDF>
  </metadata>
  <g
     inkscape:label="Layer 1"
     inkscape:groupmode="layer"
     id="layer1">
    <g
       id="g4088"
       transform="translate(-61.619305,15.152288)">
      <g
         transform="translate(55,-5.0000004)"
         style="fill:none;stroke:#646464;stroke-opacity:1"
         id="g3161">
        <rect
           style="opacity:1;fill:none;fill-opacity:1;stroke:#646464;stroke-width:2.11753893;stroke-linejoin:miter;stroke-miterlimit:4;stroke-dasharray:4.23507786, 2.11753893;stroke-dashoffset:0;stroke-opacity:1"
           id="rect2383"
           width="200"
           height="200"
           x="100"
           y="52.362183" />
        <path
           style="fill:none;fill-rule:evenodd;stroke:#646464;stroke-width:2;stroke-linecap:butt;stroke-linejoin:miter;stroke-miterlimit:4;stroke-dasharray:4, 2;stroke-dashoffset:0;stroke-opacity:1"
           d="M 100,152.36218 L 300,152.36218"
           id="path3157" />
        <path
           style="fill:none;fill-rule:evenodd;stroke:#646464;stroke-width:2;stroke-linecap:butt;stroke-linejoin:miter;stroke-miterlimit:4;stroke-dasharray:4, 2;stroke-dashoffset:0;stroke-opacity:1"
           d="M 200,252.36218 L 200,52.362183"
           id="path3159" />
      </g>
      <g
         id="g3196">
        <rect
           style="opacity:1;fill:none;fill-opacity:1;stroke:#000000;stroke-width:2;stroke-linejoin:miter;stroke-miterlimit:4;stroke-dasharray:none;stroke-dashoffset:0;stroke-opacity:1"
           id="rect3166"
           width="100"
           height="100"
           x="145"
           y="37.362183" />
        <path
           sodipodi:type="arc"
           style="opacity:1;fill:#000000;fill-opacity:1;stroke:#000000;stroke-width:2;stroke-linejoin:miter;stroke-miterlimit:4;stroke-dasharray:none;stroke-dashoffset:0;stroke-opacity:1"
           id="path3178"
           sodipodi:cx="40"
           sodipodi:cy="152.36218"
           sodipodi:rx="5"
           sodipodi:ry="5"
           d="M 45,152.36218 A 5,5 0 1 1 35,152.36218 A 5,5 0 1 1 45,152.36218 z"
           transform="translate(105,-15)" />
        <path
           sodipodi:type="arc"
           style="opacity:1;fill:#000000;fill-opacity:1;stroke:#000000;stroke-width:2;stroke-linejoin:miter;stroke-miterlimit:4;stroke-dasharray:none;stroke-dashoffset:0;stroke-opacity:1"
           id="path3180"
           sodipodi:cx="40"
           sodipodi:cy="152.36218"
           sodipodi:rx="5"
           sodipodi:ry="5"
           d="M 45,152.36218 A 5,5 0 1 1 35,152.36218 A 5,5 0 1 1 45,152.36218 z"
           transform="translate(105,-115)" />
        <path
           sodipodi:type="arc"
           style="opacity:1;fill:#000000;fill-opacity:1;stroke:#000000;stroke-width:2;stroke-linejoin:miter;stroke-miterlimit:4;stroke-dasharray:none;stroke-dashoffset:0;stroke-opacity:1"
           id="path3182"
           sodipodi:cx="40"
           sodipodi:cy="152.36218"
           sodipodi:rx="5"
           sodipodi:ry="5"
           d="M 45,152.36218 A 5,5 0 1 1 35,152.36218 A 5,5 0 1 1 45,152.36218 z"
           transform="translate(205,-115)" />
        <path
           sodipodi:type="arc"
           style="opacity:1;fill:#000000;fill-opacity:1;stroke:#000000;stroke-width:2;stroke-linejoin:miter;stroke-miterlimit:4;stroke-dasharray:none;stroke-dashoffset:0;stroke-opacity:1"
           id="path3184"
           sodipodi:cx="40"
           sodipodi:cy="152.36218"
           sodipodi:rx="5"
           sodipodi:ry="5"
           d="M 45,152.36218 A 5,5 0 1 1 35,152.36218 A 5,5 0 1 1 45,152.36218 z"
           transform="translate(205,-15)" />
        <path
           sodipodi:type="arc"
           style="opacity:1;fill:none;fill-opacity:1;stroke:#000000;stroke-width:2;stroke-linejoin:miter;stroke-miterlimit:4;stroke-dasharray:none;stroke-dashoffset:0;stroke-opacity:1"
           id="path3186"
           sodipodi:cx="40"
           sodipodi:cy="152.36218"
           sodipodi:rx="5"
           sodipodi:ry="5"
           d="M 45,152.36218 A 5,5 0 1 1 35,152.36218 A 5,5 0 1 1 45,152.36218 z"
           transform="translate(155,-15)" />
        <path
           sodipodi:type="arc"
           style="opacity:1;fill:none;fill-opacity:1;stroke:#000000;stroke-width:2;stroke-linejoin:miter;stroke-miterlimit:4;stroke-dasharray:none;stroke-dashoffset:0;stroke-opacity:1"
           id="path3188"
           sodipodi:cx="40"
           sodipodi:cy="152.36218"
           sodipodi:rx="5"
           sodipodi:ry="5"
           d="M 45,152.36218 A 5,5 0 1 1 35,152.36218 A 5,5 0 1 1 45,152.36218 z"
           transform="translate(105,-65)" />
        <path
           sodipodi:type="arc"
           style="opacity:1;fill:none;fill-opacity:1;stroke:#000000;stroke-width:2;stroke-linejoin:miter;stroke-miterlimit:4;stroke-dasharray:none;stroke-dashoffset:0;stroke-opacity:1"
           id="path3190"
           sodipodi:cx="40"
           sodipodi:cy="152.36218"
           sodipodi:rx="5"
           sodipodi:ry="5"
           d="M 45,152.36218 A 5,5 0 1 1 35,152.36218 A 5,5 0 1 1 45,152.36218 z"
           transform="translate(155,-115)" />
        <path
           sodipodi:type="arc"
           style="opacity:1;fill:none;fill-opacity:1;stroke:#000000;stroke-width:2;stroke-linejoin:miter;stroke-miterlimit:4;stroke-dasharray:none;stroke-dashoffset:0;stroke-opacity:1"
           id="path3192"
           sodipodi:cx="40"
           sodipodi:cy="152.36218"
           sodipodi:rx="5"
           sodipodi:ry="5"
           d="M 45,152.36218 A 5,5 0 1 1 35,152.36218 A 5,5 0 1 1 45,152.36218 z"
           transform="translate(205,-65)" />
        <path
           sodipodi:type="arc"
           style="opacity:1;fill:none;fill-opacity:1;stroke:#000000;stroke-width:2;stroke-linejoin:miter;stroke-miterlimit:4;stroke-dasharray:none;stroke-dashoffset:0;stroke-opacity:1"
           id="path3194"
           sodipodi:cx="40"
           sodipodi:cy="152.36218"
           sodipodi:rx="5"
           sodipodi:ry="5"
           d="M 45,152.36218 A 5,5 0 1 1 35,152.36218 A 5,5 0 1 1 45,152.36218 z"
           transform="translate(155,-65)" />
      </g>
      <g
         transform="translate(120.01016,0)"
         id="g3210">
        <rect
           style="opacity:1;fill:none;fill-opacity:1;stroke:#000000;stroke-width:2;stroke-linejoin:miter;stroke-miterlimit:4;stroke-dasharray:none;stroke-dashoffset:0;stroke-opacity:1"
           id="rect3212"
           width="100"
           height="100"
           x="145"
           y="37.362183" />
        <path
           sodipodi:type="arc"
           style="opacity:1;fill:#000000;fill-opacity:1;stroke:#000000;stroke-width:2;stroke-linejoin:miter;stroke-miterlimit:4;stroke-dasharray:none;stroke-dashoffset:0;stroke-opacity:1"
           id="path3214"
           sodipodi:cx="40"
           sodipodi:cy="152.36218"
           sodipodi:rx="5"
           sodipodi:ry="5"
           d="M 45,152.36218 A 5,5 0 1 1 35,152.36218 A 5,5 0 1 1 45,152.36218 z"
           transform="translate(105,-15)" />
        <path
           sodipodi:type="arc"
           style="opacity:1;fill:#000000;fill-opacity:1;stroke:#000000;stroke-width:2;stroke-linejoin:miter;stroke-miterlimit:4;stroke-dasharray:none;stroke-dashoffset:0;stroke-opacity:1"
           id="path3216"
           sodipodi:cx="40"
           sodipodi:cy="152.36218"
           sodipodi:rx="5"
           sodipodi:ry="5"
           d="M 45,152.36218 A 5,5 0 1 1 35,152.36218 A 5,5 0 1 1 45,152.36218 z"
           transform="translate(105,-115)" />
        <path
           sodipodi:type="arc"
           style="opacity:1;fill:#000000;fill-opacity:1;stroke:#000000;stroke-width:2;stroke-linejoin:miter;stroke-miterlimit:4;stroke-dasharray:none;stroke-dashoffset:0;stroke-opacity:1"
           id="path3218"
           sodipodi:cx="40"
           sodipodi:cy="152.36218"
           sodipodi:rx="5"
           sodipodi:ry="5"
           d="M 45,152.36218 A 5,5 0 1 1 35,152.36218 A 5,5 0 1 1 45,152.36218 z"
           transform="translate(205,-115)" />
        <path
           sodipodi:type="arc"
           style="opacity:1;fill:#000000;fill-opacity:1;stroke:#000000;stroke-width:2;stroke-linejoin:miter;stroke-miterlimit:4;stroke-dasharray:none;stroke-dashoffset:0;stroke-opacity:1"
           id="path3220"
           sodipodi:cx="40"
           sodipodi:cy="152.36218"
           sodipodi:rx="5"
           sodipodi:ry="5"
           d="M 45,152.36218 A 5,5 0 1 1 35,152.36218 A 5,5 0 1 1 45,152.36218 z"
           transform="translate(205,-15)" />
        <path
           sodipodi:type="arc"
           style="opacity:1;fill:none;fill-opacity:1;stroke:#000000;stroke-width:2;stroke-linejoin:miter;stroke-miterlimit:4;stroke-dasharray:none;stroke-dashoffset:0;stroke-opacity:1"
           id="path3222"
           sodipodi:cx="40"
           sodipodi:cy="152.36218"
           sodipodi:rx="5"
           sodipodi:ry="5"
           d="M 45,152.36218 A 5,5 0 1 1 35,152.36218 A 5,5 0 1 1 45,152.36218 z"
           transform="translate(155,-15)" />
        <path
           sodipodi:type="arc"
           style="opacity:1;fill:none;fill-opacity:1;stroke:#000000;stroke-width:2;stroke-linejoin:miter;stroke-miterlimit:4;stroke-dasharray:none;stroke-dashoffset:0;stroke-opacity:1"
           id="path3224"
           sodipodi:cx="40"
           sodipodi:cy="152.36218"
           sodipodi:rx="5"
           sodipodi:ry="5"
           d="M 45,152.36218 A 5,5 0 1 1 35,152.36218 A 5,5 0 1 1 45,152.36218 z"
           transform="translate(105,-65)" />
        <path
           sodipodi:type="arc"
           style="opacity:1;fill:none;fill-opacity:1;stroke:#000000;stroke-width:2;stroke-linejoin:miter;stroke-miterlimit:4;stroke-dasharray:none;stroke-dashoffset:0;stroke-opacity:1"
           id="path3226"
           sodipodi:cx="40"
           sodipodi:cy="152.36218"
           sodipodi:rx="5"
           sodipodi:ry="5"
           d="M 45,152.36218 A 5,5 0 1 1 35,152.36218 A 5,5 0 1 1 45,152.36218 z"
           transform="translate(155,-115)" />
        <path
           sodipodi:type="arc"
           style="opacity:1;fill:none;fill-opacity:1;stroke:#000000;stroke-width:2;stroke-linejoin:miter;stroke-miterlimit:4;stroke-dasharray:none;stroke-dashoffset:0;stroke-opacity:1"
           id="path3228"
           sodipodi:cx="40"
           sodipodi:cy="152.36218"
           sodipodi:rx="5"
           sodipodi:ry="5"
           d="M 45,152.36218 A 5,5 0 1 1 35,152.36218 A 5,5 0 1 1 45,152.36218 z"
           transform="translate(205,-65)" />
        <path
           sodipodi:type="arc"
           style="opacity:1;fill:none;fill-opacity:1;stroke:#000000;stroke-width:2;stroke-linejoin:miter;stroke-miterlimit:4;stroke-dasharray:none;stroke-dashoffset:0;stroke-opacity:1"
           id="path3230"
           sodipodi:cx="40"
           sodipodi:cy="152.36218"
           sodipodi:rx="5"
           sodipodi:ry="5"
           d="M 45,152.36218 A 5,5 0 1 1 35,152.36218 A 5,5 0 1 1 45,152.36218 z"
           transform="translate(155,-65)" />
      </g>
      <g
         transform="translate(119.9125,121.10764)"
         id="g3232">
        <rect
           style="opacity:1;fill:none;fill-opacity:1;stroke:#000000;stroke-width:2;stroke-linejoin:miter;stroke-miterlimit:4;stroke-dasharray:none;stroke-dashoffset:0;stroke-opacity:1"
           id="rect3234"
           width="100"
           height="100"
           x="145"
           y="37.362183" />
        <path
           sodipodi:type="arc"
           style="opacity:1;fill:#000000;fill-opacity:1;stroke:#000000;stroke-width:2;stroke-linejoin:miter;stroke-miterlimit:4;stroke-dasharray:none;stroke-dashoffset:0;stroke-opacity:1"
           id="path3236"
           sodipodi:cx="40"
           sodipodi:cy="152.36218"
           sodipodi:rx="5"
           sodipodi:ry="5"
           d="M 45,152.36218 A 5,5 0 1 1 35,152.36218 A 5,5 0 1 1 45,152.36218 z"
           transform="translate(105,-15)" />
        <path
           sodipodi:type="arc"
           style="opacity:1;fill:#000000;fill-opacity:1;stroke:#000000;stroke-width:2;stroke-linejoin:miter;stroke-miterlimit:4;stroke-dasharray:none;stroke-dashoffset:0;stroke-opacity:1"
           id="path3238"
           sodipodi:cx="40"
           sodipodi:cy="152.36218"
           sodipodi:rx="5"
           sodipodi:ry="5"
           d="M 45,152.36218 A 5,5 0 1 1 35,152.36218 A 5,5 0 1 1 45,152.36218 z"
           transform="translate(105,-115)" />
        <path
           sodipodi:type="arc"
           style="opacity:1;fill:#000000;fill-opacity:1;stroke:#000000;stroke-width:2;stroke-linejoin:miter;stroke-miterlimit:4;stroke-dasharray:none;stroke-dashoffset:0;stroke-opacity:1"
           id="path3240"
           sodipodi:cx="40"
           sodipodi:cy="152.36218"
           sodipodi:rx="5"
           sodipodi:ry="5"
           d="M 45,152.36218 A 5,5 0 1 1 35,152.36218 A 5,5 0 1 1 45,152.36218 z"
           transform="translate(205,-115)" />
        <path
           sodipodi:type="arc"
           style="opacity:1;fill:#000000;fill-opacity:1;stroke:#000000;stroke-width:2;stroke-linejoin:miter;stroke-miterlimit:4;stroke-dasharray:none;stroke-dashoffset:0;stroke-opacity:1"
           id="path3242"
           sodipodi:cx="40"
           sodipodi:cy="152.36218"
           sodipodi:rx="5"
           sodipodi:ry="5"
           d="M 45,152.36218 A 5,5 0 1 1 35,152.36218 A 5,5 0 1 1 45,152.36218 z"
           transform="translate(205,-15)" />
        <path
           sodipodi:type="arc"
           style="opacity:1;fill:none;fill-opacity:1;stroke:#000000;stroke-width:2;stroke-linejoin:miter;stroke-miterlimit:4;stroke-dasharray:none;stroke-dashoffset:0;stroke-opacity:1"
           id="path3244"
           sodipodi:cx="40"
           sodipodi:cy="152.36218"
           sodipodi:rx="5"
           sodipodi:ry="5"
           d="M 45,152.36218 A 5,5 0 1 1 35,152.36218 A 5,5 0 1 1 45,152.36218 z"
           transform="translate(155,-15)" />
        <path
           sodipodi:type="arc"
           style="opacity:1;fill:none;fill-opacity:1;stroke:#000000;stroke-width:2;stroke-linejoin:miter;stroke-miterlimit:4;stroke-dasharray:none;stroke-dashoffset:0;stroke-opacity:1"
           id="path3246"
           sodipodi:cx="40"
           sodipodi:cy="152.36218"
           sodipodi:rx="5"
           sodipodi:ry="5"
           d="M 45,152.36218 A 5,5 0 1 1 35,152.36218 A 5,5 0 1 1 45,152.36218 z"
           transform="translate(105,-65)" />
        <path
           sodipodi:type="arc"
           style="opacity:1;fill:none;fill-opacity:1;stroke:#000000;stroke-width:2;stroke-linejoin:miter;stroke-miterlimit:4;stroke-dasharray:none;stroke-dashoffset:0;stroke-opacity:1"
           id="path3248"
           sodipodi:cx="40"
           sodipodi:cy="152.36218"
           sodipodi:rx="5"
           sodipodi:ry="5"
           d="M 45,152.36218 A 5,5 0 1 1 35,152.36218 A 5,5 0 1 1 45,152.36218 z"
           transform="translate(155,-115)" />
        <path
           sodipodi:type="arc"
           style="opacity:1;fill:none;fill-opacity:1;stroke:#000000;stroke-width:2;stroke-linejoin:miter;stroke-miterlimit:4;stroke-dasharray:none;stroke-dashoffset:0;stroke-opacity:1"
           id="path3250"
           sodipodi:cx="40"
           sodipodi:cy="152.36218"
           sodipodi:rx="5"
           sodipodi:ry="5"
           d="M 45,152.36218 A 5,5 0 1 1 35,152.36218 A 5,5 0 1 1 45,152.36218 z"
           transform="translate(205,-65)" />
        <path
           sodipodi:type="arc"
           style="opacity:1;fill:none;fill-opacity:1;stroke:#000000;stroke-width:2;stroke-linejoin:miter;stroke-miterlimit:4;stroke-dasharray:none;stroke-dashoffset:0;stroke-opacity:1"
           id="path3252"
           sodipodi:cx="40"
           sodipodi:cy="152.36218"
           sodipodi:rx="5"
           sodipodi:ry="5"
           d="M 45,152.36218 A 5,5 0 1 1 35,152.36218 A 5,5 0 1 1 45,152.36218 z"
           transform="translate(155,-65)" />
      </g>
      <g
         transform="translate(0,120)"
         id="g3254">
        <rect
           style="opacity:1;fill:none;fill-opacity:1;stroke:#000000;stroke-width:2;stroke-linejoin:miter;stroke-miterlimit:4;stroke-dasharray:none;stroke-dashoffset:0;stroke-opacity:1"
           id="rect3256"
           width="100"
           height="100"
           x="145"
           y="37.362183" />
        <path
           sodipodi:type="arc"
           style="opacity:1;fill:#000000;fill-opacity:1;stroke:#000000;stroke-width:2;stroke-linejoin:miter;stroke-miterlimit:4;stroke-dasharray:none;stroke-dashoffset:0;stroke-opacity:1"
           id="path3258"
           sodipodi:cx="40"
           sodipodi:cy="152.36218"
           sodipodi:rx="5"
           sodipodi:ry="5"
           d="M 45,152.36218 A 5,5 0 1 1 35,152.36218 A 5,5 0 1 1 45,152.36218 z"
           transform="translate(105,-15)" />
        <path
           sodipodi:type="arc"
           style="opacity:1;fill:#000000;fill-opacity:1;stroke:#000000;stroke-width:2;stroke-linejoin:miter;stroke-miterlimit:4;stroke-dasharray:none;stroke-dashoffset:0;stroke-opacity:1"
           id="path3260"
           sodipodi:cx="40"
           sodipodi:cy="152.36218"
           sodipodi:rx="5"
           sodipodi:ry="5"
           d="M 45,152.36218 A 5,5 0 1 1 35,152.36218 A 5,5 0 1 1 45,152.36218 z"
           transform="translate(105,-115)" />
        <path
           sodipodi:type="arc"
           style="opacity:1;fill:#000000;fill-opacity:1;stroke:#000000;stroke-width:2;stroke-linejoin:miter;stroke-miterlimit:4;stroke-dasharray:none;stroke-dashoffset:0;stroke-opacity:1"
           id="path3262"
           sodipodi:cx="40"
           sodipodi:cy="152.36218"
           sodipodi:rx="5"
           sodipodi:ry="5"
           d="M 45,152.36218 A 5,5 0 1 1 35,152.36218 A 5,5 0 1 1 45,152.36218 z"
           transform="translate(205,-115)" />
        <path
           sodipodi:type="arc"
           style="opacity:1;fill:#000000;fill-opacity:1;stroke:#000000;stroke-width:2;stroke-linejoin:miter;stroke-miterlimit:4;stroke-dasharray:none;stroke-dashoffset:0;stroke-opacity:1"
           id="path3264"
           sodipodi:cx="40"
           sodipodi:cy="152.36218"
           sodipodi:rx="5"
           sodipodi:ry="5"
           d="M 45,152.36218 A 5,5 0 1 1 35,152.36218 A 5,5 0 1 1 45,152.36218 z"
           transform="translate(205,-15)" />
        <path
           sodipodi:type="arc"
           style="opacity:1;fill:none;fill-opacity:1;stroke:#000000;stroke-width:2;stroke-linejoin:miter;stroke-miterlimit:4;stroke-dasharray:none;stroke-dashoffset:0;stroke-opacity:1"
           id="path3266"
           sodipodi:cx="40"
           sodipodi:cy="152.36218"
           sodipodi:rx="5"
           sodipodi:ry="5"
           d="M 45,152.36218 A 5,5 0 1 1 35,152.36218 A 5,5 0 1 1 45,152.36218 z"
           transform="translate(155,-15)" />
        <path
           sodipodi:type="arc"
           style="opacity:1;fill:none;fill-opacity:1;stroke:#000000;stroke-width:2;stroke-linejoin:miter;stroke-miterlimit:4;stroke-dasharray:none;stroke-dashoffset:0;stroke-opacity:1"
           id="path3268"
           sodipodi:cx="40"
           sodipodi:cy="152.36218"
           sodipodi:rx="5"
           sodipodi:ry="5"
           d="M 45,152.36218 A 5,5 0 1 1 35,152.36218 A 5,5 0 1 1 45,152.36218 z"
           transform="translate(105,-65)" />
        <path
           sodipodi:type="arc"
           style="opacity:1;fill:none;fill-opacity:1;stroke:#000000;stroke-width:2;stroke-linejoin:miter;stroke-miterlimit:4;stroke-dasharray:none;stroke-dashoffset:0;stroke-opacity:1"
           id="path3270"
           sodipodi:cx="40"
           sodipodi:cy="152.36218"
           sodipodi:rx="5"
           sodipodi:ry="5"
           d="M 45,152.36218 A 5,5 0 1 1 35,152.36218 A 5,5 0 1 1 45,152.36218 z"
           transform="translate(155,-115)" />
        <path
           sodipodi:type="arc"
           style="opacity:1;fill:none;fill-opacity:1;stroke:#000000;stroke-width:2;stroke-linejoin:miter;stroke-miterlimit:4;stroke-dasharray:none;stroke-dashoffset:0;stroke-opacity:1"
           id="path3272"
           sodipodi:cx="40"
           sodipodi:cy="152.36218"
           sodipodi:rx="5"
           sodipodi:ry="5"
           d="M 45,152.36218 A 5,5 0 1 1 35,152.36218 A 5,5 0 1 1 45,152.36218 z"
           transform="translate(205,-65)" />
        <path
           sodipodi:type="arc"
           style="opacity:1;fill:none;fill-opacity:1;stroke:#000000;stroke-width:2;stroke-linejoin:miter;stroke-miterlimit:4;stroke-dasharray:none;stroke-dashoffset:0;stroke-opacity:1"
           id="path3274"
           sodipodi:cx="40"
           sodipodi:cy="152.36218"
           sodipodi:rx="5"
           sodipodi:ry="5"
           d="M 45,152.36218 A 5,5 0 1 1 35,152.36218 A 5,5 0 1 1 45,152.36218 z"
           transform="translate(155,-65)" />
      </g>
    </g>
    <path
       style="fill:#646464;fill-rule:evenodd;stroke:#000000;stroke-width:1px;stroke-linecap:butt;stroke-linejoin:miter;stroke-opacity:1;fill-opacity:1"
       d="M 430,192.36218 C 506.66667,190.869 613.33333,116.10377 690,192.36218 C 724.11013,100.89428 643.6947,79.571568 650,32.362183 C 598.70338,67.279005 560.37208,62.121195 530,32.362183 C 494.52181,103.79481 434.67597,27.379525 430,192.36218"
       id="path3278"
       sodipodi:nodetypes="ccccc" />
    <path
       style="fill:none;fill-rule:evenodd;stroke:#000000;stroke-width:1;stroke-linecap:butt;stroke-linejoin:miter;stroke-opacity:1;stroke-miterlimit:4;stroke-dasharray:2,1;stroke-dashoffset:0"
       d="M 430,262.36218 L 690,292.36218 L 650,72.362183 L 530,62.362183 L 430,262.36218 z"
       id="path3276"
       sodipodi:nodetypes="ccccc" />
    <path
       style="fill:none;fill-rule:evenodd;stroke:#000000;stroke-width:1;stroke-linecap:butt;stroke-linejoin:miter;stroke-opacity:1;stroke-miterlimit:4;stroke-dasharray:1,1;stroke-dashoffset:0"
       d="M 430,262.36218 L 430,192.36218"
       id="path3280" />
    <path
       style="fill:none;fill-rule:evenodd;stroke:#000000;stroke-width:1;stroke-linecap:butt;stroke-linejoin:miter;stroke-opacity:1;stroke-miterlimit:4;stroke-dasharray:1,1;stroke-dashoffset:0"
       d="M 690,192.36218 L 690,292.36218 L 690,292.36218"
       id="path3282" />
    <path
       style="fill:none;fill-rule:evenodd;stroke:#000000;stroke-width:1;stroke-linecap:butt;stroke-linejoin:miter;stroke-opacity:1;stroke-miterlimit:4;stroke-dasharray:1,1;stroke-dashoffset:0"
       d="M 650,32.362183 L 650,72.362183"
       id="path3284" />
    <path
       style="fill:none;fill-rule:evenodd;stroke:#000000;stroke-width:1;stroke-linecap:butt;stroke-linejoin:miter;stroke-opacity:1;stroke-miterlimit:4;stroke-dasharray:1,1;stroke-dashoffset:0"
       d="M 530,32.362183 L 530,62.362183"
       id="path3286" />
    <path
       style="fill:none;fill-rule:evenodd;stroke:#000000;stroke-width:1;stroke-linecap:butt;stroke-linejoin:miter;stroke-opacity:1;stroke-miterlimit:4;stroke-dasharray:2,1;stroke-dashoffset:0"
       d="M 588.57143,68.076467 L 567.85714,278.79075 L 567.85714,278.79075 L 567.85714,278.79075"
       id="path3288" />
    <path
       style="fill:none;fill-rule:evenodd;stroke:#000000;stroke-width:1;stroke-linecap:butt;stroke-linejoin:miter;stroke-opacity:1;stroke-miterlimit:4;stroke-dasharray:2,1;stroke-dashoffset:0"
       d="M 490,142.36218 L 664.28571,159.50504"
       id="path3290" />
    <path
       style="fill:none;fill-rule:evenodd;stroke:#000000;stroke-width:1;stroke-linecap:butt;stroke-linejoin:miter;stroke-opacity:1;stroke-miterlimit:4;stroke-dasharray:none;stroke-dashoffset:0"
       d="M 565.71429,161.6479 C 556.91479,92.584999 576.67545,82.525176 589.28571,55.93361"
       id="path3292"
       sodipodi:nodetypes="cc" />
    <path
       style="fill:none;fill-rule:evenodd;stroke:#000000;stroke-width:1;stroke-linecap:butt;stroke-linejoin:miter;stroke-opacity:1;stroke-miterlimit:4;stroke-dasharray:none;stroke-dashoffset:0"
       d="M 456.42857,85.219324 C 488.69924,103.07207 601.55116,63.36625 686.04605,104.71424"
       id="path3294"
       sodipodi:nodetypes="cc" />
    <path
       style="fill:none;fill-rule:evenodd;stroke:#000000;stroke-width:1px;stroke-linecap:butt;stroke-linejoin:miter;stroke-opacity:1;marker-end:url(#Arrow1Lend)"
       d="M 459.28571,140.93361 L 154.7585,210.24906"
       id="path3296"
       sodipodi:nodetypes="cc" />
    <path
       style="opacity:1;fill:#ff8080;fill-opacity:1;stroke:none;stroke-width:0.50507628999999998;stroke-linejoin:miter;stroke-miterlimit:4;stroke-dasharray:none;stroke-dashoffset:0;stroke-opacity:1"
       d="M 527.2467,145.40227 C 507.52347,143.44509 491.31653,141.79422 491.23132,141.73365 C 491.10803,141.64608 516.72626,90.056459 517.10689,89.625751 C 517.29573,89.412023 554.39788,87.01491 562.97029,86.662589 L 571.41981,86.315314 L 569.69472,90.593295 C 564.49491,103.48868 562.49077,117.29701 563.02958,136.5154 C 563.19782,142.51738 563.47895,147.80175 563.65416,148.25842 C 563.82942,148.71509 563.778,149.05993 563.53996,149.02474 C 563.30182,148.98955 546.96992,147.35943 527.2467,145.40226 L 527.2467,145.40227 z"
       id="path4082" />
    <path
       style="opacity:1;fill:#ff8080;fill-opacity:1;stroke:none;stroke-width:0.50507628999999998;stroke-linejoin:miter;stroke-miterlimit:4;stroke-dasharray:none;stroke-dashoffset:0;stroke-opacity:1"
       d="M 479.64402,164.46566 L 490.37613,142.97202 L 491.89136,143.2203 C 492.72473,143.35687 509.23941,145.008 528.59065,146.88948 L 563.77477,150.31033 L 564.06282,152.85627 C 564.22126,154.25652 564.49153,156.76589 564.6633,158.43264 L 564.97574,161.4631 L 554.17004,163.84637 C 542.13397,166.50102 532.58848,168.97169 511.33679,174.93294 C 488.77236,181.26242 470.90221,185.9593 469.38491,185.9593 C 469.12479,185.9593 473.74139,176.28717 479.64402,164.46566 L 479.64402,164.46566 z"
       id="path4084" />
    <path
       style="opacity:1;fill:#ff8080;fill-opacity:1;stroke:none;stroke-width:0.50507628999999998;stroke-linejoin:miter;stroke-miterlimit:4;stroke-dasharray:none;stroke-dashoffset:0;stroke-opacity:1"
       d="M 430.89809,186.6605 C 431.32483,174.39301 433.5353,147.92999 434.18771,147.27755 C 434.28913,147.17616 439.91194,145.88317 446.68294,144.40422 C 453.63011,142.88678 459.08191,141.45103 459.196,141.10883 C 459.5044,140.18352 458.65204,140.31171 446.43449,143.02782 C 440.1867,144.41678 434.96022,145.5532 434.82006,145.5532 C 434.28382,145.5532 434.61157,142.43607 435.85653,135.69639 C 439.91411,113.73049 446.15215,98.172924 454.55364,89.066404 L 457.04109,86.370246 L 459.56648,87.364645 C 468.25379,90.785456 484.8416,91.670416 509.06395,90.005336 C 512.39745,89.776203 515.19447,89.654979 515.27957,89.735989 C 515.52544,89.970137 467.32864,186.17836 466.79689,186.5149 C 465.06676,187.60975 444.83345,190.7735 436.05401,191.32194 L 430.72435,191.65488 L 430.89809,186.6605 z"
       id="path4086" />
    <path
       style="opacity:1;fill:#ff8080;fill-opacity:1;stroke:none;stroke-width:1;stroke-linejoin:miter;stroke-miterlimit:4;stroke-dasharray:2, 1;stroke-dashoffset:0;stroke-opacity:1"
       d="M 430.85053,189.21084 C 431.24146,178.02208 432.66375,158.71201 433.71738,150.28829 C 434.06714,147.49199 434.10958,147.35735 434.68899,147.20573 C 436.34673,146.77195 437.9134,146.40794 443.45999,145.16783 C 452.56072,143.13308 457.04114,142.03143 458.6649,141.42923 C 459.30493,141.19187 459.47218,140.79929 459.0084,140.62296 C 458.43192,140.40378 456.38079,140.79968 443.36615,143.64214 L 434.77986,145.51742 L 434.68024,145.18807 C 434.27111,143.83543 436.48704,131.59259 438.70511,122.95104 C 442.64991,107.58215 447.76134,96.676321 454.52673,89.193792 C 455.33321,88.301821 456.22535,87.31113 456.50926,86.99226 L 457.02546,86.412496 L 459.03464,87.181905 C 464.10561,89.123816 469.09512,90.037133 477.52194,90.565955 C 485.3217,91.055427 492.98249,90.950678 506.91388,90.16406 C 511.37746,89.912029 515.06393,89.740263 515.10603,89.782357 C 515.22368,89.900013 514.3582,91.679071 505.14346,110.261 C 493.49413,133.75238 471.81788,176.88744 468.15049,183.87586 C 467.45804,185.19537 466.78251,186.36988 466.64933,186.48586 C 466.03059,187.02475 458.74583,188.41823 449.99528,189.6716 C 443.37013,190.62054 438.86646,191.10711 434.14851,191.38371 C 432.89845,191.45698 431.6259,191.545 431.32063,191.57929 L 430.7656,191.64162 L 430.85053,189.21084 z"
       id="path4138" />
    <path
       style="opacity:1;fill:#ff8080;fill-opacity:1;stroke:none;stroke-width:1;stroke-linejoin:miter;stroke-miterlimit:4;stroke-dasharray:2, 1;stroke-dashoffset:0;stroke-opacity:1"
       d="M 531.69137,145.81113 C 514.57244,144.08932 498.50325,142.4621 495.98207,142.19508 C 491.50549,141.72098 491.39964,141.70342 491.46438,141.4455 C 491.64064,140.74322 516.60719,90.414769 517.06264,89.84361 C 517.20144,89.669567 517.68454,89.592741 519.63267,89.43492 C 525.63544,88.948626 548.46206,87.488772 558.20787,86.967881 C 563.42358,86.689115 571.25743,86.341544 571.30681,86.38671 C 571.32335,86.401842 570.88084,87.546579 570.32343,88.930566 C 568.15772,94.307813 567.01452,97.76881 565.90536,102.30604 C 563.5689,111.86385 562.67014,122.02715 562.99355,135.23316 C 563.1549,141.82196 563.32409,145.74424 563.51496,147.32097 C 563.58642,147.91127 563.65742,148.5079 563.67273,148.64679 C 563.69549,148.85318 563.61981,148.9032 563.25863,148.92052 C 563.01557,148.93218 548.8103,147.53295 531.69137,145.81113 L 531.69137,145.81113 z"
       id="path4140" />
    <path
       style="opacity:1;fill:#ff8080;fill-opacity:1;stroke:none;stroke-width:1;stroke-linejoin:miter;stroke-miterlimit:4;stroke-dasharray:2, 1;stroke-dashoffset:0;stroke-opacity:1"
       d="M 466.35107,186.74336 C 466.81845,186.52125 466.95062,186.32933 467.96673,184.39742 C 473.37984,174.10552 514.32335,92.264754 515.24208,89.900108 C 515.28888,89.779656 514.93383,89.737687 513.7431,89.722915 L 512.1828,89.70356 L 513.92676,89.583372 C 514.88595,89.51727 515.69948,89.49192 515.73459,89.52704 C 515.76971,89.562159 515.65257,89.878758 515.47428,90.230594 C 515.29599,90.582433 515.15012,90.922115 515.15012,90.985446 C 515.15012,91.048778 515.32181,91.171707 515.53164,91.258623 C 516.02341,91.462324 516.06852,91.548648 515.88907,91.942518 C 515.72097,92.31147 515.59771,92.33411 515.15012,92.078249 C 514.9765,91.978999 514.79255,91.89578 514.74134,91.893321 C 514.66373,91.889592 513.76116,93.55085 513.76116,93.697418 C 513.76116,93.723329 513.9843,93.84515 514.25703,93.968134 L 514.7529,94.191738 L 514.5529,94.611122 L 514.35292,95.03051 L 513.85539,94.776691 C 513.58177,94.637096 513.34163,94.541048 513.32178,94.563255 C 513.30193,94.585462 513.08311,95.008289 512.83552,95.50287 L 512.38536,96.40211 L 512.87465,96.622749 L 513.36394,96.843389 L 513.16394,97.262773 L 512.96396,97.68216 L 512.48098,97.435756 L 511.99798,97.189352 L 511.55374,98.071479 C 511.30942,98.556652 511.10951,98.981979 511.10951,99.016654 C 511.10951,99.051326 511.29418,99.173615 511.51988,99.288403 C 511.74559,99.40319 511.94866,99.51301 511.97113,99.532449 C 511.99362,99.551888 511.92096,99.743859 511.80968,99.959053 L 511.60735,100.35032 L 511.12902,100.10629 L 510.65067,99.862255 L 510.18564,100.80209 L 509.72057,101.74194 L 510.1625,101.95267 C 510.65327,102.18671 510.6669,102.2202 510.4579,102.67891 C 510.28921,103.04912 510.27031,103.05321 509.84682,102.81112 C 509.6732,102.71187 509.47232,102.62865 509.40041,102.62619 C 509.27967,102.62206 508.45786,104.14118 508.45786,104.36849 C 508.45786,104.42376 508.65355,104.5623 508.89273,104.67636 L 509.32761,104.88374 L 509.1137,105.38839 C 508.99606,105.66596 508.88046,105.83766 508.85683,105.76996 C 508.81687,105.6555 508.17582,105.27337 508.02377,105.27337 C 507.98646,105.27337 507.75292,105.67654 507.50477,106.1693 C 507.0761,107.02053 507.065,107.07404 507.28222,107.24168 C 507.40794,107.33873 507.63524,107.45224 507.78729,107.49394 C 508.05488,107.56732 508.0573,107.58326 507.8622,107.99239 L 507.66066,108.41503 L 507.16313,108.16121 C 506.88951,108.02162 506.64937,107.92557 506.62952,107.94778 C 506.60967,107.96998 506.38695,108.40057 506.13457,108.90464 L 505.67572,109.82113 L 506.15134,110.03732 C 506.41293,110.15622 506.6436,110.26236 506.66394,110.27319 C 506.68428,110.28401 506.6054,110.49316 506.48865,110.73798 L 506.27641,111.18308 L 505.88347,110.94348 C 505.66735,110.8117 505.43171,110.70367 505.3598,110.70341 C 505.23603,110.70296 504.41725,112.22694 504.41725,112.45778 C 504.41725,112.51749 504.58894,112.63745 504.79877,112.72436 C 505.29054,112.92806 505.33565,113.01439 505.1562,113.40826 C 504.9881,113.77721 504.86483,113.79985 504.41725,113.54399 C 504.24363,113.44474 504.05968,113.36152 504.00847,113.35906 C 503.93086,113.35533 503.02829,115.01659 503.02829,115.16316 C 503.02829,115.18907 503.25143,115.31089 503.52416,115.43388 L 504.02003,115.65748 L 503.82003,116.07686 L 503.62005,116.49625 L 503.12252,116.24244 C 502.8489,116.10284 502.60876,116.00679 502.58891,116.029 C 502.56906,116.0512 502.35024,116.47403 502.10265,116.96861 L 501.65249,117.86785 L 502.15098,118.09264 C 502.42515,118.21628 502.6471,118.35142 502.64419,118.39296 C 502.63329,118.54848 502.15477,119.34679 502.1497,119.21792 C 502.14679,119.14397 501.94573,118.98873 501.70292,118.87294 L 501.26142,118.6624 L 500.80564,119.56749 C 500.36947,120.43358 500.35993,120.47996 500.58421,120.644 C 500.71311,120.73829 500.9449,120.84715 501.09929,120.88592 C 501.37092,120.95412 501.37346,120.96927 501.17793,121.35394 C 501.0668,121.57259 500.96019,121.76965 500.94102,121.79186 C 500.92187,121.81406 500.6838,121.71878 500.41199,121.58012 L 499.9178,121.328 L 499.4546,122.26416 L 498.99135,123.20031 L 499.49197,123.45571 L 499.99258,123.7111 L 499.78834,124.13936 L 499.58415,124.5676 L 499.19121,124.328 C 498.97509,124.19622 498.73945,124.08819 498.66754,124.08793 C 498.54377,124.08749 497.72499,125.61146 497.72499,125.8423 C 497.72499,125.96107 498.48773,126.31247 498.64044,126.26406 C 498.7947,126.21515 498.74156,126.39014 498.41947,126.99165 C 498.25212,127.30416 498.11263,127.46188 498.1095,127.34213 C 498.10477,127.16168 497.53113,126.73911 497.2909,126.73911 C 497.25359,126.73911 497.02005,127.14228 496.7719,127.63504 C 496.34323,128.48627 496.33213,128.53978 496.54935,128.70742 C 496.67507,128.80447 496.90582,128.91885 497.06208,128.9616 C 497.21833,129.00435 497.34379,129.07578 497.34089,129.12034 C 497.33055,129.2786 496.8516,130.08295 496.8464,129.95079 C 496.84147,129.82571 495.96559,129.33511 495.89325,129.41691 C 495.87527,129.43725 495.65503,129.8644 495.40385,130.36612 L 494.94714,131.27834 L 495.3373,131.48011 C 495.5519,131.59108 495.80758,131.65114 495.90549,131.61357 C 496.00339,131.576 496.08093,131.58609 496.07778,131.636 C 496.06647,131.81602 495.46342,132.85937 495.45785,132.70856 C 495.45245,132.56232 494.82817,132.16868 494.60163,132.16868 C 494.49562,132.16868 493.68438,133.7207 493.68438,133.92352 C 493.68438,134.04655 494.44978,134.39292 494.60935,134.3421 C 494.7911,134.28421 494.59422,134.72754 492.87192,138.25433 C 491.94592,140.15055 491.2044,141.71997 491.22411,141.74195 C 491.24382,141.76392 491.90488,141.85592 492.69314,141.94639 C 493.63283,142.05425 493.91542,142.11658 493.51383,142.12741 L 492.90133,142.14393 L 492.94652,142.71215 C 492.9863,143.2123 492.96136,143.28015 492.73827,143.27863 C 492.08514,143.27419 491.97669,143.16962 492.02288,142.58883 L 492.06681,142.03672 L 491.48663,141.94972 C 491.16753,141.90187 490.90646,141.8385 490.90646,141.8089 C 490.90646,141.77929 491.0201,141.53231 491.159,141.26005 C 491.49078,140.60969 491.48563,140.58454 490.97005,140.33868 L 490.52855,140.12815 L 490.07277,141.03323 C 489.69997,141.7735 489.64815,141.96279 489.78821,142.07269 C 489.88238,142.1466 489.94146,142.36333 489.91949,142.55431 C 489.88667,142.83953 489.9289,142.90155 490.15591,142.90155 C 490.3848,142.90155 490.40583,142.93346 490.27822,143.08721 C 490.14358,143.24943 490.06482,143.24263 489.65453,143.03331 L 489.18493,142.79374 L 488.71989,143.73358 L 488.25483,144.67342 L 488.69676,144.88416 C 489.18753,145.11819 489.20116,145.15168 488.99216,145.61039 C 488.82347,145.9806 488.80457,145.98469 488.38108,145.7426 C 488.20746,145.64335 488.00658,145.56013 487.93467,145.55767 C 487.81393,145.55354 486.99212,147.07266 486.99212,147.29997 C 486.99212,147.35524 487.18781,147.49378 487.42699,147.60784 L 487.86187,147.81522 L 487.64796,148.31988 C 487.53031,148.59744 487.41471,148.76914 487.39109,148.70144 C 487.35113,148.58698 486.71008,148.20485 486.55803,148.20485 C 486.52072,148.20485 486.28459,148.61316 486.03328,149.11219 C 485.59606,149.98041 485.58646,150.02693 485.81073,150.19097 C 485.93963,150.28525 486.1695,150.39363 486.32155,150.43181 C 486.58929,150.49905 486.59165,150.51453 486.39646,150.92387 L 486.19492,151.34651 L 485.69739,151.0927 C 485.42377,150.9531 485.18363,150.85705 485.16378,150.87926 C 485.14393,150.90147 484.9212,151.33206 484.66883,151.83612 L 484.20998,152.75261 L 484.6856,152.9688 C 484.94719,153.0877 485.17786,153.19384 485.1982,153.20467 C 485.21854,153.21549 485.13966,153.42465 485.02291,153.66946 L 484.81067,154.11456 L 484.41773,153.87497 C 484.20161,153.74319 483.96597,153.63515 483.89406,153.63489 C 483.77029,153.63445 482.95151,155.15843 482.95151,155.38926 C 482.95151,155.44897 483.1232,155.56893 483.33303,155.65585 C 483.8248,155.85955 483.86991,155.94587 483.69046,156.33974 C 483.52236,156.70869 483.39909,156.73133 482.95151,156.47547 C 482.77789,156.37622 482.59394,156.29301 482.54272,156.29055 C 482.46512,156.28681 481.56255,157.94807 481.56255,158.09464 C 481.56255,158.12055 481.78569,158.24237 482.05842,158.36536 L 482.55429,158.58896 L 482.35429,159.00835 L 482.15431,159.42773 L 481.65678,159.17392 C 481.38316,159.03432 481.14302,158.93827 481.12317,158.96048 C 481.10332,158.98269 480.8845,159.40551 480.63691,159.90009 L 480.18674,160.79933 L 480.68524,161.02413 C 480.95941,161.14776 481.18135,161.28291 481.17845,161.32444 C 481.16755,161.47996 480.68903,162.27827 480.68395,162.1494 C 480.68105,162.07546 480.47999,161.92021 480.23718,161.80442 L 479.79568,161.59389 L 479.3399,162.49897 C 478.90372,163.36507 478.89419,163.41145 479.11847,163.57549 C 479.24737,163.66977 479.47916,163.77863 479.63355,163.8174 C 479.90518,163.88561 479.90772,163.90075 479.71219,164.28543 C 479.60106,164.50407 479.49445,164.70113 479.47528,164.72334 C 479.45613,164.74555 479.21806,164.65026 478.94625,164.5116 L 478.45206,164.25948 L 477.98885,165.19564 L 477.52561,166.1318 L 478.02623,166.3872 L 478.52684,166.64259 L 478.3226,167.07084 L 478.11841,167.49909 L 477.72547,167.25949 C 477.50935,167.12771 477.2737,167.01967 477.20179,167.01941 C 477.08059,167.01898 476.25925,168.5407 476.25925,168.76571 C 476.25925,168.82098 476.45812,168.96104 476.70119,169.07695 C 476.94426,169.19287 477.14074,169.33123 477.13784,169.38444 C 477.12794,169.5653 476.64867,170.36592 476.64334,170.21048 C 476.6388,170.07749 476.02215,169.67059 475.82516,169.67059 C 475.78786,169.67059 475.55172,170.0789 475.30041,170.57794 C 474.86319,171.44615 474.85359,171.49268 475.07786,171.6567 C 475.20676,171.75099 475.43663,171.85938 475.58868,171.89755 C 475.85644,171.96479 475.85878,171.98027 475.66358,172.38961 L 475.46205,172.81225 L 474.96452,172.55844 C 474.69089,172.41884 474.45076,172.3228 474.43091,172.345 C 474.41106,172.36721 474.1893,172.79588 473.93811,173.29761 L 473.4814,174.20983 L 473.87156,174.41159 C 474.08616,174.52257 474.34184,174.58262 474.43974,174.54505 C 474.53764,174.50747 474.61518,174.51757 474.61204,174.56748 C 474.60072,174.7475 473.99768,175.79085 473.99211,175.64005 C 473.98671,175.49379 473.36243,175.10016 473.13589,175.10016 C 473.02988,175.10016 472.21864,176.65219 472.21864,176.855 C 472.21864,176.97802 472.98405,177.3244 473.1436,177.27358 C 473.30469,177.22228 473.11865,177.71555 472.53464,178.88823 C 471.70279,180.55858 469.69645,184.90834 469.49668,185.47455 L 469.31701,185.9838 L 470.10491,185.91435 L 470.89281,185.84491 L 469.89191,186.09942 L 468.89101,186.35396 L 468.30023,186.03241 L 467.70945,185.71087 L 467.48389,186.21107 C 467.24819,186.73376 467.17191,186.78049 466.34712,186.90748 L 465.84205,186.98525 L 466.35107,186.74336 z M 469.53989,184.50482 C 469.76313,184.0521 469.94579,183.63646 469.94579,183.58119 C 469.94579,183.52592 469.74712,183.38595 469.5043,183.27016 L 469.06281,183.05963 L 468.62041,183.9381 C 468.3771,184.42127 468.17803,184.84459 468.17803,184.87883 C 468.17803,184.96171 468.83728,185.31648 469.00324,185.32291 C 469.07514,185.32568 469.31663,184.95755 469.53988,184.50482 L 469.53989,184.50482 z M 470.89933,181.77948 C 471.14773,181.28622 471.33311,180.8673 471.31129,180.84852 C 471.18999,180.74415 470.42167,180.39124 470.3908,180.42572 C 470.37067,180.4482 470.15228,180.86995 469.90549,181.36294 L 469.45679,182.25929 L 469.85912,182.45972 C 470.08041,182.56996 470.30337,182.66379 470.35458,182.66822 C 470.40579,182.67267 470.65093,182.27274 470.89933,181.77948 L 470.89933,181.77948 z M 472.24388,179.09616 L 472.70331,178.16768 L 472.26729,177.95974 C 472.02747,177.84538 471.80549,177.75181 471.774,177.75181 C 471.69962,177.75181 470.80098,179.53491 470.85314,179.57899 C 470.93598,179.64902 471.65345,180.01477 471.71744,180.0196 C 471.7543,180.02238 471.9912,179.60683 472.24388,179.09616 L 472.24388,179.09616 z M 492.36507,138.848 C 492.61346,138.35475 492.79885,137.93581 492.77703,137.91704 C 492.65573,137.81266 491.88742,137.45976 491.85654,137.49424 C 491.83642,137.51672 491.61802,137.93847 491.37123,138.43146 L 490.92252,139.32781 L 491.32486,139.52824 C 491.54615,139.63848 491.7691,139.73231 491.82032,139.73675 C 491.87153,139.74119 492.11667,139.34125 492.36507,138.848 z M 493.70963,136.16467 L 494.16906,135.23618 L 493.73303,135.02825 C 493.49322,134.9139 493.27124,134.82033 493.23973,134.82033 C 493.16536,134.82033 492.26672,136.60342 492.31888,136.64751 C 492.40172,136.71753 493.1192,137.08329 493.18318,137.08812 C 493.22005,137.0909 493.45694,136.67535 493.70962,136.16468 L 493.70963,136.16467 z"
       id="path4142" />
    <path
       style="opacity:1;fill:#ff8080;fill-opacity:1;stroke:none;stroke-width:1;stroke-linejoin:miter;stroke-miterlimit:4;stroke-dasharray:2, 1;stroke-dashoffset:0;stroke-opacity:1"
       d="M 494.7988,143.42289 C 494.89088,143.36451 494.9978,143.08128 495.0364,142.79348 L 495.10658,142.2702 L 494.56384,142.2702 C 494.26533,142.2702 494.05579,142.23551 494.0982,142.1931 C 494.1406,142.1507 494.70408,142.16206 495.35036,142.21835 C 495.99667,142.27463 496.39758,142.3417 496.24133,142.36737 C 495.96958,142.41201 495.89617,142.64462 495.92331,143.37506 C 495.92727,143.48185 495.71932,143.53227 495.28028,143.53096 C 494.88049,143.52977 494.69567,143.48828 494.7988,143.42289 L 494.7988,143.42289 z"
       id="path4144" />
    <path
       style="opacity:1;fill:#ff8080;fill-opacity:1;stroke:none;stroke-width:1;stroke-linejoin:miter;stroke-miterlimit:4;stroke-dasharray:2, 1;stroke-dashoffset:0;stroke-opacity:1"
       d="M 497.78812,143.78543 C 497.33329,143.72305 497.26764,143.69329 497.55334,143.679 C 497.91265,143.66103 497.95529,143.61469 498.00728,143.18565 C 498.03947,142.92004 498.00395,142.66918 497.92639,142.61428 C 497.85035,142.56045 498.04382,142.53204 498.35633,142.55114 L 498.92454,142.58588 L 498.88348,143.17635 C 498.84433,143.73953 498.85892,143.7693 499.19915,143.82034 C 499.41119,143.85215 499.3254,143.87349 498.98768,143.87294 C 498.67516,143.87244 498.13536,143.83306 497.78812,143.78543 z"
       id="path4146" />
    <path
       style="opacity:1;fill:#ff8080;fill-opacity:1;stroke:none;stroke-width:1;stroke-linejoin:miter;stroke-miterlimit:4;stroke-dasharray:2, 1;stroke-dashoffset:0;stroke-opacity:1"
       d="M 500.9784,143.54365 C 501.0335,142.97035 501.01524,142.91843 500.7389,142.86235 C 500.57439,142.82897 500.89434,142.83178 501.44993,142.86861 C 502.44698,142.93469 502.89499,143.02782 502.21587,143.02782 C 501.87922,143.02782 501.86809,143.04859 501.91163,143.59603 L 501.95682,144.16424 L 501.43782,144.16424 L 500.91879,144.16424 L 500.9784,143.54365 z"
       id="path4148" />
    <path
       style="opacity:1;fill:#ff8080;fill-opacity:1;stroke:none;stroke-width:1;stroke-linejoin:miter;stroke-miterlimit:4;stroke-dasharray:2, 1;stroke-dashoffset:0;stroke-opacity:1"
       d="M 527.71389,146.75525 C 525.561,146.52866 524.04104,146.33596 524.33619,146.32704 L 524.87284,146.31081 L 524.87284,145.72909 C 524.87284,145.25052 524.90826,145.16096 525.07257,145.22402 C 525.18242,145.26617 525.39591,145.30066 525.54699,145.30066 C 525.79424,145.30066 525.81725,145.3563 525.77738,145.85756 L 525.7331,146.41445 L 526.54748,146.50167 C 527.7164,146.62685 527.83294,146.5852 527.87935,146.02566 C 527.91713,145.5701 527.93562,145.5532 528.39597,145.5532 L 528.87341,145.5532 L 528.78747,146.1195 C 528.69081,146.7564 528.60108,146.70582 530.12766,146.87485 L 530.77367,146.94638 L 530.84309,146.42876 C 530.92955,145.78416 530.95284,145.76213 531.43584,145.86821 C 531.82046,145.95269 531.82778,145.96761 531.74732,146.50412 L 531.66493,147.05352 L 532.27793,147.10134 L 532.89092,147.14918 L 532.25958,147.15821 C 531.91234,147.16318 529.86678,146.98185 527.71389,146.75525 L 527.71389,146.75525 z"
       id="path4150" />
    <path
       style="opacity:1;fill:#ff8080;fill-opacity:1;stroke:none;stroke-width:1;stroke-linejoin:miter;stroke-miterlimit:4;stroke-dasharray:2, 1;stroke-dashoffset:0;stroke-opacity:1"
       d="M 520.6151,146.07281 C 518.96643,145.89786 518.71045,145.84196 518.81383,145.67947 C 518.8801,145.5753 518.9352,145.3054 518.93626,145.07969 C 518.93818,144.67316 518.94381,144.66941 519.53797,144.67929 C 519.86785,144.68476 520.06672,144.71791 519.97991,144.75294 C 519.89154,144.7886 519.82207,145.03321 519.82207,145.30878 C 519.82207,145.85813 519.82579,145.86009 521.10208,145.98659 L 521.81388,146.05714 L 521.899,145.48949 C 521.97019,145.01476 522.02936,144.92217 522.26049,144.92379 C 522.76321,144.9273 522.88757,145.09835 522.79327,145.65652 L 522.70654,146.1699 L 523.31618,146.2176 L 523.92582,146.2653 L 523.23134,146.27102 C 522.84938,146.27418 521.67207,146.18498 520.6151,146.07281 L 520.6151,146.07281 z"
       id="path4152" />
    <path
       style="opacity:1;fill:#ff8080;fill-opacity:1;stroke:none;stroke-width:1;stroke-linejoin:miter;stroke-miterlimit:4;stroke-dasharray:2, 1;stroke-dashoffset:0;stroke-opacity:1"
       d="M 512.94041,145.31709 C 511.11855,145.13176 509.72766,144.93808 509.81525,144.88191 C 510.06778,144.71995 510.0174,143.81423 509.75212,143.74698 C 509.63058,143.71617 509.73002,143.7116 509.97309,143.73681 C 510.21616,143.76203 510.6139,143.78987 510.85697,143.79869 C 511.10004,143.80751 511.19948,143.84071 511.07794,143.87247 C 510.91504,143.91504 510.85697,144.05989 510.85697,144.42363 C 510.85697,144.97477 510.85926,144.97598 512.14346,145.10347 L 512.86175,145.17477 L 512.94801,144.59951 C 513.03096,144.04636 513.04944,144.02574 513.42929,144.06268 C 513.81595,144.10029 513.82365,144.11378 513.79367,144.70088 C 513.76543,145.25465 513.78578,145.30066 514.05926,145.30066 C 514.22217,145.30066 514.70472,145.33717 515.1316,145.38178 L 515.90773,145.46291 L 515.90773,144.86198 C 515.90773,144.30042 515.92635,144.26604 516.19184,144.33719 C 516.3481,144.37907 516.5684,144.41411 516.68141,144.41505 C 516.84952,144.41647 516.87542,144.51825 516.82393,144.97512 C 516.7635,145.51132 516.77538,145.53562 517.12355,145.58755 C 518.34076,145.76912 515.71541,145.59938 512.94041,145.31709 L 512.94041,145.31709 z"
       id="path4154" />
    <path
       style="opacity:1;fill:#ff8080;fill-opacity:1;stroke:none;stroke-width:1;stroke-linejoin:miter;stroke-miterlimit:4;stroke-dasharray:2, 1;stroke-dashoffset:0;stroke-opacity:1"
       d="M 505.17486,144.54305 C 504.09842,144.42288 503.37047,144.3169 503.55719,144.30754 C 503.85911,144.29239 503.90614,144.2276 503.98191,143.7223 C 504.06553,143.1648 504.07606,143.15409 504.54155,143.15409 L 505.01599,143.15409 L 504.90592,143.74325 C 504.84539,144.06728 504.81011,144.34503 504.82752,144.36047 C 504.84495,144.37591 505.32796,144.42921 505.90091,144.47893 L 506.94263,144.56933 L 506.95758,144.08268 C 506.96581,143.81502 506.96581,143.55341 506.95758,143.50133 C 506.93998,143.38984 507.27424,143.38046 507.652,143.48185 C 507.88549,143.54452 507.91159,143.62316 507.85766,144.10161 C 507.79854,144.62609 507.81145,144.65191 508.15845,144.70367 C 509.18418,144.85667 506.86674,144.73191 505.17486,144.54305 z"
       id="path4156" />
    <path
       style="opacity:1;fill:#ff8080;fill-opacity:1;stroke:none;stroke-width:1;stroke-linejoin:miter;stroke-miterlimit:4;stroke-dasharray:2, 1;stroke-dashoffset:0;stroke-opacity:1"
       d="M 533.45913,147.32097 C 532.79007,147.23898 532.7843,147.23511 533.3013,147.21528 L 533.83794,147.1947 L 533.83794,146.65472 L 533.83794,146.11474 L 534.31154,146.1599 L 534.78515,146.20507 L 534.74147,146.75412 C 534.69863,147.29285 534.70575,147.30415 535.12019,147.355 C 535.36231,147.3847 535.2462,147.40666 534.84809,147.40645 C 534.46613,147.40625 533.8411,147.36777 533.45913,147.32097 z"
       id="path4158" />
    <path
       style="opacity:1;fill:#ff8080;fill-opacity:1;stroke:none;stroke-width:1;stroke-linejoin:miter;stroke-miterlimit:4;stroke-dasharray:2, 1;stroke-dashoffset:0;stroke-opacity:1"
       d="M 536.11078,147.5735 L 535.4163,147.4884 L 536.06569,147.46782 C 536.75171,147.44608 536.8684,147.34063 536.8684,146.74243 C 536.8684,146.47556 536.92615,146.43708 537.32677,146.43708 L 537.78513,146.43708 L 537.72178,146.99916 C 537.67141,147.44603 537.70039,147.57242 537.86318,147.61585 C 538.17922,147.70016 536.89012,147.66901 536.11078,147.5735 z"
       id="path4160" />
    <path
       style="opacity:1;fill:#ff8080;fill-opacity:1;stroke:none;stroke-width:1;stroke-linejoin:miter;stroke-miterlimit:4;stroke-dasharray:2, 1;stroke-dashoffset:0;stroke-opacity:1"
       d="M 539.48848,147.8632 C 539.71154,147.82024 539.773,147.72218 539.77452,147.40689 C 539.77739,146.81244 539.91185,146.67328 540.3908,146.76907 C 540.73346,146.8376 540.79085,146.89636 540.7314,147.11779 C 540.69209,147.26427 540.65915,147.51195 540.6582,147.66821 C 540.6566,147.9317 540.6038,147.95106 539.93042,147.93512 C 539.5311,147.92566 539.33222,147.8933 539.48848,147.8632 L 539.48848,147.8632 z"
       id="path4162" />
    <path
       style="opacity:1;fill:#ff8080;fill-opacity:1;stroke:none;stroke-width:1;stroke-linejoin:miter;stroke-miterlimit:4;stroke-dasharray:2, 1;stroke-dashoffset:0;stroke-opacity:1"
       d="M 542.55051,148.20485 C 541.97434,148.13424 541.9367,148.11624 542.32954,148.09916 C 542.79436,148.07896 542.80305,148.06931 542.80305,147.5735 C 542.80305,147.07387 542.80816,147.06843 543.27746,147.06843 L 543.75188,147.06843 L 543.7074,147.62775 C 543.66361,148.17829 543.66954,148.18787 544.0853,148.23888 C 544.3641,148.27309 544.29307,148.29058 543.87633,148.29033 C 543.52909,148.29013 542.93247,148.25166 542.55051,148.20485 z"
       id="path4164" />
    <path
       style="opacity:1;fill:#ff8080;fill-opacity:1;stroke:none;stroke-width:1;stroke-linejoin:miter;stroke-miterlimit:4;stroke-dasharray:2, 1;stroke-dashoffset:0;stroke-opacity:1"
       d="M 545.20216,148.45739 L 544.50768,148.37228 L 545.10597,148.3517 C 545.70314,148.33116 545.70441,148.33017 545.78609,147.81933 C 545.86323,147.3369 545.89049,147.30973 546.26109,147.34582 C 546.63473,147.3822 546.65373,147.41047 546.64373,147.91554 C 546.63613,148.29971 546.68862,148.46186 546.83314,148.50067 C 547.14184,148.58358 545.98035,148.55275 545.20216,148.45739 z"
       id="path4166" />
    <path
       style="opacity:1;fill:#ff8080;fill-opacity:1;stroke:none;stroke-width:1;stroke-linejoin:miter;stroke-miterlimit:4;stroke-dasharray:2, 1;stroke-dashoffset:0;stroke-opacity:1"
       d="M 548.51672,148.74915 C 548.71164,148.69822 548.83141,148.14157 548.75061,147.6621 C 548.73787,147.58652 549.63514,147.66814 549.69599,147.74809 C 549.70217,147.75624 549.68202,148.0044 549.65116,148.29955 L 549.59505,148.8362 L 548.9454,148.82154 C 548.58809,148.81349 548.39519,148.78091 548.51672,148.74915 z"
       id="path4168" />
    <path
       style="opacity:1;fill:#ff8080;fill-opacity:1;stroke:none;stroke-width:1;stroke-linejoin:miter;stroke-miterlimit:4;stroke-dasharray:2, 1;stroke-dashoffset:0;stroke-opacity:1"
       d="M 551.64188,149.09453 C 551.09264,149.03181 551.02662,149.0031 551.32621,148.95728 C 551.66033,148.90617 551.70964,148.84347 551.74421,148.42582 C 551.78184,147.97111 551.80193,147.95231 552.25019,147.95231 L 552.71699,147.95231 L 552.6725,148.51163 C 552.62871,149.06217 552.63465,149.07175 553.0504,149.12276 C 553.37408,149.16247 553.34001,149.1745 552.90457,149.17421 C 552.59205,149.17401 552.02384,149.13815 551.64188,149.09453 L 551.64188,149.09453 z"
       id="path4170" />
    <path
       style="opacity:1;fill:#ff8080;fill-opacity:1;stroke:none;stroke-width:1;stroke-linejoin:miter;stroke-miterlimit:4;stroke-dasharray:2, 1;stroke-dashoffset:0;stroke-opacity:1"
       d=""
       id="path4172" />
    <path
       style="opacity:1;fill:#ff8080;fill-opacity:1;stroke:none;stroke-width:1;stroke-linejoin:miter;stroke-miterlimit:4;stroke-dasharray:2, 1;stroke-dashoffset:0;stroke-opacity:1"
       d=""
       id="path4174" />
    <path
       style="opacity:1;fill:#ff8080;fill-opacity:1;stroke:none;stroke-width:1;stroke-linejoin:miter;stroke-miterlimit:4;stroke-dasharray:2, 1;stroke-dashoffset:0;stroke-opacity:1"
       d="M 554.29353,149.34127 C 553.63957,149.26113 553.62972,149.25496 554.1246,149.23558 C 554.63591,149.21556 554.65249,149.20113 554.73667,148.70284 C 554.81837,148.2193 554.84544,148.19284 555.22128,148.22933 C 555.60269,148.26637 555.61838,148.29013 555.59621,148.79699 C 555.57861,149.19909 555.62405,149.33946 555.78561,149.38212 C 556.10446,149.46631 555.08644,149.43844 554.29353,149.34127 z"
       id="path4176" />
    <path
       style="opacity:1;fill:#ff8080;fill-opacity:1;stroke:none;stroke-width:1;stroke-linejoin:miter;stroke-miterlimit:4;stroke-dasharray:2, 1;stroke-dashoffset:0;stroke-opacity:1"
       d="M 557.54496,149.63645 C 557.63813,149.59886 557.7028,149.34194 557.7028,149.00935 L 557.7028,148.44594 L 558.1763,148.53155 C 558.43673,148.57864 558.65489,148.62383 558.66109,148.63198 C 558.66728,148.64012 558.64712,148.88828 558.61626,149.18344 L 558.56015,149.72008 L 557.97364,149.71011 C 557.65105,149.70463 557.45815,149.67148 557.54496,149.63645 L 557.54496,149.63645 z"
       id="path4178" />
    <path
       style="opacity:1;fill:#ff8080;fill-opacity:1;stroke:none;stroke-width:1;stroke-linejoin:miter;stroke-miterlimit:4;stroke-dasharray:2, 1;stroke-dashoffset:0;stroke-opacity:1"
       d="M 560.73325,149.97921 C 560.26732,149.92654 560.14265,149.88137 560.35445,149.84196 C 560.61517,149.79344 560.67694,149.70079 560.70931,149.3097 C 560.74637,148.86191 560.77208,148.8362 561.18282,148.8362 C 561.61246,148.8362 561.61714,148.84222 561.61714,149.39641 C 561.61714,149.93381 561.63384,149.95869 562.02751,150.00754 C 562.37843,150.05109 562.3647,150.05842 561.93281,150.0581 C 561.65502,150.0579 561.11522,150.02239 560.73325,149.97921 L 560.73325,149.97921 z"
       id="path4180" />
  </g>
</svg>
