<?xml version="1.0" encoding="UTF-8" standalone="no"?>
<!-- Created with Inkscape (http://www.inkscape.org/) -->
<svg
   xmlns:dc="http://purl.org/dc/elements/1.1/"
   xmlns:cc="http://creativecommons.org/ns#"
   xmlns:rdf="http://www.w3.org/1999/02/22-rdf-syntax-ns#"
   xmlns:svg="http://www.w3.org/2000/svg"
   xmlns="http://www.w3.org/2000/svg"
   xmlns:sodipodi="http://sodipodi.sourceforge.net/DTD/sodipodi-0.dtd"
   xmlns:inkscape="http://www.inkscape.org/namespaces/inkscape"
   width="744.09448819"
   height="1052.3622047"
   id="svg1998"
   sodipodi:version="0.32"
   inkscape:version="0.46"
   sodipodi:docbase="/home/jakub/latex/thesis-utep/img"
   sodipodi:docname="quadref_sub.svg"
   inkscape:output_extension="org.inkscape.output.svg.inkscape">
  <defs
     id="defs2000">
    <inkscape:perspective
       sodipodi:type="inkscape:persp3d"
       inkscape:vp_x="0 : 526.18109 : 1"
       inkscape:vp_y="0 : 1000 : 0"
       inkscape:vp_z="744.09448 : 526.18109 : 1"
       inkscape:persp3d-origin="372.04724 : 350.78739 : 1"
       id="perspective6922" />
    <marker
       style="overflow:visible;"
       id="Arrow2Lend"
       refX="0.0"
       refY="0.0"
       orient="auto"
       inkscape:stockid="Arrow2Lend">
      <path
         transform="scale(1.1) rotate(180) translate(1,0)"
         d="M 8.7185878,4.0337352 L -2.2072895,0.016013256 L 8.7185884,-4.0017078 C 6.9730900,-1.6296469 6.9831476,1.6157441 8.7185878,4.0337352 z "
         style="font-size:12.0;fill-rule:evenodd;stroke-width:0.62500000;stroke-linejoin:round;"
         id="path2916" />
    </marker>
    <marker
       style="overflow:visible;"
       id="Arrow2Mend"
       refX="0.0"
       refY="0.0"
       orient="auto"
       inkscape:stockid="Arrow2Mend">
      <path
         transform="scale(0.6) rotate(180) translate(0,0)"
         d="M 8.7185878,4.0337352 L -2.2072895,0.016013256 L 8.7185884,-4.0017078 C 6.9730900,-1.6296469 6.9831476,1.6157441 8.7185878,4.0337352 z "
         style="font-size:12.0;fill-rule:evenodd;stroke-width:0.62500000;stroke-linejoin:round;"
         id="path2910" />
    </marker>
    <marker
       style="overflow:visible;"
       id="Arrow1Mend"
       refX="0.0"
       refY="0.0"
       orient="auto"
       inkscape:stockid="Arrow1Mend">
      <path
         transform="scale(0.4) rotate(180) translate(10,0)"
         style="fill-rule:evenodd;stroke:#000000;stroke-width:1.0pt;marker-start:none;"
         d="M 0.0,0.0 L 5.0,-5.0 L -12.5,0.0 L 5.0,5.0 L 0.0,0.0 z "
         id="path2928" />
    </marker>
    <marker
       style="overflow:visible"
       id="Arrow1Mstart"
       refX="0.0"
       refY="0.0"
       orient="auto"
       inkscape:stockid="Arrow1Mstart">
      <path
         transform="scale(0.4) translate(10,0)"
         style="fill-rule:evenodd;stroke:#000000;stroke-width:1.0pt;marker-start:none"
         d="M 0.0,0.0 L 5.0,-5.0 L -12.5,0.0 L 5.0,5.0 L 0.0,0.0 z "
         id="path2931" />
    </marker>
    <marker
       style="overflow:visible;"
       id="marker2305"
       refX="0.0"
       refY="0.0"
       orient="auto"
       inkscape:stockid="Arrow2Lend">
      <path
         transform="scale(1.1) rotate(180) translate(1,0)"
         d="M 8.7185878,4.0337352 L -2.2072895,0.016013256 L 8.7185884,-4.0017078 C 6.9730900,-1.6296469 6.9831476,1.6157441 8.7185878,4.0337352 z "
         style="font-size:12.0;fill-rule:evenodd;stroke-width:0.62500000;stroke-linejoin:round;"
         id="path2307" />
    </marker>
    <marker
       style="overflow:visible;"
       id="marker2301"
       refX="0.0"
       refY="0.0"
       orient="auto"
       inkscape:stockid="Arrow2Mend">
      <path
         transform="scale(0.6) rotate(180) translate(0,0)"
         d="M 8.7185878,4.0337352 L -2.2072895,0.016013256 L 8.7185884,-4.0017078 C 6.9730900,-1.6296469 6.9831476,1.6157441 8.7185878,4.0337352 z "
         style="font-size:12.0;fill-rule:evenodd;stroke-width:0.62500000;stroke-linejoin:round;"
         id="path2303" />
    </marker>
    <marker
       style="overflow:visible;"
       id="marker2297"
       refX="0.0"
       refY="0.0"
       orient="auto"
       inkscape:stockid="Arrow1Mend">
      <path
         transform="scale(0.4) rotate(180) translate(10,0)"
         style="fill-rule:evenodd;stroke:#000000;stroke-width:1.0pt;marker-start:none;"
         d="M 0.0,0.0 L 5.0,-5.0 L -12.5,0.0 L 5.0,5.0 L 0.0,0.0 z "
         id="path2299" />
    </marker>
    <marker
       style="overflow:visible"
       id="marker2293"
       refX="0.0"
       refY="0.0"
       orient="auto"
       inkscape:stockid="Arrow1Mstart">
      <path
         transform="scale(0.4) translate(10,0)"
         style="fill-rule:evenodd;stroke:#000000;stroke-width:1.0pt;marker-start:none"
         d="M 0.0,0.0 L 5.0,-5.0 L -12.5,0.0 L 5.0,5.0 L 0.0,0.0 z "
         id="path2295" />
    </marker>
    <marker
       style="overflow:visible;"
       id="marker2461"
       refX="0.0"
       refY="0.0"
       orient="auto"
       inkscape:stockid="Arrow2Lend">
      <path
         transform="scale(1.1) rotate(180) translate(1,0)"
         d="M 8.7185878,4.0337352 L -2.2072895,0.016013256 L 8.7185884,-4.0017078 C 6.9730900,-1.6296469 6.9831476,1.6157441 8.7185878,4.0337352 z "
         style="font-size:12.0;fill-rule:evenodd;stroke-width:0.62500000;stroke-linejoin:round;"
         id="path2463" />
    </marker>
    <marker
       style="overflow:visible;"
       id="marker2457"
       refX="0.0"
       refY="0.0"
       orient="auto"
       inkscape:stockid="Arrow2Mend">
      <path
         transform="scale(0.6) rotate(180) translate(0,0)"
         d="M 8.7185878,4.0337352 L -2.2072895,0.016013256 L 8.7185884,-4.0017078 C 6.9730900,-1.6296469 6.9831476,1.6157441 8.7185878,4.0337352 z "
         style="font-size:12.0;fill-rule:evenodd;stroke-width:0.62500000;stroke-linejoin:round;"
         id="path2459" />
    </marker>
    <marker
       style="overflow:visible;"
       id="marker2453"
       refX="0.0"
       refY="0.0"
       orient="auto"
       inkscape:stockid="Arrow1Mend">
      <path
         transform="scale(0.4) rotate(180) translate(10,0)"
         style="fill-rule:evenodd;stroke:#000000;stroke-width:1.0pt;marker-start:none;"
         d="M 0.0,0.0 L 5.0,-5.0 L -12.5,0.0 L 5.0,5.0 L 0.0,0.0 z "
         id="path2455" />
    </marker>
    <marker
       style="overflow:visible"
       id="marker2449"
       refX="0.0"
       refY="0.0"
       orient="auto"
       inkscape:stockid="Arrow1Mstart">
      <path
         transform="scale(0.4) translate(10,0)"
         style="fill-rule:evenodd;stroke:#000000;stroke-width:1.0pt;marker-start:none"
         d="M 0.0,0.0 L 5.0,-5.0 L -12.5,0.0 L 5.0,5.0 L 0.0,0.0 z "
         id="path2451" />
    </marker>
  </defs>
  <sodipodi:namedview
     id="base"
     pagecolor="#ffffff"
     bordercolor="#666666"
     borderopacity="1.0"
     gridtolerance="10000"
     guidetolerance="10"
     objecttolerance="10"
     inkscape:pageopacity="0.0"
     inkscape:pageshadow="2"
     inkscape:zoom="1.979899"
     inkscape:cx="474.72653"
     inkscape:cy="833.61159"
     inkscape:document-units="px"
     inkscape:current-layer="layer1"
     showgrid="true"
     inkscape:window-width="1598"
     inkscape:window-height="1122"
     inkscape:window-x="0"
     inkscape:window-y="25" />
  <metadata
     id="metadata2003">
    <rdf:RDF>
      <cc:Work
         rdf:about="">
        <dc:format>image/svg+xml</dc:format>
        <dc:type
           rdf:resource="http://purl.org/dc/dcmitype/StillImage" />
      </cc:Work>
    </rdf:RDF>
  </metadata>
  <g
     inkscape:label="Layer 1"
     inkscape:groupmode="layer"
     id="layer1">
    <rect
       y="204.03241"
       x="189.00671"
       height="53.92857"
       width="54.107143"
       id="rect3008"
       style="fill:#c0c0c0;fill-opacity:1;stroke:none;stroke-width:1.25;stroke-miterlimit:4;stroke-dasharray:none;stroke-opacity:1" />
    <rect
       y="149.82297"
       x="134.79727"
       height="108.41889"
       width="108.41889"
       id="rect1872"
       style="fill:none;fill-opacity:1;stroke:#000000;stroke-width:1;stroke-miterlimit:4;stroke-dasharray:none;stroke-opacity:1" />
    <path
       id="path2760"
       d="M 114.00672,204.03241 L 264.00672,204.03241"
       style="fill:none;fill-opacity:0.75;fill-rule:evenodd;stroke:#000000;stroke-width:0.625;stroke-linecap:butt;stroke-linejoin:miter;marker-end:url(#Arrow2Mend);stroke-miterlimit:4;stroke-dasharray:none;stroke-opacity:1" />
    <path
       id="path2762"
       d="M 189.00672,134.03241 L 189.00672,274.03241"
       style="fill:none;fill-opacity:0.75;fill-rule:evenodd;stroke:#000000;stroke-width:0.625;stroke-linecap:butt;stroke-linejoin:miter;marker-start:url(#Arrow1Mstart);marker-mid:url(#Arrow2Mend);stroke-miterlimit:4;stroke-dasharray:none;stroke-opacity:1" />
    <text
       id="text2950"
       y="193.08041"
       x="266.49536"
       style="font-size:12px;font-style:normal;font-weight:normal;fill:#000000;fill-opacity:1;stroke:none;stroke-width:1px;stroke-linecap:butt;stroke-linejoin:miter;stroke-opacity:1;font-family:Bitstream Vera Sans"
       xml:space="preserve"><tspan
         y="193.08041"
         x="266.49536"
         id="tspan2952"
         sodipodi:role="line" /></text>
    <rect
       y="176.53241"
       x="315.06921"
       height="27.5"
       width="108.05362"
       id="rect2313"
       style="fill:#c0c0c0;fill-opacity:1;stroke:none;stroke-width:1.25;stroke-miterlimit:4;stroke-dasharray:none;stroke-opacity:1" />
    <rect
       y="149.82297"
       x="314.79727"
       height="108.41889"
       width="108.41889"
       id="rect2315"
       style="fill:none;fill-opacity:1;stroke:#000000;stroke-width:1;stroke-miterlimit:4;stroke-dasharray:none;stroke-opacity:1" />
    <path
       id="path2317"
       d="M 294.0067,204.03241 L 444.0067,204.03241"
       style="fill:none;fill-opacity:0.75;fill-rule:evenodd;stroke:#000000;stroke-width:0.625;stroke-linecap:butt;stroke-linejoin:miter;marker-end:url(#Arrow2Mend);stroke-miterlimit:4;stroke-dasharray:none;stroke-opacity:1" />
    <path
       id="path2319"
       d="M 369.0067,134.03241 L 369.0067,274.03241"
       style="fill:none;fill-opacity:0.75;fill-rule:evenodd;stroke:#000000;stroke-width:0.625;stroke-linecap:butt;stroke-linejoin:miter;marker-start:url(#Arrow1Mstart);marker-mid:url(#Arrow2Mend);stroke-miterlimit:4;stroke-dasharray:none;stroke-opacity:1" />
    <text
       id="text2321"
       y="193.08041"
       x="446.49536"
       style="font-size:12px;font-style:normal;font-weight:normal;fill:#000000;fill-opacity:1;stroke:none;stroke-width:1px;stroke-linecap:butt;stroke-linejoin:miter;stroke-opacity:1;font-family:Bitstream Vera Sans"
       xml:space="preserve"><tspan
         y="193.08041"
         x="446.49536"
         id="tspan2323"
         sodipodi:role="line" /></text>
    <rect
       y="149.53241"
       x="516.50671"
       height="108.6875"
       width="27.493286"
       id="rect2469"
       style="fill:#c0c0c0;fill-opacity:1;stroke:none;stroke-width:1.25;stroke-miterlimit:4;stroke-dasharray:none;stroke-opacity:1" />
    <rect
       y="149.82297"
       x="489.79727"
       height="108.41889"
       width="108.41889"
       id="rect2471"
       style="fill:none;fill-opacity:1;stroke:#000000;stroke-width:1;stroke-miterlimit:4;stroke-dasharray:none;stroke-opacity:1" />
    <path
       id="path2473"
       d="M 469.0067,204.03241 L 619.0067,204.03241"
       style="fill:none;fill-opacity:0.75;fill-rule:evenodd;stroke:#000000;stroke-width:0.625;stroke-linecap:butt;stroke-linejoin:miter;marker-end:url(#Arrow2Mend);stroke-miterlimit:4;stroke-dasharray:none;stroke-opacity:1" />
    <path
       id="path2475"
       d="M 544.0067,134.03241 L 544.0067,274.03241"
       style="fill:none;fill-opacity:0.75;fill-rule:evenodd;stroke:#000000;stroke-width:0.625;stroke-linecap:butt;stroke-linejoin:miter;marker-start:url(#Arrow1Mstart);marker-mid:url(#Arrow2Mend);stroke-miterlimit:4;stroke-dasharray:none;stroke-opacity:1" />
    <text
       id="text2477"
       y="193.08041"
       x="621.49536"
       style="font-size:12px;font-style:normal;font-weight:normal;fill:#000000;fill-opacity:1;stroke:none;stroke-width:1px;stroke-linecap:butt;stroke-linejoin:miter;stroke-opacity:1;font-family:Bitstream Vera Sans"
       xml:space="preserve"><tspan
         y="193.08041"
         x="621.49536"
         id="tspan2479"
         sodipodi:role="line" /></text>
    <path
       id="path3557"
       d="M 174.42159,132.97939 L 174.75159,132.97939 L 175.18659,132.10939 C 175.44159,132.04939 175.57659,132.03439 175.77159,132.03439 C 175.98159,132.03439 176.14659,132.04939 176.44659,132.10939 C 176.98659,132.21439 177.36159,132.25939 177.70659,132.25939 C 177.01659,132.75439 176.59659,133.20439 176.59659,133.75939 C 176.59659,134.04439 176.67159,134.26939 176.83659,134.44939 C 176.16159,134.52439 175.18659,135.04939 174.43659,135.72439 C 173.62659,136.45939 173.05659,138.03439 173.05659,139.59439 C 173.05659,141.03439 173.68659,141.79939 174.87159,141.79939 C 175.21659,141.79939 176.44659,141.64939 176.89659,141.64939 C 177.40659,141.64939 177.66159,141.91939 177.66159,142.42939 C 177.66159,142.51939 177.64659,142.60939 177.63159,142.72939 C 177.27159,143.79439 176.52159,144.37939 175.86159,144.37939 C 175.33659,144.37939 174.93159,143.97439 174.93159,143.44939 C 174.93159,143.37439 174.94659,143.25439 174.96159,143.11939 L 174.81159,143.05939 L 174.10659,143.56939 C 174.09159,143.67439 174.09159,143.76439 174.09159,143.83939 C 174.09159,144.48439 174.64659,145.00939 175.30659,145.00939 C 176.14659,145.00939 177.18159,144.28939 177.85659,143.43439 C 178.39659,142.77439 178.50159,142.02439 178.50159,141.49939 C 178.50159,141.36439 178.45659,141.24439 178.36659,141.15439 C 178.15659,140.91439 177.72159,140.88439 177.40659,140.88439 C 176.97159,140.88439 175.93659,141.03439 175.44159,141.03439 C 174.61659,141.03439 174.19659,140.43439 174.19659,139.24939 C 174.19659,137.64439 174.70659,136.08439 175.44159,135.51439 C 175.75659,135.27439 176.14659,135.07939 176.61159,135.07939 C 176.95659,135.07939 177.24159,135.16939 177.51159,135.25939 C 177.64659,135.30439 178.08159,135.37939 178.21659,135.37939 C 178.41159,135.37939 178.78659,135.37939 178.83159,135.36439 C 178.83159,135.28939 178.93659,134.92939 179.04159,134.79439 C 179.04159,134.71939 179.02659,134.65939 179.01159,134.58439 C 178.23159,134.62939 177.51159,134.13439 177.51159,133.38439 C 177.51159,132.55939 178.83159,132.01939 179.46159,131.77939 L 179.91159,131.61439 L 180.00159,131.13439 L 179.86659,130.99939 L 179.52159,131.34439 C 179.37159,131.49439 179.22159,131.55439 179.01159,131.55439 C 178.50159,131.55439 177.73659,131.43439 177.01659,131.23939 L 176.74659,131.16439 C 176.32659,131.05939 176.02659,130.99939 175.81659,130.99939 C 175.56159,130.99939 175.26159,131.04439 174.90159,131.14939 L 174.42159,132.97939 z"
       style="font-style:normal;font-variant:normal;font-weight:normal;font-stretch:normal;letter-spacing:normal;word-spacing:normal;text-anchor:start;fill:#000000;fill-opacity:1;stroke:none;stroke-width:0;stroke-linecap:butt;stroke-linejoin:miter;stroke-miterlimit:10.43299961;stroke-dasharray:none;stroke-dashoffset:0;stroke-opacity:1" />
    <path
       id="path3559"
       d="M 180.15159,143.97439 L 180.15159,144.27439 C 182.26659,144.24439 182.26659,144.24439 182.68659,144.24439 C 183.09159,144.24439 183.09159,144.24439 185.28159,144.27439 C 185.26659,144.03439 185.26659,143.92939 185.26659,143.76439 C 185.26659,143.61439 185.26659,143.49439 185.28159,143.25439 C 183.97659,143.31439 183.45159,143.31439 181.35159,143.35939 L 183.42159,141.16939 C 184.51659,139.99939 184.86159,139.38439 184.86159,138.52939 C 184.86159,137.22439 183.97659,136.41439 182.53659,136.41439 C 181.71159,136.41439 181.15659,136.63939 180.60159,137.20939 L 180.40659,138.75439 L 180.73659,138.75439 L 180.88659,138.22939 C 181.06659,137.56939 181.47159,137.28439 182.23659,137.28439 C 183.21159,137.28439 183.84159,137.89939 183.84159,138.87439 C 183.84159,139.71439 183.36159,140.55439 182.08659,141.91939 L 180.15159,143.97439 z"
       style="font-style:normal;font-variant:normal;font-weight:normal;font-stretch:normal;letter-spacing:normal;word-spacing:normal;text-anchor:start;fill:#000000;fill-opacity:1;stroke:none;stroke-width:0;stroke-linecap:butt;stroke-linejoin:miter;stroke-miterlimit:10.43299961;stroke-dasharray:none;stroke-dashoffset:0;stroke-opacity:1" />
    <path
       style="font-style:normal;font-variant:normal;font-weight:normal;font-stretch:normal;letter-spacing:normal;word-spacing:normal;text-anchor:start;fill:#000000;fill-opacity:1;stroke:none;stroke-width:0;stroke-linecap:butt;stroke-linejoin:miter;stroke-miterlimit:10.43299961;stroke-dasharray:none;stroke-dashoffset:0;stroke-opacity:1"
       d="M 193.68112,138.6663 L 193.78112,138.6663 L 195.07112,138.0863 C 195.07112,138.0763 195.09112,138.0763 195.09112,138.0763 C 195.15112,138.0763 195.17112,138.1663 195.17112,138.4063 L 195.17112,143.2363 C 195.17112,143.7563 195.07112,143.8663 194.53112,143.8963 L 193.97112,143.9263 L 193.97112,144.2263 C 195.50112,144.1963 195.50112,144.1963 195.61112,144.1963 C 195.74112,144.1963 195.96112,144.1963 196.30112,144.2063 C 196.42112,144.2163 196.77112,144.2163 197.18112,144.2263 L 197.18112,143.9263 L 196.66112,143.8963 C 196.11112,143.8663 196.01112,143.7563 196.01112,143.2363 L 196.01112,137.3263 L 195.87112,137.2763 C 195.22112,137.6163 194.52112,137.9163 193.61112,138.2363 L 193.68112,138.6663 z"
       id="path4702" />
    <polygon
       style="font-style:normal;font-variant:normal;font-weight:normal;font-stretch:normal;letter-spacing:normal;word-spacing:normal;text-anchor:start;fill:#000000;fill-opacity:1;stroke:none;stroke-width:0;stroke-linecap:butt;stroke-linejoin:miter;stroke-miterlimit:10.43299961;stroke-dasharray:none;stroke-dashoffset:0;stroke-opacity:1"
       points="234.12,709.26 234.42,709.93 234.37,709.98 231.75,709.98 231.48,709.31 231.53,709.26 234.12,709.26 "
       id="polygon4704"
       transform="matrix(1,0,0,-1,-107.21588,907.11042)" />
    <path
       style="font-style:normal;font-variant:normal;font-weight:normal;font-stretch:normal;letter-spacing:normal;word-spacing:normal;text-anchor:start;fill:#000000;fill-opacity:1;stroke:none;stroke-width:0;stroke-linecap:butt;stroke-linejoin:miter;stroke-miterlimit:10.43299961;stroke-dasharray:none;stroke-dashoffset:0;stroke-opacity:1"
       d="M 128.08412,194.46042 L 128.18412,194.46042 L 129.46412,193.88042 C 129.47412,193.87042 129.48412,193.87042 129.49412,193.87042 C 129.55412,193.87042 129.57412,193.96042 129.57412,194.20042 L 129.57412,199.03042 C 129.57412,199.55042 129.46412,199.66042 128.92412,199.69042 L 128.37412,199.72042 L 128.37412,200.02042 C 129.90412,199.99042 129.90412,199.99042 130.01412,199.99042 C 130.14412,199.99042 130.36412,199.99042 130.70412,200.00042 C 130.82412,200.01042 131.17412,200.01042 131.57412,200.02042 L 131.57412,199.72042 L 131.06412,199.69042 C 130.51412,199.66042 130.41412,199.55042 130.41412,199.03042 L 130.41412,193.12042 L 130.27412,193.07042 C 129.62412,193.41042 128.91412,193.71042 128.01412,194.03042 L 128.08412,194.46042 z"
       id="path4706" />
    <path
       style="font-style:normal;font-variant:normal;font-weight:normal;font-stretch:normal;letter-spacing:normal;word-spacing:normal;text-anchor:start;fill:#000000;fill-opacity:1;stroke:none;stroke-width:0;stroke-linecap:butt;stroke-linejoin:miter;stroke-miterlimit:10.43299961;stroke-dasharray:none;stroke-dashoffset:0;stroke-opacity:1"
       d="M 195.55112,193.01043 L 195.41112,193.02043 L 195.27112,193.03043 L 195.14112,193.05043 L 195.01112,193.07043 L 194.88112,193.10043 L 194.76112,193.14043 L 194.65112,193.19043 L 194.54112,193.24043 L 194.43112,193.30043 L 194.33112,193.37043 L 194.23112,193.45043 L 194.14112,193.53043 L 194.05112,193.62043 L 193.96112,193.71043 L 193.88112,193.82043 L 193.81112,193.93043 L 193.74112,194.04043 L 193.67112,194.17043 L 193.61112,194.30043 L 193.55112,194.44043 L 193.50112,194.59043 L 193.45112,194.74043 L 193.41112,194.90043 L 193.37112,195.06043 L 193.33112,195.24043 L 193.30112,195.42043 L 193.28112,195.61043 L 193.26112,195.80043 L 193.24112,196.00043 L 193.23112,196.21043 L 193.22112,196.43043 L 193.22112,196.65043 C 193.22112,197.82043 193.43112,198.82043 193.78112,199.31043 C 194.13112,199.80043 194.69112,200.08043 195.30112,200.08043 L 195.43112,199.73043 C 194.47112,199.73043 194.06112,198.72043 194.06112,196.29043 C 194.06112,194.19043 194.43112,193.36043 195.37112,193.36043 L 195.37112,193.36043 C 196.34112,193.36043 196.73112,194.34043 196.73112,196.73043 C 196.73112,198.85043 196.35112,199.73043 195.43112,199.73043 L 195.30112,200.08043 C 196.81112,200.08043 197.57112,198.78043 197.57112,196.23043 C 197.57112,194.05043 196.92112,193.01043 195.55112,193.01043 z"
       id="path4708" />
    <path
       style="font-style:normal;font-variant:normal;font-weight:normal;font-stretch:normal;letter-spacing:normal;word-spacing:normal;text-anchor:start;fill:#000000;fill-opacity:1;stroke:none;stroke-width:0;stroke-linecap:butt;stroke-linejoin:miter;stroke-miterlimit:10.43299961;stroke-dasharray:none;stroke-dashoffset:0;stroke-opacity:1"
       d="M 247.42494,194.46043 L 247.52494,194.46043 L 248.81494,193.88043 C 248.81494,193.87043 248.83494,193.87043 248.83494,193.87043 C 248.89494,193.87043 248.91494,193.96043 248.91494,194.20043 L 248.91494,199.03043 C 248.91494,199.55043 248.81494,199.66043 248.27494,199.69043 L 247.71494,199.72043 L 247.71494,200.02043 C 249.24494,199.99043 249.24494,199.99043 249.35494,199.99043 C 249.48494,199.99043 249.70494,199.99043 250.04494,200.00043 C 250.16494,200.01043 250.51494,200.01043 250.92494,200.02043 L 250.92494,199.72043 L 250.40494,199.69043 C 249.85494,199.66043 249.75494,199.55043 249.75494,199.03043 L 249.75494,193.12043 L 249.61494,193.07043 C 248.96494,193.41043 248.26494,193.71043 247.35494,194.03043 L 247.42494,194.46043 z"
       id="path4850" />
    <polygon
       style="font-style:normal;font-variant:normal;font-weight:normal;font-stretch:normal;letter-spacing:normal;word-spacing:normal;text-anchor:start;fill:#000000;fill-opacity:1;stroke:none;stroke-width:0;stroke-linecap:butt;stroke-linejoin:miter;stroke-miterlimit:10.43299961;stroke-dasharray:none;stroke-dashoffset:0;stroke-opacity:1"
       points="234.12,709.26 234.42,709.93 234.37,709.98 231.75,709.98 231.48,709.31 231.53,709.26 234.12,709.26 "
       id="polygon4854"
       transform="matrix(1,0,0,-1,-39.73888,975.67746)" />
    <path
       style="font-style:normal;font-variant:normal;font-weight:normal;font-stretch:normal;letter-spacing:normal;word-spacing:normal;text-anchor:start;fill:#000000;fill-opacity:1;stroke:none;stroke-width:0;stroke-linecap:butt;stroke-linejoin:miter;stroke-miterlimit:10.43299961;stroke-dasharray:none;stroke-dashoffset:0;stroke-opacity:1"
       d="M 195.56112,263.02746 L 195.66112,263.02746 L 196.94112,262.44746 C 196.95112,262.43746 196.96112,262.43746 196.97112,262.43746 C 197.03112,262.43746 197.05112,262.52746 197.05112,262.76746 L 197.05112,267.59746 C 197.05112,268.11746 196.94112,268.22746 196.40112,268.25746 L 195.85112,268.28746 L 195.85112,268.58746 C 197.38112,268.55746 197.38112,268.55746 197.49112,268.55746 C 197.62112,268.55746 197.84112,268.55746 198.18112,268.56746 C 198.30112,268.57746 198.65112,268.57746 199.05112,268.58746 L 199.05112,268.28746 L 198.54112,268.25746 C 197.99112,268.22746 197.89112,268.11746 197.89112,267.59746 L 197.89112,261.68746 L 197.75112,261.63746 C 197.10112,261.97746 196.39112,262.27746 195.49112,262.59746 L 195.56112,263.02746 z"
       id="path4856" />
    <path
       id="path4896"
       d="M 248.33431,208.81427 L 248.64931,208.81427 L 249.09931,207.94427 C 249.35431,207.88427 249.48931,207.86927 249.68431,207.86927 C 249.89431,207.86927 250.05931,207.88427 250.35931,207.94427 C 250.89931,208.04927 251.27431,208.09427 251.60431,208.09427 C 250.92931,208.58927 250.50931,209.03927 250.50931,209.59427 C 250.50931,209.87927 250.58431,210.10427 250.74931,210.28427 C 250.07431,210.35927 249.09931,210.88427 248.34931,211.55927 C 247.52431,212.29427 246.96931,213.86927 246.96931,215.42927 C 246.96931,216.86927 247.59931,217.63427 248.78431,217.63427 C 249.12931,217.63427 250.35931,217.48427 250.80931,217.48427 C 251.31931,217.48427 251.55931,217.75427 251.55931,218.26427 C 251.55931,218.35427 251.54431,218.44427 251.54431,218.56427 C 251.18431,219.62927 250.43431,220.21427 249.77431,220.21427 C 249.24931,220.21427 248.84431,219.80927 248.84431,219.28427 C 248.84431,219.20927 248.85931,219.08927 248.87431,218.95427 L 248.72431,218.89427 L 248.00431,219.40427 C 247.98931,219.50927 247.98931,219.59927 247.98931,219.67427 C 247.98931,220.31927 248.54431,220.84427 249.21931,220.84427 C 250.05931,220.84427 251.09431,220.12427 251.75431,219.26927 C 252.29431,218.60927 252.39931,217.85927 252.39931,217.33427 C 252.39931,217.19927 252.35431,217.07927 252.26431,216.98927 C 252.05431,216.74927 251.63431,216.71927 251.31931,216.71927 C 250.88431,216.71927 249.84931,216.86927 249.35431,216.86927 C 248.51431,216.86927 248.09431,216.26927 248.09431,215.08427 C 248.09431,213.47927 248.61931,211.91927 249.35431,211.34927 C 249.66931,211.10927 250.05931,210.91427 250.52431,210.91427 C 250.86931,210.91427 251.15431,211.00427 251.40931,211.09427 C 251.54431,211.13927 251.97931,211.21427 252.11431,211.21427 C 252.30931,211.21427 252.68431,211.21427 252.74431,211.19927 C 252.74431,211.12427 252.84931,210.76427 252.95431,210.62927 C 252.95431,210.55427 252.93931,210.49427 252.92431,210.41927 C 252.12931,210.46427 251.40931,209.96927 251.40931,209.21927 C 251.40931,208.39427 252.74431,207.85427 253.37431,207.61427 L 253.82431,207.44927 L 253.91431,206.96927 L 253.77931,206.83427 L 253.43431,207.17927 C 253.28431,207.32927 253.13431,207.38927 252.92431,207.38927 C 252.41431,207.38927 251.63431,207.26927 250.92931,207.07427 L 250.65931,206.99927 C 250.23931,206.89427 249.93931,206.83427 249.72931,206.83427 C 249.47431,206.83427 249.17431,206.87927 248.81431,206.98427 L 248.33431,208.81427 z"
       style="font-style:normal;font-variant:normal;font-weight:normal;font-stretch:normal;letter-spacing:normal;word-spacing:normal;text-anchor:start;fill:#000000;fill-opacity:1;stroke:none;stroke-width:0;stroke-linecap:butt;stroke-linejoin:miter;stroke-miterlimit:10.43299961;stroke-dasharray:none;stroke-dashoffset:0;stroke-opacity:1" />
    <path
       id="path4898"
       d="M 254.63431,213.94427 L 254.75431,213.94427 L 256.22431,213.28427 C 256.22431,213.26927 256.23931,213.26927 256.25431,213.26927 C 256.31431,213.26927 256.34431,213.37427 256.34431,213.64427 L 256.34431,219.14927 C 256.34431,219.74927 256.22431,219.86927 255.60931,219.89927 L 254.96431,219.94427 L 254.96431,220.27427 C 256.71931,220.24427 256.71931,220.24427 256.83931,220.24427 C 256.98931,220.24427 257.24431,220.24427 257.61931,220.25927 C 257.76931,220.25927 258.15931,220.25927 258.62431,220.27427 L 258.62431,219.94427 L 258.03931,219.89927 C 257.40931,219.86927 257.28931,219.74927 257.28931,219.14927 L 257.28931,212.41427 L 257.13931,212.35427 C 256.40431,212.74427 255.59431,213.08927 254.55931,213.44927 L 254.63431,213.94427 z"
       style="font-style:normal;font-variant:normal;font-weight:normal;font-stretch:normal;letter-spacing:normal;word-spacing:normal;text-anchor:start;fill:#000000;fill-opacity:1;stroke:none;stroke-width:0;stroke-linecap:butt;stroke-linejoin:miter;stroke-miterlimit:10.43299961;stroke-dasharray:none;stroke-dashoffset:0;stroke-opacity:1" />
    <path
       id="path6947"
       d="M 354.23129,133.29919 L 354.56129,133.29919 L 354.99629,132.42919 C 355.25129,132.36919 355.38629,132.35419 355.58129,132.35419 C 355.79129,132.35419 355.95629,132.36919 356.25629,132.42919 C 356.79629,132.53419 357.17129,132.57919 357.51629,132.57919 C 356.82629,133.07419 356.40629,133.52419 356.40629,134.07919 C 356.40629,134.36419 356.48129,134.58919 356.64629,134.76919 C 355.97129,134.84419 354.99629,135.36919 354.24629,136.04419 C 353.43629,136.77919 352.86629,138.35419 352.86629,139.91419 C 352.86629,141.35419 353.49629,142.11919 354.68129,142.11919 C 355.02629,142.11919 356.25629,141.96919 356.70629,141.96919 C 357.21629,141.96919 357.47129,142.23919 357.47129,142.74919 C 357.47129,142.83919 357.45629,142.92919 357.44129,143.04919 C 357.08129,144.11419 356.33129,144.69919 355.67129,144.69919 C 355.14629,144.69919 354.74129,144.29419 354.74129,143.76919 C 354.74129,143.69419 354.75629,143.57419 354.77129,143.43919 L 354.62129,143.37919 L 353.91629,143.88919 C 353.90129,143.99419 353.90129,144.08419 353.90129,144.15919 C 353.90129,144.80419 354.45629,145.32919 355.11629,145.32919 C 355.95629,145.32919 356.99129,144.60919 357.66629,143.75419 C 358.20629,143.09419 358.31129,142.34419 358.31129,141.81919 C 358.31129,141.68419 358.26629,141.56419 358.17629,141.47419 C 357.96629,141.23419 357.53129,141.20419 357.21629,141.20419 C 356.78129,141.20419 355.74629,141.35419 355.25129,141.35419 C 354.42629,141.35419 354.00629,140.75419 354.00629,139.56919 C 354.00629,137.96419 354.51629,136.40419 355.25129,135.83419 C 355.56629,135.59419 355.95629,135.39919 356.42129,135.39919 C 356.76629,135.39919 357.05129,135.48919 357.32129,135.57919 C 357.45629,135.62419 357.89129,135.69919 358.02629,135.69919 C 358.22129,135.69919 358.59629,135.69919 358.64129,135.68419 C 358.64129,135.60919 358.74629,135.24919 358.85129,135.11419 C 358.85129,135.03919 358.83629,134.97919 358.82129,134.90419 C 358.04129,134.94919 357.32129,134.45419 357.32129,133.70419 C 357.32129,132.87919 358.64129,132.33919 359.27129,132.09919 L 359.72129,131.93419 L 359.81129,131.45419 L 359.67629,131.31919 L 359.33129,131.66419 C 359.18129,131.81419 359.03129,131.87419 358.82129,131.87419 C 358.31129,131.87419 357.54629,131.75419 356.82629,131.55919 L 356.55629,131.48419 C 356.13629,131.37919 355.83629,131.31919 355.62629,131.31919 C 355.37129,131.31919 355.07129,131.36419 354.71129,131.46919 L 354.23129,133.29919 z"
       style="font-style:normal;font-variant:normal;font-weight:normal;font-stretch:normal;letter-spacing:normal;word-spacing:normal;text-anchor:start;fill:#000000;fill-opacity:1;stroke:none;stroke-width:0;stroke-linecap:butt;stroke-linejoin:miter;stroke-miterlimit:10.43299961;stroke-dasharray:none;stroke-dashoffset:0;stroke-opacity:1" />
    <path
       id="path6949"
       d="M 359.96129,144.29419 L 359.96129,144.59419 C 362.07629,144.56419 362.07629,144.56419 362.49629,144.56419 C 362.90129,144.56419 362.90129,144.56419 365.09129,144.59419 C 365.07629,144.35419 365.07629,144.24919 365.07629,144.08419 C 365.07629,143.93419 365.07629,143.81419 365.09129,143.57419 C 363.78629,143.63419 363.26129,143.63419 361.16129,143.67919 L 363.23129,141.48919 C 364.32629,140.31919 364.67129,139.70419 364.67129,138.84919 C 364.67129,137.54419 363.78629,136.73419 362.34629,136.73419 C 361.52129,136.73419 360.96629,136.95919 360.41129,137.52919 L 360.21629,139.07419 L 360.54629,139.07419 L 360.69629,138.54919 C 360.87629,137.88919 361.28129,137.60419 362.04629,137.60419 C 363.02129,137.60419 363.65129,138.21919 363.65129,139.19419 C 363.65129,140.03419 363.17129,140.87419 361.89629,142.23919 L 359.96129,144.29419 z"
       style="font-style:normal;font-variant:normal;font-weight:normal;font-stretch:normal;letter-spacing:normal;word-spacing:normal;text-anchor:start;fill:#000000;fill-opacity:1;stroke:none;stroke-width:0;stroke-linecap:butt;stroke-linejoin:miter;stroke-miterlimit:10.43299961;stroke-dasharray:none;stroke-dashoffset:0;stroke-opacity:1" />
    <path
       style="font-style:normal;font-variant:normal;font-weight:normal;font-stretch:normal;letter-spacing:normal;word-spacing:normal;text-anchor:start;fill:#000000;fill-opacity:1;stroke:none;stroke-width:0;stroke-linecap:butt;stroke-linejoin:miter;stroke-miterlimit:10.43299961;stroke-dasharray:none;stroke-dashoffset:0;stroke-opacity:1"
       d="M 373.49082,138.9861 L 373.59082,138.9861 L 374.88082,138.4061 C 374.88082,138.3961 374.90082,138.3961 374.90082,138.3961 C 374.96082,138.3961 374.98082,138.4861 374.98082,138.7261 L 374.98082,143.5561 C 374.98082,144.0761 374.88082,144.1861 374.34082,144.2161 L 373.78082,144.2461 L 373.78082,144.5461 C 375.31082,144.5161 375.31082,144.5161 375.42082,144.5161 C 375.55082,144.5161 375.77082,144.5161 376.11082,144.5261 C 376.23082,144.5361 376.58082,144.5361 376.99082,144.5461 L 376.99082,144.2461 L 376.47082,144.2161 C 375.92082,144.1861 375.82082,144.0761 375.82082,143.5561 L 375.82082,137.6461 L 375.68082,137.5961 C 375.03082,137.9361 374.33082,138.2361 373.42082,138.5561 L 373.49082,138.9861 z"
       id="path6951" />
    <polygon
       style="font-style:normal;font-variant:normal;font-weight:normal;font-stretch:normal;letter-spacing:normal;word-spacing:normal;text-anchor:start;fill:#000000;fill-opacity:1;stroke:none;stroke-width:0;stroke-linecap:butt;stroke-linejoin:miter;stroke-miterlimit:10.43299961;stroke-dasharray:none;stroke-dashoffset:0;stroke-opacity:1"
       points="234.12,709.26 234.42,709.93 234.37,709.98 231.75,709.98 231.48,709.31 231.53,709.26 234.12,709.26 "
       id="polygon6955"
       transform="matrix(1,0,0,-1,72.59382,907.43022)" />
    <path
       style="font-style:normal;font-variant:normal;font-weight:normal;font-stretch:normal;letter-spacing:normal;word-spacing:normal;text-anchor:start;fill:#000000;fill-opacity:1;stroke:none;stroke-width:0;stroke-linecap:butt;stroke-linejoin:miter;stroke-miterlimit:10.43299961;stroke-dasharray:none;stroke-dashoffset:0;stroke-opacity:1"
       d="M 307.89382,194.78022 L 307.99382,194.78022 L 309.27382,194.20022 C 309.28382,194.19022 309.29382,194.19022 309.30382,194.19022 C 309.36382,194.19022 309.38382,194.28022 309.38382,194.52022 L 309.38382,199.35022 C 309.38382,199.87022 309.27382,199.98022 308.73382,200.01022 L 308.18382,200.04022 L 308.18382,200.34022 C 309.71382,200.31022 309.71382,200.31022 309.82382,200.31022 C 309.95382,200.31022 310.17382,200.31022 310.51382,200.32022 C 310.63382,200.33022 310.98382,200.33022 311.38382,200.34022 L 311.38382,200.04022 L 310.87382,200.01022 C 310.32382,199.98022 310.22382,199.87022 310.22382,199.35022 L 310.22382,193.44022 L 310.08382,193.39022 C 309.43382,193.73022 308.72382,194.03022 307.82382,194.35022 L 307.89382,194.78022 z"
       id="path6957" />
    <path
       style="font-style:normal;font-variant:normal;font-weight:normal;font-stretch:normal;letter-spacing:normal;word-spacing:normal;text-anchor:start;fill:#000000;fill-opacity:1;stroke:none;stroke-width:0;stroke-linecap:butt;stroke-linejoin:miter;stroke-miterlimit:10.43299961;stroke-dasharray:none;stroke-dashoffset:0;stroke-opacity:1"
       d="M 375.36082,193.33023 L 375.22082,193.34023 L 375.08082,193.35023 L 374.95082,193.37023 L 374.82082,193.39023 L 374.69082,193.42023 L 374.57082,193.46023 L 374.46082,193.51023 L 374.35082,193.56023 L 374.24082,193.62023 L 374.14082,193.69023 L 374.04082,193.77023 L 373.95082,193.85023 L 373.86082,193.94023 L 373.77082,194.03023 L 373.69082,194.14023 L 373.62082,194.25023 L 373.55082,194.36023 L 373.48082,194.49023 L 373.42082,194.62023 L 373.36082,194.76023 L 373.31082,194.91023 L 373.26082,195.06023 L 373.22082,195.22023 L 373.18082,195.38023 L 373.14082,195.56023 L 373.11082,195.74023 L 373.09082,195.93023 L 373.07082,196.12023 L 373.05082,196.32023 L 373.04082,196.53023 L 373.03082,196.75023 L 373.03082,196.97023 C 373.03082,198.14023 373.24082,199.14023 373.59082,199.63023 C 373.94082,200.12023 374.50082,200.40023 375.11082,200.40023 L 375.24082,200.05023 C 374.28082,200.05023 373.87082,199.04023 373.87082,196.61023 C 373.87082,194.51023 374.24082,193.68023 375.18082,193.68023 L 375.18082,193.68023 C 376.15082,193.68023 376.54082,194.66023 376.54082,197.05023 C 376.54082,199.17023 376.16082,200.05023 375.24082,200.05023 L 375.11082,200.40023 C 376.62082,200.40023 377.38082,199.10023 377.38082,196.55023 C 377.38082,194.37023 376.73082,193.33023 375.36082,193.33023 z"
       id="path6959" />
    <path
       style="font-style:normal;font-variant:normal;font-weight:normal;font-stretch:normal;letter-spacing:normal;word-spacing:normal;text-anchor:start;fill:#000000;fill-opacity:1;stroke:none;stroke-width:0;stroke-linecap:butt;stroke-linejoin:miter;stroke-miterlimit:10.43299961;stroke-dasharray:none;stroke-dashoffset:0;stroke-opacity:1"
       d="M 427.23464,194.78023 L 427.33464,194.78023 L 428.62464,194.20023 C 428.62464,194.19023 428.64464,194.19023 428.64464,194.19023 C 428.70464,194.19023 428.72464,194.28023 428.72464,194.52023 L 428.72464,199.35023 C 428.72464,199.87023 428.62464,199.98023 428.08464,200.01023 L 427.52464,200.04023 L 427.52464,200.34023 C 429.05464,200.31023 429.05464,200.31023 429.16464,200.31023 C 429.29464,200.31023 429.51464,200.31023 429.85464,200.32023 C 429.97464,200.33023 430.32464,200.33023 430.73464,200.34023 L 430.73464,200.04023 L 430.21464,200.01023 C 429.66464,199.98023 429.56464,199.87023 429.56464,199.35023 L 429.56464,193.44023 L 429.42464,193.39023 C 428.77464,193.73023 428.07464,194.03023 427.16464,194.35023 L 427.23464,194.78023 z"
       id="path6961" />
    <polygon
       style="font-style:normal;font-variant:normal;font-weight:normal;font-stretch:normal;letter-spacing:normal;word-spacing:normal;text-anchor:start;fill:#000000;fill-opacity:1;stroke:none;stroke-width:0;stroke-linecap:butt;stroke-linejoin:miter;stroke-miterlimit:10.43299961;stroke-dasharray:none;stroke-dashoffset:0;stroke-opacity:1"
       points="234.12,709.26 234.42,709.93 234.37,709.98 231.75,709.98 231.48,709.31 231.53,709.26 234.12,709.26 "
       id="polygon6965"
       transform="matrix(1,0,0,-1,140.07082,975.99726)" />
    <path
       style="font-style:normal;font-variant:normal;font-weight:normal;font-stretch:normal;letter-spacing:normal;word-spacing:normal;text-anchor:start;fill:#000000;fill-opacity:1;stroke:none;stroke-width:0;stroke-linecap:butt;stroke-linejoin:miter;stroke-miterlimit:10.43299961;stroke-dasharray:none;stroke-dashoffset:0;stroke-opacity:1"
       d="M 375.37082,263.34726 L 375.47082,263.34726 L 376.75082,262.76726 C 376.76082,262.75726 376.77082,262.75726 376.78082,262.75726 C 376.84082,262.75726 376.86082,262.84726 376.86082,263.08726 L 376.86082,267.91726 C 376.86082,268.43726 376.75082,268.54726 376.21082,268.57726 L 375.66082,268.60726 L 375.66082,268.90726 C 377.19082,268.87726 377.19082,268.87726 377.30082,268.87726 C 377.43082,268.87726 377.65082,268.87726 377.99082,268.88726 C 378.11082,268.89726 378.46082,268.89726 378.86082,268.90726 L 378.86082,268.60726 L 378.35082,268.57726 C 377.80082,268.54726 377.70082,268.43726 377.70082,267.91726 L 377.70082,262.00726 L 377.56082,261.95726 C 376.91082,262.29726 376.20082,262.59726 375.30082,262.91726 L 375.37082,263.34726 z"
       id="path6967" />
    <path
       id="path6977"
       d="M 428.14401,209.13407 L 428.45901,209.13407 L 428.90901,208.26407 C 429.16401,208.20407 429.29901,208.18907 429.49401,208.18907 C 429.70401,208.18907 429.86901,208.20407 430.16901,208.26407 C 430.70901,208.36907 431.08401,208.41407 431.41401,208.41407 C 430.73901,208.90907 430.31901,209.35907 430.31901,209.91407 C 430.31901,210.19907 430.39401,210.42407 430.55901,210.60407 C 429.88401,210.67907 428.90901,211.20407 428.15901,211.87907 C 427.33401,212.61407 426.77901,214.18907 426.77901,215.74907 C 426.77901,217.18907 427.40901,217.95407 428.59401,217.95407 C 428.93901,217.95407 430.16901,217.80407 430.61901,217.80407 C 431.12901,217.80407 431.36901,218.07407 431.36901,218.58407 C 431.36901,218.67407 431.35401,218.76407 431.35401,218.88407 C 430.99401,219.94907 430.24401,220.53407 429.58401,220.53407 C 429.05901,220.53407 428.65401,220.12907 428.65401,219.60407 C 428.65401,219.52907 428.66901,219.40907 428.68401,219.27407 L 428.53401,219.21407 L 427.81401,219.72407 C 427.79901,219.82907 427.79901,219.91907 427.79901,219.99407 C 427.79901,220.63907 428.35401,221.16407 429.02901,221.16407 C 429.86901,221.16407 430.90401,220.44407 431.56401,219.58907 C 432.10401,218.92907 432.20901,218.17907 432.20901,217.65407 C 432.20901,217.51907 432.16401,217.39907 432.07401,217.30907 C 431.86401,217.06907 431.44401,217.03907 431.12901,217.03907 C 430.69401,217.03907 429.65901,217.18907 429.16401,217.18907 C 428.32401,217.18907 427.90401,216.58907 427.90401,215.40407 C 427.90401,213.79907 428.42901,212.23907 429.16401,211.66907 C 429.47901,211.42907 429.86901,211.23407 430.33401,211.23407 C 430.67901,211.23407 430.96401,211.32407 431.21901,211.41407 C 431.35401,211.45907 431.78901,211.53407 431.92401,211.53407 C 432.11901,211.53407 432.49401,211.53407 432.55401,211.51907 C 432.55401,211.44407 432.65901,211.08407 432.76401,210.94907 C 432.76401,210.87407 432.74901,210.81407 432.73401,210.73907 C 431.93901,210.78407 431.21901,210.28907 431.21901,209.53907 C 431.21901,208.71407 432.55401,208.17407 433.18401,207.93407 L 433.63401,207.76907 L 433.72401,207.28907 L 433.58901,207.15407 L 433.24401,207.49907 C 433.09401,207.64907 432.94401,207.70907 432.73401,207.70907 C 432.22401,207.70907 431.44401,207.58907 430.73901,207.39407 L 430.46901,207.31907 C 430.04901,207.21407 429.74901,207.15407 429.53901,207.15407 C 429.28401,207.15407 428.98401,207.19907 428.62401,207.30407 L 428.14401,209.13407 z"
       style="font-style:normal;font-variant:normal;font-weight:normal;font-stretch:normal;letter-spacing:normal;word-spacing:normal;text-anchor:start;fill:#000000;fill-opacity:1;stroke:none;stroke-width:0;stroke-linecap:butt;stroke-linejoin:miter;stroke-miterlimit:10.43299961;stroke-dasharray:none;stroke-dashoffset:0;stroke-opacity:1" />
    <path
       id="path6979"
       d="M 434.44401,214.26407 L 434.56401,214.26407 L 436.03401,213.60407 C 436.03401,213.58907 436.04901,213.58907 436.06401,213.58907 C 436.12401,213.58907 436.15401,213.69407 436.15401,213.96407 L 436.15401,219.46907 C 436.15401,220.06907 436.03401,220.18907 435.41901,220.21907 L 434.77401,220.26407 L 434.77401,220.59407 C 436.52901,220.56407 436.52901,220.56407 436.64901,220.56407 C 436.79901,220.56407 437.05401,220.56407 437.42901,220.57907 C 437.57901,220.57907 437.96901,220.57907 438.43401,220.59407 L 438.43401,220.26407 L 437.84901,220.21907 C 437.21901,220.18907 437.09901,220.06907 437.09901,219.46907 L 437.09901,212.73407 L 436.94901,212.67407 C 436.21401,213.06407 435.40401,213.40907 434.36901,213.76907 L 434.44401,214.26407 z"
       style="font-style:normal;font-variant:normal;font-weight:normal;font-stretch:normal;letter-spacing:normal;word-spacing:normal;text-anchor:start;fill:#000000;fill-opacity:1;stroke:none;stroke-width:0;stroke-linecap:butt;stroke-linejoin:miter;stroke-miterlimit:10.43299961;stroke-dasharray:none;stroke-dashoffset:0;stroke-opacity:1" />
    <path
       id="path6985"
       d="M 529.95467,132.49462 L 530.28467,132.49462 L 530.71967,131.62462 C 530.97467,131.56462 531.10967,131.54962 531.30467,131.54962 C 531.51467,131.54962 531.67967,131.56462 531.97967,131.62462 C 532.51967,131.72962 532.89467,131.77462 533.23967,131.77462 C 532.54967,132.26962 532.12967,132.71962 532.12967,133.27462 C 532.12967,133.55962 532.20467,133.78462 532.36967,133.96462 C 531.69467,134.03962 530.71967,134.56462 529.96967,135.23962 C 529.15967,135.97462 528.58967,137.54962 528.58967,139.10962 C 528.58967,140.54962 529.21967,141.31462 530.40467,141.31462 C 530.74967,141.31462 531.97967,141.16462 532.42967,141.16462 C 532.93967,141.16462 533.19467,141.43462 533.19467,141.94462 C 533.19467,142.03462 533.17967,142.12462 533.16467,142.24462 C 532.80467,143.30962 532.05467,143.89462 531.39467,143.89462 C 530.86967,143.89462 530.46467,143.48962 530.46467,142.96462 C 530.46467,142.88962 530.47967,142.76962 530.49467,142.63462 L 530.34467,142.57462 L 529.63967,143.08462 C 529.62467,143.18962 529.62467,143.27962 529.62467,143.35462 C 529.62467,143.99962 530.17967,144.52462 530.83967,144.52462 C 531.67967,144.52462 532.71467,143.80462 533.38967,142.94962 C 533.92967,142.28962 534.03467,141.53962 534.03467,141.01462 C 534.03467,140.87962 533.98967,140.75962 533.89967,140.66962 C 533.68967,140.42962 533.25467,140.39962 532.93967,140.39962 C 532.50467,140.39962 531.46967,140.54962 530.97467,140.54962 C 530.14967,140.54962 529.72967,139.94962 529.72967,138.76462 C 529.72967,137.15962 530.23967,135.59962 530.97467,135.02962 C 531.28967,134.78962 531.67967,134.59462 532.14467,134.59462 C 532.48967,134.59462 532.77467,134.68462 533.04467,134.77462 C 533.17967,134.81962 533.61467,134.89462 533.74967,134.89462 C 533.94467,134.89462 534.31967,134.89462 534.36467,134.87962 C 534.36467,134.80462 534.46967,134.44462 534.57467,134.30962 C 534.57467,134.23462 534.55967,134.17462 534.54467,134.09962 C 533.76467,134.14462 533.04467,133.64962 533.04467,132.89962 C 533.04467,132.07462 534.36467,131.53462 534.99467,131.29462 L 535.44467,131.12962 L 535.53467,130.64962 L 535.39967,130.51462 L 535.05467,130.85962 C 534.90467,131.00962 534.75467,131.06962 534.54467,131.06962 C 534.03467,131.06962 533.26967,130.94962 532.54967,130.75462 L 532.27967,130.67962 C 531.85967,130.57462 531.55967,130.51462 531.34967,130.51462 C 531.09467,130.51462 530.79467,130.55962 530.43467,130.66462 L 529.95467,132.49462 z"
       style="font-style:normal;font-variant:normal;font-weight:normal;font-stretch:normal;letter-spacing:normal;word-spacing:normal;text-anchor:start;fill:#000000;fill-opacity:1;stroke:none;stroke-width:0;stroke-linecap:butt;stroke-linejoin:miter;stroke-miterlimit:10.43299961;stroke-dasharray:none;stroke-dashoffset:0;stroke-opacity:1" />
    <path
       id="path6987"
       d="M 535.68467,143.48962 L 535.68467,143.78962 C 537.79967,143.75962 537.79967,143.75962 538.21967,143.75962 C 538.62467,143.75962 538.62467,143.75962 540.81467,143.78962 C 540.79967,143.54962 540.79967,143.44462 540.79967,143.27962 C 540.79967,143.12962 540.79967,143.00962 540.81467,142.76962 C 539.50967,142.82962 538.98467,142.82962 536.88467,142.87462 L 538.95467,140.68462 C 540.04967,139.51462 540.39467,138.89962 540.39467,138.04462 C 540.39467,136.73962 539.50967,135.92962 538.06967,135.92962 C 537.24467,135.92962 536.68967,136.15462 536.13467,136.72462 L 535.93967,138.26962 L 536.26967,138.26962 L 536.41967,137.74462 C 536.59967,137.08462 537.00467,136.79962 537.76967,136.79962 C 538.74467,136.79962 539.37467,137.41462 539.37467,138.38962 C 539.37467,139.22962 538.89467,140.06962 537.61967,141.43462 L 535.68467,143.48962 z"
       style="font-style:normal;font-variant:normal;font-weight:normal;font-stretch:normal;letter-spacing:normal;word-spacing:normal;text-anchor:start;fill:#000000;fill-opacity:1;stroke:none;stroke-width:0;stroke-linecap:butt;stroke-linejoin:miter;stroke-miterlimit:10.43299961;stroke-dasharray:none;stroke-dashoffset:0;stroke-opacity:1" />
    <path
       style="font-style:normal;font-variant:normal;font-weight:normal;font-stretch:normal;letter-spacing:normal;word-spacing:normal;text-anchor:start;fill:#000000;fill-opacity:1;stroke:none;stroke-width:0;stroke-linecap:butt;stroke-linejoin:miter;stroke-miterlimit:10.43299961;stroke-dasharray:none;stroke-dashoffset:0;stroke-opacity:1"
       d="M 549.2142,138.18153 L 549.3142,138.18153 L 550.6042,137.60153 C 550.6042,137.59153 550.6242,137.59153 550.6242,137.59153 C 550.6842,137.59153 550.7042,137.68153 550.7042,137.92153 L 550.7042,142.75153 C 550.7042,143.27153 550.6042,143.38153 550.0642,143.41153 L 549.5042,143.44153 L 549.5042,143.74153 C 551.0342,143.71153 551.0342,143.71153 551.1442,143.71153 C 551.2742,143.71153 551.4942,143.71153 551.8342,143.72153 C 551.9542,143.73153 552.3042,143.73153 552.7142,143.74153 L 552.7142,143.44153 L 552.1942,143.41153 C 551.6442,143.38153 551.5442,143.27153 551.5442,142.75153 L 551.5442,136.84153 L 551.4042,136.79153 C 550.7542,137.13153 550.0542,137.43153 549.1442,137.75153 L 549.2142,138.18153 z"
       id="path6989" />
    <polygon
       style="font-style:normal;font-variant:normal;font-weight:normal;font-stretch:normal;letter-spacing:normal;word-spacing:normal;text-anchor:start;fill:#000000;fill-opacity:1;stroke:none;stroke-width:0;stroke-linecap:butt;stroke-linejoin:miter;stroke-miterlimit:10.43299961;stroke-dasharray:none;stroke-dashoffset:0;stroke-opacity:1"
       points="234.12,709.26 234.42,709.93 234.37,709.98 231.75,709.98 231.48,709.31 231.53,709.26 234.12,709.26 "
       id="polygon6993"
       transform="matrix(1,0,0,-1,248.3172,906.62565)" />
    <path
       style="font-style:normal;font-variant:normal;font-weight:normal;font-stretch:normal;letter-spacing:normal;word-spacing:normal;text-anchor:start;fill:#000000;fill-opacity:1;stroke:none;stroke-width:0;stroke-linecap:butt;stroke-linejoin:miter;stroke-miterlimit:10.43299961;stroke-dasharray:none;stroke-dashoffset:0;stroke-opacity:1"
       d="M 483.6172,193.97565 L 483.7172,193.97565 L 484.9972,193.39565 C 485.0072,193.38565 485.0172,193.38565 485.0272,193.38565 C 485.0872,193.38565 485.1072,193.47565 485.1072,193.71565 L 485.1072,198.54565 C 485.1072,199.06565 484.9972,199.17565 484.4572,199.20565 L 483.9072,199.23565 L 483.9072,199.53565 C 485.4372,199.50565 485.4372,199.50565 485.5472,199.50565 C 485.6772,199.50565 485.8972,199.50565 486.2372,199.51565 C 486.3572,199.52565 486.7072,199.52565 487.1072,199.53565 L 487.1072,199.23565 L 486.5972,199.20565 C 486.0472,199.17565 485.9472,199.06565 485.9472,198.54565 L 485.9472,192.63565 L 485.8072,192.58565 C 485.1572,192.92565 484.4472,193.22565 483.5472,193.54565 L 483.6172,193.97565 z"
       id="path6995" />
    <path
       style="font-style:normal;font-variant:normal;font-weight:normal;font-stretch:normal;letter-spacing:normal;word-spacing:normal;text-anchor:start;fill:#000000;fill-opacity:1;stroke:none;stroke-width:0;stroke-linecap:butt;stroke-linejoin:miter;stroke-miterlimit:10.43299961;stroke-dasharray:none;stroke-dashoffset:0;stroke-opacity:1"
       d="M 551.0842,192.52566 L 550.9442,192.53566 L 550.8042,192.54566 L 550.6742,192.56566 L 550.5442,192.58566 L 550.4142,192.61566 L 550.2942,192.65566 L 550.1842,192.70566 L 550.0742,192.75566 L 549.9642,192.81566 L 549.8642,192.88566 L 549.7642,192.96566 L 549.6742,193.04566 L 549.5842,193.13566 L 549.4942,193.22566 L 549.4142,193.33566 L 549.3442,193.44566 L 549.2742,193.55566 L 549.2042,193.68566 L 549.1442,193.81566 L 549.0842,193.95566 L 549.0342,194.10566 L 548.9842,194.25566 L 548.9442,194.41566 L 548.9042,194.57566 L 548.8642,194.75566 L 548.8342,194.93566 L 548.8142,195.12566 L 548.7942,195.31566 L 548.7742,195.51566 L 548.7642,195.72566 L 548.7542,195.94566 L 548.7542,196.16566 C 548.7542,197.33566 548.9642,198.33566 549.3142,198.82566 C 549.6642,199.31566 550.2242,199.59566 550.8342,199.59566 L 550.9642,199.24566 C 550.0042,199.24566 549.5942,198.23566 549.5942,195.80566 C 549.5942,193.70566 549.9642,192.87566 550.9042,192.87566 L 550.9042,192.87566 C 551.8742,192.87566 552.2642,193.85566 552.2642,196.24566 C 552.2642,198.36566 551.8842,199.24566 550.9642,199.24566 L 550.8342,199.59566 C 552.3442,199.59566 553.1042,198.29566 553.1042,195.74566 C 553.1042,193.56566 552.4542,192.52566 551.0842,192.52566 z"
       id="path6997" />
    <path
       style="font-style:normal;font-variant:normal;font-weight:normal;font-stretch:normal;letter-spacing:normal;word-spacing:normal;text-anchor:start;fill:#000000;fill-opacity:1;stroke:none;stroke-width:0;stroke-linecap:butt;stroke-linejoin:miter;stroke-miterlimit:10.43299961;stroke-dasharray:none;stroke-dashoffset:0;stroke-opacity:1"
       d="M 602.95802,193.97566 L 603.05802,193.97566 L 604.34802,193.39566 C 604.34802,193.38566 604.36802,193.38566 604.36802,193.38566 C 604.42802,193.38566 604.44802,193.47566 604.44802,193.71566 L 604.44802,198.54566 C 604.44802,199.06566 604.34802,199.17566 603.80802,199.20566 L 603.24802,199.23566 L 603.24802,199.53566 C 604.77802,199.50566 604.77802,199.50566 604.88802,199.50566 C 605.01802,199.50566 605.23802,199.50566 605.57802,199.51566 C 605.69802,199.52566 606.04802,199.52566 606.45802,199.53566 L 606.45802,199.23566 L 605.93802,199.20566 C 605.38802,199.17566 605.28802,199.06566 605.28802,198.54566 L 605.28802,192.63566 L 605.14802,192.58566 C 604.49802,192.92566 603.79802,193.22566 602.88802,193.54566 L 602.95802,193.97566 z"
       id="path6999" />
    <polygon
       style="font-style:normal;font-variant:normal;font-weight:normal;font-stretch:normal;letter-spacing:normal;word-spacing:normal;text-anchor:start;fill:#000000;fill-opacity:1;stroke:none;stroke-width:0;stroke-linecap:butt;stroke-linejoin:miter;stroke-miterlimit:10.43299961;stroke-dasharray:none;stroke-dashoffset:0;stroke-opacity:1"
       points="234.12,709.26 234.42,709.93 234.37,709.98 231.75,709.98 231.48,709.31 231.53,709.26 234.12,709.26 "
       id="polygon7003"
       transform="matrix(1,0,0,-1,315.7942,975.19269)" />
    <path
       style="font-style:normal;font-variant:normal;font-weight:normal;font-stretch:normal;letter-spacing:normal;word-spacing:normal;text-anchor:start;fill:#000000;fill-opacity:1;stroke:none;stroke-width:0;stroke-linecap:butt;stroke-linejoin:miter;stroke-miterlimit:10.43299961;stroke-dasharray:none;stroke-dashoffset:0;stroke-opacity:1"
       d="M 551.0942,262.54269 L 551.1942,262.54269 L 552.4742,261.96269 C 552.4842,261.95269 552.4942,261.95269 552.5042,261.95269 C 552.5642,261.95269 552.5842,262.04269 552.5842,262.28269 L 552.5842,267.11269 C 552.5842,267.63269 552.4742,267.74269 551.9342,267.77269 L 551.3842,267.80269 L 551.3842,268.10269 C 552.9142,268.07269 552.9142,268.07269 553.0242,268.07269 C 553.1542,268.07269 553.3742,268.07269 553.7142,268.08269 C 553.8342,268.09269 554.1842,268.09269 554.5842,268.10269 L 554.5842,267.80269 L 554.0742,267.77269 C 553.5242,267.74269 553.4242,267.63269 553.4242,267.11269 L 553.4242,261.20269 L 553.2842,261.15269 C 552.6342,261.49269 551.9242,261.79269 551.0242,262.11269 L 551.0942,262.54269 z"
       id="path7005" />
    <path
       id="path7015"
       d="M 603.86739,208.3295 L 604.18239,208.3295 L 604.63239,207.4595 C 604.88739,207.3995 605.02239,207.3845 605.21739,207.3845 C 605.42739,207.3845 605.59239,207.3995 605.89239,207.4595 C 606.43239,207.5645 606.80739,207.6095 607.13739,207.6095 C 606.46239,208.1045 606.04239,208.5545 606.04239,209.1095 C 606.04239,209.3945 606.11739,209.6195 606.28239,209.7995 C 605.60739,209.8745 604.63239,210.3995 603.88239,211.0745 C 603.05739,211.8095 602.50239,213.3845 602.50239,214.9445 C 602.50239,216.3845 603.13239,217.1495 604.31739,217.1495 C 604.66239,217.1495 605.89239,216.9995 606.34239,216.9995 C 606.85239,216.9995 607.09239,217.2695 607.09239,217.7795 C 607.09239,217.8695 607.07739,217.9595 607.07739,218.0795 C 606.71739,219.1445 605.96739,219.7295 605.30739,219.7295 C 604.78239,219.7295 604.37739,219.3245 604.37739,218.7995 C 604.37739,218.7245 604.39239,218.6045 604.40739,218.4695 L 604.25739,218.4095 L 603.53739,218.9195 C 603.52239,219.0245 603.52239,219.1145 603.52239,219.1895 C 603.52239,219.8345 604.07739,220.3595 604.75239,220.3595 C 605.59239,220.3595 606.62739,219.6395 607.28739,218.7845 C 607.82739,218.1245 607.93239,217.3745 607.93239,216.8495 C 607.93239,216.7145 607.88739,216.5945 607.79739,216.5045 C 607.58739,216.2645 607.16739,216.2345 606.85239,216.2345 C 606.41739,216.2345 605.38239,216.3845 604.88739,216.3845 C 604.04739,216.3845 603.62739,215.7845 603.62739,214.5995 C 603.62739,212.9945 604.15239,211.4345 604.88739,210.8645 C 605.20239,210.6245 605.59239,210.4295 606.05739,210.4295 C 606.40239,210.4295 606.68739,210.5195 606.94239,210.6095 C 607.07739,210.6545 607.51239,210.7295 607.64739,210.7295 C 607.84239,210.7295 608.21739,210.7295 608.27739,210.7145 C 608.27739,210.6395 608.38239,210.2795 608.48739,210.1445 C 608.48739,210.0695 608.47239,210.0095 608.45739,209.9345 C 607.66239,209.9795 606.94239,209.4845 606.94239,208.7345 C 606.94239,207.9095 608.27739,207.3695 608.90739,207.1295 L 609.35739,206.9645 L 609.44739,206.4845 L 609.31239,206.3495 L 608.96739,206.6945 C 608.81739,206.8445 608.66739,206.9045 608.45739,206.9045 C 607.94739,206.9045 607.16739,206.7845 606.46239,206.5895 L 606.19239,206.5145 C 605.77239,206.4095 605.47239,206.3495 605.26239,206.3495 C 605.00739,206.3495 604.70739,206.3945 604.34739,206.4995 L 603.86739,208.3295 z"
       style="font-style:normal;font-variant:normal;font-weight:normal;font-stretch:normal;letter-spacing:normal;word-spacing:normal;text-anchor:start;fill:#000000;fill-opacity:1;stroke:none;stroke-width:0;stroke-linecap:butt;stroke-linejoin:miter;stroke-miterlimit:10.43299961;stroke-dasharray:none;stroke-dashoffset:0;stroke-opacity:1" />
    <path
       id="path7017"
       d="M 610.16739,213.4595 L 610.28739,213.4595 L 611.75739,212.7995 C 611.75739,212.7845 611.77239,212.7845 611.78739,212.7845 C 611.84739,212.7845 611.87739,212.8895 611.87739,213.1595 L 611.87739,218.6645 C 611.87739,219.2645 611.75739,219.3845 611.14239,219.4145 L 610.49739,219.4595 L 610.49739,219.7895 C 612.25239,219.7595 612.25239,219.7595 612.37239,219.7595 C 612.52239,219.7595 612.77739,219.7595 613.15239,219.7745 C 613.30239,219.7745 613.69239,219.7745 614.15739,219.7895 L 614.15739,219.4595 L 613.57239,219.4145 C 612.94239,219.3845 612.82239,219.2645 612.82239,218.6645 L 612.82239,211.9295 L 612.67239,211.8695 C 611.93739,212.2595 611.12739,212.6045 610.09239,212.9645 L 610.16739,213.4595 z"
       style="font-style:normal;font-variant:normal;font-weight:normal;font-stretch:normal;letter-spacing:normal;word-spacing:normal;text-anchor:start;fill:#000000;fill-opacity:1;stroke:none;stroke-width:0;stroke-linecap:butt;stroke-linejoin:miter;stroke-miterlimit:10.43299961;stroke-dasharray:none;stroke-dashoffset:0;stroke-opacity:1" />
  </g>
</svg>
