<?xml version="1.0" encoding="UTF-8" standalone="no"?>
<!-- Created with Inkscape (http://www.inkscape.org/) -->
<svg
   xmlns:ns0="http://www.iki.fi/pav/software/textext/"
   xmlns:dc="http://purl.org/dc/elements/1.1/"
   xmlns:cc="http://creativecommons.org/ns#"
   xmlns:rdf="http://www.w3.org/1999/02/22-rdf-syntax-ns#"
   xmlns:svg="http://www.w3.org/2000/svg"
   xmlns="http://www.w3.org/2000/svg"
   xmlns:xlink="http://www.w3.org/1999/xlink"
   xmlns:sodipodi="http://sodipodi.sourceforge.net/DTD/sodipodi-0.dtd"
   xmlns:inkscape="http://www.inkscape.org/namespaces/inkscape"
   width="744.09448819"
   height="1052.3622047"
   id="svg2480"
   sodipodi:version="0.32"
   inkscape:version="0.46"
   sodipodi:docname="sodium-domains.svg"
   inkscape:output_extension="org.inkscape.output.svg.inkscape">
  <sodipodi:namedview
     id="base"
     pagecolor="#ffffff"
     bordercolor="#666666"
     borderopacity="1.0"
     gridtolerance="10000"
     guidetolerance="10"
     objecttolerance="10"
     inkscape:pageopacity="0.0"
     inkscape:pageshadow="2"
     inkscape:zoom="1.4"
     inkscape:cx="252.1598"
     inkscape:cy="745.69985"
     inkscape:document-units="px"
     inkscape:current-layer="layer1"
     showgrid="false"
     inkscape:window-width="1920"
     inkscape:window-height="1125"
     inkscape:window-x="0"
     inkscape:window-y="25" />
  <defs
     id="defs2482">
    <inkscape:perspective
       sodipodi:type="inkscape:persp3d"
       inkscape:vp_x="0 : 526.18109 : 1"
       inkscape:vp_y="0 : 1000 : 0"
       inkscape:vp_z="744.09448 : 526.18109 : 1"
       inkscape:persp3d-origin="372.04724 : 350.78739 : 1"
       id="perspective2488" />
    <inkscape:perspective
       id="perspective3427"
       inkscape:persp3d-origin="372.04724 : 350.78739 : 1"
       inkscape:vp_z="744.09448 : 526.18109 : 1"
       inkscape:vp_y="0 : 1000 : 0"
       inkscape:vp_x="0 : 526.18109 : 1"
       sodipodi:type="inkscape:persp3d" />
    <inkscape:perspective
       id="perspective3527"
       inkscape:persp3d-origin="372.04724 : 350.78739 : 1"
       inkscape:vp_z="744.09448 : 526.18109 : 1"
       inkscape:vp_y="0 : 1000 : 0"
       inkscape:vp_x="0 : 526.18109 : 1"
       sodipodi:type="inkscape:persp3d" />
    <inkscape:perspective
       id="perspective3540"
       inkscape:persp3d-origin="372.04724 : 350.78739 : 1"
       inkscape:vp_z="744.09448 : 526.18109 : 1"
       inkscape:vp_y="0 : 1000 : 0"
       inkscape:vp_x="0 : 526.18109 : 1"
       sodipodi:type="inkscape:persp3d" />
  </defs>
  <metadata
     id="metadata2485">
    <rdf:RDF>
      <cc:Work
         rdf:about="">
        <dc:format>image/svg+xml</dc:format>
        <dc:type
           rdf:resource="http://purl.org/dc/dcmitype/StillImage" />
      </cc:Work>
    </rdf:RDF>
  </metadata>
  <g
     inkscape:label="Layer 1"
     inkscape:groupmode="layer"
     id="layer1">
    <image
       y="62.242062"
       x="114.25057"
       id="image3429"
       height="119.105"
       width="564.40002"
       sodipodi:absref="/home/lenka/latex/disertace/lenka-thesis/img/molten-pipeA.png"
       xlink:href="molten-pipeA.png" />
    <g
       id="g4537"
       transform="translate(22.212013,8.0774894)"
       style="stroke:#000000;stroke-width:1.5;stroke-miterlimit:4;stroke-dasharray:none;stroke-opacity:1">
      <g
         id="g4539"
         style="stroke:#000000;stroke-width:1.5;stroke-miterlimit:4;stroke-dasharray:none;stroke-opacity:1">
        <g
           id="g4541"
           transform="translate(-24.748737,-15.152288)"
           style="stroke:#000000;stroke-width:1.5;stroke-miterlimit:4;stroke-dasharray:none;stroke-opacity:1">
          <path
             d="M 122.51607,179.26936 L 675.57469,179.26936 L 675.06969,78.25474 L 123.02144,78.25474 L 122.51607,179.26936 z"
             style="fill:none;stroke:#000000;stroke-width:1.5;stroke-linecap:butt;stroke-linejoin:miter;stroke-miterlimit:4;stroke-dasharray:none;stroke-opacity:1"
             id="path4543" />
          <path
             d="M 123.02144,143.91386 L 249.66873,143.9772 L 273.53469,148.83868 L 525.56719,148.96474 L 549.30571,143.91407 L 675.45755,144.24017"
             style="fill:none;stroke:#000000;stroke-width:1.5;stroke-linecap:butt;stroke-linejoin:miter;stroke-miterlimit:4;stroke-dasharray:none;stroke-opacity:1"
             id="path4545"
             sodipodi:nodetypes="cccccc" />
          <path
             d="M 122.76857,138.35824 L 249.29094,138.86311 L 273.28219,143.66149 L 524.80969,143.66149 L 525.06219,128.50912 L 273.53469,128.50912 L 273.53469,143.66149"
             style="fill:none;stroke:#000000;stroke-width:1.5;stroke-linecap:butt;stroke-linejoin:miter;stroke-miterlimit:4;stroke-dasharray:none;stroke-opacity:1"
             id="path4547" />
          <path
             d="M 524.80969,143.66149 L 548.54844,139.11561 L 675.06969,138.86311 L 675.06969,138.86311"
             style="fill:none;stroke:#000000;stroke-width:1.5;stroke-linecap:butt;stroke-linejoin:miter;stroke-miterlimit:4;stroke-dasharray:none;stroke-opacity:1"
             id="path4549" />
        </g>
      </g>
    </g>
    <image
       y="260.50034"
       x="114.25057"
       id="image3542"
       height="55.195"
       width="564.40002"
       sodipodi:absref="/home/lenka/latex/disertace/lenka-thesis/img/molten-pipeT.png"
       xlink:href="molten-pipeT.png" />
    <g
       id="g3267"
       transform="translate(21.920448,144.96885)"
       style="stroke:#000000;stroke-width:1.5;stroke-miterlimit:4;stroke-dasharray:none;stroke-opacity:1">
      <g
         id="g3269"
         style="stroke:#000000;stroke-width:1.5;stroke-miterlimit:4;stroke-dasharray:none;stroke-opacity:1">
        <g
           id="g3271"
           transform="translate(-24.748737,-15.152288)"
           style="stroke:#000000;stroke-width:1.5;stroke-miterlimit:4;stroke-dasharray:none;stroke-opacity:1">
          <path
             d="M 122.51607,179.26936 L 675.57469,179.26936 L 675.06969,78.25474 L 123.02144,78.25474 L 122.51607,179.26936 z"
             style="fill:none;stroke:#000000;stroke-width:1.5;stroke-linecap:butt;stroke-linejoin:miter;stroke-miterlimit:4;stroke-dasharray:none;stroke-opacity:1"
             id="path3273" />
          <path
             d="M 123.02144,143.91386 L 249.66873,143.9772 L 273.53469,148.83868 L 525.56719,148.96474 L 549.30571,143.91407 L 675.45755,144.24017"
             style="fill:none;stroke:#000000;stroke-width:1.5;stroke-linecap:butt;stroke-linejoin:miter;stroke-miterlimit:4;stroke-dasharray:none;stroke-opacity:1"
             id="path3275"
             sodipodi:nodetypes="cccccc" />
          <path
             d="M 122.76857,138.35824 L 249.29094,138.86311 L 273.28219,143.66149 L 524.80969,143.66149 L 525.06219,128.50912 L 273.53469,128.50912 L 273.53469,143.66149"
             style="fill:none;stroke:#000000;stroke-width:1.5;stroke-linecap:butt;stroke-linejoin:miter;stroke-miterlimit:4;stroke-dasharray:none;stroke-opacity:1"
             id="path3277" />
          <path
             d="M 524.80969,143.66149 L 548.54844,139.11561 L 675.06969,138.86311 L 675.06969,138.86311"
             style="fill:none;stroke:#000000;stroke-width:1.5;stroke-linecap:butt;stroke-linejoin:miter;stroke-miterlimit:4;stroke-dasharray:none;stroke-opacity:1"
             id="path3279" />
        </g>
      </g>
    </g>
    <image
       y="406.04828"
       x="114.25057"
       id="image3529"
       height="50.630001"
       width="564.40002"
       sodipodi:absref="/home/lenka/latex/disertace/lenka-thesis/img/molten-pipeF.png"
       xlink:href="molten-pipeF.png" />
    <g
       id="g3281"
       transform="translate(21.950938,283.16341)"
       style="stroke:#000000;stroke-width:1.5;stroke-miterlimit:4;stroke-dasharray:none;stroke-opacity:1">
      <g
         id="g3283"
         style="stroke:#000000;stroke-width:1.5;stroke-miterlimit:4;stroke-dasharray:none;stroke-opacity:1">
        <g
           id="g3285"
           transform="translate(-24.748737,-15.152288)"
           style="stroke:#000000;stroke-width:1.5;stroke-miterlimit:4;stroke-dasharray:none;stroke-opacity:1">
          <path
             d="M 122.51607,179.26936 L 675.57469,179.26936 L 675.06969,78.25474 L 123.02144,78.25474 L 122.51607,179.26936 z"
             style="fill:none;stroke:#000000;stroke-width:1.5;stroke-linecap:butt;stroke-linejoin:miter;stroke-miterlimit:4;stroke-dasharray:none;stroke-opacity:1"
             id="path3287" />
          <path
             d="M 123.02144,143.91386 L 249.66873,143.9772 L 273.53469,148.83868 L 525.56719,148.96474 L 549.30571,143.91407 L 675.45755,144.24017"
             style="fill:none;stroke:#000000;stroke-width:1.5;stroke-linecap:butt;stroke-linejoin:miter;stroke-miterlimit:4;stroke-dasharray:none;stroke-opacity:1"
             id="path3289"
             sodipodi:nodetypes="cccccc" />
          <path
             d="M 122.76857,138.35824 L 249.29094,138.86311 L 273.28219,143.66149 L 524.80969,143.66149 L 525.06219,128.50912 L 273.53469,128.50912 L 273.53469,143.66149"
             style="fill:none;stroke:#000000;stroke-width:1.5;stroke-linecap:butt;stroke-linejoin:miter;stroke-miterlimit:4;stroke-dasharray:none;stroke-opacity:1"
             id="path3291" />
          <path
             d="M 524.80969,143.66149 L 548.54844,139.11561 L 675.06969,138.86311 L 675.06969,138.86311"
             style="fill:none;stroke:#000000;stroke-width:1.5;stroke-linecap:butt;stroke-linejoin:miter;stroke-miterlimit:4;stroke-dasharray:none;stroke-opacity:1"
             id="path3293" />
        </g>
      </g>
    </g>
  </g>
  <g
     style="font-style:normal;font-variant:normal;font-weight:normal;font-stretch:normal;letter-spacing:normal;word-spacing:normal;text-anchor:start;fill:none;fill-opacity:1;stroke:none;stroke-linecap:butt;stroke-linejoin:miter;stroke-miterlimit:10.43299961;stroke-dasharray:none;stroke-dashoffset:0;stroke-opacity:1"
     id="g3705"
     transform="matrix(1.5,0,0,-1.5,-122.14285,1125.7143)"
     xml:space="preserve"
     stroke-miterlimit="10.433"
     fill-rule="even-odd"
     font-style="normal"
     font-variant="normal"
     font-weight="normal"
     font-stretch="normal"
     font-size-adjust="none"
     letter-spacing="normal"
     word-spacing="normal"
     ns0:text="Magnetic potential - liquid, pipe, inductor, surroundings"
     ns0:preamble="/home/lenka/latex/disertace/lenka-thesis/textext-preamble.tex">
<path
   style="fill:#000000;stroke:none;stroke-width:0"
   d="M 230.73,708.32 L 230.72,708.28 L 230.72,708.25 L 230.72,708.21 L 230.72,708.18 L 230.72,708.15 L 230.72,708.11 L 230.72,708.08 L 230.72,708.06 L 230.72,708.03 L 230.72,708 L 230.72,707.97 L 230.72,707.95 L 230.72,707.92 L 230.72,707.9 L 230.71,707.87 L 230.71,707.85 L 230.71,707.83 L 230.71,707.81 L 230.7,707.79 L 230.7,707.77 L 230.7,707.73 L 230.69,707.7 L 230.68,707.67 L 230.67,707.64 L 230.66,707.61 L 230.65,707.59 L 230.63,707.57 L 230.62,707.55 L 230.6,707.53 L 230.58,707.51 L 230.56,707.5 L 230.54,707.49 L 230.52,707.48 L 230.49,707.47 L 230.47,707.46 L 230.44,707.45 L 230.41,707.44 L 230.37,707.44 L 230.34,707.43 L 230.3,707.43 L 230.26,707.42 L 230.22,707.42 L 229.88,707.39 L 229.88,707.09 C 230.34,707.11 230.63,707.12 231.15,707.12 C 231.71,707.12 232.07,707.11 232.66,707.09 L 232.66,707.39 L 232.18,707.42 C 231.72,707.45 231.67,707.53 231.67,708.32 L 231.67,712.79 C 231.67,713.57 231.72,713.66 232.18,713.69 L 232.6,713.72 L 232.6,714.02 C 231.84,713.99 231.84,713.99 231.67,713.99 C 231.52,713.99 231.52,713.99 230.73,714.02 L 228.12,708.48 L 225.49,714.02 C 224.69,713.99 224.69,713.99 224.54,713.99 C 224.39,713.99 224.39,713.99 223.59,714.02 L 223.59,713.72 L 224.03,713.69 C 224.49,713.66 224.54,713.57 224.54,712.79 L 224.54,708.32 C 224.54,707.54 224.49,707.45 224.03,707.42 L 223.59,707.39 L 223.59,707.09 C 224.58,707.12 224.58,707.12 224.75,707.12 C 224.9,707.12 224.9,707.12 225.94,707.09 L 225.94,707.39 L 225.51,707.42 C 225.05,707.45 225,707.54 225,708.32 L 225,712.88 L 227.78,706.99 L 227.98,706.99 C 228.04,707.14 228.1,707.3 228.16,707.45 C 228.32,707.84 228.44,708.12 228.51,708.26 L 230.29,712.02 C 230.43,712.31 230.55,712.54 230.73,712.88 L 230.73,708.32 z"
   id="path3707" />
<path
   style="fill:#000000;stroke:none;stroke-width:0"
   d="M 236.09,707.94 L 236.04,707.09 C 236.69,707.12 236.69,707.12 236.82,707.12 C 236.87,707.12 237.11,707.11 237.55,707.09 L 237.55,707.39 L 237.16,707.41 C 236.93,707.42 236.88,707.5 236.88,707.99 L 236.88,709.81 C 236.88,711.27 236.47,711.79 235.31,711.79 C 234.88,711.79 234.48,711.68 234.1,711.46 L 233.58,711.14 L 233.58,710.49 L 233.84,710.42 L 233.97,710.73 C 234.18,711.2 234.27,711.27 234.73,711.27 C 235.67,711.27 236.06,710.9 236.09,709.99 L 236.09,709.67 L 236.09,708.36 C 235.8,707.95 235.17,707.57 234.78,707.57 C 234.38,707.57 234.04,707.94 234.04,708.37 C 234.04,708.74 234.24,709.09 234.53,709.27 C 234.78,709.42 235.33,709.56 236.09,709.67 L 236.09,709.99 L 235.1,709.81 C 233.75,709.56 233.18,709.09 233.18,708.23 C 233.18,707.45 233.65,707 234.43,707 C 234.61,707 234.78,707.03 234.85,707.08 L 236.09,707.94 z"
   id="path3709" />
<path
   style="fill:#000000;stroke:none;stroke-width:0"
   d="M 243.01,710.89 L 243.26,711.3 L 243.22,711.42 L 241.8,711.38 C 241.44,711.67 241.08,711.79 240.59,711.79 C 240.15,711.79 239.64,711.66 239.24,711.42 C 238.68,711.1 238.39,710.61 238.39,710 C 238.39,709.26 238.85,708.76 239.58,708.68 L 238.8,708.07 C 238.7,707.92 238.65,707.79 238.65,707.64 C 238.65,707.36 238.83,707.2 239.3,707.06 L 238.44,706.59 C 238.3,706.52 238.16,706.15 238.16,705.84 C 238.16,704.93 239.04,704.3 240.31,704.3 L 240.38,704.61 C 239.51,704.61 238.92,705.12 238.92,705.86 C 238.92,706.31 239.18,706.71 239.57,706.88 C 239.73,706.96 240.01,706.98 240.7,706.98 L 240.7,706.98 C 241.82,706.98 242.21,706.75 242.21,706.11 C 242.21,705.25 241.43,704.61 240.38,704.61 L 240.31,704.3 C 241.82,704.3 243,705.25 243,706.47 C 243,707.18 242.52,707.68 241.82,707.68 L 240.23,707.68 C 239.71,707.68 239.47,707.8 239.47,708.07 C 239.47,708.2 239.55,708.31 239.81,708.53 C 239.87,708.58 239.89,708.6 239.93,708.64 C 240.03,708.63 240.09,708.62 240.17,708.62 L 240.34,708.96 C 239.67,708.96 239.23,709.47 239.23,710.24 C 239.23,711.01 239.59,711.46 240.23,711.46 L 240.23,711.46 C 240.91,711.46 241.37,710.9 241.37,710.05 C 241.37,709.4 240.95,708.96 240.34,708.96 L 240.17,708.62 C 240.6,708.62 241.13,708.81 241.54,709.09 C 241.98,709.42 242.2,709.82 242.2,710.35 C 242.2,710.55 242.17,710.68 242.09,710.89 L 243.01,710.89 z"
   id="path3711" />
<path
   style="fill:#000000;stroke:none;stroke-width:0"
   d="M 247.46,707.09 L 247.49,707.09 L 247.52,707.1 L 247.54,707.1 L 247.57,707.1 L 247.59,707.1 L 247.62,707.1 L 247.64,707.1 L 247.66,707.1 L 247.68,707.1 L 247.7,707.1 L 247.72,707.11 L 247.74,707.11 L 247.76,707.11 L 247.78,707.11 L 247.8,707.11 L 247.82,707.11 L 247.83,707.11 L 247.85,707.11 L 247.88,707.11 L 247.91,707.11 L 247.93,707.11 L 247.95,707.12 L 247.98,707.12 L 248,707.12 L 248.02,707.12 L 248.04,707.12 L 248.05,707.12 L 248.07,707.12 L 248.08,707.12 L 248.1,707.12 L 248.11,707.12 L 248.14,707.12 L 248.16,707.12 L 248.19,707.12 L 248.2,707.12 L 248.22,707.12 L 248.23,707.12 L 248.25,707.12 C 248.39,707.12 248.39,707.12 249.07,707.09 L 249.07,707.39 L 248.66,707.42 C 248.33,707.44 248.3,707.5 248.3,708.14 L 248.3,710.06 C 248.3,711.23 247.75,711.79 246.63,711.79 C 246.26,711.79 246.05,711.72 245.85,711.55 L 245.09,710.89 L 245.09,711.76 L 245,711.79 C 244.49,711.59 243.97,711.45 243.45,711.39 L 243.45,711.11 L 243.81,711.11 C 244.21,711.11 244.25,711.04 244.25,710.38 L 244.25,708.14 C 244.25,707.51 244.22,707.44 243.88,707.42 L 243.43,707.39 L 243.43,707.09 C 244.11,707.11 244.38,707.12 244.67,707.12 C 244.96,707.12 245.23,707.11 245.91,707.09 L 245.91,707.39 L 245.46,707.42 C 245.12,707.44 245.09,707.51 245.09,708.14 L 245.09,710.25 C 245.09,710.7 245.75,711.19 246.35,711.19 C 247.02,711.19 247.46,710.69 247.46,709.92 L 247.46,707.09 z"
   id="path3713" />
<path
   style="fill:#000000;stroke:none;stroke-width:0"
   d="M 253.53,707.82 L 253.4,707.92 C 252.76,707.54 252.53,707.45 252.1,707.45 C 251.45,707.45 250.92,707.74 250.64,708.23 C 250.45,708.56 250.38,708.84 250.36,709.41 L 251.81,709.41 C 252.5,709.41 252.93,709.44 253.62,709.55 C 253.63,709.69 253.64,709.78 253.64,709.9 C 253.64,711.05 252.9,711.79 251.78,711.79 L 251.66,711.47 C 251.99,711.47 252.25,711.34 252.43,711.07 C 252.65,710.74 252.72,710.45 252.75,709.78 L 252.75,709.78 C 252.23,709.76 251.99,709.75 251.63,709.75 C 251.18,709.75 250.92,709.76 250.38,709.81 C 250.38,710.28 250.42,710.5 250.55,710.76 C 250.76,711.2 251.18,711.47 251.66,711.47 L 251.78,711.79 C 251.41,711.79 250.99,711.66 250.58,711.43 C 249.76,710.96 249.43,710.34 249.43,709.3 C 249.43,708.68 249.58,708.14 249.85,707.76 C 250.25,707.23 250.92,706.92 251.66,706.92 C 252.03,706.92 252.4,707 252.81,707.18 C 253.08,707.29 253.29,707.42 253.33,707.48 L 253.53,707.82 z"
   id="path3715" />
<path
   style="fill:#000000;stroke:none;stroke-width:0"
   d="M 254.93,710.93 L 254.93,708.06 C 254.93,707.32 255.26,707 256.02,707 C 256.25,707 256.49,707.05 256.55,707.12 L 257.03,707.65 L 256.9,707.82 C 256.65,707.68 256.5,707.63 256.31,707.63 C 255.92,707.63 255.76,707.83 255.76,708.32 L 255.76,710.93 L 257.04,710.93 L 257.13,711.47 L 255.76,711.41 L 255.76,711.78 C 255.76,712.2 255.79,712.56 255.87,713.2 L 255.75,713.31 C 255.51,713.16 255.21,713.03 254.91,712.93 C 254.94,712.63 254.95,712.44 254.95,712.14 L 254.95,711.45 L 254.17,711.1 L 254.17,710.89 L 254.93,710.93 z"
   id="path3717" />
<path
   style="fill:#000000;stroke:none;stroke-width:0"
   d="M 259.07,711.76 L 258.98,711.79 C 258.47,711.59 257.95,711.45 257.43,711.39 L 257.43,711.11 L 257.8,711.11 C 258.19,711.11 258.23,711.04 258.23,710.38 L 258.23,708.14 C 258.23,707.51 258.2,707.44 257.86,707.42 L 257.41,707.39 L 257.41,707.09 C 258.4,707.12 258.4,707.12 258.65,707.12 C 258.9,707.12 258.9,707.12 259.9,707.09 L 259.9,707.39 L 259.44,707.42 C 259.1,707.44 259.07,707.51 259.07,708.14 L 259.07,711.76 z"
   id="path3719" />
<path
   style="fill:#000000;stroke:none;stroke-width:0"
   d="M 258.61,713.97 L 258.58,713.97 L 258.56,713.96 L 258.53,713.96 L 258.5,713.96 L 258.48,713.95 L 258.45,713.94 L 258.42,713.93 L 258.4,713.92 L 258.37,713.91 L 258.35,713.9 L 258.33,713.88 L 258.3,713.87 L 258.28,713.85 L 258.26,713.84 L 258.24,713.82 L 258.22,713.8 L 258.2,713.78 L 258.18,713.76 L 258.17,713.74 L 258.15,713.72 L 258.14,713.69 L 258.12,713.67 L 258.11,713.65 L 258.1,713.62 L 258.09,713.6 L 258.08,713.57 L 258.07,713.55 L 258.07,713.52 L 258.06,713.49 L 258.06,713.46 L 258.05,713.44 L 258.05,713.41 C 258.05,713.12 258.31,712.86 258.6,712.86 C 258.89,712.86 259.16,713.12 259.16,713.41 C 259.16,713.69 258.89,713.97 258.61,713.97 z"
   id="path3721" />
<path
   style="fill:#000000;stroke:none;stroke-width:0"
   d="M 264.07,710.22 L 264.07,710.31 L 264.07,710.39 L 264.07,710.47 L 264.08,710.56 L 264.08,710.64 L 264.09,710.72 L 264.1,710.79 L 264.1,710.87 L 264.11,710.95 L 264.12,711.02 L 264.13,711.1 L 264.15,711.17 L 264.16,711.24 L 264.18,711.31 L 264.19,711.38 L 264.21,711.45 C 263.81,711.68 263.46,711.79 263.05,711.79 C 262.57,711.79 262.02,711.61 261.42,711.23 C 260.72,710.79 260.35,710.09 260.35,709.22 C 260.35,707.87 261.3,706.92 262.63,706.92 C 263.15,706.92 263.9,707.11 264,707.26 L 264.21,707.58 L 264.11,707.73 C 263.74,707.53 263.42,707.44 263.06,707.44 C 261.96,707.44 261.23,708.3 261.23,709.61 C 261.23,710.68 261.73,711.28 262.62,711.28 C 263.06,711.28 263.54,711.08 263.72,710.83 L 263.79,710.22 L 264.07,710.22 z"
   id="path3723" />
<path
   style="fill:#000000;stroke:none;stroke-width:0"
   d="M 267.52,711.11 L 267.89,711.11 C 268.29,711.11 268.33,711.04 268.33,710.38 L 268.33,705.37 C 268.33,704.74 268.3,704.67 267.96,704.65 L 267.5,704.62 L 267.5,704.32 C 268.5,704.35 268.5,704.35 268.74,704.35 C 268.99,704.35 268.99,704.35 269.99,704.32 L 269.99,704.62 L 269.53,704.65 C 269.19,704.67 269.16,704.74 269.16,705.37 L 269.16,707.25 C 269.46,707.07 269.78,707 270.23,707 C 270.52,707 270.78,707.06 270.94,707.16 L 272.07,707.9 C 272.47,708.16 272.94,709.18 272.94,709.82 C 272.94,710.93 272.02,711.79 270.87,711.79 C 270.5,711.79 270.14,711.7 269.98,711.55 L 269.16,710.8 L 269.34,710.59 C 269.63,710.96 270.04,711.15 270.54,711.15 C 271.48,711.15 272.07,710.49 272.07,709.45 C 272.07,708.34 271.4,707.51 270.51,707.51 C 269.96,707.51 269.55,707.69 269.16,708.1 L 269.16,710.17 C 269.16,710.31 269.21,710.42 269.34,710.59 L 269.16,710.8 L 269.16,711.76 L 269.07,711.79 C 268.57,711.59 268.05,711.45 267.52,711.39 L 267.52,711.11 z"
   id="path3725" />
<path
   style="fill:#000000;stroke:none;stroke-width:0"
   d="M 276.18,711.79 L 276.01,711.47 C 276.92,711.47 277.6,710.47 277.6,709.11 C 277.6,707.97 277.09,707.25 276.28,707.25 C 275.31,707.25 274.65,708.21 274.65,709.62 C 274.65,710.82 275.13,711.47 276.01,711.47 L 276.01,711.47 L 276.18,711.79 C 274.73,711.79 273.72,710.77 273.72,709.28 C 273.72,707.88 274.61,706.92 275.9,706.92 C 277.43,706.92 278.53,707.99 278.53,709.48 C 278.53,710.83 277.55,711.79 276.18,711.79 z"
   id="path3727" />
<path
   style="fill:#000000;stroke:none;stroke-width:0"
   d="M 279.82,710.93 L 279.82,708.06 C 279.82,707.32 280.15,707 280.92,707 C 281.14,707 281.38,707.05 281.44,707.12 L 281.92,707.65 L 281.79,707.82 C 281.54,707.68 281.39,707.63 281.2,707.63 C 280.82,707.63 280.66,707.83 280.66,708.32 L 280.66,710.93 L 281.93,710.93 L 282.02,711.47 L 280.66,711.41 L 280.66,711.78 C 280.66,712.2 280.69,712.56 280.77,713.2 L 280.65,713.31 C 280.41,713.16 280.11,713.03 279.8,712.93 C 279.83,712.63 279.84,712.44 279.84,712.14 L 279.84,711.45 L 279.06,711.1 L 279.06,710.89 L 279.82,710.93 z"
   id="path3729" />
<path
   style="fill:#000000;stroke:none;stroke-width:0"
   d="M 286.44,707.82 L 286.31,707.92 C 285.68,707.54 285.45,707.45 285.02,707.45 C 284.37,707.45 283.83,707.74 283.55,708.23 C 283.36,708.56 283.3,708.84 283.28,709.41 L 284.73,709.41 C 285.42,709.41 285.85,709.44 286.53,709.55 C 286.54,709.69 286.55,709.78 286.55,709.9 C 286.55,711.05 285.82,711.79 284.7,711.79 L 284.58,711.47 C 284.91,711.47 285.17,711.34 285.35,711.07 C 285.57,710.74 285.64,710.45 285.67,709.78 L 285.67,709.78 C 285.15,709.76 284.91,709.75 284.55,709.75 C 284.09,709.75 283.83,709.76 283.3,709.81 C 283.3,710.28 283.33,710.5 283.46,710.76 C 283.67,711.2 284.1,711.47 284.58,711.47 L 284.7,711.79 C 284.33,711.79 283.9,711.66 283.49,711.43 C 282.68,710.96 282.35,710.34 282.35,709.3 C 282.35,708.68 282.5,708.14 282.77,707.76 C 283.17,707.23 283.83,706.92 284.58,706.92 C 284.95,706.92 285.32,707 285.73,707.18 C 285.99,707.29 286.2,707.42 286.24,707.48 L 286.44,707.82 z"
   id="path3731" />
<path
   style="fill:#000000;stroke:none;stroke-width:0"
   d="M 290.95,707.09 L 290.97,707.09 L 291,707.1 L 291.03,707.1 L 291.05,707.1 L 291.08,707.1 L 291.1,707.1 L 291.12,707.1 L 291.15,707.1 L 291.17,707.1 L 291.19,707.1 L 291.21,707.11 L 291.23,707.11 L 291.25,707.11 L 291.27,707.11 L 291.28,707.11 L 291.3,707.11 L 291.32,707.11 L 291.33,707.11 L 291.36,707.11 L 291.39,707.11 L 291.42,707.11 L 291.44,707.12 L 291.46,707.12 L 291.48,707.12 L 291.5,707.12 L 291.52,707.12 L 291.54,707.12 L 291.55,707.12 L 291.57,707.12 L 291.58,707.12 L 291.6,707.12 L 291.62,707.12 L 291.65,707.12 L 291.67,707.12 L 291.69,707.12 L 291.7,707.12 L 291.72,707.12 L 291.73,707.12 C 291.87,707.12 291.87,707.12 292.56,707.09 L 292.56,707.39 L 292.15,707.42 C 291.81,707.44 291.78,707.5 291.78,708.14 L 291.78,710.06 C 291.78,711.23 291.23,711.79 290.12,711.79 C 289.75,711.79 289.54,711.72 289.33,711.55 L 288.57,710.89 L 288.57,711.76 L 288.48,711.79 C 287.98,711.59 287.46,711.45 286.93,711.39 L 286.93,711.11 L 287.3,711.11 C 287.7,711.11 287.74,711.04 287.74,710.38 L 287.74,708.14 C 287.74,707.51 287.71,707.44 287.37,707.42 L 286.92,707.39 L 286.92,707.09 C 287.6,707.11 287.87,707.12 288.15,707.12 C 288.44,707.12 288.71,707.11 289.39,707.09 L 289.39,707.39 L 288.94,707.42 C 288.6,707.44 288.57,707.51 288.57,708.14 L 288.57,710.25 C 288.57,710.7 289.23,711.19 289.84,711.19 C 290.51,711.19 290.95,710.69 290.95,709.92 L 290.95,707.09 z"
   id="path3733" />
<path
   style="fill:#000000;stroke:none;stroke-width:0"
   d="M 293.64,710.93 L 293.64,708.06 C 293.64,707.32 293.97,707 294.74,707 C 294.97,707 295.2,707.05 295.27,707.12 L 295.74,707.65 L 295.61,707.82 C 295.36,707.68 295.21,707.63 295.03,707.63 C 294.64,707.63 294.48,707.83 294.48,708.32 L 294.48,710.93 L 295.75,710.93 L 295.84,711.47 L 294.48,711.41 L 294.48,711.78 C 294.48,712.2 294.51,712.56 294.59,713.2 L 294.47,713.31 C 294.23,713.16 293.93,713.03 293.62,712.93 C 293.65,712.63 293.66,712.44 293.66,712.14 L 293.66,711.45 L 292.88,711.1 L 292.88,710.89 L 293.64,710.93 z"
   id="path3735" />
<path
   style="fill:#000000;stroke:none;stroke-width:0"
   d="M 297.79,711.76 L 297.7,711.79 C 297.19,711.59 296.67,711.45 296.14,711.39 L 296.14,711.11 L 296.51,711.11 C 296.91,711.11 296.95,711.04 296.95,710.38 L 296.95,708.14 C 296.95,707.51 296.92,707.44 296.58,707.42 L 296.12,707.39 L 296.12,707.09 C 297.12,707.12 297.12,707.12 297.37,707.12 C 297.62,707.12 297.62,707.12 298.61,707.09 L 298.61,707.39 L 298.15,707.42 C 297.82,707.44 297.79,707.51 297.79,708.14 L 297.79,711.76 z"
   id="path3737" />
<path
   style="fill:#000000;stroke:none;stroke-width:0"
   d="M 297.33,713.97 L 297.3,713.97 L 297.27,713.96 L 297.24,713.96 L 297.22,713.96 L 297.19,713.95 L 297.16,713.94 L 297.14,713.93 L 297.11,713.92 L 297.09,713.91 L 297.07,713.9 L 297.04,713.88 L 297.02,713.87 L 297,713.85 L 296.98,713.84 L 296.96,713.82 L 296.94,713.8 L 296.92,713.78 L 296.9,713.76 L 296.88,713.74 L 296.87,713.72 L 296.85,713.69 L 296.84,713.67 L 296.83,713.65 L 296.81,713.62 L 296.8,713.6 L 296.79,713.57 L 296.79,713.55 L 296.78,713.52 L 296.78,713.49 L 296.77,713.46 L 296.77,713.44 L 296.77,713.41 C 296.77,713.12 297.03,712.86 297.32,712.86 C 297.61,712.86 297.88,713.12 297.88,713.41 C 297.88,713.69 297.61,713.97 297.33,713.97 z"
   id="path3739" />
<path
   style="fill:#000000;stroke:none;stroke-width:0"
   d="M 302.04,707.94 L 301.99,707.09 C 302.63,707.12 302.63,707.12 302.76,707.12 C 302.81,707.12 303.06,707.11 303.5,707.09 L 303.5,707.39 L 303.11,707.41 C 302.87,707.42 302.83,707.5 302.83,707.99 L 302.83,709.81 C 302.83,711.27 302.41,711.79 301.26,711.79 C 300.83,711.79 300.43,711.68 300.05,711.46 L 299.52,711.14 L 299.52,710.49 L 299.78,710.42 L 299.91,710.73 C 300.12,711.2 300.22,711.27 300.68,711.27 C 301.62,711.27 302.01,710.9 302.04,709.99 L 302.04,709.67 L 302.04,708.36 C 301.75,707.95 301.12,707.57 300.73,707.57 C 300.33,707.57 299.98,707.94 299.98,708.37 C 299.98,708.74 300.18,709.09 300.48,709.27 C 300.73,709.42 301.28,709.56 302.04,709.67 L 302.04,709.99 L 301.05,709.81 C 299.69,709.56 299.13,709.09 299.13,708.23 C 299.13,707.45 299.6,707 300.38,707 C 300.56,707 300.73,707.03 300.8,707.08 L 302.04,707.94 z"
   id="path3741" />
<path
   style="fill:#000000;stroke:none;stroke-width:0"
   d="M 304.02,713.71 L 304.58,713.71 C 304.75,713.71 304.82,713.6 304.82,713.3 L 304.82,708.14 C 304.82,707.51 304.79,707.44 304.45,707.42 L 304,707.39 L 304,707.09 C 304.99,707.12 304.99,707.12 305.24,707.12 C 305.49,707.12 305.49,707.12 306.49,707.09 L 306.49,707.39 L 306.03,707.42 C 305.69,707.44 305.66,707.51 305.66,708.14 L 305.66,714.28 L 305.57,714.35 C 305.13,714.19 304.8,714.11 304.02,713.99 L 304.02,713.71 z"
   id="path3743" />
<polygon
   style="fill:#000000;stroke:none;stroke-width:0"
   points="312.39,709.26 312.69,709.93 312.64,709.98 310.02,709.98 309.75,709.31 309.8,709.26 312.39,709.26 "
   id="polygon3745" />
<path
   style="fill:#000000;stroke:none;stroke-width:0"
   d="M 316.03,713.71 L 316.59,713.71 C 316.77,713.71 316.84,713.6 316.84,713.3 L 316.84,708.14 C 316.84,707.51 316.81,707.44 316.47,707.42 L 316.01,707.39 L 316.01,707.09 C 317.01,707.12 317.01,707.12 317.26,707.12 C 317.51,707.12 317.51,707.12 318.5,707.09 L 318.5,707.39 L 318.04,707.42 C 317.7,707.44 317.67,707.51 317.67,708.14 L 317.67,714.28 L 317.59,714.35 C 317.15,714.19 316.82,714.11 316.03,713.99 L 316.03,713.71 z"
   id="path3747" />
<path
   style="fill:#000000;stroke:none;stroke-width:0"
   d="M 320.58,711.76 L 320.49,711.79 C 319.98,711.59 319.46,711.45 318.93,711.39 L 318.93,711.11 L 319.3,711.11 C 319.7,711.11 319.74,711.04 319.74,710.38 L 319.74,708.14 C 319.74,707.51 319.71,707.44 319.37,707.42 L 318.91,707.39 L 318.91,707.09 C 319.91,707.12 319.91,707.12 320.16,707.12 C 320.41,707.12 320.41,707.12 321.4,707.09 L 321.4,707.39 L 320.95,707.42 C 320.61,707.44 320.58,707.51 320.58,708.14 L 320.58,711.76 z"
   id="path3749" />
<path
   style="fill:#000000;stroke:none;stroke-width:0"
   d="M 320.12,713.97 L 320.09,713.97 L 320.06,713.96 L 320.04,713.96 L 320.01,713.96 L 319.98,713.95 L 319.96,713.94 L 319.93,713.93 L 319.91,713.92 L 319.88,713.91 L 319.86,713.9 L 319.83,713.88 L 319.81,713.87 L 319.79,713.85 L 319.77,713.84 L 319.75,713.82 L 319.73,713.8 L 319.71,713.78 L 319.69,713.76 L 319.68,713.74 L 319.66,713.72 L 319.64,713.69 L 319.63,713.67 L 319.62,713.65 L 319.61,713.62 L 319.6,713.6 L 319.59,713.57 L 319.58,713.55 L 319.57,713.52 L 319.57,713.49 L 319.56,713.46 L 319.56,713.44 L 319.56,713.41 C 319.56,713.12 319.82,712.86 320.11,712.86 C 320.4,712.86 320.67,713.12 320.67,713.41 C 320.67,713.69 320.4,713.97 320.12,713.97 z"
   id="path3751" />
<path
   style="fill:#000000;stroke:none;stroke-width:0"
   d="M 325.52,707.78 L 325.52,705.37 C 325.52,704.74 325.48,704.67 325.15,704.65 L 324.57,704.62 L 324.57,704.32 C 325.73,704.35 325.73,704.35 325.95,704.35 C 326.19,704.35 326.47,704.34 327.18,704.32 L 327.18,704.62 L 326.72,704.65 C 326.38,704.67 326.35,704.74 326.35,705.37 L 326.35,710.29 C 326.35,710.91 326.41,711.29 326.58,711.66 L 326.39,711.78 L 325.9,711.47 C 325.4,711.7 324.97,711.79 324.54,711.79 C 324.25,711.79 323.9,711.72 323.75,711.63 L 322.92,711.09 C 322.28,710.68 321.95,710.02 321.95,709.16 C 321.95,707.85 322.74,707 323.97,707 C 324.18,707 324.35,707.04 324.48,707.12 L 324.3,707.57 C 323.42,707.57 322.82,708.39 322.82,709.59 C 322.82,710.69 323.37,711.33 324.33,711.33 C 324.82,711.33 325.17,711.21 325.52,710.92 L 325.52,708.32 C 325.52,708.18 325.28,707.92 325.01,707.77 C 324.77,707.64 324.54,707.57 324.3,707.57 L 324.48,707.12 L 325.52,707.78 z"
   id="path3753" />
<path
   style="fill:#000000;stroke:none;stroke-width:0"
   d="M 332.19,711.76 L 332.1,711.79 C 331.59,711.59 331.08,711.45 330.55,711.39 L 330.55,711.11 L 330.92,711.11 C 331.32,711.11 331.35,711.04 331.35,710.38 L 331.35,708.76 C 331.35,708.54 331.21,708.26 330.99,708.03 C 330.71,707.75 330.39,707.61 330,707.61 C 329.65,707.61 329.37,707.72 329.21,707.91 C 329.07,708.07 329,708.38 329,708.82 L 329,711.76 L 328.91,711.79 C 328.4,711.59 327.89,711.45 327.36,711.39 L 327.36,711.11 L 327.73,711.11 C 328.13,711.11 328.17,711.04 328.17,710.38 L 328.17,708.71 C 328.17,708.01 328.23,707.7 328.4,707.45 C 328.62,707.15 329,707 329.57,707 C 330.02,707 330.42,707.14 330.69,707.39 L 331.35,708.01 C 331.35,707.72 331.34,707.56 331.32,707.09 C 331.98,707.12 331.99,707.12 332.14,707.12 C 332.28,707.12 332.28,707.12 332.97,707.09 L 332.97,707.39 L 332.56,707.42 C 332.22,707.44 332.19,707.5 332.19,708.14 L 332.19,711.76 z"
   id="path3755" />
<path
   style="fill:#000000;stroke:none;stroke-width:0"
   d="M 335.06,711.76 L 334.97,711.79 C 334.46,711.59 333.95,711.45 333.42,711.39 L 333.42,711.11 L 333.79,711.11 C 334.18,711.11 334.22,711.04 334.22,710.38 L 334.22,708.14 C 334.22,707.51 334.19,707.44 333.86,707.42 L 333.4,707.39 L 333.4,707.09 C 334.39,707.12 334.39,707.12 334.64,707.12 C 334.89,707.12 334.89,707.12 335.89,707.09 L 335.89,707.39 L 335.43,707.42 C 335.09,707.44 335.06,707.51 335.06,708.14 L 335.06,711.76 z"
   id="path3757" />
<path
   style="fill:#000000;stroke:none;stroke-width:0"
   d="M 334.6,713.97 L 334.57,713.97 L 334.55,713.96 L 334.52,713.96 L 334.49,713.96 L 334.47,713.95 L 334.44,713.94 L 334.41,713.93 L 334.39,713.92 L 334.36,713.91 L 334.34,713.9 L 334.32,713.88 L 334.29,713.87 L 334.27,713.85 L 334.25,713.84 L 334.23,713.82 L 334.21,713.8 L 334.19,713.78 L 334.17,713.76 L 334.16,713.74 L 334.14,713.72 L 334.13,713.69 L 334.11,713.67 L 334.1,713.65 L 334.09,713.62 L 334.08,713.6 L 334.07,713.57 L 334.06,713.55 L 334.06,713.52 L 334.05,713.49 L 334.05,713.46 L 334.04,713.44 L 334.04,713.41 C 334.04,713.12 334.3,712.86 334.59,712.86 C 334.88,712.86 335.15,713.12 335.15,713.41 C 335.15,713.69 334.88,713.97 334.6,713.97 z"
   id="path3759" />
<path
   style="fill:#000000;stroke:none;stroke-width:0"
   d="M 340.2,711.48 L 340.14,711.5 L 340.09,711.52 L 340.05,711.54 L 340,711.56 L 339.95,711.58 L 339.91,711.59 L 339.87,711.61 L 339.82,711.63 L 339.78,711.64 L 339.74,711.66 L 339.7,711.67 L 339.67,711.68 L 339.63,711.69 L 339.59,711.71 L 339.56,711.72 L 339.52,711.73 L 339.49,711.73 L 339.46,711.74 L 339.39,711.76 L 339.33,711.77 L 339.26,711.78 L 339.2,711.79 L 339.14,711.79 L 339.07,711.79 L 339.01,711.79 C 338.74,711.79 338.5,711.73 338.25,711.61 L 337.38,711.15 C 336.81,710.85 336.44,710.12 336.44,709.27 C 336.44,708.48 336.71,707.82 337.2,707.42 C 337.54,707.13 338,707 338.65,707 C 338.85,707 339.08,707.04 339.13,707.08 L 340.23,708.01 L 340.05,708.35 C 339.77,707.88 339.28,707.57 338.81,707.57 C 337.93,707.57 337.3,708.42 337.3,709.6 C 337.3,710.69 337.84,711.33 338.74,711.33 C 339.12,711.33 339.52,711.2 339.87,710.96 C 340.08,710.82 340.2,710.69 340.2,710.61 L 340.2,709.32 C 340.2,708.68 340.17,708.58 340.05,708.35 L 340.23,708.01 L 340.18,707.09 C 340.67,707.11 340.83,707.12 340.95,707.12 C 341.03,707.12 341.17,707.12 341.38,707.11 C 341.45,707.1 341.65,707.1 341.86,707.09 L 341.86,707.39 L 341.4,707.42 C 341.06,707.44 341.03,707.51 341.03,708.14 L 341.03,714.28 L 340.94,714.35 C 340.5,714.19 340.17,714.11 339.39,713.99 L 339.39,713.71 L 339.95,713.71 C 340.12,713.71 340.2,713.6 340.2,713.3 L 340.2,711.48 z"
   id="path3761" />
<path
   style="fill:#000000;stroke:none;stroke-width:0"
   d="M 344.2,708.35 L 344.16,708.33 L 344.11,708.32 L 344.06,708.3 L 344.01,708.28 L 343.97,708.27 L 343.92,708.25 L 343.87,708.24 L 343.84,708.23 L 343.81,708.22 L 343.79,708.21 L 343.76,708.2 L 343.73,708.19 L 343.7,708.19 L 343.67,708.18 L 343.64,708.17 L 343.6,708.16 L 343.57,708.15 L 343.53,708.14 L 343.49,708.12 L 343.45,708.11 L 343.41,708.1 L 343.37,708.09 L 343.32,708.08 L 343.28,708.06 L 343.23,708.05 C 343.16,707.29 342.91,706.64 342.33,705.69 L 342.47,705.58 L 342.88,705.77 C 343.69,706.81 344.07,707.44 344.34,708.21 L 344.2,708.35 z"
   id="path3763" />
<path
   style="fill:#000000;stroke:none;stroke-width:0"
   d="M 347.67,711.11 L 348.03,711.11 C 348.43,711.11 348.47,711.04 348.47,710.38 L 348.47,705.37 C 348.47,704.74 348.44,704.67 348.1,704.65 L 347.64,704.62 L 347.64,704.32 C 348.64,704.35 348.64,704.35 348.89,704.35 C 349.14,704.35 349.14,704.35 350.14,704.32 L 350.14,704.62 L 349.68,704.65 C 349.34,704.67 349.31,704.74 349.31,705.37 L 349.31,707.25 C 349.61,707.07 349.93,707 350.37,707 C 350.66,707 350.92,707.06 351.08,707.16 L 352.22,707.9 C 352.62,708.16 353.08,709.18 353.08,709.82 C 353.08,710.93 352.17,711.79 351.01,711.79 C 350.64,711.79 350.29,711.7 350.12,711.55 L 349.31,710.8 L 349.49,710.59 C 349.78,710.96 350.18,711.15 350.68,711.15 C 351.62,711.15 352.22,710.49 352.22,709.45 C 352.22,708.34 351.55,707.51 350.65,707.51 C 350.11,707.51 349.7,707.69 349.31,708.1 L 349.31,710.17 C 349.31,710.31 349.36,710.42 349.49,710.59 L 349.31,710.8 L 349.31,711.76 L 349.22,711.79 C 348.71,711.59 348.19,711.45 347.67,711.39 L 347.67,711.11 z"
   id="path3765" />
<path
   style="fill:#000000;stroke:none;stroke-width:0"
   d="M 355.42,711.76 L 355.33,711.79 C 354.83,711.59 354.31,711.45 353.78,711.39 L 353.78,711.11 L 354.15,711.11 C 354.55,711.11 354.59,711.04 354.59,710.38 L 354.59,708.14 C 354.59,707.51 354.56,707.44 354.22,707.42 L 353.76,707.39 L 353.76,707.09 C 354.76,707.12 354.76,707.12 355.01,707.12 C 355.25,707.12 355.25,707.12 356.25,707.09 L 356.25,707.39 L 355.79,707.42 C 355.45,707.44 355.42,707.51 355.42,708.14 L 355.42,711.76 z"
   id="path3767" />
<path
   style="fill:#000000;stroke:none;stroke-width:0"
   d="M 354.96,713.97 L 354.94,713.97 L 354.91,713.96 L 354.88,713.96 L 354.86,713.96 L 354.83,713.95 L 354.8,713.94 L 354.78,713.93 L 354.75,713.92 L 354.73,713.91 L 354.7,713.9 L 354.68,713.88 L 354.66,713.87 L 354.64,713.85 L 354.61,713.84 L 354.59,713.82 L 354.57,713.8 L 354.56,713.78 L 354.54,713.76 L 354.52,713.74 L 354.5,713.72 L 354.49,713.69 L 354.48,713.67 L 354.46,713.65 L 354.45,713.62 L 354.44,713.6 L 354.43,713.57 L 354.43,713.55 L 354.42,713.52 L 354.41,713.49 L 354.41,713.46 L 354.41,713.44 L 354.41,713.41 C 354.41,713.12 354.67,712.86 354.95,712.86 C 355.24,712.86 355.51,713.12 355.51,713.41 C 355.51,713.69 355.24,713.97 354.96,713.97 z"
   id="path3769" />
<path
   style="fill:#000000;stroke:none;stroke-width:0"
   d="M 356.55,711.11 L 356.92,711.11 C 357.32,711.11 357.36,711.04 357.36,710.38 L 357.36,705.37 C 357.36,704.74 357.33,704.67 356.99,704.65 L 356.53,704.62 L 356.53,704.32 C 357.53,704.35 357.53,704.35 357.78,704.35 C 358.03,704.35 358.03,704.35 359.02,704.32 L 359.02,704.62 L 358.57,704.65 C 358.23,704.67 358.2,704.74 358.2,705.37 L 358.2,707.25 C 358.49,707.07 358.81,707 359.26,707 C 359.55,707 359.81,707.06 359.97,707.16 L 361.11,707.9 C 361.5,708.16 361.97,709.18 361.97,709.82 C 361.97,710.93 361.05,711.79 359.9,711.79 C 359.53,711.79 359.17,711.7 359.01,711.55 L 358.2,710.8 L 358.38,710.59 C 358.66,710.96 359.07,711.15 359.57,711.15 C 360.51,711.15 361.11,710.49 361.11,709.45 C 361.11,708.34 360.44,707.51 359.54,707.51 C 358.99,707.51 358.58,707.69 358.2,708.1 L 358.2,710.17 C 358.2,710.31 358.25,710.42 358.38,710.59 L 358.2,710.8 L 358.2,711.76 L 358.11,711.79 C 357.6,711.59 357.08,711.45 356.55,711.39 L 356.55,711.11 z"
   id="path3771" />
<path
   style="fill:#000000;stroke:none;stroke-width:0"
   d="M 366.79,707.82 L 366.66,707.92 C 366.02,707.54 365.8,707.45 365.37,707.45 C 364.72,707.45 364.18,707.74 363.9,708.23 C 363.71,708.56 363.64,708.84 363.62,709.41 L 365.08,709.41 C 365.77,709.41 366.19,709.44 366.88,709.55 C 366.89,709.69 366.9,709.78 366.9,709.9 C 366.9,711.05 366.16,711.79 365.05,711.79 L 364.93,711.47 C 365.26,711.47 365.52,711.34 365.7,711.07 C 365.91,710.74 365.98,710.45 366.01,709.78 L 366.01,709.78 C 365.5,709.76 365.26,709.75 364.9,709.75 C 364.44,709.75 364.18,709.76 363.64,709.81 C 363.64,710.28 363.68,710.5 363.81,710.76 C 364.02,711.2 364.45,711.47 364.93,711.47 L 365.05,711.79 C 364.68,711.79 364.25,711.66 363.84,711.43 C 363.02,710.96 362.7,710.34 362.7,709.3 C 362.7,708.68 362.85,708.14 363.11,707.76 C 363.51,707.23 364.18,706.92 364.93,706.92 C 365.3,706.92 365.67,707 366.07,707.18 C 366.34,707.29 366.55,707.42 366.59,707.48 L 366.79,707.82 z"
   id="path3773" />
<path
   style="fill:#000000;stroke:none;stroke-width:0"
   d="M 369.25,708.35 L 369.2,708.33 L 369.15,708.32 L 369.1,708.3 L 369.06,708.28 L 369.01,708.27 L 368.96,708.25 L 368.91,708.24 L 368.88,708.23 L 368.86,708.22 L 368.83,708.21 L 368.8,708.2 L 368.77,708.19 L 368.74,708.19 L 368.71,708.18 L 368.68,708.17 L 368.64,708.16 L 368.61,708.15 L 368.57,708.14 L 368.53,708.12 L 368.49,708.11 L 368.45,708.1 L 368.41,708.09 L 368.37,708.08 L 368.32,708.06 L 368.27,708.05 C 368.2,707.29 367.95,706.64 367.37,705.69 L 367.51,705.58 L 367.92,705.77 C 368.73,706.81 369.11,707.44 369.39,708.21 L 369.25,708.35 z"
   id="path3775" />
<path
   style="fill:#000000;stroke:none;stroke-width:0"
   d="M 374.47,711.76 L 374.38,711.79 C 373.88,711.59 373.36,711.45 372.83,711.39 L 372.83,711.11 L 373.2,711.11 C 373.6,711.11 373.64,711.04 373.64,710.38 L 373.64,708.14 C 373.64,707.51 373.61,707.44 373.27,707.42 L 372.81,707.39 L 372.81,707.09 C 373.8,707.12 373.8,707.12 374.05,707.12 C 374.3,707.12 374.3,707.12 375.3,707.09 L 375.3,707.39 L 374.84,707.42 C 374.5,707.44 374.47,707.51 374.47,708.14 L 374.47,711.76 z"
   id="path3777" />
<path
   style="fill:#000000;stroke:none;stroke-width:0"
   d="M 374.02,713.97 L 373.99,713.97 L 373.96,713.96 L 373.93,713.96 L 373.91,713.96 L 373.88,713.95 L 373.85,713.94 L 373.83,713.93 L 373.8,713.92 L 373.78,713.91 L 373.75,713.9 L 373.73,713.88 L 373.71,713.87 L 373.69,713.85 L 373.66,713.84 L 373.64,713.82 L 373.62,713.8 L 373.61,713.78 L 373.59,713.76 L 373.57,713.74 L 373.55,713.72 L 373.54,713.69 L 373.53,713.67 L 373.51,713.65 L 373.5,713.62 L 373.49,713.6 L 373.48,713.57 L 373.48,713.55 L 373.47,713.52 L 373.46,713.49 L 373.46,713.46 L 373.46,713.44 L 373.46,713.41 C 373.46,713.12 373.72,712.86 374.01,712.86 C 374.29,712.86 374.56,713.12 374.56,713.41 C 374.56,713.69 374.29,713.97 374.02,713.97 z"
   id="path3779" />
<path
   style="fill:#000000;stroke:none;stroke-width:0"
   d="M 379.59,707.09 L 379.62,707.09 L 379.64,707.1 L 379.67,707.1 L 379.69,707.1 L 379.72,707.1 L 379.74,707.1 L 379.77,707.1 L 379.79,707.1 L 379.81,707.1 L 379.83,707.1 L 379.85,707.11 L 379.87,707.11 L 379.89,707.11 L 379.91,707.11 L 379.93,707.11 L 379.94,707.11 L 379.96,707.11 L 379.97,707.11 L 380,707.11 L 380.03,707.11 L 380.06,707.11 L 380.08,707.12 L 380.11,707.12 L 380.13,707.12 L 380.15,707.12 L 380.16,707.12 L 380.18,707.12 L 380.2,707.12 L 380.21,707.12 L 380.23,707.12 L 380.24,707.12 L 380.27,707.12 L 380.29,707.12 L 380.32,707.12 L 380.33,707.12 L 380.34,707.12 L 380.36,707.12 L 380.37,707.12 C 380.51,707.12 380.51,707.12 381.2,707.09 L 381.2,707.39 L 380.79,707.42 C 380.45,707.44 380.42,707.5 380.42,708.14 L 380.42,710.06 C 380.42,711.23 379.88,711.79 378.76,711.79 C 378.39,711.79 378.18,711.72 377.97,711.55 L 377.22,710.89 L 377.22,711.76 L 377.13,711.79 C 376.62,711.59 376.1,711.45 375.57,711.39 L 375.57,711.11 L 375.94,711.11 C 376.34,711.11 376.38,711.04 376.38,710.38 L 376.38,708.14 C 376.38,707.51 376.35,707.44 376.01,707.42 L 375.56,707.39 L 375.56,707.09 C 376.24,707.11 376.51,707.12 376.8,707.12 C 377.09,707.12 377.36,707.11 378.03,707.09 L 378.03,707.39 L 377.58,707.42 C 377.25,707.44 377.22,707.51 377.22,708.14 L 377.22,710.25 C 377.22,710.7 377.87,711.19 378.48,711.19 C 379.15,711.19 379.59,710.69 379.59,709.92 L 379.59,707.09 z"
   id="path3781" />
<path
   style="fill:#000000;stroke:none;stroke-width:0"
   d="M 385.4,711.48 L 385.35,711.5 L 385.3,711.52 L 385.26,711.54 L 385.21,711.56 L 385.16,711.58 L 385.12,711.59 L 385.08,711.61 L 385.03,711.63 L 384.99,711.64 L 384.95,711.66 L 384.91,711.67 L 384.88,711.68 L 384.84,711.69 L 384.8,711.71 L 384.77,711.72 L 384.73,711.73 L 384.7,711.73 L 384.67,711.74 L 384.6,711.76 L 384.54,711.77 L 384.47,711.78 L 384.41,711.79 L 384.35,711.79 L 384.28,711.79 L 384.22,711.79 C 383.95,711.79 383.71,711.73 383.46,711.61 L 382.58,711.15 C 382.02,710.85 381.65,710.12 381.65,709.27 C 381.65,708.48 381.92,707.82 382.41,707.42 C 382.74,707.13 383.21,707 383.86,707 C 384.06,707 384.29,707.04 384.34,707.08 L 385.44,708.01 L 385.26,708.35 C 384.98,707.88 384.49,707.57 384.02,707.57 C 383.14,707.57 382.52,708.42 382.52,709.6 C 382.52,710.69 383.05,711.33 383.95,711.33 C 384.33,711.33 384.73,711.2 385.08,710.96 C 385.29,710.82 385.4,710.69 385.4,710.61 L 385.4,709.32 C 385.4,708.68 385.39,708.58 385.26,708.35 L 385.44,708.01 L 385.39,707.09 C 385.88,707.11 386.04,707.12 386.16,707.12 C 386.24,707.12 386.38,707.12 386.59,707.11 C 386.66,707.1 386.86,707.1 387.07,707.09 L 387.07,707.39 L 386.61,707.42 C 386.27,707.44 386.24,707.51 386.24,708.14 L 386.24,714.28 L 386.15,714.35 C 385.71,714.19 385.39,714.11 384.6,713.99 L 384.6,713.71 L 385.16,713.71 C 385.33,713.71 385.4,713.6 385.4,713.3 L 385.4,711.48 z"
   id="path3783" />
<path
   style="fill:#000000;stroke:none;stroke-width:0"
   d="M 392.39,711.76 L 392.3,711.79 C 391.8,711.59 391.28,711.45 390.75,711.39 L 390.75,711.11 L 391.12,711.11 C 391.52,711.11 391.56,711.04 391.56,710.38 L 391.56,708.76 C 391.56,708.54 391.42,708.26 391.19,708.03 C 390.91,707.75 390.59,707.61 390.2,707.61 C 389.85,707.61 389.57,707.72 389.42,707.91 C 389.27,708.07 389.21,708.38 389.21,708.82 L 389.21,711.76 L 389.12,711.79 C 388.61,711.59 388.09,711.45 387.56,711.39 L 387.56,711.11 L 387.93,711.11 C 388.33,711.11 388.37,711.04 388.37,710.38 L 388.37,708.71 C 388.37,708.01 388.43,707.7 388.61,707.45 C 388.83,707.15 389.21,707 389.77,707 C 390.22,707 390.62,707.14 390.89,707.39 L 391.56,708.01 C 391.56,707.72 391.55,707.56 391.52,707.09 C 392.18,707.12 392.19,707.12 392.34,707.12 C 392.48,707.12 392.48,707.12 393.17,707.09 L 393.17,707.39 L 392.76,707.42 C 392.42,707.44 392.39,707.5 392.39,708.14 L 392.39,711.76 z"
   id="path3785" />
<path
   style="fill:#000000;stroke:none;stroke-width:0"
   d="M 397.36,710.22 L 397.37,710.31 L 397.37,710.39 L 397.37,710.47 L 397.37,710.56 L 397.38,710.64 L 397.39,710.72 L 397.39,710.79 L 397.4,710.87 L 397.41,710.95 L 397.42,711.02 L 397.43,711.1 L 397.45,711.17 L 397.46,711.24 L 397.47,711.31 L 397.49,711.38 L 397.51,711.45 C 397.11,711.68 396.76,711.79 396.35,711.79 C 395.87,711.79 395.31,711.61 394.71,711.23 C 394.02,710.79 393.65,710.09 393.65,709.22 C 393.65,707.87 394.6,706.92 395.93,706.92 C 396.45,706.92 397.2,707.11 397.3,707.26 L 397.51,707.58 L 397.4,707.73 C 397.04,707.53 396.72,707.44 396.36,707.44 C 395.25,707.44 394.53,708.3 394.53,709.61 C 394.53,710.68 395.02,711.28 395.92,711.28 C 396.36,711.28 396.84,711.08 397.02,710.83 L 397.09,710.22 L 397.36,710.22 z"
   id="path3787" />
<path
   style="fill:#000000;stroke:none;stroke-width:0"
   d="M 398.79,710.93 L 398.79,708.06 C 398.79,707.32 399.12,707 399.89,707 C 400.12,707 400.36,707.05 400.42,707.12 L 400.89,707.65 L 400.76,707.82 C 400.52,707.68 400.36,707.63 400.18,707.63 C 399.79,707.63 399.63,707.83 399.63,708.32 L 399.63,710.93 L 400.9,710.93 L 400.99,711.47 L 399.63,711.41 L 399.63,711.78 C 399.63,712.2 399.66,712.56 399.74,713.2 L 399.62,713.31 C 399.38,713.16 399.08,713.03 398.77,712.93 C 398.8,712.63 398.81,712.44 398.81,712.14 L 398.81,711.45 L 398.03,711.1 L 398.03,710.89 L 398.79,710.93 z"
   id="path3789" />
<path
   style="fill:#000000;stroke:none;stroke-width:0"
   d="M 403.84,711.79 L 403.66,711.47 C 404.58,711.47 405.26,710.47 405.26,709.11 C 405.26,707.97 404.75,707.25 403.94,707.25 C 402.96,707.25 402.31,708.21 402.31,709.62 C 402.31,710.82 402.79,711.47 403.66,711.47 L 403.66,711.47 L 403.84,711.79 C 402.39,711.79 401.38,710.77 401.38,709.28 C 401.38,707.88 402.27,706.92 403.55,706.92 C 405.09,706.92 406.18,707.99 406.18,709.48 C 406.18,710.83 405.21,711.79 403.84,711.79 z"
   id="path3791" />
<path
   style="fill:#000000;stroke:none;stroke-width:0"
   d="M 406.74,711.11 L 407.11,711.11 C 407.5,711.11 407.54,711.04 407.54,710.38 L 407.54,708.14 C 407.54,707.51 407.51,707.44 407.17,707.42 L 406.72,707.39 L 406.72,707.09 C 407.43,707.11 407.69,707.12 407.94,707.12 C 408.14,707.12 408.14,707.12 409.37,707.09 L 409.37,707.39 L 408.85,707.42 C 408.4,707.45 408.38,707.48 408.38,708.14 L 408.38,709.85 C 408.38,710.45 408.78,710.95 409.27,710.95 C 409.57,710.95 409.77,710.81 409.93,710.49 L 410.14,710.49 L 410.23,711.68 C 410.12,711.76 409.95,711.79 409.77,711.79 C 409.47,711.79 409.15,711.64 408.94,711.39 L 408.38,710.73 L 408.38,711.76 L 408.29,711.79 C 407.78,711.59 407.27,711.45 406.74,711.39 L 406.74,711.11 z"
   id="path3793" />
<path
   style="fill:#000000;stroke:none;stroke-width:0"
   d="M 411.73,708.35 L 411.69,708.33 L 411.64,708.32 L 411.59,708.3 L 411.54,708.28 L 411.5,708.27 L 411.45,708.25 L 411.4,708.24 L 411.37,708.23 L 411.34,708.22 L 411.32,708.21 L 411.29,708.2 L 411.26,708.19 L 411.23,708.19 L 411.2,708.18 L 411.17,708.17 L 411.13,708.16 L 411.1,708.15 L 411.06,708.14 L 411.02,708.12 L 410.98,708.11 L 410.94,708.1 L 410.9,708.09 L 410.85,708.08 L 410.81,708.06 L 410.76,708.05 C 410.69,707.29 410.44,706.64 409.86,705.69 L 410,705.58 L 410.41,705.77 C 411.22,706.81 411.6,707.44 411.87,708.21 L 411.73,708.35 z"
   id="path3795" />
<path
   style="fill:#000000;stroke:none;stroke-width:0"
   d="M 415.5,708.55 L 415.5,708.48 L 415.5,708.42 L 415.5,708.36 L 415.5,708.31 L 415.5,708.25 L 415.5,708.2 L 415.5,708.15 L 415.5,708.1 L 415.5,708.05 L 415.49,708 L 415.49,707.96 L 415.49,707.91 L 415.49,707.87 L 415.48,707.83 L 415.48,707.79 L 415.48,707.75 L 415.47,707.67 L 415.46,707.59 L 415.45,707.52 L 415.44,707.45 L 415.43,707.38 L 415.42,707.31 L 415.41,707.24 L 415.39,707.16 C 415.91,706.99 416.3,706.92 416.76,706.92 C 418.06,706.92 418.99,707.62 418.99,708.6 C 418.99,708.91 418.9,709.14 418.71,709.33 C 418.45,709.58 418.12,709.7 417.25,709.87 C 416.43,710.03 416.16,710.23 416.16,710.69 C 416.16,711.19 416.51,711.47 417.12,711.47 C 417.79,711.47 418.29,711.12 418.29,710.65 L 418.29,710.42 L 418.57,710.42 C 418.58,711 418.59,711.24 418.62,711.55 C 418.09,711.72 417.73,711.79 417.33,711.79 C 416.17,711.79 415.46,711.25 415.46,710.35 C 415.46,709.87 415.68,709.53 416.14,709.32 C 416.41,709.21 416.94,709.04 417.62,708.9 C 418.06,708.8 418.25,708.59 418.25,708.21 C 418.25,707.67 417.76,707.29 417.05,707.29 C 416.32,707.29 415.8,707.64 415.8,708.14 L 415.8,708.55 L 415.5,708.55 z"
   id="path3797" />
<path
   style="fill:#000000;stroke:none;stroke-width:0"
   d="M 424.33,711.76 L 424.24,711.79 C 423.73,711.59 423.21,711.45 422.68,711.39 L 422.68,711.11 L 423.05,711.11 C 423.45,711.11 423.49,711.04 423.49,710.38 L 423.49,708.76 C 423.49,708.54 423.35,708.26 423.12,708.03 C 422.84,707.75 422.52,707.61 422.14,707.61 C 421.79,707.61 421.51,707.72 421.35,707.91 C 421.21,708.07 421.14,708.38 421.14,708.82 L 421.14,711.76 L 421.05,711.79 C 420.54,711.59 420.02,711.45 419.5,711.39 L 419.5,711.11 L 419.86,711.11 C 420.26,711.11 420.3,711.04 420.3,710.38 L 420.3,708.71 C 420.3,708.01 420.36,707.7 420.54,707.45 C 420.76,707.15 421.14,707 421.71,707 C 422.16,707 422.55,707.14 422.82,707.39 L 423.49,708.01 C 423.49,707.72 423.48,707.56 423.45,707.09 C 424.12,707.12 424.13,707.12 424.28,707.12 C 424.42,707.12 424.42,707.12 425.11,707.09 L 425.11,707.39 L 424.7,707.42 C 424.36,707.44 424.33,707.5 424.33,708.14 L 424.33,711.76 z"
   id="path3799" />
<path
   style="fill:#000000;stroke:none;stroke-width:0"
   d="M 425.55,711.11 L 425.92,711.11 C 426.32,711.11 426.36,711.04 426.36,710.38 L 426.36,708.14 C 426.36,707.51 426.33,707.44 425.99,707.42 L 425.53,707.39 L 425.53,707.09 C 426.25,707.11 426.51,707.12 426.76,707.12 C 426.96,707.12 426.96,707.12 428.18,707.09 L 428.18,707.39 L 427.67,707.42 C 427.22,707.45 427.2,707.48 427.2,708.14 L 427.2,709.85 C 427.2,710.45 427.6,710.95 428.08,710.95 C 428.38,710.95 428.59,710.81 428.75,710.49 L 428.96,710.49 L 429.05,711.68 C 428.94,711.76 428.76,711.79 428.58,711.79 C 428.28,711.79 427.96,711.64 427.76,711.39 L 427.2,710.73 L 427.2,711.76 L 427.11,711.79 C 426.6,711.59 426.08,711.45 425.55,711.39 L 425.55,711.11 z"
   id="path3801" />
<path
   style="fill:#000000;stroke:none;stroke-width:0"
   d="M 429.49,711.11 L 429.86,711.11 C 430.26,711.11 430.3,711.04 430.3,710.38 L 430.3,708.14 C 430.3,707.51 430.27,707.44 429.93,707.42 L 429.47,707.39 L 429.47,707.09 C 430.19,707.11 430.45,707.12 430.7,707.12 C 430.9,707.12 430.9,707.12 432.12,707.09 L 432.12,707.39 L 431.6,707.42 C 431.15,707.45 431.14,707.48 431.14,708.14 L 431.14,709.85 C 431.14,710.45 431.53,710.95 432.02,710.95 C 432.32,710.95 432.53,710.81 432.69,710.49 L 432.9,710.49 L 432.99,711.68 C 432.88,711.76 432.7,711.79 432.52,711.79 C 432.22,711.79 431.9,711.64 431.69,711.39 L 431.14,710.73 L 431.14,711.76 L 431.05,711.79 C 430.54,711.59 430.02,711.45 429.49,711.39 L 429.49,711.11 z"
   id="path3803" />
<path
   style="fill:#000000;stroke:none;stroke-width:0"
   d="M 435.88,711.79 L 435.7,711.47 C 436.62,711.47 437.3,710.47 437.3,709.11 C 437.3,707.97 436.79,707.25 435.98,707.25 C 435.01,707.25 434.35,708.21 434.35,709.62 C 434.35,710.82 434.83,711.47 435.7,711.47 L 435.7,711.47 L 435.88,711.79 C 434.43,711.79 433.42,710.77 433.42,709.28 C 433.42,707.88 434.31,706.92 435.59,706.92 C 437.13,706.92 438.22,707.99 438.22,709.48 C 438.22,710.83 437.25,711.79 435.88,711.79 z"
   id="path3805" />
<path
   style="fill:#000000;stroke:none;stroke-width:0"
   d="M 443.56,711.76 L 443.47,711.79 C 442.96,711.59 442.44,711.45 441.92,711.39 L 441.92,711.11 L 442.28,711.11 C 442.68,711.11 442.72,711.04 442.72,710.38 L 442.72,708.76 C 442.72,708.54 442.58,708.26 442.35,708.03 C 442.07,707.75 441.76,707.61 441.37,707.61 C 441.02,707.61 440.74,707.72 440.58,707.91 C 440.44,708.07 440.37,708.38 440.37,708.82 L 440.37,711.76 L 440.28,711.79 C 439.77,711.59 439.26,711.45 438.73,711.39 L 438.73,711.11 L 439.1,711.11 C 439.49,711.11 439.53,711.04 439.53,710.38 L 439.53,708.71 C 439.53,708.01 439.59,707.7 439.77,707.45 C 439.99,707.15 440.37,707 440.94,707 C 441.39,707 441.79,707.14 442.05,707.39 L 442.72,708.01 C 442.72,707.72 442.71,707.56 442.68,707.09 C 443.35,707.12 443.36,707.12 443.51,707.12 C 443.65,707.12 443.65,707.12 444.34,707.09 L 444.34,707.39 L 443.93,707.42 C 443.59,707.44 443.56,707.5 443.56,708.14 L 443.56,711.76 z"
   id="path3807" />
<path
   style="fill:#000000;stroke:none;stroke-width:0"
   d="M 448.64,707.09 L 448.67,707.09 L 448.7,707.1 L 448.72,707.1 L 448.75,707.1 L 448.77,707.1 L 448.8,707.1 L 448.82,707.1 L 448.84,707.1 L 448.86,707.1 L 448.88,707.1 L 448.9,707.11 L 448.92,707.11 L 448.94,707.11 L 448.96,707.11 L 448.98,707.11 L 449,707.11 L 449.01,707.11 L 449.03,707.11 L 449.06,707.11 L 449.09,707.11 L 449.11,707.11 L 449.13,707.12 L 449.16,707.12 L 449.18,707.12 L 449.2,707.12 L 449.22,707.12 L 449.23,707.12 L 449.25,707.12 L 449.26,707.12 L 449.28,707.12 L 449.29,707.12 L 449.32,707.12 L 449.34,707.12 L 449.37,707.12 L 449.38,707.12 L 449.4,707.12 L 449.41,707.12 L 449.43,707.12 C 449.57,707.12 449.57,707.12 450.25,707.09 L 450.25,707.39 L 449.85,707.42 C 449.51,707.44 449.48,707.5 449.48,708.14 L 449.48,710.06 C 449.48,711.23 448.93,711.79 447.81,711.79 C 447.44,711.79 447.23,711.72 447.03,711.55 L 446.27,710.89 L 446.27,711.76 L 446.18,711.79 C 445.67,711.59 445.15,711.45 444.62,711.39 L 444.62,711.11 L 444.99,711.11 C 445.39,711.11 445.43,711.04 445.43,710.38 L 445.43,708.14 C 445.43,707.51 445.4,707.44 445.06,707.42 L 444.61,707.39 L 444.61,707.09 C 445.29,707.11 445.56,707.12 445.85,707.12 C 446.14,707.12 446.41,707.11 447.09,707.09 L 447.09,707.39 L 446.64,707.42 C 446.3,707.44 446.27,707.51 446.27,708.14 L 446.27,710.25 C 446.27,710.7 446.93,711.19 447.53,711.19 C 448.2,711.19 448.64,710.69 448.64,709.92 L 448.64,707.09 z"
   id="path3809" />
<path
   style="fill:#000000;stroke:none;stroke-width:0"
   d="M 454.46,711.48 L 454.41,711.5 L 454.36,711.52 L 454.31,711.54 L 454.26,711.56 L 454.21,711.58 L 454.17,711.59 L 454.13,711.61 L 454.09,711.63 L 454.04,711.64 L 454,711.66 L 453.97,711.67 L 453.93,711.68 L 453.89,711.69 L 453.86,711.71 L 453.82,711.72 L 453.79,711.73 L 453.75,711.73 L 453.72,711.74 L 453.65,711.76 L 453.59,711.77 L 453.53,711.78 L 453.46,711.79 L 453.4,711.79 L 453.34,711.79 L 453.27,711.79 C 453,711.79 452.76,711.73 452.51,711.61 L 451.64,711.15 C 451.07,710.85 450.7,710.12 450.7,709.27 C 450.7,708.48 450.97,707.82 451.46,707.42 C 451.8,707.13 452.27,707 452.91,707 C 453.11,707 453.34,707.04 453.39,707.08 L 454.5,708.01 L 454.31,708.35 C 454.03,707.88 453.54,707.57 453.07,707.57 C 452.2,707.57 451.57,708.42 451.57,709.6 C 451.57,710.69 452.11,711.33 453,711.33 C 453.38,711.33 453.78,711.2 454.13,710.96 C 454.34,710.82 454.46,710.69 454.46,710.61 L 454.46,709.32 C 454.46,708.68 454.44,708.58 454.31,708.35 L 454.5,708.01 L 454.45,707.09 C 454.93,707.11 455.1,707.12 455.21,707.12 C 455.29,707.12 455.43,707.12 455.64,707.11 C 455.71,707.1 455.91,707.1 456.12,707.09 L 456.12,707.39 L 455.66,707.42 C 455.32,707.44 455.29,707.51 455.29,708.14 L 455.29,714.28 L 455.2,714.35 C 454.77,714.19 454.44,714.11 453.65,713.99 L 453.65,713.71 L 454.21,713.71 C 454.39,713.71 454.46,713.6 454.46,713.3 L 454.46,711.48 z"
   id="path3811" />
<path
   style="fill:#000000;stroke:none;stroke-width:0"
   d="M 458.31,711.76 L 458.22,711.79 C 457.71,711.59 457.19,711.45 456.66,711.39 L 456.66,711.11 L 457.03,711.11 C 457.43,711.11 457.47,711.04 457.47,710.38 L 457.47,708.14 C 457.47,707.51 457.44,707.44 457.1,707.42 L 456.64,707.39 L 456.64,707.09 C 457.64,707.12 457.64,707.12 457.89,707.12 C 458.14,707.12 458.14,707.12 459.14,707.09 L 459.14,707.39 L 458.68,707.42 C 458.34,707.44 458.31,707.51 458.31,708.14 L 458.31,711.76 z"
   id="path3813" />
<path
   style="fill:#000000;stroke:none;stroke-width:0"
   d="M 457.85,713.97 L 457.82,713.97 L 457.79,713.96 L 457.77,713.96 L 457.74,713.96 L 457.71,713.95 L 457.69,713.94 L 457.66,713.93 L 457.64,713.92 L 457.61,713.91 L 457.59,713.9 L 457.56,713.88 L 457.54,713.87 L 457.52,713.85 L 457.5,713.84 L 457.48,713.82 L 457.46,713.8 L 457.44,713.78 L 457.42,713.76 L 457.41,713.74 L 457.39,713.72 L 457.37,713.69 L 457.36,713.67 L 457.35,713.65 L 457.34,713.62 L 457.33,713.6 L 457.32,713.57 L 457.31,713.55 L 457.3,713.52 L 457.3,713.49 L 457.29,713.46 L 457.29,713.44 L 457.29,713.41 C 457.29,713.12 457.55,712.86 457.84,712.86 C 458.13,712.86 458.4,713.12 458.4,713.41 C 458.4,713.69 458.13,713.97 457.85,713.97 z"
   id="path3815" />
<path
   style="fill:#000000;stroke:none;stroke-width:0"
   d="M 463.42,707.09 L 463.45,707.09 L 463.48,707.1 L 463.5,707.1 L 463.53,707.1 L 463.55,707.1 L 463.58,707.1 L 463.6,707.1 L 463.62,707.1 L 463.65,707.1 L 463.67,707.1 L 463.69,707.11 L 463.71,707.11 L 463.72,707.11 L 463.74,707.11 L 463.76,707.11 L 463.78,707.11 L 463.79,707.11 L 463.81,707.11 L 463.84,707.11 L 463.87,707.11 L 463.89,707.11 L 463.92,707.12 L 463.94,707.12 L 463.96,707.12 L 463.98,707.12 L 464,707.12 L 464.02,707.12 L 464.03,707.12 L 464.05,707.12 L 464.06,707.12 L 464.07,707.12 L 464.1,707.12 L 464.13,707.12 L 464.15,707.12 L 464.17,707.12 L 464.18,707.12 L 464.19,707.12 L 464.21,707.12 C 464.35,707.12 464.35,707.12 465.04,707.09 L 465.04,707.39 L 464.63,707.42 C 464.29,707.44 464.26,707.5 464.26,708.14 L 464.26,710.06 C 464.26,711.23 463.71,711.79 462.6,711.79 C 462.23,711.79 462.02,711.72 461.81,711.55 L 461.05,710.89 L 461.05,711.76 L 460.96,711.79 C 460.45,711.59 459.93,711.45 459.41,711.39 L 459.41,711.11 L 459.78,711.11 C 460.17,711.11 460.21,711.04 460.21,710.38 L 460.21,708.14 C 460.21,707.51 460.18,707.44 459.85,707.42 L 459.4,707.39 L 459.4,707.09 C 460.08,707.11 460.34,707.12 460.63,707.12 C 460.92,707.12 461.19,707.11 461.87,707.09 L 461.87,707.39 L 461.42,707.42 C 461.08,707.44 461.05,707.51 461.05,708.14 L 461.05,710.25 C 461.05,710.7 461.71,711.19 462.32,711.19 C 462.98,711.19 463.42,710.69 463.42,709.92 L 463.42,707.09 z"
   id="path3817" />
<path
   style="fill:#000000;stroke:none;stroke-width:0"
   d="M 470.31,710.89 L 470.55,711.3 L 470.52,711.42 L 469.1,711.38 C 468.73,711.67 468.37,711.79 467.89,711.79 C 467.45,711.79 466.94,711.66 466.53,711.42 C 465.97,711.1 465.68,710.61 465.68,710 C 465.68,709.26 466.14,708.76 466.88,708.68 L 466.09,708.07 C 465.99,707.92 465.94,707.79 465.94,707.64 C 465.94,707.36 466.12,707.2 466.6,707.06 L 465.73,706.59 C 465.59,706.52 465.45,706.15 465.45,705.84 C 465.45,704.93 466.34,704.3 467.61,704.3 L 467.67,704.61 C 466.81,704.61 466.21,705.12 466.21,705.86 C 466.21,706.31 466.47,706.71 466.87,706.88 C 467.03,706.96 467.31,706.98 467.99,706.98 L 467.99,706.98 C 469.12,706.98 469.51,706.75 469.51,706.11 C 469.51,705.25 468.72,704.61 467.67,704.61 L 467.61,704.3 C 469.11,704.3 470.3,705.25 470.3,706.47 C 470.3,707.18 469.82,707.68 469.12,707.68 L 467.53,707.68 C 467.01,707.68 466.77,707.8 466.77,708.07 C 466.77,708.2 466.85,708.31 467.11,708.53 C 467.17,708.58 467.19,708.6 467.23,708.64 C 467.33,708.63 467.39,708.62 467.47,708.62 L 467.64,708.96 C 466.97,708.96 466.52,709.47 466.52,710.24 C 466.52,711.01 466.89,711.46 467.53,711.46 L 467.53,711.46 C 468.2,711.46 468.66,710.9 468.66,710.05 C 468.66,709.4 468.24,708.96 467.64,708.96 L 467.47,708.62 C 467.89,708.62 468.42,708.81 468.83,709.09 C 469.28,709.42 469.5,709.82 469.5,710.35 C 469.5,710.55 469.47,710.68 469.39,710.89 L 470.31,710.89 z"
   id="path3819" />
<path
   style="fill:#000000;stroke:none;stroke-width:0"
   d="M 471.08,708.55 L 471.08,708.48 L 471.08,708.42 L 471.08,708.36 L 471.08,708.31 L 471.08,708.25 L 471.07,708.2 L 471.07,708.15 L 471.07,708.1 L 471.07,708.05 L 471.07,708 L 471.07,707.96 L 471.06,707.91 L 471.06,707.87 L 471.06,707.83 L 471.06,707.79 L 471.05,707.75 L 471.05,707.67 L 471.04,707.59 L 471.03,707.52 L 471.02,707.45 L 471.01,707.38 L 471,707.31 L 470.98,707.24 L 470.97,707.16 C 471.49,706.99 471.88,706.92 472.33,706.92 C 473.64,706.92 474.57,707.62 474.57,708.6 C 474.57,708.91 474.48,709.14 474.29,709.33 C 474.03,709.58 473.7,709.7 472.82,709.87 C 472.01,710.03 471.74,710.23 471.74,710.69 C 471.74,711.19 472.08,711.47 472.69,711.47 C 473.36,711.47 473.87,711.12 473.87,710.65 L 473.87,710.42 L 474.15,710.42 C 474.16,711 474.17,711.24 474.2,711.55 C 473.67,711.72 473.31,711.79 472.9,711.79 C 471.75,711.79 471.04,711.25 471.04,710.35 C 471.04,709.87 471.26,709.53 471.72,709.32 C 471.98,709.21 472.51,709.04 473.19,708.9 C 473.64,708.8 473.83,708.59 473.83,708.21 C 473.83,707.67 473.33,707.29 472.62,707.29 C 471.89,707.29 471.38,707.64 471.38,708.14 L 471.38,708.55 L 471.08,708.55 z"
   id="path3821" />
</g>  <g
     ns0:preamble="/home/lenka/latex/disertace/lenka-thesis/textext-preamble.tex"
     ns0:text="Temperature - liquid, pipe"
     word-spacing="normal"
     letter-spacing="normal"
     font-size-adjust="none"
     font-stretch="normal"
     font-weight="normal"
     font-variant="normal"
     font-style="normal"
     fill-rule="even-odd"
     stroke-miterlimit="10.433"
     xml:space="preserve"
     transform="matrix(1.5,0,0,-1.5,-21.22285,1264)"
     id="content"
     style="font-style:normal;font-variant:normal;font-weight:normal;font-stretch:normal;letter-spacing:normal;word-spacing:normal;text-anchor:start;fill:none;fill-opacity:1;stroke:none;stroke-linecap:butt;stroke-linejoin:miter;stroke-miterlimit:10.43299961;stroke-dasharray:none;stroke-dashoffset:0;stroke-opacity:1">
<path
   id="path4140"
   d="M 225.97,713.53 L 225.98,713.47 L 225.98,713.41 L 225.99,713.35 L 225.99,713.29 L 226,713.23 L 226,713.18 L 226,713.12 L 226,713.06 L 226.01,713.01 L 226.01,712.95 L 226.01,712.89 L 226.01,712.82 L 226.01,712.79 L 226.01,712.75 L 226.01,712.72 L 226.01,712.68 L 226.01,712.65 L 226.01,712.61 L 226.01,712.57 L 226.01,712.53 L 226.01,708.32 C 226.01,707.53 225.96,707.45 225.51,707.42 L 225.03,707.39 L 225.03,707.09 C 225.61,707.11 225.96,707.12 226.48,707.12 C 227,707.12 227.36,707.11 227.95,707.09 L 227.95,707.39 L 227.47,707.42 C 227.01,707.45 226.96,707.53 226.96,708.32 L 226.96,712.53 C 226.96,712.98 226.97,713.2 227,713.53 L 228.54,713.53 C 228.82,713.53 228.93,713.44 228.94,713.2 L 228.98,712.41 L 229.29,712.41 C 229.29,713.06 229.31,713.45 229.36,714.02 C 228.64,714.01 228.31,714.01 228.04,714 C 227.65,713.99 227.36,713.99 227.21,713.99 L 225.63,713.99 C 225.54,713.99 225,714 224.29,714.01 L 223.61,714.02 C 223.66,713.45 223.68,713.06 223.68,712.41 L 223.99,712.41 L 224.03,713.2 C 224.04,713.44 224.15,713.53 224.43,713.53 L 225.97,713.53 z"
   style="fill:#000000;stroke:none;stroke-width:0" />
<path
   id="path4142"
   d="M 232.98,707.82 L 232.85,707.92 C 232.21,707.54 231.98,707.45 231.55,707.45 C 230.9,707.45 230.37,707.74 230.09,708.23 C 229.9,708.56 229.83,708.84 229.81,709.41 L 231.26,709.41 C 231.95,709.41 232.38,709.44 233.07,709.55 C 233.08,709.69 233.09,709.78 233.09,709.9 C 233.09,711.05 232.35,711.79 231.23,711.79 L 231.11,711.47 C 231.44,711.47 231.7,711.34 231.88,711.07 C 232.1,710.74 232.17,710.45 232.2,709.78 L 232.2,709.78 C 231.68,709.76 231.44,709.75 231.08,709.75 C 230.62,709.75 230.37,709.76 229.83,709.81 C 229.83,710.28 229.87,710.5 230,710.76 C 230.21,711.2 230.63,711.47 231.11,711.47 L 231.23,711.79 C 230.86,711.79 230.44,711.66 230.03,711.43 C 229.21,710.96 228.88,710.34 228.88,709.3 C 228.88,708.68 229.03,708.14 229.3,707.76 C 229.7,707.23 230.37,706.92 231.11,706.92 C 231.48,706.92 231.85,707 232.26,707.18 C 232.53,707.29 232.74,707.42 232.78,707.48 L 232.98,707.82 z"
   style="fill:#000000;stroke:none;stroke-width:0" />
<path
   id="path4144"
   d="M 233.57,711.11 L 233.94,711.11 C 234.34,711.11 234.38,711.04 234.38,710.38 L 234.38,708.14 C 234.38,707.51 234.35,707.44 234.01,707.42 L 233.55,707.39 L 233.55,707.09 C 234.51,707.12 234.54,707.12 234.82,707.12 C 235.1,707.12 235.35,707.11 236,707.09 L 236,707.39 L 235.58,707.42 C 235.25,707.44 235.22,707.51 235.22,708.14 L 235.22,710.25 C 235.22,710.7 235.87,711.19 236.47,711.19 C 237.01,711.19 237.38,710.68 237.38,709.92 L 237.38,708.14 C 237.38,707.51 237.35,707.44 237.01,707.42 L 236.55,707.39 L 236.55,707.09 C 237.55,707.12 237.55,707.12 237.8,707.12 C 238.04,707.12 238.04,707.12 239.04,707.09 L 239.04,707.39 L 238.58,707.42 C 238.24,707.44 238.21,707.51 238.21,708.14 L 238.21,710.25 C 238.21,710.7 238.87,711.19 239.47,711.19 C 240.01,711.19 240.38,710.68 240.38,709.92 L 240.38,707.09 C 240.98,707.12 240.99,707.12 241.16,707.12 C 241.29,707.12 241.29,707.12 242.05,707.09 L 242.05,707.39 L 241.58,707.42 C 241.24,707.44 241.21,707.51 241.21,708.14 L 241.21,710.19 C 241.21,711.18 240.63,711.79 239.72,711.79 C 239.37,711.79 239.08,711.71 238.9,711.55 L 238.15,710.87 C 237.83,711.53 237.42,711.79 236.73,711.79 C 236.36,711.79 236.08,711.71 235.9,711.55 L 235.22,710.91 L 235.22,711.76 L 235.13,711.79 C 234.62,711.59 234.1,711.45 233.57,711.39 L 233.57,711.11 z"
   style="fill:#000000;stroke:none;stroke-width:0" />
<path
   id="path4146"
   d="M 242.29,711.11 L 242.66,711.11 C 243.06,711.11 243.1,711.04 243.1,710.38 L 243.1,705.37 C 243.1,704.74 243.07,704.67 242.73,704.65 L 242.27,704.62 L 242.27,704.32 C 243.27,704.35 243.27,704.35 243.51,704.35 C 243.76,704.35 243.76,704.35 244.76,704.32 L 244.76,704.62 L 244.3,704.65 C 243.96,704.67 243.93,704.74 243.93,705.37 L 243.93,707.25 C 244.23,707.07 244.55,707 245,707 C 245.29,707 245.55,707.06 245.71,707.16 L 246.84,707.9 C 247.24,708.16 247.71,709.18 247.71,709.82 C 247.71,710.93 246.79,711.79 245.64,711.79 C 245.27,711.79 244.91,711.7 244.75,711.55 L 243.93,710.8 L 244.11,710.59 C 244.4,710.96 244.81,711.15 245.31,711.15 C 246.24,711.15 246.84,710.49 246.84,709.45 C 246.84,708.34 246.18,707.51 245.28,707.51 C 244.73,707.51 244.32,707.69 243.93,708.1 L 243.93,710.17 C 243.93,710.31 243.98,710.42 244.11,710.59 L 243.93,710.8 L 243.93,711.76 L 243.84,711.79 C 243.34,711.59 242.82,711.45 242.29,711.39 L 242.29,711.11 z"
   style="fill:#000000;stroke:none;stroke-width:0" />
<path
   id="path4148"
   d="M 252.54,707.82 L 252.41,707.92 C 251.77,707.54 251.54,707.45 251.11,707.45 C 250.46,707.45 249.93,707.74 249.65,708.23 C 249.46,708.56 249.39,708.84 249.37,709.41 L 250.82,709.41 C 251.51,709.41 251.94,709.44 252.63,709.55 C 252.64,709.69 252.65,709.78 252.65,709.9 C 252.65,711.05 251.91,711.79 250.79,711.79 L 250.67,711.47 C 251,711.47 251.26,711.34 251.44,711.07 C 251.66,710.74 251.73,710.45 251.76,709.78 L 251.76,709.78 C 251.24,709.76 251,709.75 250.64,709.75 C 250.18,709.75 249.93,709.76 249.39,709.81 C 249.39,710.28 249.43,710.5 249.56,710.76 C 249.77,711.2 250.2,711.47 250.67,711.47 L 250.79,711.79 C 250.42,711.79 250,711.66 249.59,711.43 C 248.77,710.96 248.44,710.34 248.44,709.3 C 248.44,708.68 248.59,708.14 248.86,707.76 C 249.26,707.23 249.93,706.92 250.67,706.92 C 251.04,706.92 251.41,707 251.82,707.18 C 252.09,707.29 252.3,707.42 252.34,707.48 L 252.54,707.82 z"
   style="fill:#000000;stroke:none;stroke-width:0" />
<path
   id="path4150"
   d="M 253.18,711.11 L 253.55,711.11 C 253.95,711.11 253.99,711.04 253.99,710.38 L 253.99,708.14 C 253.99,707.51 253.96,707.44 253.62,707.42 L 253.16,707.39 L 253.16,707.09 C 253.88,707.11 254.14,707.12 254.39,707.12 C 254.59,707.12 254.59,707.12 255.81,707.09 L 255.81,707.39 L 255.29,707.42 C 254.85,707.45 254.82,707.48 254.82,708.14 L 254.82,709.85 C 254.82,710.45 255.22,710.95 255.71,710.95 C 256.01,710.95 256.22,710.81 256.38,710.49 L 256.59,710.49 L 256.68,711.68 C 256.57,711.76 256.39,711.79 256.21,711.79 C 255.91,711.79 255.59,711.64 255.38,711.39 L 254.82,710.73 L 254.82,711.76 L 254.74,711.79 C 254.23,711.59 253.71,711.45 253.18,711.39 L 253.18,711.11 z"
   style="fill:#000000;stroke:none;stroke-width:0" />
<path
   id="path4152"
   d="M 260.12,707.94 L 260.07,707.09 C 260.72,707.12 260.72,707.12 260.85,707.12 C 260.89,707.12 261.14,707.11 261.58,707.09 L 261.58,707.39 L 261.19,707.41 C 260.95,707.42 260.92,707.5 260.92,707.99 L 260.92,709.81 C 260.92,711.27 260.5,711.79 259.34,711.79 C 258.91,711.79 258.51,711.68 258.14,711.46 L 257.61,711.14 L 257.61,710.49 L 257.87,710.42 L 258,710.73 C 258.2,711.2 258.3,711.27 258.76,711.27 C 259.7,711.27 260.09,710.9 260.12,709.99 L 260.12,709.67 L 260.12,708.36 C 259.83,707.95 259.2,707.57 258.81,707.57 C 258.41,707.57 258.07,707.94 258.07,708.37 C 258.07,708.74 258.27,709.09 258.56,709.27 C 258.81,709.42 259.36,709.56 260.12,709.67 L 260.12,709.99 L 259.13,709.81 C 257.78,709.56 257.21,709.09 257.21,708.23 C 257.21,707.45 257.68,707 258.46,707 C 258.64,707 258.81,707.03 258.88,707.08 L 260.12,707.94 z"
   style="fill:#000000;stroke:none;stroke-width:0" />
<path
   id="path4154"
   d="M 262.85,710.93 L 262.85,708.06 C 262.85,707.32 263.17,707 263.94,707 C 264.17,707 264.41,707.05 264.47,707.12 L 264.95,707.65 L 264.82,707.82 C 264.57,707.68 264.42,707.63 264.23,707.63 C 263.84,707.63 263.68,707.83 263.68,708.32 L 263.68,710.93 L 264.96,710.93 L 265.05,711.47 L 263.68,711.41 L 263.68,711.78 C 263.68,712.2 263.71,712.56 263.79,713.2 L 263.67,713.31 C 263.43,713.16 263.14,713.03 262.83,712.93 C 262.86,712.63 262.87,712.44 262.87,712.14 L 262.87,711.45 L 262.09,711.1 L 262.09,710.89 L 262.85,710.93 z"
   style="fill:#000000;stroke:none;stroke-width:0" />
<path
   id="path4156"
   d="M 270.13,711.76 L 270.04,711.79 C 269.53,711.59 269.01,711.45 268.48,711.39 L 268.48,711.11 L 268.85,711.11 C 269.25,711.11 269.29,711.04 269.29,710.38 L 269.29,708.76 C 269.29,708.54 269.15,708.26 268.92,708.03 C 268.64,707.75 268.33,707.61 267.94,707.61 C 267.59,707.61 267.31,707.72 267.15,707.91 C 267.01,708.07 266.94,708.38 266.94,708.82 L 266.94,711.76 L 266.85,711.79 C 266.34,711.59 265.83,711.45 265.3,711.39 L 265.3,711.11 L 265.67,711.11 C 266.06,711.11 266.1,711.04 266.1,710.38 L 266.1,708.71 C 266.1,708.01 266.16,707.7 266.34,707.45 C 266.56,707.15 266.94,707 267.51,707 C 267.96,707 268.36,707.14 268.62,707.39 L 269.29,708.01 C 269.29,707.72 269.28,707.56 269.25,707.09 C 269.92,707.12 269.93,707.12 270.08,707.12 C 270.22,707.12 270.22,707.12 270.91,707.09 L 270.91,707.39 L 270.5,707.42 C 270.16,707.44 270.13,707.5 270.13,708.14 L 270.13,711.76 z"
   style="fill:#000000;stroke:none;stroke-width:0" />
<path
   id="path4158"
   d="M 271.35,711.11 L 271.72,711.11 C 272.12,711.11 272.16,711.04 272.16,710.38 L 272.16,708.14 C 272.16,707.51 272.13,707.44 271.79,707.42 L 271.33,707.39 L 271.33,707.09 C 272.05,707.11 272.31,707.12 272.56,707.12 C 272.76,707.12 272.76,707.12 273.98,707.09 L 273.98,707.39 L 273.47,707.42 C 273.02,707.45 273,707.48 273,708.14 L 273,709.85 C 273,710.45 273.4,710.95 273.89,710.95 C 274.18,710.95 274.39,710.81 274.55,710.49 L 274.76,710.49 L 274.85,711.68 C 274.74,711.76 274.56,711.79 274.38,711.79 C 274.08,711.79 273.77,711.64 273.56,711.39 L 273,710.73 L 273,711.76 L 272.91,711.79 C 272.4,711.59 271.88,711.45 271.35,711.39 L 271.35,711.11 z"
   style="fill:#000000;stroke:none;stroke-width:0" />
<path
   id="path4160"
   d="M 279.36,707.82 L 279.23,707.92 C 278.6,707.54 278.37,707.45 277.94,707.45 C 277.29,707.45 276.75,707.74 276.48,708.23 C 276.29,708.56 276.21,708.84 276.2,709.41 L 277.65,709.41 C 278.34,709.41 278.77,709.44 279.45,709.55 C 279.46,709.69 279.47,709.78 279.47,709.9 C 279.47,711.05 278.74,711.79 277.62,711.79 L 277.5,711.47 C 277.83,711.47 278.09,711.34 278.27,711.07 C 278.49,710.74 278.56,710.45 278.59,709.78 L 278.59,709.78 C 278.07,709.76 277.83,709.75 277.47,709.75 C 277.01,709.75 276.75,709.76 276.21,709.81 C 276.21,710.28 276.26,710.5 276.39,710.76 C 276.59,711.2 277.02,711.47 277.5,711.47 L 277.62,711.79 C 277.25,711.79 276.82,711.66 276.42,711.43 C 275.6,710.96 275.27,710.34 275.27,709.3 C 275.27,708.68 275.42,708.14 275.69,707.76 C 276.09,707.23 276.75,706.92 277.5,706.92 C 277.87,706.92 278.24,707 278.65,707.18 C 278.92,707.29 279.12,707.42 279.16,707.48 L 279.36,707.82 z"
   style="fill:#000000;stroke:none;stroke-width:0" />
<polygon
   id="polygon4162"
   points="285.49,709.26 285.79,709.93 285.74,709.98 283.12,709.98 282.85,709.31 282.9,709.26 285.49,709.26 "
   style="fill:#000000;stroke:none;stroke-width:0" />
<path
   id="path4164"
   d="M 289.12,713.71 L 289.68,713.71 C 289.86,713.71 289.93,713.6 289.93,713.3 L 289.93,708.14 C 289.93,707.51 289.9,707.44 289.56,707.42 L 289.1,707.39 L 289.1,707.09 C 290.1,707.12 290.1,707.12 290.35,707.12 C 290.6,707.12 290.6,707.12 291.59,707.09 L 291.59,707.39 L 291.13,707.42 C 290.8,707.44 290.77,707.51 290.77,708.14 L 290.77,714.28 L 290.68,714.35 C 290.24,714.19 289.91,714.11 289.12,713.99 L 289.12,713.71 z"
   style="fill:#000000;stroke:none;stroke-width:0" />
<path
   id="path4166"
   d="M 293.67,711.76 L 293.58,711.79 C 293.07,711.59 292.55,711.45 292.02,711.39 L 292.02,711.11 L 292.39,711.11 C 292.79,711.11 292.83,711.04 292.83,710.38 L 292.83,708.14 C 292.83,707.51 292.8,707.44 292.46,707.42 L 292,707.39 L 292,707.09 C 293,707.12 293,707.12 293.25,707.12 C 293.5,707.12 293.5,707.12 294.49,707.09 L 294.49,707.39 L 294.04,707.42 C 293.7,707.44 293.67,707.51 293.67,708.14 L 293.67,711.76 z"
   style="fill:#000000;stroke:none;stroke-width:0" />
<path
   id="path4168"
   d="M 293.21,713.97 L 293.18,713.97 L 293.15,713.96 L 293.13,713.96 L 293.1,713.96 L 293.07,713.95 L 293.05,713.94 L 293.02,713.93 L 293,713.92 L 292.97,713.91 L 292.95,713.9 L 292.92,713.88 L 292.9,713.87 L 292.88,713.85 L 292.86,713.84 L 292.84,713.82 L 292.82,713.8 L 292.8,713.78 L 292.78,713.76 L 292.77,713.74 L 292.75,713.72 L 292.73,713.69 L 292.72,713.67 L 292.71,713.65 L 292.7,713.62 L 292.69,713.6 L 292.68,713.57 L 292.67,713.55 L 292.66,713.52 L 292.66,713.49 L 292.65,713.46 L 292.65,713.44 L 292.65,713.41 C 292.65,713.12 292.91,712.86 293.2,712.86 C 293.49,712.86 293.76,713.12 293.76,713.41 C 293.76,713.69 293.49,713.97 293.21,713.97 z"
   style="fill:#000000;stroke:none;stroke-width:0" />
<path
   id="path4170"
   d="M 298.61,707.78 L 298.61,705.37 C 298.61,704.74 298.57,704.67 298.24,704.65 L 297.67,704.62 L 297.67,704.32 C 298.82,704.35 298.82,704.35 299.05,704.35 C 299.29,704.35 299.57,704.34 300.28,704.32 L 300.28,704.62 L 299.82,704.65 C 299.48,704.67 299.45,704.74 299.45,705.37 L 299.45,710.29 C 299.45,710.91 299.51,711.29 299.68,711.66 L 299.49,711.78 L 299,711.47 C 298.49,711.7 298.07,711.79 297.64,711.79 C 297.35,711.79 297,711.72 296.85,711.63 L 296.01,711.09 C 295.38,710.68 295.05,710.02 295.05,709.16 C 295.05,707.85 295.83,707 297.07,707 C 297.28,707 297.45,707.04 297.58,707.12 L 297.4,707.57 C 296.52,707.57 295.91,708.39 295.91,709.59 C 295.91,710.69 296.47,711.33 297.43,711.33 C 297.92,711.33 298.26,711.21 298.61,710.92 L 298.61,708.32 C 298.61,708.18 298.37,707.92 298.11,707.77 C 297.87,707.64 297.64,707.57 297.4,707.57 L 297.58,707.12 L 298.61,707.78 z"
   style="fill:#000000;stroke:none;stroke-width:0" />
<path
   id="path4172"
   d="M 305.28,711.76 L 305.19,711.79 C 304.68,711.59 304.17,711.45 303.64,711.39 L 303.64,711.11 L 304.01,711.11 C 304.4,711.11 304.44,711.04 304.44,710.38 L 304.44,708.76 C 304.44,708.54 304.3,708.26 304.08,708.03 C 303.8,707.75 303.48,707.61 303.09,707.61 C 302.74,707.61 302.46,707.72 302.3,707.91 C 302.16,708.07 302.09,708.38 302.09,708.82 L 302.09,711.76 L 302,711.79 C 301.49,711.59 300.98,711.45 300.45,711.39 L 300.45,711.11 L 300.82,711.11 C 301.22,711.11 301.26,711.04 301.26,710.38 L 301.26,708.71 C 301.26,708.01 301.32,707.7 301.49,707.45 C 301.71,707.15 302.09,707 302.66,707 C 303.11,707 303.51,707.14 303.78,707.39 L 304.44,708.01 C 304.44,707.72 304.43,707.56 304.4,707.09 C 305.07,707.12 305.08,707.12 305.23,707.12 C 305.37,707.12 305.37,707.12 306.06,707.09 L 306.06,707.39 L 305.65,707.42 C 305.31,707.44 305.28,707.5 305.28,708.14 L 305.28,711.76 z"
   style="fill:#000000;stroke:none;stroke-width:0" />
<path
   id="path4174"
   d="M 308.15,711.76 L 308.06,711.79 C 307.55,711.59 307.04,711.45 306.51,711.39 L 306.51,711.11 L 306.88,711.11 C 307.27,711.11 307.31,711.04 307.31,710.38 L 307.31,708.14 C 307.31,707.51 307.28,707.44 306.95,707.42 L 306.49,707.39 L 306.49,707.09 C 307.48,707.12 307.48,707.12 307.73,707.12 C 307.98,707.12 307.98,707.12 308.98,707.09 L 308.98,707.39 L 308.52,707.42 C 308.18,707.44 308.15,707.51 308.15,708.14 L 308.15,711.76 z"
   style="fill:#000000;stroke:none;stroke-width:0" />
<path
   id="path4176"
   d="M 307.69,713.97 L 307.66,713.97 L 307.64,713.96 L 307.61,713.96 L 307.58,713.96 L 307.56,713.95 L 307.53,713.94 L 307.5,713.93 L 307.48,713.92 L 307.45,713.91 L 307.43,713.9 L 307.41,713.88 L 307.38,713.87 L 307.36,713.85 L 307.34,713.84 L 307.32,713.82 L 307.3,713.8 L 307.28,713.78 L 307.26,713.76 L 307.25,713.74 L 307.23,713.72 L 307.22,713.69 L 307.2,713.67 L 307.19,713.65 L 307.18,713.62 L 307.17,713.6 L 307.16,713.57 L 307.15,713.55 L 307.15,713.52 L 307.14,713.49 L 307.14,713.46 L 307.13,713.44 L 307.13,713.41 C 307.13,713.12 307.39,712.86 307.68,712.86 C 307.97,712.86 308.24,713.12 308.24,713.41 C 308.24,713.69 307.97,713.97 307.69,713.97 z"
   style="fill:#000000;stroke:none;stroke-width:0" />
<path
   id="path4178"
   d="M 313.29,711.48 L 313.23,711.5 L 313.18,711.52 L 313.14,711.54 L 313.09,711.56 L 313.04,711.58 L 313,711.59 L 312.96,711.61 L 312.91,711.63 L 312.87,711.64 L 312.83,711.66 L 312.79,711.67 L 312.76,711.68 L 312.72,711.69 L 312.68,711.71 L 312.65,711.72 L 312.61,711.73 L 312.58,711.73 L 312.55,711.74 L 312.48,711.76 L 312.42,711.77 L 312.35,711.78 L 312.29,711.79 L 312.23,711.79 L 312.16,711.79 L 312.1,711.79 C 311.83,711.79 311.59,711.73 311.34,711.61 L 310.46,711.15 C 309.9,710.85 309.53,710.12 309.53,709.27 C 309.53,708.48 309.8,707.82 310.29,707.42 C 310.62,707.13 311.09,707 311.74,707 C 311.94,707 312.17,707.04 312.22,707.08 L 313.32,708.01 L 313.14,708.35 C 312.86,707.88 312.37,707.57 311.9,707.57 C 311.02,707.57 310.39,708.42 310.39,709.6 C 310.39,710.69 310.93,711.33 311.83,711.33 C 312.21,711.33 312.61,711.2 312.96,710.96 C 313.17,710.82 313.29,710.69 313.29,710.61 L 313.29,709.32 C 313.29,708.68 313.27,708.58 313.14,708.35 L 313.32,708.01 L 313.27,707.09 C 313.76,707.11 313.92,707.12 314.04,707.12 C 314.12,707.12 314.26,707.12 314.47,707.11 C 314.54,707.1 314.74,707.1 314.95,707.09 L 314.95,707.39 L 314.49,707.42 C 314.15,707.44 314.12,707.51 314.12,708.14 L 314.12,714.28 L 314.03,714.35 C 313.59,714.19 313.27,714.11 312.48,713.99 L 312.48,713.71 L 313.04,713.71 C 313.21,713.71 313.29,713.6 313.29,713.3 L 313.29,711.48 z"
   style="fill:#000000;stroke:none;stroke-width:0" />
<path
   id="path4180"
   d="M 317.3,708.35 L 317.25,708.33 L 317.2,708.32 L 317.16,708.3 L 317.11,708.28 L 317.06,708.27 L 317.01,708.25 L 316.96,708.24 L 316.94,708.23 L 316.91,708.22 L 316.88,708.21 L 316.86,708.2 L 316.83,708.19 L 316.8,708.19 L 316.76,708.18 L 316.73,708.17 L 316.7,708.16 L 316.66,708.15 L 316.63,708.14 L 316.59,708.12 L 316.55,708.11 L 316.51,708.1 L 316.47,708.09 L 316.42,708.08 L 316.37,708.06 L 316.33,708.05 C 316.26,707.29 316.01,706.64 315.43,705.69 L 315.57,705.58 L 315.98,705.77 C 316.78,706.81 317.16,707.44 317.44,708.21 L 317.3,708.35 z"
   style="fill:#000000;stroke:none;stroke-width:0" />
<path
   id="path4182"
   d="M 320.76,711.11 L 321.12,711.11 C 321.52,711.11 321.56,711.04 321.56,710.38 L 321.56,705.37 C 321.56,704.74 321.53,704.67 321.19,704.65 L 320.73,704.62 L 320.73,704.32 C 321.73,704.35 321.73,704.35 321.98,704.35 C 322.23,704.35 322.23,704.35 323.23,704.32 L 323.23,704.62 L 322.77,704.65 C 322.43,704.67 322.4,704.74 322.4,705.37 L 322.4,707.25 C 322.7,707.07 323.02,707 323.46,707 C 323.75,707 324.01,707.06 324.17,707.16 L 325.31,707.9 C 325.71,708.16 326.17,709.18 326.17,709.82 C 326.17,710.93 325.26,711.79 324.1,711.79 C 323.73,711.79 323.38,711.7 323.21,711.55 L 322.4,710.8 L 322.58,710.59 C 322.87,710.96 323.27,711.15 323.77,711.15 C 324.71,711.15 325.31,710.49 325.31,709.45 C 325.31,708.34 324.64,707.51 323.74,707.51 C 323.2,707.51 322.79,707.69 322.4,708.1 L 322.4,710.17 C 322.4,710.31 322.45,710.42 322.58,710.59 L 322.4,710.8 L 322.4,711.76 L 322.31,711.79 C 321.8,711.59 321.28,711.45 320.76,711.39 L 320.76,711.11 z"
   style="fill:#000000;stroke:none;stroke-width:0" />
<path
   id="path4184"
   d="M 328.52,711.76 L 328.43,711.79 C 327.92,711.59 327.4,711.45 326.88,711.39 L 326.88,711.11 L 327.24,711.11 C 327.64,711.11 327.68,711.04 327.68,710.38 L 327.68,708.14 C 327.68,707.51 327.65,707.44 327.32,707.42 L 326.86,707.39 L 326.86,707.09 C 327.85,707.12 327.85,707.12 328.1,707.12 C 328.35,707.12 328.35,707.12 329.35,707.09 L 329.35,707.39 L 328.89,707.42 C 328.55,707.44 328.52,707.51 328.52,708.14 L 328.52,711.76 z"
   style="fill:#000000;stroke:none;stroke-width:0" />
<path
   id="path4186"
   d="M 328.06,713.97 L 328.03,713.97 L 328.01,713.96 L 327.98,713.96 L 327.95,713.96 L 327.93,713.95 L 327.9,713.94 L 327.87,713.93 L 327.85,713.92 L 327.82,713.91 L 327.8,713.9 L 327.78,713.88 L 327.75,713.87 L 327.73,713.85 L 327.71,713.84 L 327.69,713.82 L 327.67,713.8 L 327.65,713.78 L 327.63,713.76 L 327.62,713.74 L 327.6,713.72 L 327.59,713.69 L 327.57,713.67 L 327.56,713.65 L 327.55,713.62 L 327.54,713.6 L 327.53,713.57 L 327.52,713.55 L 327.52,713.52 L 327.51,713.49 L 327.51,713.46 L 327.5,713.44 L 327.5,713.41 C 327.5,713.12 327.76,712.86 328.05,712.86 C 328.34,712.86 328.61,713.12 328.61,713.41 C 328.61,713.69 328.34,713.97 328.06,713.97 z"
   style="fill:#000000;stroke:none;stroke-width:0" />
<path
   id="path4188"
   d="M 329.64,711.11 L 330.01,711.11 C 330.41,711.11 330.45,711.04 330.45,710.38 L 330.45,705.37 C 330.45,704.74 330.42,704.67 330.08,704.65 L 329.62,704.62 L 329.62,704.32 C 330.62,704.35 330.62,704.35 330.87,704.35 C 331.12,704.35 331.12,704.35 332.11,704.32 L 332.11,704.62 L 331.65,704.65 C 331.32,704.67 331.29,704.74 331.29,705.37 L 331.29,707.25 C 331.58,707.07 331.9,707 332.35,707 C 332.64,707 332.9,707.06 333.06,707.16 L 334.2,707.9 C 334.59,708.16 335.06,709.18 335.06,709.82 C 335.06,710.93 334.14,711.79 332.99,711.79 C 332.62,711.79 332.26,711.7 332.1,711.55 L 331.29,710.8 L 331.46,710.59 C 331.75,710.96 332.16,711.15 332.66,711.15 C 333.6,711.15 334.2,710.49 334.2,709.45 C 334.2,708.34 333.53,707.51 332.63,707.51 C 332.08,707.51 331.67,707.69 331.29,708.1 L 331.29,710.17 C 331.29,710.31 331.34,710.42 331.46,710.59 L 331.29,710.8 L 331.29,711.76 L 331.2,711.79 C 330.69,711.59 330.17,711.45 329.64,711.39 L 329.64,711.11 z"
   style="fill:#000000;stroke:none;stroke-width:0" />
<path
   id="path4190"
   d="M 339.88,707.82 L 339.75,707.92 C 339.11,707.54 338.89,707.45 338.46,707.45 C 337.81,707.45 337.27,707.74 336.99,708.23 C 336.8,708.56 336.73,708.84 336.71,709.41 L 338.17,709.41 C 338.86,709.41 339.28,709.44 339.97,709.55 C 339.98,709.69 339.99,709.78 339.99,709.9 C 339.99,711.05 339.25,711.79 338.14,711.79 L 338.02,711.47 C 338.35,711.47 338.61,711.34 338.79,711.07 C 339,710.74 339.07,710.45 339.1,709.78 L 339.1,709.78 C 338.59,709.76 338.35,709.75 337.99,709.75 C 337.53,709.75 337.27,709.76 336.73,709.81 C 336.73,710.28 336.77,710.5 336.9,710.76 C 337.11,711.2 337.54,711.47 338.02,711.47 L 338.14,711.79 C 337.77,711.79 337.34,711.66 336.93,711.43 C 336.11,710.96 335.79,710.34 335.79,709.3 C 335.79,708.68 335.94,708.14 336.2,707.76 C 336.6,707.23 337.27,706.92 338.02,706.92 C 338.39,706.92 338.76,707 339.16,707.18 C 339.43,707.29 339.64,707.42 339.68,707.48 L 339.88,707.82 z"
   style="fill:#000000;stroke:none;stroke-width:0" />
</g>  <g
     ns0:preamble="/home/lenka/latex/disertace/lenka-thesis/textext-preamble.tex"
     ns0:text="Flow - liquid"
     word-spacing="normal"
     letter-spacing="normal"
     font-size-adjust="none"
     font-stretch="normal"
     font-weight="normal"
     font-variant="normal"
     font-style="normal"
     fill-rule="even-odd"
     stroke-miterlimit="10.433"
     xml:space="preserve"
     transform="matrix(1.5,0,0,-1.5,23.34965,1402.4286)"
     id="g4680"
     style="font-style:normal;font-variant:normal;font-weight:normal;font-stretch:normal;letter-spacing:normal;word-spacing:normal;text-anchor:start;fill:none;fill-opacity:1;stroke:none;stroke-linecap:butt;stroke-linejoin:miter;stroke-miterlimit:10.43299961;stroke-dasharray:none;stroke-dashoffset:0;stroke-opacity:1">
<path
   id="path4682"
   d="M 225.58,710.38 L 225.64,710.38 L 225.69,710.39 L 225.74,710.39 L 225.8,710.39 L 225.86,710.4 L 225.91,710.4 L 225.97,710.4 L 226.03,710.4 L 226.1,710.4 L 226.16,710.41 L 226.23,710.41 L 226.3,710.41 L 226.37,710.41 L 226.41,710.41 L 226.45,710.41 L 226.49,710.41 L 226.53,710.41 L 226.57,710.41 L 226.61,710.41 C 227.35,710.41 227.62,710.38 227.8,710.29 L 227.88,710.04 L 227.93,709.45 L 228.23,709.45 C 228.2,710.38 228.2,710.38 228.2,710.56 C 228.2,710.72 228.2,710.72 228.23,711.72 L 227.93,711.72 L 227.88,711.2 C 227.87,711.11 227.84,711.02 227.8,710.94 C 227.62,710.86 227.34,710.83 226.68,710.83 C 226.26,710.83 225.92,710.84 225.58,710.86 L 225.58,713.52 C 225.88,713.59 226.06,713.6 226.65,713.6 C 227.13,713.6 227.69,713.54 227.99,713.46 C 228.23,713.4 228.26,713.35 228.26,713.12 L 228.26,712.47 L 228.61,712.47 C 228.61,713.07 228.66,713.55 228.77,713.99 C 228.28,714.01 227.99,714.02 227.56,714.02 L 226.49,714.01 C 226,713.99 225.65,713.99 225.4,713.99 C 225.12,713.99 225.12,713.99 223.65,714.02 L 223.65,713.72 L 224.13,713.69 C 224.59,713.66 224.64,713.58 224.64,712.79 L 224.64,708.32 C 224.64,707.53 224.59,707.45 224.13,707.42 L 223.65,707.39 L 223.65,707.09 C 224.24,707.11 224.59,707.12 225.11,707.12 C 225.62,707.12 225.98,707.11 226.57,707.09 L 226.57,707.39 L 226.09,707.42 C 225.63,707.45 225.58,707.53 225.58,708.32 L 225.58,710.38 z"
   style="fill:#000000;stroke:none;stroke-width:0" />
<path
   id="path4684"
   d="M 229.2,713.71 L 229.76,713.71 C 229.93,713.71 230,713.6 230,713.3 L 230,708.14 C 230,707.51 229.97,707.44 229.63,707.42 L 229.18,707.39 L 229.18,707.09 C 230.17,707.12 230.17,707.12 230.42,707.12 C 230.67,707.12 230.67,707.12 231.67,707.09 L 231.67,707.39 L 231.21,707.42 C 230.87,707.44 230.84,707.51 230.84,708.14 L 230.84,714.28 L 230.75,714.35 C 230.31,714.19 229.98,714.11 229.2,713.99 L 229.2,713.71 z"
   style="fill:#000000;stroke:none;stroke-width:0" />
<path
   id="path4686"
   d="M 234.65,711.79 L 234.47,711.47 C 235.39,711.47 236.06,710.47 236.06,709.11 C 236.06,707.97 235.56,707.25 234.75,707.25 C 233.77,707.25 233.12,708.21 233.12,709.62 C 233.12,710.82 233.59,711.47 234.47,711.47 L 234.47,711.47 L 234.65,711.79 C 233.2,711.79 232.19,710.77 232.19,709.28 C 232.19,707.88 233.07,706.92 234.36,706.92 C 235.9,706.92 236.99,707.99 236.99,709.48 C 236.99,710.83 236.01,711.79 234.65,711.79 z"
   style="fill:#000000;stroke:none;stroke-width:0" />
<path
   id="path4688"
   d="M 241.15,711.79 L 241.08,711.62 L 241.01,711.46 L 240.94,711.3 L 240.87,711.15 L 240.81,711.01 L 240.76,710.87 L 240.7,710.74 L 240.65,710.62 L 240.6,710.5 L 240.55,710.39 L 240.5,710.28 L 240.45,710.18 L 240.41,710.07 L 240.37,709.98 L 240.29,709.79 L 240.21,709.6 L 240.13,709.42 L 240.04,709.24 L 239.96,709.05 L 239.92,708.95 L 239.87,708.85 L 239.83,708.75 L 239.78,708.64 L 239.73,708.53 L 239.68,708.41 L 239.62,708.29 L 239.57,708.16 L 238.73,710.91 C 238.7,711 238.69,711.08 238.69,711.16 C 238.69,711.31 238.82,711.39 239.07,711.4 L 239.47,711.42 L 239.47,711.7 C 238.48,711.66 238.48,711.66 238.28,711.66 C 238.08,711.66 238.08,711.66 237.1,711.7 L 237.1,711.42 L 237.38,711.4 C 237.65,711.38 237.79,711.18 238.03,710.4 L 239.05,707.05 L 239.52,707.05 L 240.49,709.34 C 240.54,709.46 240.65,709.7 240.81,710.04 L 241.01,710.46 L 242.37,707.05 L 242.83,707.05 C 242.9,707.26 242.98,707.49 243.05,707.71 C 243.25,708.3 243.47,708.92 243.51,708.98 L 244.19,710.53 C 244.49,711.2 244.61,711.37 244.83,711.4 L 245.09,711.42 L 245.09,711.7 C 244.27,711.66 244.27,711.66 244.11,711.66 C 243.95,711.66 243.95,711.66 243.13,711.7 L 243.13,711.42 L 243.47,711.4 C 243.72,711.39 243.86,711.27 243.86,711.09 C 243.86,710.98 243.84,710.86 243.79,710.73 L 243.29,709.33 C 243.21,709.11 243.13,708.92 242.82,708.1 L 241.67,710.99 C 241.53,711.33 241.46,711.53 241.38,711.79 L 241.15,711.79 z"
   style="fill:#000000;stroke:none;stroke-width:0" />
<polygon
   id="polygon4690"
   points="251.06,709.26 251.36,709.93 251.31,709.98 248.69,709.98 248.42,709.31 248.47,709.26 251.06,709.26 "
   style="fill:#000000;stroke:none;stroke-width:0" />
<path
   id="path4692"
   d="M 254.7,713.71 L 255.26,713.71 C 255.43,713.71 255.5,713.6 255.5,713.3 L 255.5,708.14 C 255.5,707.51 255.47,707.44 255.13,707.42 L 254.68,707.39 L 254.68,707.09 C 255.67,707.12 255.67,707.12 255.92,707.12 C 256.17,707.12 256.17,707.12 257.17,707.09 L 257.17,707.39 L 256.71,707.42 C 256.37,707.44 256.34,707.51 256.34,708.14 L 256.34,714.28 L 256.25,714.35 C 255.81,714.19 255.48,714.11 254.7,713.99 L 254.7,713.71 z"
   style="fill:#000000;stroke:none;stroke-width:0" />
<path
   id="path4694"
   d="M 259.23,711.76 L 259.15,711.79 C 258.64,711.59 258.12,711.45 257.59,711.39 L 257.59,711.11 L 257.96,711.11 C 258.36,711.11 258.4,711.04 258.4,710.38 L 258.4,708.14 C 258.4,707.51 258.37,707.44 258.03,707.42 L 257.57,707.39 L 257.57,707.09 C 258.57,707.12 258.57,707.12 258.82,707.12 C 259.07,707.12 259.07,707.12 260.06,707.09 L 260.06,707.39 L 259.6,707.42 C 259.27,707.44 259.23,707.51 259.23,708.14 L 259.23,711.76 z"
   style="fill:#000000;stroke:none;stroke-width:0" />
<path
   id="path4696"
   d="M 258.78,713.97 L 258.75,713.97 L 258.72,713.96 L 258.69,713.96 L 258.67,713.96 L 258.64,713.95 L 258.61,713.94 L 258.59,713.93 L 258.56,713.92 L 258.54,713.91 L 258.52,713.9 L 258.49,713.88 L 258.47,713.87 L 258.45,713.85 L 258.43,713.84 L 258.41,713.82 L 258.39,713.8 L 258.37,713.78 L 258.35,713.76 L 258.33,713.74 L 258.32,713.72 L 258.3,713.69 L 258.29,713.67 L 258.28,713.65 L 258.26,713.62 L 258.25,713.6 L 258.24,713.57 L 258.24,713.55 L 258.23,713.52 L 258.23,713.49 L 258.22,713.46 L 258.22,713.44 L 258.22,713.41 C 258.22,713.12 258.48,712.86 258.77,712.86 C 259.06,712.86 259.33,713.12 259.33,713.41 C 259.33,713.69 259.06,713.97 258.78,713.97 z"
   style="fill:#000000;stroke:none;stroke-width:0" />
<path
   id="path4698"
   d="M 264.18,707.78 L 264.18,705.37 C 264.18,704.74 264.14,704.67 263.81,704.65 L 263.23,704.62 L 263.23,704.32 C 264.39,704.35 264.39,704.35 264.62,704.35 C 264.86,704.35 265.14,704.34 265.84,704.32 L 265.84,704.62 L 265.39,704.65 C 265.05,704.67 265.02,704.74 265.02,705.37 L 265.02,710.29 C 265.02,710.91 265.08,711.29 265.25,711.66 L 265.06,711.78 L 264.57,711.47 C 264.06,711.7 263.63,711.79 263.2,711.79 C 262.92,711.79 262.57,711.72 262.42,711.63 L 261.58,711.09 C 260.94,710.68 260.61,710.02 260.61,709.16 C 260.61,707.85 261.4,707 262.64,707 C 262.85,707 263.02,707.04 263.14,707.12 L 262.96,707.57 C 262.09,707.57 261.48,708.39 261.48,709.59 C 261.48,710.69 262.04,711.33 262.99,711.33 C 263.48,711.33 263.83,711.21 264.18,710.92 L 264.18,708.32 C 264.18,708.18 263.94,707.92 263.67,707.77 C 263.43,707.64 263.2,707.57 262.96,707.57 L 263.14,707.12 L 264.18,707.78 z"
   style="fill:#000000;stroke:none;stroke-width:0" />
<path
   id="path4700"
   d="M 270.86,711.76 L 270.77,711.79 C 270.26,711.59 269.74,711.45 269.21,711.39 L 269.21,711.11 L 269.58,711.11 C 269.98,711.11 270.02,711.04 270.02,710.38 L 270.02,708.76 C 270.02,708.54 269.88,708.26 269.65,708.03 C 269.37,707.75 269.05,707.61 268.66,707.61 C 268.32,707.61 268.04,707.72 267.88,707.91 C 267.74,708.07 267.67,708.38 267.67,708.82 L 267.67,711.76 L 267.58,711.79 C 267.07,711.59 266.55,711.45 266.02,711.39 L 266.02,711.11 L 266.39,711.11 C 266.79,711.11 266.83,711.04 266.83,710.38 L 266.83,708.71 C 266.83,708.01 266.89,707.7 267.07,707.45 C 267.29,707.15 267.67,707 268.24,707 C 268.68,707 269.08,707.14 269.35,707.39 L 270.02,708.01 C 270.02,707.72 270.01,707.56 269.98,707.09 C 270.65,707.12 270.66,707.12 270.81,707.12 C 270.95,707.12 270.95,707.12 271.63,707.09 L 271.63,707.39 L 271.23,707.42 C 270.89,707.44 270.86,707.5 270.86,708.14 L 270.86,711.76 z"
   style="fill:#000000;stroke:none;stroke-width:0" />
<path
   id="path4702"
   d="M 273.73,711.76 L 273.64,711.79 C 273.13,711.59 272.61,711.45 272.08,711.39 L 272.08,711.11 L 272.45,711.11 C 272.85,711.11 272.89,711.04 272.89,710.38 L 272.89,708.14 C 272.89,707.51 272.86,707.44 272.52,707.42 L 272.06,707.39 L 272.06,707.09 C 273.06,707.12 273.06,707.12 273.31,707.12 C 273.56,707.12 273.56,707.12 274.55,707.09 L 274.55,707.39 L 274.09,707.42 C 273.76,707.44 273.73,707.51 273.73,708.14 L 273.73,711.76 z"
   style="fill:#000000;stroke:none;stroke-width:0" />
<path
   id="path4704"
   d="M 273.27,713.97 L 273.24,713.97 L 273.21,713.96 L 273.18,713.96 L 273.16,713.96 L 273.13,713.95 L 273.1,713.94 L 273.08,713.93 L 273.05,713.92 L 273.03,713.91 L 273.01,713.9 L 272.98,713.88 L 272.96,713.87 L 272.94,713.85 L 272.92,713.84 L 272.9,713.82 L 272.88,713.8 L 272.86,713.78 L 272.84,713.76 L 272.82,713.74 L 272.81,713.72 L 272.79,713.69 L 272.78,713.67 L 272.77,713.65 L 272.75,713.62 L 272.74,713.6 L 272.73,713.57 L 272.73,713.55 L 272.72,713.52 L 272.72,713.49 L 272.71,713.46 L 272.71,713.44 L 272.71,713.41 C 272.71,713.12 272.97,712.86 273.26,712.86 C 273.55,712.86 273.82,713.12 273.82,713.41 C 273.82,713.69 273.55,713.97 273.27,713.97 z"
   style="fill:#000000;stroke:none;stroke-width:0" />
<path
   id="path4706"
   d="M 278.85,711.48 L 278.8,711.5 L 278.75,711.52 L 278.7,711.54 L 278.66,711.56 L 278.61,711.58 L 278.57,711.59 L 278.52,711.61 L 278.48,711.63 L 278.44,711.64 L 278.4,711.66 L 278.36,711.67 L 278.32,711.68 L 278.29,711.69 L 278.25,711.71 L 278.22,711.72 L 278.18,711.73 L 278.15,711.73 L 278.11,711.74 L 278.05,711.76 L 277.98,711.77 L 277.92,711.78 L 277.86,711.79 L 277.79,711.79 L 277.73,711.79 L 277.67,711.79 C 277.4,711.79 277.16,711.73 276.91,711.61 L 276.03,711.15 C 275.46,710.85 275.1,710.12 275.1,709.27 C 275.1,708.48 275.36,707.82 275.85,707.42 C 276.19,707.13 276.66,707 277.31,707 C 277.51,707 277.74,707.04 277.79,707.08 L 278.89,708.01 L 278.7,708.35 C 278.42,707.88 277.94,707.57 277.47,707.57 C 276.59,707.57 275.96,708.42 275.96,709.6 C 275.96,710.69 276.5,711.33 277.4,711.33 C 277.78,711.33 278.17,711.2 278.52,710.96 C 278.73,710.82 278.85,710.69 278.85,710.61 L 278.85,709.32 C 278.85,708.68 278.83,708.58 278.7,708.35 L 278.89,708.01 L 278.84,707.09 C 279.33,707.11 279.49,707.12 279.61,707.12 C 279.69,707.12 279.83,707.12 280.04,707.11 C 280.11,707.1 280.31,707.1 280.52,707.09 L 280.52,707.39 L 280.06,707.42 C 279.72,707.44 279.69,707.51 279.69,708.14 L 279.69,714.28 L 279.6,714.35 C 279.16,714.19 278.83,714.11 278.05,713.99 L 278.05,713.71 L 278.6,713.71 C 278.78,713.71 278.85,713.6 278.85,713.3 L 278.85,711.48 z"
   style="fill:#000000;stroke:none;stroke-width:0" />
</g></svg>
